<?xml version="1.0" encoding="UTF-8"?>
<svg width="89px" height="18px" viewBox="0 0 89 18" version="1.1" xmlns="http://www.w3.org/2000/svg" xmlns:xlink="http://www.w3.org/1999/xlink">
    <!-- Generator: Sketch 47 (45396) - http://www.bohemiancoding.com/sketch -->
    <title>amplifyn-logo</title>
    <desc>Created with Sketch.</desc>
    <defs>
        <linearGradient x1="100%" y1="100%" x2="37.0154528%" y2="37.1633758%" id="linearGradient-1">
            <stop stop-color="#FEA354" offset="0%"></stop>
            <stop stop-color="#FF1E52" offset="100%"></stop>
        </linearGradient>
    </defs>
    <g id="Symbols" stroke="none" stroke-width="1" fill="none" fill-rule="evenodd">
        <g id="Footer" transform="translate(-1336.000000, -415.000000)">
            <g id="Amplifyn" transform="translate(1274.000000, 415.000000)">
                <g id="amplifyn-logo" transform="translate(62.000000, 0.000000)">
                    <path d="M15.2064005,8.90254101 L15.2064005,15.2055767 L8.9030602,15.2055767 L10.2029795,16.5054332 C8.10364617,16.1466117 6.0577159,14.9709113 4.44687217,13.3604421 C3.26087938,12.1750999 2.5449818,10.5192403 2.60298344,8.6969492 C2.70800945,5.39650336 5.39611142,2.7082346 8.69671674,2.60276867 C10.5187992,2.54476982 12.1745905,3.26018781 13.3601383,4.44567829 C14.971427,6.05674086 16.1471842,8.10286895 16.5061714,10.2023975 L15.2064005,8.90254101 Z M8.75145487,0.00127567794 C3.92663743,0.0818213898 0.0357800451,4.00022935 0.000326351986,8.83579042 C-0.0361657338,13.7955076 4.04842606,17.8052897 9.00853123,17.8052897 L17.8060907,17.8052897 L17.8060907,9.02002205 C17.8060907,4.04027971 13.7308445,-0.0817917229 8.75145487,0.00127567794 L8.75145487,0.00127567794 Z M8.71079438,5.20171031 C6.82744673,5.29679281 5.29700426,6.82716134 5.20191716,8.71026965 C5.14628898,9.8100227 5.57054656,10.8114299 6.28347731,11.5238812 C7.23167817,12.4718879 8.43562032,13.1640173 9.6705659,13.3758392 L8.90304537,12.6085041 L12.6090689,12.6085041 L12.6090689,8.90265968 L13.3765894,9.67014313 C13.1646089,8.43525722 12.472446,7.23137324 11.5243935,6.28306986 C10.8119078,5.57017356 9.81045223,5.14608481 8.71079438,5.20171031" id="icon" fill="url(#linearGradient-1)"></path>
                    <path d="M26.9283705,6.71576202 C25.4103887,6.71576202 24.3500414,7.84770369 24.3500414,9.46840801 C24.3500414,11.0785806 25.4103887,12.2031055 26.9283705,12.2031055 C27.6000622,12.2031055 28.2124172,11.9501949 28.7482278,11.4514939 C29.2751379,10.942706 29.5414115,10.2760902 29.5414115,9.46840801 C29.5414115,8.66028087 29.2751379,7.99351665 28.7498596,7.48665717 C28.2198343,6.97519931 27.6068859,6.71576202 26.9283705,6.71576202 M26.5278476,13.9221557 C25.4142456,13.9221557 24.4681215,13.5090437 23.6350339,12.6590862 C22.8071382,11.8143204 22.4046869,10.7706379 22.4046869,9.46840801 C22.4046869,8.16558483 22.8071382,7.12190228 23.6350339,6.27758148 C24.4516556,5.42747563 25.4246295,4.9970085 26.5278476,4.9970085 C27.6601406,4.9970085 28.5697726,5.29916617 29.3089599,5.92113333 L29.5414115,6.11663839 L29.5414115,5.25822581 L31.5563383,5.25822581 L31.5563383,13.6609384 L30.0790022,13.6609384 C29.7824669,13.6609384 29.5414115,13.4197463 29.5414115,13.1233736 L29.5414115,12.8292261 L29.31163,13.0130127 C28.5579053,13.616438 27.6212751,13.9221557 26.5278476,13.9221557 Z M45.0622224,13.6609829 L45.0622224,8.84173864 C45.0622224,7.65150146 44.3024157,6.82038244 43.2147735,6.82038244 C41.84187,6.82038244 41.0544717,7.84240814 41.0544717,9.62479723 L41.0544717,13.6609829 L39.0393965,13.6609829 L39.0393965,8.84173864 C39.0393965,7.65150146 38.2798864,6.82038244 37.1922443,6.82038244 C35.8214176,6.82038244 35.0665061,7.81630125 35.0665061,9.62479723 L35.0665061,13.6609829 L33.0515793,13.6609829 L33.0515793,5.25827031 L34.4945001,5.25827031 C34.8098748,5.25827031 35.0665061,5.51488924 35.0665061,5.83024869 L35.0665061,6.17156671 L35.3078582,5.93022624 C35.9273336,5.3109291 36.7660582,4.997053 37.8014841,4.997053 C39.0085414,4.997053 39.9294474,5.45614872 40.5388356,6.36173172 L40.6463834,6.5213398 L40.7666886,6.37107681 C41.4960853,5.45941208 42.5248357,4.997053 43.8241617,4.997053 C44.7096139,4.997053 45.4781729,5.31686249 46.1089222,5.94772973 C46.740265,6.5624285 47.0597933,7.37752737 47.0597933,8.37181449 L47.0597933,13.6609829 L45.0622224,13.6609829 Z M48.5549452,16.6202146 L48.5549452,5.25822581 L50.0150737,5.25822581 C50.3209545,5.25822581 50.5697237,5.50713134 50.5697237,5.81284904 L50.5697237,6.11663839 L50.8021753,5.92113333 C51.5415109,5.29916617 52.4511429,4.9970085 53.5832876,4.9970085 C54.6750834,4.9970085 55.642272,5.42747563 56.4577069,6.27654314 C57.2867893,7.12205061 57.7064483,8.19569677 57.7064483,9.46840801 C57.7064483,10.7706379 57.303997,11.8143204 56.4762496,12.6590862 C55.643162,13.5090437 54.6968896,13.9221557 53.5832876,13.9221557 C52.4900085,13.9221557 51.5533783,13.616438 50.7995052,13.0130127 L50.5697237,12.8292261 L50.5697237,16.6202146 L48.5549452,16.6202146 Z M53.1827647,6.71576202 C52.5038043,6.71576202 51.8910042,6.97519931 51.361424,7.48665717 C50.8361456,7.99366498 50.5697237,8.66042921 50.5697237,9.46840801 C50.5697237,10.2759418 50.8361456,10.942706 51.361424,11.4497139 C51.8984213,11.9501949 52.5107763,12.2031055 53.1827647,12.2031055 C54.7008948,12.2031055 55.7612421,11.0785806 55.7612421,9.46840801 C55.7612421,7.84770369 54.7008948,6.71576202 53.1827647,6.71576202 Z M59.2015854,13.6608791 L59.2015854,1.18519381 L61.2165122,1.18519381 L61.2165122,13.6608791 L59.2015854,13.6608791 Z M64.2176451,3.61768914 C63.4925503,3.61768914 62.9663819,3.11349968 62.9663819,2.41870021 C62.9663819,1.73858587 63.5277073,1.18529764 64.2176451,1.18529764 C64.9074345,1.18529764 65.46876,1.73858587 65.46876,2.41870021 C65.46876,3.10222625 64.9310209,3.61768914 64.2176451,3.61768914 Z M63.2101075,13.6609829 L63.2101075,5.25827031 L65.224886,5.25827031 L65.224886,13.6609829 L63.2101075,13.6609829 Z M86.4689169,13.6609829 L86.4689169,9.11141103 C86.4689169,7.94980243 85.5236829,7.00476241 84.3620182,7.00476241 C83.2003534,7.00476241 82.2552677,7.94980243 82.2552677,9.11141103 L82.2552677,13.6609829 L80.2474613,13.6609829 L80.2474613,9.11141103 C80.2474613,6.84278098 82.0931301,4.997053 84.3618698,4.997053 C84.4002903,4.997053 84.4391559,4.99764634 84.4778731,4.99868468 C86.6828258,5.05905688 88.4767233,6.94379687 88.4767233,9.19996681 L88.4767233,13.6609829 L86.4689169,13.6609829 Z M72.7515715,16.6201404 L74.0830876,13.5240997 L71.2309196,6.85512242 L69.231272,6.85512242 L69.231272,13.6610126 L67.2163452,13.6610126 L67.2163452,6.85512242 L66.1334499,6.85512242 L66.6146708,5.24079648 L67.2163452,5.24079648 L67.2163452,4.33343347 C67.2163452,2.4209549 68.5067706,1.18517897 70.5040448,1.18517897 L71.1123945,1.18517897 L71.7511544,2.72919429 L70.6461562,2.72919429 C69.8130686,2.72919429 69.231272,3.38883845 69.231272,4.33343347 L69.231272,5.24079648 L72.7905854,5.24079648 L75.1797787,11.0147225 L77.6778548,5.24079648 L79.9283484,5.24079648 L75.0026585,16.6201404 L72.7515715,16.6201404 Z" id="text" fill="#FFFFFF"></path>
                </g>
            </g>
        </g>
    </g>
</svg>