<?xml version="1.0" encoding="UTF-8"?>
<svg width="192px" height="45px" viewBox="0 0 192 45" version="1.1" xmlns="http://www.w3.org/2000/svg" xmlns:xlink="http://www.w3.org/1999/xlink">
    <!-- Generator: Sketch 47 (45396) - http://www.bohemiancoding.com/sketch -->
    <title>cl-logo-footer</title>
    <desc>Created with Sketch.</desc>
    <defs></defs>
    <g id="Symbols" stroke="none" stroke-width="1" fill="none" fill-rule="evenodd">
        <g id="Footer" transform="translate(-138.000000, -53.000000)">
            <g id="Group">
                <g transform="translate(138.000000, 53.000000)">
                    <g id="cl-logo-footer">
                        <path d="M24.4847841,26.843617 C23.2887708,26.7734043 21.1136213,27.5457447 21.1168106,31.0946809 C21.1168106,36.2010638 19.2829236,39.9734043 14.1831229,41.0744681 C8.25727575,42.3510638 2.65993355,37.3276596 2.84172757,29.2659574 C2.95973422,23.9744681 5.57182724,20.1829787 8.05315615,16.8765957 C8.11056478,25.2670213 9.28425249,37.343617 14.4574086,36.7787234 C16.5432558,36.5521277 17.9465781,33.7148936 16.916412,30.3446809 C15.3089701,25.1170213 12.4098339,21.7021277 10.5791362,13.7010638 C11.8867774,12.1053191 12.9679734,10.7138298 13.3953488,9.49148936 C14.8592691,5.30744681 8.66870432,2.32340426 8.1807309,11.2148936 C8.15202658,11.7382979 8.12651163,12.312766 8.10418605,12.9191489 C3.87189369,17.8117021 1.82112957,21.9446809 1.08438538,24.5329787 C-0.979136213,31.7712766 -0.290232558,37.7042553 4.86059801,42.1531915 C9.55534884,46.206383 19.0628571,45.8138298 24.1243854,39.6414894 C26.9182724,36.2329787 27.6677741,33.8744681 27.7475083,31.193617 C27.8208638,28.7521277 26.5132226,26.9617021 24.4847841,26.843617 M11.641196,7.05638298 C12.6458472,7.94361702 10.3654485,10.4234043 10.0050498,10.8031915 C9.97953488,10.6595745 9.95401993,10.5191489 9.93169435,10.3755319 C9.33209302,6.71808511 11.1627907,6.63510638 11.6380066,7.05319149" id="Shape" fill="#44C7F4"></path>
                        <path d="M8.15521595,2.71914894 C8.15519014,4.21881048 6.94182046,5.4353295 5.4431582,5.43824591 C3.94449594,5.44116232 2.72640704,4.22937494 2.7205523,2.72972484 C2.71469756,1.23007473 3.92328762,0.00880083091 5.42192691,0 C6.92267356,9.19553291e-17 8.1392691,1.21740445 8.1392691,2.71914894" id="Shape" fill="#F47721"></path>
                        <path d="M35.4019934,27.893617 L35.4019934,27.8329787 C35.3719568,25.6337001 36.2276089,23.5148458 37.7761354,21.9538827 C39.3246619,20.3929196 41.4357756,19.521181 43.6337542,19.5351064 C46.6381395,19.5351064 48.5007309,20.6457447 49.9710299,22.2702128 L47.7193355,24.7053191 C46.6094352,23.5340426 45.4357475,22.7202128 43.6050498,22.7202128 C40.9610631,22.7202128 39.0378738,25.0053191 39.0378738,27.7691489 L39.0378738,27.8297872 C39.0378738,30.6542553 40.9897674,32.9361702 43.7836545,32.9361702 C45.4963455,32.9361702 46.7593355,32.1255319 47.8979402,30.9510638 L50.0922259,33.1148936 C48.5294352,34.8574468 46.6987375,36.0893617 43.6050498,36.0893617 C41.4230685,36.1178873 39.3219336,35.2639899 37.7777078,33.7211406 C36.2334821,32.1782913 35.3768828,30.0770908 35.4019934,27.893617 L35.4019934,27.893617 Z" id="Shape" fill="#FFFFFF" fill-rule="nonzero"></path>
                        <path d="M52.774485,19.8670213 L55.4089037,19.8670213 L55.4089037,23.4446809 C56.4007973,21.0702128 58.231495,19.4457447 61.0253821,19.5670213 L61.0253821,23.4159574 L60.8148837,23.4159574 C57.625515,23.4159574 55.3929568,25.4904255 55.3929568,29.7 L55.3929568,35.7446809 L51.7570764,35.7446809 L51.7570764,20.8691489 C51.7570424,20.6005801 51.8647395,20.3432366 52.0560132,20.1548356 C52.247287,19.9664347 52.5061287,19.8627447 52.774485,19.8670213 Z" id="Shape" fill="#FFFFFF" fill-rule="nonzero"></path>
                        <path d="M61.4240532,27.893617 L61.4240532,27.8329787 C61.4240532,23.2946809 65.0280399,19.5351064 69.8950166,19.5351064 C74.7619934,19.5351064 78.3340864,23.2340426 78.3340864,27.7659574 L78.3340864,27.8265957 C78.3340864,32.3361702 74.7300997,36.0925532 69.8312292,36.0925532 C64.9961462,36.1021277 61.4240532,32.4031915 61.4240532,27.893617 Z M74.7013953,27.893617 L74.7013953,27.8329787 C74.7013953,25.037234 72.6889037,22.7265957 69.8344186,22.7265957 C66.9193355,22.7265957 65.0503654,25.0117021 65.0503654,27.7755319 L65.0503654,27.8361702 C65.0503654,30.6031915 67.0628571,32.9425532 69.8854485,32.9425532 C72.838804,32.9457447 74.7013953,30.6382979 74.7013953,27.893617 Z" id="Shape" fill="#FFFFFF" fill-rule="nonzero"></path>
                        <polygon id="Shape" fill="#FFFFFF" fill-rule="nonzero" points="77.906711 19.8670213 81.6478405 19.8670213 84.8372093 30.75 88.345515 19.8095745 91.4392027 19.8095745 94.9825914 30.75 98.2261794 19.8670213 101.86206 19.8670213 96.6378738 35.8595745 93.4070432 35.8595745 89.8636545 25.0085106 86.2883721 35.8595745 83.0447841 35.8595745"></polygon>
                        <path d="M101.444252,27.8361702 L101.444252,27.7659574 C101.444252,22.506383 105.019535,19.5287234 108.805316,19.5287234 C111.417409,19.5287234 113.069502,20.85 114.227243,22.3244681 L114.227243,15.1691489 C114.227309,14.6687685 114.596224,14.2451192 115.091561,14.1765957 L117.863123,13.793617 L117.863123,35.7446809 L115.729435,35.7446809 C114.899797,35.7446809 114.227243,35.0716791 114.227243,34.2414894 L114.227243,33.0957447 C113.056744,34.7489362 111.404651,36.0734043 108.805316,36.0734043 C105.080133,36.0638298 101.444252,33.0957447 101.444252,27.8361702 Z M114.271894,27.8361702 L114.271894,27.7659574 C114.271894,24.6989362 112.109502,22.6851064 109.676013,22.6851064 C107.181927,22.6851064 105.108837,24.6 105.108837,27.7659574 L105.108837,27.8265957 C105.108837,30.893617 107.210631,32.9074468 109.676013,32.9074468 C112.141395,32.9074468 114.271894,30.8712766 114.271894,27.8361702 L114.271894,27.8361702 Z" id="Shape" fill="#FFFFFF" fill-rule="nonzero"></path>
                        <rect id="Rectangle-path" fill="#FFFFFF" fill-rule="nonzero" x="120.194551" y="13.7968085" width="3.58166113" height="3.46276596" rx="1.73138298"></rect>
                        <path d="M121.604252,20.537234 L123.128771,20.2180851 L123.128771,35.7797872 L120.813289,35.7797872 L120.813289,21.5202128 C120.811761,21.0467124 121.141635,20.6367576 121.604252,20.537234 Z" id="Shape" fill="#FFFFFF" fill-rule="nonzero"></path>
                        <path d="M125.316678,33.7819149 L126.490365,32.1255319 C128.174352,33.4021277 130.040133,34.1138298 131.87402,34.1138298 C133.707907,34.1138298 135.092093,33.156383 135.092093,31.6468085 L135.092093,31.5957447 C135.092093,30.0319149 133.258206,29.4287234 131.210631,28.8574468 C128.773953,28.1648936 126.066179,27.3223404 126.066179,24.462766 L126.066179,24.4021277 C126.066179,21.7244681 128.298738,19.9340426 131.360532,19.9340426 C133.34905,19.9714415 135.287202,20.5663212 136.954684,21.6510638 L135.902193,23.3968085 C134.539227,22.473568 132.944674,21.9516488 131.299934,21.8904255 C129.466047,21.8904255 128.292359,22.8478723 128.292359,24.1468085 L128.292359,24.2074468 C128.292359,25.6819149 130.20598,26.2531915 132.291827,26.8851064 C134.699801,27.606383 137.286379,28.5414894 137.286379,31.3531915 L137.286379,31.4138298 C137.286379,34.362766 134.849701,36.0797872 131.752824,36.0797872 C129.414077,36.0385845 127.15329,35.2314246 125.316678,33.7819149 L125.316678,33.7819149 Z" id="Shape" fill="#FFFFFF" fill-rule="nonzero"></path>
                        <path d="M140.788306,13.95 L142.210764,13.7968085 L142.210764,35.7702128 L139.895282,35.7702128 L139.895282,14.9489362 C139.893902,14.4364423 140.279162,14.0054913 140.788306,13.95 L140.788306,13.95 Z" id="Shape" fill="#FFFFFF" fill-rule="nonzero"></path>
                        <path d="M144.516678,31.2542553 L144.516678,31.193617 C144.516678,27.8521277 147.224452,26.106383 151.163322,26.106383 C152.771271,26.0907961 154.372672,26.3134206 155.915482,26.7670213 L155.915482,26.2882979 C155.915482,23.5180851 154.231495,22.0755319 151.313223,22.0755319 C149.674762,22.0840865 148.059646,22.4649442 146.589767,23.1893617 L145.897674,21.293617 C147.655766,20.4229686 149.590817,19.9697365 151.552425,19.9691489 C153.7499,19.9691489 155.462591,20.5723404 156.575681,21.6861702 C157.688771,22.8 158.192691,24.2712766 158.192691,26.2595745 L158.192691,35.7702128 L157.411296,35.7702128 C156.579896,35.7702128 155.905914,35.0957821 155.905914,34.2638298 L155.905914,33.45 C154.572068,35.1776741 152.492591,36.1623451 150.311761,36.0989362 C147.406246,36.1021277 144.516678,34.4457447 144.516678,31.2542553 Z M155.960133,30.0510638 L155.960133,28.6053191 C154.48604,28.1665743 152.956389,27.9429935 151.418472,27.9414894 C148.532093,27.9414894 146.876811,29.2180851 146.876811,31.0723404 L146.876811,31.1329787 C146.876811,33.0893617 148.681993,34.2319149 150.786977,34.2319149 C153.631894,34.2351064 155.960133,32.5180851 155.960133,30.0510638 Z" id="Shape" fill="#FFFFFF" fill-rule="nonzero"></path>
                        <path d="M161.452226,20.2085106 L162.766246,20.2085106 L162.766246,22.9180851 C163.790033,21.2329787 165.413422,19.8765957 168.089302,19.8765957 C171.849568,19.8765957 174.047043,22.4042553 174.047043,26.106383 L174.047043,35.7702128 L171.731561,35.7702128 L171.731561,26.6808511 C171.731561,23.7925532 170.168771,21.9861702 167.429103,21.9861702 C164.753223,21.9861702 162.766246,23.9425532 162.766246,26.862766 L162.766246,35.7734043 L160.450764,35.7734043 L160.450764,21.2106383 C160.450764,20.6571785 160.899134,20.2085106 161.452226,20.2085106 Z" id="Shape" fill="#FFFFFF" fill-rule="nonzero"></path>
                        <path d="M176.174352,28.0340426 L176.174352,27.9734043 C176.174352,22.8861702 179.87402,19.8765957 183.605581,19.8765957 C186.49196,19.8765957 188.357741,21.4404255 189.560133,23.1861702 L189.560133,14.9489362 C189.558925,14.4353455 189.945937,14.0039748 190.456346,13.95 L191.878804,13.7968085 L191.878804,35.7702128 L191.065515,35.7702128 C190.666263,35.7702128 190.283363,35.611505 190.001049,35.3290034 C189.718735,35.0465018 189.560133,34.6633474 189.560133,34.2638298 L189.560133,32.6393617 C188.284385,34.506383 186.463256,36.1021277 183.605581,36.1021277 C179.880399,36.1021277 176.174352,33.15 176.174352,28.0340426 Z M189.649435,28.0053191 L189.649435,27.9446809 C189.649435,24.3638298 186.912957,21.9542553 184.023389,21.9542553 C181.015814,21.9542553 178.547243,24.1882979 178.547243,27.9446809 L178.547243,28.0053191 C178.547243,31.6787234 181.073223,34.0244681 184.023389,34.0244681 C186.89701,34.0244681 189.649435,31.5957447 189.649435,28.0053191 Z" id="Shape" fill="#FFFFFF" fill-rule="nonzero"></path>
                    </g>
                </g>
            </g>
        </g>
    </g>
</svg>