<?xml version="1.0" encoding="UTF-8"?>
<svg width="145px" height="34px" viewBox="0 0 145 34" version="1.1" xmlns="http://www.w3.org/2000/svg" xmlns:xlink="http://www.w3.org/1999/xlink">
    <!-- Generator: Sketch 47 (45396) - http://www.bohemiancoding.com/sketch -->
    <title>cl-logo</title>
    <desc>Created with Sketch.</desc>
    <defs></defs>
    <g id="Campaign" stroke="none" stroke-width="1" fill="none" fill-rule="evenodd">
        <g id="Campaign-Page" transform="translate(-83.000000, -18.000000)">
            <g id="Header" transform="translate(-5.000000, 18.000000)">
                <g id="cl-logo" transform="translate(88.000000, 0.000000)">
                    <path d="M18.4901182,20.1726661 C17.586879,20.1196164 15.9441879,20.7031625 15.9465966,23.384581 C15.9465966,27.242737 14.5616298,30.0929497 10.7102178,30.9248646 C6.23496865,31.8894036 2.00780918,28.0939427 2.14510154,22.0028788 C2.23422114,18.0048646 4.20689556,15.1401838 6.08081583,12.6420278 C6.12417131,18.9814604 7.01055005,28.1059994 10.9173607,27.6791909 C12.4926098,27.5079852 13.5524105,25.3642973 12.7744205,22.8179143 C11.560467,18.8681271 9.37101516,16.2879852 7.98845702,10.242737 C8.97599855,9.03706322 9.79252679,7.98571571 10.1152843,7.06216961 C11.2208491,3.90089301 6.54568294,1.64628308 6.17716134,8.36429727 C6.1554836,8.75975826 6.1362145,9.19380081 6.11935403,9.65195684 C2.92309158,13.3485526 1.37433742,16.4712476 0.817942074,18.4268505 C-0.74044663,23.8957866 -0.220180849,28.3784817 3.66976932,31.7399001 C7.21528427,34.8023115 14.3954338,34.5057157 18.2179421,29.8421696 C20.3279089,27.2668505 20.8939388,25.4848646 20.9541547,23.4593327 C21.0095534,21.6146519 20.0220118,20.2618859 18.4901182,20.1726661 M8.79053344,5.22231145 C9.54925437,5.89266606 7.82707829,7.76628308 7.55490221,8.05323344 C7.5356331,7.9447228 7.516364,7.83862351 7.49950354,7.73011287 C7.04667962,4.96670861 8.42923776,4.90401358 8.7881248,5.2199001" id="Shape" fill="#44C7F4"></path>
                    <path d="M6.15888704,2.05446809 C6.15886755,3.1875457 5.24252066,4.1066934 4.11071843,4.10889691 C2.9789162,4.11110042 2.05900531,3.19552773 2.05458377,2.06245877 C2.05016222,0.929389797 2.96289951,0.00664951669 4.09468439,0 C5.22806076,6.94773598e-17 6.14684385,0.919816693 6.14684385,2.05446809" id="Shape" fill="#F47721"></path>
                    <path d="M26.7358804,21.0751773 L26.7358804,21.0293617 C26.7131965,19.3676845 27.3593921,17.7667724 28.5288523,16.587378 C29.6983124,15.4079837 31.2926431,14.7493368 32.9525748,14.7598582 C35.2215116,14.7598582 36.6281561,15.5990071 37.7385382,16.826383 L36.0380399,18.6662411 C35.1998339,17.7812766 34.3134551,17.166383 32.930897,17.166383 C30.9341362,17.166383 29.4817276,18.8929078 29.4817276,20.9811348 L29.4817276,21.0269504 C29.4817276,23.1609929 30.955814,24.8851064 33.0657807,24.8851064 C34.3592193,24.8851064 35.3130399,24.2726241 36.1729236,23.3852482 L37.8300664,25.0201418 C36.6498339,26.3367376 35.2672757,27.2675177 32.930897,27.2675177 C31.2830466,27.2890704 29.6962519,26.6439035 28.5300398,25.4781951 C27.3638276,24.3124867 26.7169167,22.7249131 26.7358804,21.0751773 L26.7358804,21.0751773 Z" id="Shape" fill="#061F47" fill-rule="nonzero"></path>
                    <path d="M39.8557309,15.0106383 L41.8452658,15.0106383 L41.8452658,17.7137589 C42.5943522,15.9197163 43.9769103,14.6923404 46.0868771,14.7839716 L46.0868771,17.6920567 L45.927907,17.6920567 C43.5192691,17.6920567 41.8332226,19.2594326 41.8332226,22.44 L41.8332226,27.0070922 L39.0873754,27.0070922 L39.0873754,15.7678014 C39.0873497,15.5648827 39.1686835,15.3704454 39.313135,15.228098 C39.4575865,15.0857507 39.6530659,15.0074071 39.8557309,15.0106383 Z" id="Shape" fill="#061F47" fill-rule="nonzero"></path>
                    <path d="M46.3879568,21.0751773 L46.3879568,21.0293617 C46.3879568,17.6004255 49.1097176,14.7598582 52.785299,14.7598582 C56.4608804,14.7598582 59.1585548,17.5546099 59.1585548,20.9787234 L59.1585548,21.024539 C59.1585548,24.431773 56.436794,27.2699291 52.7371262,27.2699291 C49.0856312,27.2771631 46.3879568,24.4824113 46.3879568,21.0751773 Z M56.4151163,21.0751773 L56.4151163,21.0293617 C56.4151163,18.9170213 54.8952658,17.1712057 52.7395349,17.1712057 C50.5380399,17.1712057 49.1265781,18.8977305 49.1265781,20.9859574 L49.1265781,21.031773 C49.1265781,23.1224113 50.6464286,24.8899291 52.7780731,24.8899291 C55.0084718,24.8923404 56.4151163,23.1489362 56.4151163,21.0751773 Z" id="Shape" fill="#061F47" fill-rule="nonzero"></path>
                    <polygon id="Shape" fill="#061F47" fill-rule="nonzero" points="58.8357973 15.0106383 61.6611296 15.0106383 64.0697674 23.2333333 66.7192691 14.967234 69.0556478 14.967234 71.7316445 23.2333333 74.1812292 15.0106383 76.9270764 15.0106383 72.9817276 27.0939007 70.5417774 27.0939007 67.8657807 18.8953191 65.1656977 27.0939007 62.716113 27.0939007"></polygon>
                    <path d="M76.6115449,21.031773 L76.6115449,20.9787234 C76.6115449,17.0048227 79.3116279,14.7550355 82.1706811,14.7550355 C84.1433555,14.7550355 85.3910299,15.7533333 86.2653654,16.8673759 L86.2653654,11.4611348 C86.2654157,11.0830695 86.5440237,10.7629789 86.9181063,10.7112057 L89.0112126,10.421844 L89.0112126,27.0070922 L87.3998339,27.0070922 C86.7732843,27.0070922 86.2653654,26.498602 86.2653654,25.8713475 L86.2653654,25.0056738 C85.3813953,26.2547518 84.1337209,27.255461 82.1706811,27.255461 C79.357392,27.248227 76.6115449,25.0056738 76.6115449,21.031773 Z M86.2990864,21.031773 L86.2990864,20.9787234 C86.2990864,18.6614184 84.6660299,17.1398582 82.8282392,17.1398582 C80.9446844,17.1398582 79.3790698,18.5866667 79.3790698,20.9787234 L79.3790698,21.024539 C79.3790698,23.341844 80.9663621,24.8634043 82.8282392,24.8634043 C84.6901163,24.8634043 86.2990864,23.3249645 86.2990864,21.031773 L86.2990864,21.031773 Z" id="Shape" fill="#061F47" fill-rule="nonzero"></path>
                    <rect id="Rectangle-path" fill="#061F47" fill-rule="nonzero" x="90.7719269" y="10.4242553" width="2.70490033" height="2.61631206" rx="1.30815603"></rect>
                    <path d="M91.8365449,15.5170213 L92.9878738,15.2758865 L92.9878738,27.033617 L91.2392027,27.033617 L91.2392027,16.2597163 C91.2380483,15.9019605 91.487172,15.5922169 91.8365449,15.5170213 Z" id="Shape" fill="#061F47" fill-rule="nonzero"></path>
                    <path d="M94.6401993,25.5241135 L95.5265781,24.2726241 C96.7983389,25.2371631 98.207392,25.7748936 99.5923588,25.7748936 C100.977326,25.7748936 102.022674,25.0514894 102.022674,23.910922 L102.022674,23.8723404 C102.022674,22.6907801 100.637708,22.2350355 99.0913621,21.8034043 C97.2511628,21.2801418 95.2062292,20.6435461 95.2062292,18.4829787 L95.2062292,18.4371631 C95.2062292,16.4140426 96.8922757,15.0612766 99.2045681,15.0612766 C100.706314,15.0895336 102.170022,15.5389982 103.429319,16.3585816 L102.634468,17.6775887 C101.605146,16.9800291 100.400926,16.5856902 99.158804,16.5394326 C97.7738372,16.5394326 96.8874585,17.2628369 96.8874585,18.2442553 L96.8874585,18.2900709 C96.8874585,19.4041135 98.3326412,19.8357447 99.9078904,20.3131915 C101.726412,20.858156 103.679817,21.5646809 103.679817,23.689078 L103.679817,23.7348936 C103.679817,25.9629787 101.839618,27.2602837 99.5008306,27.2602837 C97.7345893,27.2291527 96.0272245,26.6192986 94.6401993,25.5241135 L94.6401993,25.5241135 Z" id="Shape" fill="#061F47" fill-rule="nonzero"></path>
                    <path d="M106.324502,10.54 L107.398754,10.4242553 L107.398754,27.026383 L105.650083,27.026383 L105.650083,11.2947518 C105.649041,10.9075342 105.939992,10.5819268 106.324502,10.54 L106.324502,10.54 Z" id="Shape" fill="#061F47" fill-rule="nonzero"></path>
                    <path d="M109.140199,23.6143262 L109.140199,23.5685106 C109.140199,21.0438298 111.185133,19.7248227 114.159801,19.7248227 C115.374137,19.7130459 116.583529,19.8812511 117.748671,20.2239716 L117.748671,19.8622695 C117.748671,17.7692199 116.47691,16.6792908 114.273007,16.6792908 C113.035627,16.6857543 111.815879,16.9735134 110.705814,17.5208511 L110.18314,16.0885106 C111.510865,15.4306874 112.972232,15.0882454 114.453654,15.0878014 C116.113206,15.0878014 117.406645,15.5435461 118.247259,16.3851064 C119.087874,17.2266667 119.468439,18.3382979 119.468439,19.8405674 L119.468439,27.026383 L118.878322,27.026383 C118.250442,27.026383 117.741445,26.5168132 117.741445,25.888227 L117.741445,25.2733333 C116.734114,26.5786871 115.163676,27.3226608 113.516694,27.2747518 C111.322425,27.2771631 109.140199,26.0256738 109.140199,23.6143262 Z M117.782392,22.7052482 L117.782392,21.6129078 C116.669145,21.2814117 115.513939,21.1124839 114.352492,21.1113475 C112.172674,21.1113475 110.922591,22.0758865 110.922591,23.4768794 L110.922591,23.522695 C110.922591,25.0008511 112.28588,25.8641135 113.875581,25.8641135 C116.024086,25.8665248 117.782392,24.5692199 117.782392,22.7052482 Z" id="Shape" fill="#061F47" fill-rule="nonzero"></path>
                    <path d="M121.930066,15.2686525 L122.922425,15.2686525 L122.922425,17.3158865 C123.695598,16.042695 124.921595,15.0178723 126.942442,15.0178723 C129.782226,15.0178723 131.441777,16.9276596 131.441777,19.7248227 L131.441777,27.026383 L129.693106,27.026383 L129.693106,20.1588652 C129.693106,17.9765957 128.512874,16.611773 126.443854,16.611773 C124.423007,16.611773 122.922425,18.0899291 122.922425,20.2963121 L122.922425,27.0287943 L121.173754,27.0287943 L121.173754,16.0258156 C121.173754,15.607646 121.512367,15.2686525 121.930066,15.2686525 Z" id="Shape" fill="#061F47" fill-rule="nonzero"></path>
                    <path d="M133.048339,21.1812766 L133.048339,21.135461 C133.048339,17.291773 135.842359,15.0178723 138.660465,15.0178723 C140.840282,15.0178723 142.249336,16.1994326 143.157392,17.5184397 L143.157392,11.2947518 C143.15648,10.9067055 143.448754,10.580781 143.834219,10.54 L144.908472,10.4242553 L144.908472,27.026383 L144.294269,27.026383 C143.992751,27.026383 143.703581,26.9064705 143.490376,26.6930248 C143.27717,26.4795791 143.157392,26.1900847 143.157392,25.888227 L143.157392,24.6608511 C142.193937,26.0714894 140.818605,27.2771631 138.660465,27.2771631 C135.847176,27.2771631 133.048339,25.0466667 133.048339,21.1812766 Z M143.224834,21.1595745 L143.224834,21.1137589 C143.224834,18.408227 141.158223,16.5876596 138.975997,16.5876596 C136.704651,16.5876596 134.840365,18.2756028 134.840365,21.1137589 L134.840365,21.1595745 C134.840365,23.9350355 136.748007,25.7073759 138.975997,25.7073759 C141.146179,25.7073759 143.224834,23.8723404 143.224834,21.1595745 Z" id="Shape" fill="#061F47" fill-rule="nonzero"></path>
                </g>
            </g>
        </g>
    </g>
</svg>