<?xml version="1.0" encoding="UTF-8"?>
<svg width="194px" height="125px" viewBox="0 0 194 125" version="1.1" xmlns="http://www.w3.org/2000/svg" xmlns:xlink="http://www.w3.org/1999/xlink">
    <!-- Generator: Sketch 47 (45396) - http://www.bohemiancoding.com/sketch -->
    <title>Group 80</title>
    <desc>Created with Sketch.</desc>
    <defs></defs>
    <g id="Investor" stroke="none" stroke-width="1" fill="none" fill-rule="evenodd">
        <g id="Investors" transform="translate(-242.000000, -1696.000000)">
            <g id="Group-3" transform="translate(176.000000, 1347.000000)">
                <g id="Group-12" transform="translate(0.000000, 108.000000)">
                    <g id="Group-19" transform="translate(0.000000, 204.000000)">
                        <g id="Group-5">
                            <g id="News-Big---1-Copy-4">
                                <g id="Page-1" transform="translate(66.000000, 37.000000)">
                                    <g id="Group-80">
                                        <path d="M122.01915,49.292378 L122.01915,46.4402439 L101.810044,46.4402439 L81.6009377,46.4402439 L61.3903066,46.4402439 L41.1812003,46.4402439 L20.9720939,46.4402439 L0.762987538,46.4402439 L0.762987538,58.2542683 L0.80415593,58.2542683 C1.22498838,63.0530488 5.56444189,66.8289634 10.8675407,66.8289634 C16.1691148,66.8289634 20.5100931,63.0530488 20.9294008,58.2542683 L20.9720939,58.2542683 L21.0132623,58.2542683 C21.4340947,63.0530488 25.775073,66.8289634 31.0766471,66.8289634 C36.3782212,66.8289634 40.7191994,63.0530488 41.1400319,58.2542683 L41.1812003,58.2542683 L41.2223687,58.2542683 C41.6432011,63.0530488 45.9841794,66.8289634 51.2857534,66.8289634 C56.5888523,66.8289634 60.9283058,63.0530488 61.3491382,58.2542683 L61.3903066,58.2542683 L61.4329998,58.2542683 C61.8538322,63.0530488 66.1932857,66.8289634 71.4948598,66.8289634 C76.7979586,66.8289634 81.1374121,63.0530488 81.5582446,58.2542683 L81.6009377,58.2542683 L81.6421061,58.2542683 C82.0629386,63.0530488 86.4023921,66.8289634 91.7054909,66.8289634 C97.007065,66.8289634 101.346519,63.0530488 101.767351,58.2542683 L101.810044,58.2542683 L101.851212,58.2542683 C102.179035,61.995122 103.962999,64.1384146 105.431338,65.2466463" id="Fill-2" fill="#DCF6FF"></path>
                                        <path d="M108.58194,66.2978659 C110.548874,58.954878 115.467734,52.8222561 122.019608,49.2917683" id="Fill-4" fill="#FFFFFF"></path>
                                        <path d="M108.58194,66.2978659 C107.976612,68.5585366 107.622869,70.9228659 107.622869,73.3756098 C107.622869,88.4762195 119.868178,100.718598 134.973929,100.718598 C150.078154,100.718598 162.323464,88.4762195 162.323464,73.3756098 C162.323464,58.2734756 150.078154,46.032622 134.973929,46.032622 C130.285306,46.032622 125.875714,47.2140244 122.019608,49.2917683" id="Fill-6" fill="#FFFFFF"></path>
                                        <polyline id="Fill-8" fill="#DCF6FF" points="101.138542 24.3983232 12.9604198 24.3983232 0.762377636 46.4394817 122.018541 46.4394817 106.770988 24.3983232"></polyline>
                                        <path d="M182.362255,78.0070122 C182.362255,101.61372 163.220478,120.750915 139.608117,120.750915 C115.994232,120.750915 96.8524548,101.61372 96.8524548,78.0070122 C96.8524548,54.4003049 115.994232,35.2631098 139.608117,35.2631098 C163.220478,35.2631098 182.362255,54.4003049 182.362255,78.0070122" id="Fill-10" fill="#44C7F4"></path>
                                        <polygon id="Fill-12" fill="#DCF6FF" points="110.785668 30.2010671 16.7067435 29.1842988 6.63573494 46.4129573 121.346123 46.0318598"></polygon>
                                        <polygon id="Fill-14" fill="#DCF6FF" points="117.667804 119.276524 11.1849948 119.753659 11.1849948 45.7719512 122.019455 46.4396341"></polygon>
                                        <path d="M162.323464,73.3754573 C162.323464,88.4775915 150.078154,100.718445 134.973929,100.718445 C119.868178,100.718445 107.622869,88.4775915 107.622869,73.3754573 C107.622869,58.2733232 119.868178,46.0324695 134.973929,46.0324695 C150.078154,46.0324695 162.323464,58.2733232 162.323464,73.3754573" id="Fill-16" fill="#DCF6FF"></path>
                                        <polyline id="Stroke-18" stroke="#000000" stroke-linecap="round" stroke-linejoin="round" points="5.62207764 65.4647866 5.62207764 119.275762 117.667194 119.275762 117.667194 99.8291159"></polyline>
                                        <path d="M162.323464,72.9605183 C162.323464,86.7806402 151.118037,97.9849085 137.293081,97.9849085 C123.46965,97.9849085 112.264224,86.7806402 112.264224,72.9605183 C112.264224,59.1403963 123.46965,47.936128 137.293081,47.936128 C151.118037,47.936128 162.323464,59.1403963 162.323464,72.9605183" id="Fill-20" fill="#DCF6FF"></path>
                                        <path d="M122.01915,49.292378 L122.01915,46.4402439 L101.810044,46.4402439 L81.6009377,46.4402439 L61.3903066,46.4402439 L41.1812003,46.4402439 L20.9720939,46.4402439 L0.762987538,46.4402439 L0.762987538,58.2542683 L0.80415593,58.2542683 C1.22498838,63.0530488 5.56444189,66.8289634 10.8675407,66.8289634 C16.1691148,66.8289634 20.5100931,63.0530488 20.9294008,58.2542683 L20.9720939,58.2542683 L21.0132623,58.2542683 C21.4340947,63.0530488 25.775073,66.8289634 31.0766471,66.8289634 C36.3782212,66.8289634 40.7191994,63.0530488 41.1400319,58.2542683 L41.1812003,58.2542683 L41.2223687,58.2542683 C41.6432011,63.0530488 45.9841794,66.8289634 51.2857534,66.8289634 C56.5888523,66.8289634 60.9283058,63.0530488 61.3491382,58.2542683 L61.3903066,58.2542683 L61.4329998,58.2542683 C61.8538322,63.0530488 66.1932857,66.8289634 71.4948598,66.8289634 C76.7979586,66.8289634 81.1374121,63.0530488 81.5582446,58.2542683 L81.6009377,58.2542683 L81.6421061,58.2542683 C82.0629386,63.0530488 86.4023921,66.8289634 91.7054909,66.8289634 C97.007065,66.8289634 101.346519,63.0530488 101.767351,58.2542683 L101.810044,58.2542683 L101.851212,58.2542683 C102.179035,61.995122 103.962999,64.1384146 105.431338,65.2466463" id="Stroke-22" stroke="#000000" stroke-linecap="round" stroke-linejoin="round"></path>
                                        <path d="M108.58194,66.2978659 C110.548874,58.954878 115.467734,52.8222561 122.019608,49.2917683" id="Stroke-24" stroke="#000000" stroke-linecap="round" stroke-linejoin="round"></path>
                                        <path d="M108.58194,66.2978659 C107.976612,68.5585366 107.622869,70.9228659 107.622869,73.3756098 C107.622869,88.4762195 119.868178,100.718598 134.973929,100.718598 C150.078154,100.718598 162.323464,88.4762195 162.323464,73.3756098 C162.323464,58.2734756 150.078154,46.032622 134.973929,46.032622 C130.285306,46.032622 125.875714,47.2140244 122.019608,49.2917683" id="Stroke-26" stroke="#000000" stroke-linecap="round" stroke-linejoin="round"></path>
                                        <path d="M134.923154,67.0890244 C137.658565,65.6759146 146.127056,62.0859756 146.453354,71.6682927 C146.75373,80.4884146 135.436997,86.9746951 135.436997,86.9746951 C135.436997,86.9746951 123.708579,81.0067073 123.610995,72.1820122 C123.505787,62.595122 132.128278,65.7993902 134.923154,67.0890244" id="Fill-28" fill="#DCF6FF"></path>
                                        <path d="M137.06696,69.1809451 C139.302251,68.0254573 146.22769,65.0910061 146.492997,72.9248476 C146.738483,80.1352134 137.487793,85.4385671 137.487793,85.4385671 C137.487793,85.4385671 127.898607,80.5589939 127.81932,73.3455793 C127.732408,65.5071646 134.781352,68.1275915 137.06696,69.1809451" id="Fill-30" fill="#F47721"></path>
                                        <path d="M134.923154,67.0890244 C137.658565,65.6759146 146.127056,62.0859756 146.453354,71.6682927 C146.75373,80.4884146 135.436997,86.9746951 135.436997,86.9746951 C135.436997,86.9746951 123.708579,81.0067073 123.610995,72.1820122 C123.505787,62.595122 132.128278,65.7993902 134.923154,67.0890244 L134.923154,67.0890244 Z" id="Stroke-32" stroke="#000000" stroke-linecap="round" stroke-linejoin="round"></path>
                                        <path d="M135.135858,51.1466463 L135.135858,55.7411585" id="Stroke-34" stroke="#000000" stroke-linecap="round" stroke-linejoin="round"></path>
                                        <path d="M135.135858,91.9128049 L135.135858,96.5073171" id="Stroke-36" stroke="#000000" stroke-linecap="round" stroke-linejoin="round"></path>
                                        <path d="M151.141976,57.8271341 L147.891198,61.0771341" id="Stroke-38" stroke="#000000" stroke-linecap="round" stroke-linejoin="round"></path>
                                        <path d="M122.309006,86.6532012 L119.058228,89.9032012" id="Stroke-40" stroke="#000000" stroke-linecap="round" stroke-linejoin="round"></path>
                                        <path d="M157.786555,73.8647866 L153.190942,73.8647866" id="Stroke-42" stroke="#000000" stroke-linecap="round" stroke-linejoin="round"></path>
                                        <path d="M117.010634,73.8647866 L112.415022,73.8647866" id="Stroke-44" stroke="#000000" stroke-linecap="round" stroke-linejoin="round"></path>
                                        <path d="M40.2748857,96.3981707 L34.4670929,89.9057927" id="Stroke-46" stroke="#000000" stroke-linecap="round" stroke-linejoin="round"></path>
                                        <path d="M46.3978455,95.9632622 L40.5900526,89.4708841" id="Stroke-48" stroke="#000000" stroke-linecap="round" stroke-linejoin="round"></path>
                                        <path d="M37.8299407,86.5846037 L34.7606083,83.1532012" id="Stroke-50" stroke="#000000" stroke-linecap="round" stroke-linejoin="round"></path>
                                        <path d="M119.058991,57.8271341 L122.309769,61.0771341" id="Stroke-52" stroke="#000000" stroke-linecap="round" stroke-linejoin="round"></path>
                                        <path d="M147.89196,86.6532012 L151.142739,89.9032012" id="Stroke-54" stroke="#000000" stroke-linecap="round" stroke-linejoin="round"></path>
                                        <path d="M155.503081,23.5775915 C157.591996,23.8504573 159.244831,25.4800305 159.548257,27.563872 L159.566554,27.6873476 C159.813564,25.6324695 161.379488,23.9830793 163.419611,23.6309451 L163.723037,23.5775915 C161.445052,23.5775915 159.592475,21.7452744 159.566554,19.4693598 C159.592475,21.7315549 157.765818,23.5775915 155.503081,23.5775915 Z" id="Fill-56" fill="#DCF6FF"></path>
                                        <path d="M155.503081,23.5775915 C157.591996,23.8504573 159.244831,25.4800305 159.548257,27.563872 L159.566554,27.6873476 C159.813564,25.6324695 161.379488,23.9830793 163.419611,23.6309451 L163.723037,23.5775915 C161.445052,23.5775915 159.592475,21.7452744 159.566554,19.4693598 C159.592475,21.7315549 157.765818,23.5775915 155.503081,23.5775915 Z" id="Stroke-58" stroke="#000000" stroke-linecap="round" stroke-linejoin="round"></path>
                                        <path d="M184.986969,48.6846037 C187.266478,48.9833841 189.070264,50.7608232 189.401135,53.0352134 L189.420957,53.1693598 C189.690839,50.9269817 191.40009,49.1266768 193.624708,48.7425305 L193.955579,48.6846037 C191.471753,48.6846037 189.448403,46.686128 189.420957,44.201372 C189.448403,46.6693598 187.455548,48.6846037 184.986969,48.6846037 Z" id="Stroke-60" stroke="#000000" stroke-linecap="round" stroke-linejoin="round"></path>
                                        <path d="M137.647892,5.45121951 C139.927401,5.75 141.731187,7.52743902 142.062059,9.80182927 L142.08188,9.93597561 C142.351762,7.69359756 144.061013,5.89329268 146.285631,5.50914634 L146.616503,5.45121951 C144.132676,5.45121951 142.109326,3.4527439 142.08188,0.967987805 C142.109326,3.43597561 140.116471,5.45121951 137.647892,5.45121951 Z" id="Stroke-62" stroke="#000000" stroke-linecap="round" stroke-linejoin="round"></path>
                                        <path d="M170.830074,119.753659 C173.109583,120.052439 174.913368,121.829878 175.24424,124.104268 L175.264062,124.238415 C175.533944,121.996037 177.243194,120.195732 179.467812,119.811585 L179.798684,119.753659 C177.314858,119.753659 175.291508,117.755183 175.264062,115.270427 C175.291508,117.738415 173.298652,119.753659 170.830074,119.753659 Z" id="Fill-64" fill="#44C7F4"></path>
                                        <path d="M170.830074,119.753659 C173.109583,120.052439 174.913368,121.829878 175.24424,124.104268 L175.264062,124.238415 C175.533944,121.996037 177.243194,120.195732 179.467812,119.811585 L179.798684,119.753659 C177.314858,119.753659 175.291508,117.755183 175.264062,115.270427 C175.291508,117.738415 173.298652,119.753659 170.830074,119.753659 Z" id="Stroke-66" stroke="#000000" stroke-linecap="round" stroke-linejoin="round"></path>
                                        <path d="M118.373461,19.4693598 C121.468714,19.8733232 123.917471,22.2864329 124.367274,25.3748476 L124.393194,25.55625 C124.759136,22.5120427 127.079813,20.0684451 130.100353,19.5471037 L130.550156,19.4693598 C127.175873,19.4693598 124.431313,16.7544207 124.393194,13.3824695 C124.431313,16.7330793 121.724873,19.4693598 118.373461,19.4693598 Z" id="Fill-68" fill="#44C7F4"></path>
                                        <path d="M118.373461,19.4693598 C121.468714,19.8733232 123.917471,22.2864329 124.367274,25.3748476 L124.393194,25.55625 C124.759136,22.5120427 127.079813,20.0684451 130.100353,19.5471037 L130.550156,19.4693598 C127.175873,19.4693598 124.431313,16.7544207 124.393194,13.3824695 C124.431313,16.7330793 121.724873,19.4693598 118.373461,19.4693598 Z" id="Stroke-70" stroke="#000000" stroke-linecap="round" stroke-linejoin="round"></path>
                                        <path d="M120.343597,35.2952744 C125.315824,33.2190549 130.772923,32.0696646 136.498379,32.0696646 C159.673134,32.0696646 178.461169,50.8516768 178.461169,74.0208841 C178.461169,97.1916159 159.673134,115.973628 136.498379,115.973628 C131.366053,115.973628 126.451767,115.049848 121.906471,113.363872" id="Stroke-72" stroke="#000000" stroke-linecap="round" stroke-linejoin="round"></path>
                                        <polyline id="Stroke-74" stroke="#000000" stroke-linecap="round" stroke-linejoin="round" points="99.798587 114.847713 99.798587 76.5474085 71.4960796 76.5474085 71.4960796 119.420884"></polyline>
                                        <polyline id="Stroke-76" stroke="#000000" stroke-linecap="round" stroke-linejoin="round" points="16.706896 98.9185976 16.706896 77.5679878 61.466087 77.5679878 61.466087 107.310366 16.706896 107.310366"></polyline>
                                        <polyline id="Stroke-78" stroke="#000000" stroke-linecap="round" stroke-linejoin="round" points="101.138542 24.3983232 12.9604198 24.3983232 0.762377636 46.4394817 122.018541 46.4394817 106.770988 24.3983232"></polyline>
                                    </g>
                                </g>
                            </g>
                        </g>
                    </g>
                </g>
            </g>
        </g>
    </g>
</svg>