<?xml version="1.0" encoding="UTF-8"?>
<svg width="16px" height="16px" viewBox="0 0 16 16" version="1.1" xmlns="http://www.w3.org/2000/svg" xmlns:xlink="http://www.w3.org/1999/xlink">
    <!-- Generator: Sketch 48.1 (47250) - http://www.bohemiancoding.com/sketch -->
    <title>amplifyn-logo@4x</title>
    <desc>Created with Sketch.</desc>
    <defs>
        <linearGradient x1="100%" y1="100%" x2="37.0154528%" y2="37.1633758%" id="linearGradient-1">
            <stop stop-color="#FEA354" offset="0%"></stop>
            <stop stop-color="#FF1E52" offset="100%"></stop>
        </linearGradient>
    </defs>
    <g id="Logo-on-Gradient" stroke="none" stroke-width="1" fill="none" fill-rule="evenodd" transform="translate(-593.000000, -593.000000)">
        <g id="amplifyn-logo" transform="translate(593.000000, 593.000000)" fill="url(#linearGradient-1)">
            <path d="M13.6639881,7.99988793 L13.6639881,13.6638681 L7.99997572,13.6638681 L9.16804831,14.8319341 C7.28164373,14.5094929 5.4432257,13.4529951 3.99576475,12.005809 C2.93006346,10.9406469 2.28677711,9.45267245 2.33889583,7.81514076 C2.43326938,4.84932228 4.84872567,2.43361315 7.81456102,2.33884025 C9.45183543,2.28672182 10.9396851,2.92960463 12.0049865,3.99489997 C13.4528473,5.44261928 14.5093512,7.28129344 14.8319274,9.16795388 L13.6639881,7.99988793 Z M7.86374723,0.00110881115 C3.52829578,0.0734881116 0.0320757621,3.59461445 0.000218025069,7.93990508 C-0.0325727838,12.3967638 3.63773177,16 8.09474915,16 L16,16 L16,8.10545774 C16,3.63060416 12.3380931,-0.0735365079 7.86374723,0.00110881115 Z M7.82721081,4.67427901 C6.13488516,4.75972124 4.75967063,6.13492795 4.67422791,7.82711067 C4.62424192,8.81536138 5.0054684,9.71523736 5.64608884,10.3554543 C6.49811668,11.207344 7.57994678,11.8292994 8.68963574,12.019645 L7.99996239,11.3301089 L11.3300956,11.3301089 L11.3300956,7.99999457 L12.019769,8.689664 C11.829289,7.57998135 11.20733,6.49815741 10.3554355,5.64600111 C9.71521494,5.00538432 8.81533384,4.62429331 7.82721081,4.67427901" id="icon"></path>
        </g>
    </g>
</svg>