<?xml version="1.0" encoding="UTF-8"?>
<svg width="127px" height="111px" viewBox="0 0 127 111" version="1.1" xmlns="http://www.w3.org/2000/svg" xmlns:xlink="http://www.w3.org/1999/xlink">
    <!-- Generator: Sketch 48.2 (47327) - http://www.bohemiancoding.com/sketch -->
    <title>Announce</title>
    <desc>Created with Sketch.</desc>
    <defs></defs>
    <g id="Page-1" stroke="none" stroke-width="1" fill="none" fill-rule="evenodd">
        <g id="Announce" transform="translate(0.000000, 1.000000)" fill="#44C7F4" fill-rule="nonzero" stroke="#44C7F4" stroke-width="0.5">
            <g id="Group">
                <path d="M66.675,32.7027027 L103.1875,32.7027027 C103.385938,32.7027027 103.584375,32.6036036 103.782812,32.5045045 C103.782812,32.5045045 103.782812,32.5045045 103.782812,32.5045045 C103.782812,32.5045045 103.782812,32.5045045 103.782812,32.5045045 C103.782812,32.4054054 103.882031,32.4054054 103.882031,32.3063063 C103.882031,32.3063063 103.882031,32.2072072 103.882031,32.2072072 C103.882031,32.2072072 103.882031,32.1081081 103.882031,32.1081081 L103.882031,5.45045045 C103.882031,5.45045045 103.882031,5.45045045 103.882031,5.45045045 C103.882031,5.45045045 103.882031,5.35135135 103.882031,5.35135135 C103.882031,5.35135135 103.882031,5.25225225 103.882031,5.25225225 C103.882031,5.15315315 103.882031,5.15315315 103.782812,5.15315315 C103.782812,5.15315315 103.782812,5.15315315 103.782812,5.05405405 C103.683594,4.85585586 103.485156,4.75675676 103.286719,4.75675676 C103.286719,4.75675676 103.286719,4.75675676 103.286719,4.75675676 C103.286719,4.75675676 103.1875,4.75675676 103.1875,4.75675676 C103.1875,4.75675676 103.1875,4.75675676 103.1875,4.75675676 L56.35625,4.75675676 C56.35625,4.75675676 56.35625,4.75675676 56.35625,4.75675676 C56.2570312,4.75675676 56.1578125,4.75675676 56.0585938,4.85585586 C55.8601562,4.95495495 55.7609375,5.05405405 55.6617187,5.25225225 C55.6617187,5.25225225 55.6617187,5.25225225 55.6617187,5.25225225 C55.6617187,5.35135135 55.5625,5.45045045 55.5625,5.54954955 L55.5625,19.027027 C53.3796875,17.5405405 51.0976562,16.2522523 48.5179687,15.3603604 C32.54375,9.51351351 14.8828125,17.8378378 9.128125,33.7927928 C4.06796875,47.8648649 9.82265625,63.5225225 22.8203125,70.8558559 C23.2171875,71.4504505 22.225,74.9189189 20.8359375,78.1891892 C20.7367187,78.3873874 20.7367187,78.5855856 20.8359375,78.7837838 C20.9351563,78.981982 21.034375,79.0810811 21.2328125,79.1801802 C21.3320312,79.1801802 21.5304687,79.2792793 21.7289062,79.2792793 C22.7210937,79.2792793 24.3085938,78.3873874 27.4835938,76.6036036 C29.0710938,75.7117117 31.4523438,74.3243243 31.9484375,74.3243243 C46.83125,77.3963964 61.9125,68.8738739 67.071875,54.6036036 C69.1554687,48.7567568 69.453125,42.5135135 67.9648438,36.5675676 C67.5679688,35.2792793 67.1710937,33.990991 66.675,32.7027027 Z M89.296875,18.4324324 L102.492969,7.03603604 L102.492969,30.2252252 L89.296875,18.4324324 Z M80.3671875,24.1801802 C80.0695312,24.4774775 79.5734375,24.4774775 79.1765625,24.1801802 L58.340625,6.24324324 L101.203125,6.24324324 L80.3671875,24.1801802 Z M57.0507812,7.03603604 L70.246875,18.4324324 L57.0507812,30.3243243 L57.0507812,20.3153153 L57.0507812,7.03603604 Z M71.4375,19.4234234 L78.2835937,25.2702703 C79.1765625,26.0630631 80.4664063,26.0630631 81.359375,25.2702703 L88.2054687,19.4234234 L101.203125,31.2162162 L65.484375,31.2162162 L58.2414062,31.2162162 L71.4375,19.4234234 Z M65.6828125,54.1081081 C60.8210938,67.6846847 46.434375,75.8108108 32.2460938,72.8378378 C31.353125,72.6396396 29.9640625,73.4324324 26.6898437,75.3153153 C25.4992188,76.009009 23.8125,77 22.7210938,77.4954955 C24.1101562,74.1261261 25.1023437,70.4594595 23.6140625,69.6666667 C11.2117188,62.6306306 5.65546875,47.7657658 10.5171875,34.2882883 C14.7835937,22.3963964 26.0945312,14.963964 38.1,14.963964 C41.3742187,14.963964 44.7476562,15.5585586 48.021875,16.6486486 C50.8,17.6396396 53.2804687,19.027027 55.5625,20.7117117 L55.5625,32.009009 C55.5625,32.009009 55.5625,32.1081081 55.5625,32.1081081 C55.5625,32.2072072 55.5625,32.2072072 55.5625,32.3063063 C55.5625,32.4054054 55.6617187,32.4054054 55.6617187,32.4054054 C55.6617187,32.4054054 55.6617187,32.5045045 55.7609375,32.5045045 C55.7609375,32.5045045 55.7609375,32.5045045 55.7609375,32.5045045 C55.8601563,32.6036036 55.8601563,32.6036036 55.959375,32.6036036 C55.959375,32.6036036 55.959375,32.6036036 55.959375,32.6036036 C56.0585938,32.6036036 56.1578125,32.7027027 56.2570312,32.7027027 L64.9882812,32.7027027 C65.5835937,34.0900901 66.0796875,35.4774775 66.3773438,36.8648649 C67.9648438,42.6126126 67.6671875,48.5585586 65.6828125,54.1081081 Z" id="Shape"></path>
                <path d="M93.265625,66.1981982 L108.049219,73.9279279 C108.644531,74.2252252 109.239844,74.3243243 109.835156,74.3243243 L112.811719,74.3243243 C113.208594,74.3243243 113.605469,74.027027 113.605469,73.5315315 L113.605469,45.981982 C113.605469,45.5855856 113.307812,45.1891892 112.811719,45.1891892 L109.934375,45.1891892 C109.339062,45.1891892 108.644531,45.3873874 108.148437,45.5855856 L93.265625,53.3153153 L81.2601562,53.3153153 C81.2601562,53.3153153 81.2601562,53.3153153 81.2601562,53.3153153 C77.6882813,53.3153153 74.8109375,56.1891892 74.8109375,59.7567568 C74.8109375,63.3243243 77.6882813,66.1981982 81.2601562,66.1981982 L83.8398437,66.1981982 L83.8398437,76.6036036 C83.8398437,78.4864865 85.328125,79.972973 87.2132812,79.972973 L87.5109375,79.972973 C89.3960937,79.972973 90.884375,78.4864865 90.884375,76.6036036 L90.884375,66.1981982 L93.265625,66.1981982 Z M76.2992187,59.7567568 C76.2992187,56.981982 78.58125,54.8018018 81.2601562,54.8018018 C81.2601562,54.8018018 81.2601562,54.8018018 81.2601562,54.8018018 L93.4640625,54.8018018 C93.4640625,54.8018018 93.4640625,54.8018018 93.4640625,54.8018018 C93.5632812,54.8018018 93.6625,54.8018018 93.7617187,54.7027027 L108.74375,46.972973 C109.041406,46.7747748 109.438281,46.6756757 109.835156,46.6756757 L111.91875,46.6756757 L111.91875,72.8378378 L109.735937,72.8378378 C109.339062,72.8378378 108.942187,72.7387387 108.644531,72.5405405 L93.7617187,64.7117117 C93.6625,64.6126126 93.5632812,64.6126126 93.4640625,64.6126126 L90.1898437,64.6126126 C90.1898437,64.6126126 90.1898437,64.6126126 90.090625,64.6126126 L84.534375,64.6126126 C84.534375,64.6126126 84.534375,64.6126126 84.534375,64.6126126 L81.2601562,64.6126126 C78.4820312,64.7117117 76.2992187,62.4324324 76.2992187,59.7567568 Z M89.3960937,76.6036036 C89.3960937,77.5945946 88.6023437,78.4864865 87.5109375,78.4864865 L87.2132812,78.4864865 C86.2210937,78.4864865 85.328125,77.6936937 85.328125,76.6036036 L85.328125,66.1981982 L89.296875,66.1981982 L89.296875,76.6036036 L89.3960937,76.6036036 Z" id="Shape"></path>
                <path d="M118.070312,49.1531532 L123.229687,49.1531532 C123.626562,49.1531532 124.023437,48.8558559 124.023437,48.3603604 C124.023437,47.8648649 123.725781,47.5675676 123.229687,47.5675676 L118.070312,47.5675676 C117.673437,47.5675676 117.276562,47.8648649 117.276562,48.3603604 C117.276562,48.8558559 117.574219,49.1531532 118.070312,49.1531532 Z" id="Shape"></path>
                <path d="M118.070312,54.9009009 L125.214062,54.9009009 C125.610938,54.9009009 126.007812,54.6036036 126.007812,54.1081081 C126.007812,53.6126126 125.710156,53.3153153 125.214062,53.3153153 L118.070312,53.3153153 C117.673437,53.3153153 117.276562,53.6126126 117.276562,54.1081081 C117.276562,54.6036036 117.574219,54.9009009 118.070312,54.9009009 Z" id="Shape"></path>
                <path d="M125.710156,59.1621622 L118.070312,59.1621622 C117.673437,59.1621622 117.276562,59.4594595 117.276562,59.954955 C117.276562,60.3513514 117.574219,60.7477477 118.070312,60.7477477 L125.809375,60.7477477 C126.20625,60.7477477 126.603125,60.4504505 126.603125,59.954955 C126.503906,59.4594595 126.20625,59.1621622 125.710156,59.1621622 Z" id="Shape"></path>
                <path d="M125.214062,64.8108108 L118.070312,64.8108108 C117.673437,64.8108108 117.276562,65.1081081 117.276562,65.6036036 C117.276562,66 117.574219,66.3963964 118.070312,66.3963964 L125.214062,66.3963964 C125.610938,66.3963964 126.007812,66.0990991 126.007812,65.6036036 C125.908594,65.2072072 125.610937,64.8108108 125.214062,64.8108108 Z" id="Shape"></path>
                <path d="M123.229687,70.5585586 L118.070312,70.5585586 C117.673437,70.5585586 117.276562,70.8558559 117.276562,71.3513514 C117.276562,71.7477477 117.574219,72.1441441 118.070312,72.1441441 L123.229687,72.1441441 C123.626562,72.1441441 124.023437,71.8468468 124.023437,71.3513514 C123.924219,70.8558559 123.626562,70.5585586 123.229687,70.5585586 Z" id="Shape"></path>
                <path d="M64.0953125,75.7117117 C62.1109375,75.7117117 60.4242187,77.2972973 60.4242187,79.3783784 C60.4242187,79.6756757 60.5234375,80.0720721 60.6226562,80.3693694 L49.4109375,84.3333333 C48.7164062,83.5405405 47.8234375,83.1441441 46.7320312,83.1441441 C44.7476562,83.1441441 43.0609375,84.7297297 43.0609375,86.8108108 C43.0609375,88.7927928 44.6484375,90.4774775 46.7320312,90.4774775 C47.5257812,90.4774775 48.3195312,90.1801802 48.9148437,89.6846847 L54.371875,93.1531532 C54.1734375,93.5495495 54.1734375,93.9459459 54.1734375,94.4414414 C54.1734375,96.4234234 55.7609375,98.1081081 57.8445312,98.1081081 C59.8289063,98.1081081 61.515625,96.5225225 61.515625,94.4414414 C61.515625,92.4594595 59.928125,90.7747748 57.8445312,90.7747748 C56.8523437,90.7747748 55.959375,91.1711712 55.2648437,91.8648649 L49.9070312,88.4954955 C50.2046875,88 50.403125,87.4054054 50.403125,86.8108108 C50.403125,86.4144144 50.3039062,86.1171171 50.2046875,85.7207207 L61.4164062,81.7567568 C62.1109375,82.5495495 63.103125,83.045045 64.1945312,83.045045 C66.1789062,83.045045 67.865625,81.4594595 67.865625,79.3783784 C67.7664063,77.3963964 66.0796875,75.7117117 64.0953125,75.7117117 Z M57.8445312,92.2612613 C59.0351562,92.2612613 59.928125,93.2522523 59.928125,94.3423423 C59.928125,95.5315315 58.9359375,96.4234234 57.8445312,96.4234234 C56.6539062,96.4234234 55.7609375,95.4324324 55.7609375,94.3423423 C55.6617188,93.2522523 56.6539063,92.2612613 57.8445312,92.2612613 Z M44.6484375,86.7117117 C44.6484375,85.5225225 45.640625,84.6306306 46.7320312,84.6306306 C47.9226563,84.6306306 48.815625,85.6216216 48.815625,86.7117117 C48.815625,87.8018018 47.8234375,88.7927928 46.7320312,88.7927928 C45.5414062,88.8918919 44.6484375,87.9009009 44.6484375,86.7117117 Z M64.0953125,81.4594595 C62.9046875,81.4594595 62.0117188,80.4684685 62.0117188,79.3783784 C62.0117188,78.1891892 63.0039062,77.2972973 64.0953125,77.2972973 C65.2859375,77.2972973 66.1789062,78.2882883 66.1789062,79.3783784 C66.278125,80.5675676 65.2859375,81.4594595 64.0953125,81.4594595 Z" id="Shape"></path>
                <path d="M1.28984375,35.6756757 C0.89296875,35.6756757 0.49609375,35.972973 0.49609375,36.4684685 L0.49609375,47.7657658 C0.49609375,48.1621622 0.79375,48.5585586 1.28984375,48.5585586 C1.68671875,48.5585586 2.08359375,48.2612613 2.08359375,47.7657658 L2.08359375,36.3693694 C1.984375,35.972973 1.68671875,35.6756757 1.28984375,35.6756757 Z" id="Shape"></path>
                <path d="M1.28984375,50.6396396 C0.89296875,50.6396396 0.49609375,50.9369369 0.49609375,51.4324324 L0.49609375,55.0990991 C0.49609375,55.4954955 0.79375,55.8918919 1.28984375,55.8918919 C1.68671875,55.7927928 1.984375,55.4954955 1.984375,55.0990991 L1.984375,51.4324324 C1.984375,51.036036 1.68671875,50.6396396 1.28984375,50.6396396 Z" id="Shape"></path>
                <path d="M77.0929687,88.8918919 C76.6960937,88.8918919 76.2992187,89.1891892 76.2992187,89.6846847 L76.2992187,100.981982 C76.2992187,101.378378 76.596875,101.774775 77.0929687,101.774775 C77.4898437,101.774775 77.8867187,101.477477 77.8867187,100.981982 L77.8867187,89.6846847 C77.8867187,89.1891892 77.4898437,88.8918919 77.0929687,88.8918919 Z" id="Shape"></path>
                <path d="M77.0929687,103.954955 C76.6960937,103.954955 76.2992187,104.252252 76.2992187,104.747748 L76.2992187,108.414414 C76.2992187,108.810811 76.596875,109.207207 77.0929687,109.207207 C77.4898437,109.207207 77.8867187,108.90991 77.8867187,108.414414 L77.8867187,104.747748 C77.8867187,104.252252 77.4898437,103.954955 77.0929687,103.954955 Z" id="Shape"></path>
                <path d="M113.903125,17.045045 C114.002344,17.1441441 114.200781,17.2432432 114.399219,17.2432432 C114.597656,17.2432432 114.796094,17.1441441 114.895312,17.045045 C115.192969,16.7477477 115.192969,16.2522523 114.895312,15.954955 L113.208594,14.2702703 C112.910937,13.972973 112.414844,13.972973 112.117187,14.2702703 C111.819531,14.5675676 111.819531,15.0630631 112.117187,15.3603604 L113.903125,17.045045 Z" id="Shape"></path>
                <path d="M119.558594,22.5945946 C119.657812,22.6936937 119.85625,22.7927928 120.054688,22.7927928 C120.253125,22.7927928 120.451562,22.6936937 120.550781,22.5945946 C120.848437,22.2972973 120.848437,21.8018018 120.550781,21.5045045 L118.864062,19.8198198 C118.566406,19.5225225 118.070312,19.5225225 117.772656,19.8198198 C117.475,20.1171171 117.475,20.6126126 117.772656,20.9099099 L119.558594,22.5945946 Z" id="Shape"></path>
                <path d="M112.7125,22.7927928 C112.910937,22.7927928 113.109375,22.6936937 113.208594,22.5945946 L114.895312,20.9099099 C115.192969,20.6126126 115.192969,20.1171171 114.895312,19.8198198 C114.597656,19.5225225 114.101562,19.5225225 113.803906,19.8198198 L112.117187,21.5045045 C111.819531,21.8018018 111.819531,22.2972973 112.117187,22.5945946 C112.414844,22.7927928 112.613281,22.7927928 112.7125,22.7927928 Z" id="Shape"></path>
                <path d="M118.367969,17.2432432 C118.566406,17.2432432 118.764844,17.1441441 118.864062,17.045045 L120.550781,15.3603604 C120.848437,15.0630631 120.848437,14.5675676 120.550781,14.2702703 C120.253125,13.972973 119.757031,13.972973 119.459375,14.2702703 L117.772656,15.954955 C117.475,16.2522523 117.475,16.7477477 117.772656,17.045045 C117.971094,17.1441441 118.169531,17.2432432 118.367969,17.2432432 Z" id="Shape"></path>
                <path d="M26.4914063,96.7207207 C26.19375,96.4234234 25.6976562,96.4234234 25.4,96.7207207 C25.1023437,97.018018 25.1023437,97.5135135 25.4,97.8108108 L27.0867187,99.4954955 C27.1859375,99.5945946 27.384375,99.6936937 27.5828125,99.6936937 C27.78125,99.6936937 27.9796875,99.5945946 28.0789062,99.4954955 C28.3765625,99.1981982 28.3765625,98.7027027 28.0789062,98.4054054 L26.4914063,96.7207207 Z" id="Shape"></path>
                <path d="M32.0476562,102.27027 C31.75,101.972973 31.2539062,101.972973 30.95625,102.27027 C30.6585937,102.567568 30.6585937,103.063063 30.95625,103.36036 L32.7421875,105.045045 C32.8414062,105.144144 33.0398437,105.243243 33.2382812,105.243243 C33.4367187,105.243243 33.6351562,105.144144 33.734375,105.045045 C34.0320312,104.747748 34.0320312,104.252252 33.734375,103.954955 L32.0476562,102.27027 Z" id="Shape"></path>
                <path d="M27.0867188,102.27027 L25.4,103.954955 C25.1023437,104.252252 25.1023437,104.747748 25.4,105.045045 C25.4992188,105.144144 25.6976563,105.243243 25.8960938,105.243243 C26.0945313,105.243243 26.2929688,105.144144 26.3921875,105.045045 L28.0789063,103.36036 C28.3765625,103.063063 28.3765625,102.567568 28.0789063,102.27027 C27.8804688,101.972973 27.384375,101.972973 27.0867188,102.27027 Z" id="Shape"></path>
                <path d="M32.7421875,96.7207207 L31.0554687,98.4054054 C30.7578125,98.7027027 30.7578125,99.1981982 31.0554687,99.4954955 C31.1546875,99.5945946 31.353125,99.6936937 31.5515625,99.6936937 C31.75,99.6936937 31.9484375,99.5945946 32.0476562,99.4954955 L33.734375,97.8108108 C34.0320312,97.5135135 34.0320312,97.018018 33.734375,96.7207207 C33.4367187,96.4234234 33.0398437,96.4234234 32.7421875,96.7207207 Z" id="Shape"></path>
                <path d="M100.310156,81.4594595 L98.6234375,79.7747748 C98.3257812,79.4774775 97.8296875,79.4774775 97.5320312,79.7747748 C97.234375,80.0720721 97.234375,80.5675676 97.5320312,80.8648649 L99.21875,82.5495495 C99.3179687,82.6486486 99.5164062,82.7477477 99.7148438,82.7477477 C99.9132812,82.7477477 100.111719,82.6486486 100.210938,82.5495495 C100.607812,82.1531532 100.607812,81.7567568 100.310156,81.4594595 Z" id="Shape"></path>
                <path d="M104.179688,85.2252252 C103.882031,84.9279279 103.385937,84.9279279 103.088281,85.2252252 C102.790625,85.5225225 102.790625,86.018018 103.088281,86.3153153 L104.775,88 C104.874219,88.0990991 105.072656,88.1981982 105.271094,88.1981982 C105.469531,88.1981982 105.667969,88.0990991 105.767188,88 C106.064844,87.7027027 106.064844,87.2072072 105.767188,86.9099099 L104.179688,85.2252252 Z" id="Shape"></path>
                <path d="M99.21875,85.2252252 L97.5320312,86.9099099 C97.234375,87.2072072 97.234375,87.7027027 97.5320312,88 C97.63125,88.0990991 97.8296875,88.1981982 98.028125,88.1981982 C98.2265625,88.1981982 98.425,88.0990991 98.5242187,88 L100.210938,86.3153153 C100.508594,86.018018 100.508594,85.5225225 100.210938,85.2252252 C100.0125,85.027027 99.5164062,85.027027 99.21875,85.2252252 Z" id="Shape"></path>
                <path d="M105.866406,79.6756757 C105.56875,79.3783784 105.072656,79.3783784 104.775,79.6756757 L103.088281,81.3603604 C102.790625,81.6576577 102.790625,82.1531532 103.088281,82.4504505 C103.1875,82.5495495 103.385937,82.6486486 103.584375,82.6486486 C103.782813,82.6486486 103.98125,82.5495495 104.080469,82.4504505 L105.767188,80.7657658 C106.164062,80.4684685 106.164062,79.972973 105.866406,79.6756757 Z" id="Shape"></path>
                <path d="M45.9382813,7.72972973 C48.1210938,7.72972973 49.8078125,5.94594595 49.8078125,3.86486486 C49.8078125,1.68468468 48.021875,0 45.9382813,0 C43.7554687,0 42.06875,1.78378378 42.06875,3.86486486 C42.06875,6.04504505 43.8546875,7.72972973 45.9382813,7.72972973 Z M45.9382813,1.38738739 C47.228125,1.38738739 48.3195312,2.47747748 48.3195312,3.76576577 C48.3195312,5.05405405 47.228125,6.14414414 45.9382813,6.14414414 C44.6484375,6.14414414 43.5570313,5.05405405 43.5570313,3.76576577 C43.5570313,2.47747748 44.6484375,1.38738739 45.9382813,1.38738739 Z" id="Shape"></path>
                <path d="M6.05234375,85.7207207 C3.86953125,85.7207207 2.1828125,87.5045045 2.1828125,89.5855856 C2.1828125,91.7657658 3.96875,93.4504505 6.05234375,93.4504505 C8.23515625,93.4504505 9.921875,91.6666667 9.921875,89.5855856 C10.0210938,87.5045045 8.23515625,85.7207207 6.05234375,85.7207207 Z M6.05234375,92.0630631 C4.7625,92.0630631 3.67109375,90.972973 3.67109375,89.6846847 C3.67109375,88.3963964 4.7625,87.2072072 6.05234375,87.2072072 C7.3421875,87.2072072 8.43359375,88.2972973 8.43359375,89.5855856 C8.43359375,90.8738739 7.44140625,92.0630631 6.05234375,92.0630631 Z" id="Shape"></path>
                <path d="M13.096875,8.12612613 C13.096875,8.52252252 13.3945312,8.91891892 13.890625,8.91891892 L29.6664063,8.91891892 C30.0632812,8.91891892 30.4601562,8.62162162 30.4601562,8.12612613 C30.4601562,7.63063063 30.1625,7.33333333 29.6664063,7.33333333 L13.7914062,7.33333333 C13.3945312,7.33333333 13.096875,7.72972973 13.096875,8.12612613 Z" id="Shape"></path>
                <path d="M3.47265625,8.81981982 L8.5328125,8.81981982 C8.9296875,8.81981982 9.3265625,8.52252252 9.3265625,8.02702703 C9.3265625,7.53153153 9.02890625,7.23423423 8.5328125,7.23423423 L3.47265625,7.23423423 C3.07578125,7.23423423 2.67890625,7.53153153 2.67890625,8.02702703 C2.67890625,8.52252252 3.07578125,8.81981982 3.47265625,8.81981982 Z" id="Shape"></path>
                <path d="M3.47265625,3.46846847 L14.4859375,3.46846847 C14.8828125,3.46846847 15.2796875,3.17117117 15.2796875,2.67567568 C15.2796875,2.27927928 14.9820312,1.88288288 14.4859375,1.88288288 L3.47265625,1.88288288 C3.07578125,1.88288288 2.67890625,2.18018018 2.67890625,2.67567568 C2.778125,3.17117117 3.07578125,3.46846847 3.47265625,3.46846847 Z" id="Shape"></path>
                <path d="M19.2484375,3.46846847 L22.8203125,3.46846847 C23.2171875,3.46846847 23.6140625,3.17117117 23.6140625,2.67567568 C23.6140625,2.27927928 23.3164062,1.88288288 22.8203125,1.88288288 L19.2484375,1.88288288 C18.8515625,1.88288288 18.4546875,2.18018018 18.4546875,2.67567568 C18.4546875,3.17117117 18.8515625,3.46846847 19.2484375,3.46846847 Z" id="Shape"></path>
                <path d="M109.636719,98.5045045 C109.636719,98.1081081 109.339062,97.7117117 108.842969,97.7117117 L93.1664063,97.7117117 C92.7695312,97.7117117 92.3726563,98.009009 92.3726563,98.5045045 C92.3726563,98.9009009 92.6703125,99.2972973 93.1664063,99.2972973 L108.942188,99.2972973 C109.339062,99.2972973 109.636719,99 109.636719,98.5045045 Z" id="Shape"></path>
                <path d="M119.161719,97.8108108 L114.101562,97.8108108 C113.704687,97.8108108 113.307812,98.1081081 113.307812,98.6036036 C113.307812,99 113.605469,99.3963964 114.101562,99.3963964 L119.161719,99.3963964 C119.558594,99.3963964 119.955469,99.0990991 119.955469,98.6036036 C119.955469,98.1081081 119.558594,97.8108108 119.161719,97.8108108 Z" id="Shape"></path>
                <path d="M119.161719,103.261261 L108.148438,103.261261 C107.751563,103.261261 107.354688,103.558559 107.354688,104.054054 C107.354688,104.45045 107.652344,104.846847 108.148438,104.846847 L119.161719,104.846847 C119.558594,104.846847 119.955469,104.54955 119.955469,104.054054 C119.955469,103.558559 119.558594,103.261261 119.161719,103.261261 Z" id="Shape"></path>
                <path d="M103.485156,103.261261 L99.9132812,103.261261 C99.5164062,103.261261 99.1195312,103.558559 99.1195312,104.054054 C99.1195312,104.45045 99.4171875,104.846847 99.9132812,104.846847 L103.485156,104.846847 C103.882031,104.846847 104.278906,104.54955 104.278906,104.054054 C104.179688,103.558559 103.882031,103.261261 103.485156,103.261261 Z" id="Shape"></path>
                <path d="M58.0429688,44.990991 L19.05,44.990991 C18.653125,44.990991 18.25625,45.2882883 18.25625,45.7837838 C18.25625,46.1801802 18.5539062,46.5765766 19.05,46.5765766 L57.94375,46.5765766 C58.340625,46.5765766 58.7375,46.2792793 58.7375,45.7837838 C58.7375,45.2882883 58.4398437,44.990991 58.0429688,44.990991 Z" id="Shape"></path>
                <path d="M52.4867187,53.7117117 L24.60625,53.7117117 C24.209375,53.7117117 23.8125,54.009009 23.8125,54.5045045 C23.8125,54.9009009 24.1101562,55.2972973 24.60625,55.2972973 L52.5859375,55.2972973 C52.9828125,55.2972973 53.3796875,55 53.3796875,54.5045045 C53.2804687,54.009009 52.8835937,53.7117117 52.4867187,53.7117117 Z" id="Shape"></path>
                <path d="M58.0429688,36.2702703 L19.05,36.2702703 C18.653125,36.2702703 18.25625,36.5675676 18.25625,37.0630631 C18.25625,37.5585586 18.5539062,37.8558559 19.05,37.8558559 L57.94375,37.8558559 C58.340625,37.8558559 58.7375,37.5585586 58.7375,37.0630631 C58.7375,36.5675676 58.4398437,36.2702703 58.0429688,36.2702703 Z" id="Shape"></path>
            </g>
        </g>
    </g>
</svg>