<?xml version="1.0" encoding="UTF-8"?>
<svg width="128px" height="122px" viewBox="0 0 128 122" version="1.1" xmlns="http://www.w3.org/2000/svg" xmlns:xlink="http://www.w3.org/1999/xlink">
    <!-- Generator: Sketch 48.2 (47327) - http://www.bohemiancoding.com/sketch -->
    <title>Attract</title>
    <desc>Created with Sketch.</desc>
    <defs></defs>
    <g id="Page-1" stroke="none" stroke-width="1" fill="none" fill-rule="evenodd">
        <g id="Attract" transform="translate(0.000000, 1.000000)" fill="#44C7F4" fill-rule="nonzero" stroke="#44C7F4" stroke-width="0.4">
            <g id="Group">
                <path d="M126.7,18.8 C126.3,18.8 125.9,19.1 125.9,19.6 L125.9,32.7 C125.9,33.1 126.2,33.5 126.7,33.5 C127.1,33.5 127.5,33.2 127.5,32.7 L127.5,19.5 C127.5,19.1 127.2,18.8 126.7,18.8 Z" id="Shape"></path>
                <path d="M126.7,36.2 C126.3,36.2 125.9,36.5 125.9,37 L125.9,41.2 C125.9,41.6 126.2,42 126.7,42 C127.1,42 127.5,41.7 127.5,41.2 L127.5,37 C127.5,36.5 127.2,36.2 126.7,36.2 Z" id="Shape"></path>
                <path d="M29.8,89.1 C29.6,89 29.4,89.1 29.2,89.2 C29,89.3 28.9,89.5 28.9,89.7 C28.5,93 25.1,95.4 21,95.4 C16.9,95.4 13.5,92.9 13.1,89.7 C13.1,89.5 12.9,89.3 12.8,89.2 C12.6,89.1 12.4,89.1 12.2,89.1 C5.2,91.4 0.8,97.9 1.3,105 L2.2,119.3 C2.2,119.7 2.6,120 3,120 L38.8,120 C39.2,120 39.5,119.7 39.6,119.3 L40.5,105 C41,97.9 36.6,91.4 29.8,89.1 Z M39,104.9 L38.1,118.5 L3.7,118.5 L2.8,104.9 C2.4,98.8 6,93.1 11.6,90.9 C12.6,94.5 16.4,97 20.9,97 C25.4,97 29.2,94.4 30.2,90.9 C35.8,93.1 39.4,98.8 39,104.9 Z" id="Shape"></path>
                <path d="M20.9,88.4 C27.1,88.4 32.1,83.1 32.1,76.5 C32.1,69.9 27.1,64.6 20.9,64.6 C14.7,64.6 9.7,69.9 9.7,76.5 C9.7,83 14.7,88.4 20.9,88.4 Z M20.9,66.1 C26.2,66.1 30.6,70.8 30.6,76.5 C30.6,82.2 26.3,86.9 20.9,86.9 C15.5,86.9 11.2,82.2 11.2,76.5 C11.2,70.7 15.6,66.1 20.9,66.1 Z" id="Shape"></path>
                <path d="M82.3,96.9 C82.7,96.9 83,96.6 83.1,96.2 L84,81.9 C84.5,74.8 80.1,68.3 73.3,66.1 C73.1,66 72.9,66.1 72.7,66.2 C72.5,66.3 72.4,66.5 72.4,66.7 C72,70 68.6,72.4 64.5,72.4 C60.4,72.4 57,69.9 56.6,66.7 C56.6,66.5 56.4,66.3 56.3,66.2 C56.1,66.1 55.9,66.1 55.7,66.1 C49,68.3 44.6,74.9 45,81.9 L45.9,96.2 C45.9,96.6 46.3,96.9 46.7,96.9 L82.3,96.9 Z M55.1,67.8 C56.1,71.4 59.9,73.9 64.4,73.9 C68.9,73.9 72.7,71.3 73.7,67.8 C79.3,70.1 82.9,75.7 82.5,81.8 L81.6,95.4 L47.2,95.4 L46.3,81.8 C45.9,75.7 49.5,70 55.1,67.8 Z" id="Shape"></path>
                <path d="M64.4,41.5 C58.2,41.5 53.2,46.8 53.2,53.4 C53.2,60 58.2,65.3 64.4,65.3 C70.6,65.3 75.6,60 75.6,53.4 C75.6,46.8 70.6,41.5 64.4,41.5 Z M64.4,63.8 C59.1,63.8 54.7,59.1 54.7,53.4 C54.7,47.7 59,43 64.4,43 C69.8,43 74.1,47.7 74.1,53.4 C74.1,59.1 69.7,63.8 64.4,63.8 Z" id="Shape"></path>
                <path d="M116.8,43 C116.6,42.9 116.4,43 116.2,43.1 C116,43.2 115.9,43.4 115.9,43.6 C115.5,46.9 112.1,49.3 108,49.3 C103.9,49.3 100.5,46.8 100.1,43.6 C100.1,43.4 99.9,43.2 99.8,43.1 C99.6,43 99.4,43 99.2,43 C92.5,45.2 88.1,51.8 88.5,58.8 L89.4,73.1 C89.4,73.5 89.8,73.8 90.2,73.8 L126,73.8 C126.4,73.8 126.7,73.5 126.8,73.1 L127.7,58.8 C127.9,51.8 123.5,45.2 116.8,43 Z M126,58.8 L125.1,72.4 L90.7,72.4 L89.8,58.8 C89.4,52.7 93,47 98.6,44.8 C99.6,48.4 103.4,50.9 107.9,50.9 C112.4,50.9 116.2,48.3 117.2,44.8 C122.8,47 126.4,52.6 126,58.8 Z" id="Shape"></path>
                <path d="M96.7,30.3 C96.7,36.9 101.7,42.2 107.9,42.2 C114.1,42.2 119.1,36.9 119.1,30.3 C119.1,23.7 114.1,18.4 107.9,18.4 C101.7,18.4 96.7,23.8 96.7,30.3 Z M107.9,19.9 C113.2,19.9 117.6,24.6 117.6,30.3 C117.6,36 113.3,40.7 107.9,40.7 C102.6,40.7 98.2,36 98.2,30.3 C98.2,24.6 102.5,19.9 107.9,19.9 Z" id="Shape"></path>
                <path d="M22.7,53.3 C23.1,53.8 23.3,56.8 23.1,59.8 C23.1,60 23.2,60.2 23.3,60.4 C23.4,60.6 23.6,60.6 23.8,60.6 C24.7,60.6 25.8,59.4 28.2,56.6 C29.2,55.4 30.7,53.6 31.1,53.4 C44.2,51.5 54.1,40.1 54.1,26.8 C54.2,12.1 42.2,0 27.4,0 C12.5,0 0.5,12.1 0.5,26.9 C0.5,40 9.8,51.1 22.7,53.3 Z M27.4,1.5 C41.4,1.5 52.8,12.9 52.8,26.9 C52.8,39.4 43.5,50.2 31.1,52 C30.3,52.1 29.4,53.2 27.2,55.7 C26.5,56.6 25.5,57.7 24.8,58.4 C24.9,54.3 24.4,52.1 23.1,51.9 C10.9,49.8 2.1,39.3 2.1,26.9 C2,12.9 13.4,1.5 27.4,1.5 Z" id="Shape"></path>
                <path d="M13.9,33.5 L10.2,35.7 C9.8,35.9 9.7,36.4 9.9,36.7 C10,36.9 10.3,37.1 10.5,37.1 C10.6,37.1 10.8,37.1 10.9,37 L14.6,34.8 C16.5,37.7 19.4,39.9 22.8,40.9 L21.7,45.1 C21.6,45.5 21.8,45.9 22.2,46 C22.3,46 22.3,46 22.4,46 C22.7,46 23,45.8 23.1,45.4 L24.2,41.2 C25.2,41.4 26.2,41.5 27.2,41.5 C29.7,41.5 32.1,40.9 34.3,39.7 L36.5,43.4 C36.6,43.6 36.9,43.8 37.1,43.8 C37.2,43.8 37.4,43.8 37.5,43.7 C37.9,43.5 38,43 37.8,42.7 L35.8,39 C38.6,37.1 40.8,34.3 41.9,30.8 L46.1,31.9 C46.2,31.9 46.2,31.9 46.3,31.9 C46.6,31.9 46.9,31.7 47,31.3 C47.1,30.9 46.9,30.5 46.5,30.4 L42.3,29.3 C43,25.8 42.5,22.3 40.8,19.2 L44.5,17 C44.9,16.8 45,16.3 44.8,16 C44.6,15.6 44.1,15.5 43.8,15.7 L40,18 C38.1,15.1 35.2,12.9 31.8,11.9 L32.9,7.7 C33,7.3 32.8,6.9 32.4,6.8 C32,6.7 31.6,6.9 31.5,7.3 L30.4,11.5 C26.9,10.8 23.4,11.3 20.3,13 L18,9.2 C17.8,8.8 17.3,8.7 17,8.9 C16.6,9.1 16.5,9.6 16.7,9.9 L18.9,13.6 C16,15.5 13.8,18.4 12.8,21.8 L8.6,20.7 C8.2,20.6 7.8,20.8 7.7,21.2 C7.6,21.6 7.8,22 8.2,22.1 L12.4,23.2 C11.8,26.8 12.3,30.3 13.9,33.5 Z M20.4,14.6 C22.5,13.3 24.9,12.7 27.4,12.7 C28.5,12.7 29.7,12.8 30.8,13.1 C34.3,14 37.3,16.2 39.2,19.4 C41.1,22.5 41.6,26.2 40.7,29.8 C38.8,37 31.3,41.5 24,39.6 C20.5,38.7 17.5,36.5 15.6,33.3 C13.7,30.2 13.2,26.5 14.1,22.9 C15,19.4 17.2,16.5 20.4,14.6 Z" id="Shape"></path>
                <path d="M25.2,34.8 C25.9,35 26.6,35.1 27.4,35.1 C31.3,35.1 34.9,32.5 35.9,28.5 C37.1,23.8 34.3,19.1 29.6,17.9 C27.3,17.3 25,17.7 23,18.9 C21,20.1 19.6,22 19,24.3 C18.4,26.6 18.8,28.9 20,30.9 C21,32.8 22.9,34.3 25.2,34.8 Z M20.3,24.6 C20.8,22.7 22,21.2 23.6,20.2 C24.7,19.5 26,19.2 27.3,19.2 C27.9,19.2 28.5,19.3 29.1,19.4 C33,20.4 35.3,24.3 34.3,28.2 C33.3,32.1 29.4,34.4 25.5,33.4 C23.6,32.9 22.1,31.7 21.1,30.1 C20.2,28.4 19.9,26.4 20.3,24.6 Z" id="Shape"></path>
                <path d="M120.1,95.8 C120.5,95.8 120.9,95.5 120.9,95 L120.9,82.4 C120.9,82 120.6,81.6 120.1,81.6 C119.7,81.6 119.3,81.9 119.3,82.4 L119.3,95 C119.3,95.5 119.7,95.8 120.1,95.8 Z" id="Shape"></path>
                <path d="M119.3,103.3 C119.3,103.7 119.6,104.1 120.1,104.1 C120.5,104.1 120.9,103.8 120.9,103.3 L120.9,99.2 C120.9,98.8 120.6,98.4 120.1,98.4 C119.7,98.4 119.3,98.7 119.3,99.2 L119.3,103.3 Z" id="Shape"></path>
                <path d="M59.6,104.7 L57.9,103 C57.6,102.7 57.1,102.7 56.8,103 C56.5,103.3 56.5,103.8 56.8,104.1 L58.5,105.8 C58.6,105.9 58.8,106 59,106 C59.2,106 59.4,105.9 59.5,105.8 C59.9,105.5 59.9,105 59.6,104.7 Z" id="Shape"></path>
                <path d="M63.4,108.6 C63.1,108.3 62.6,108.3 62.3,108.6 C62,108.9 62,109.4 62.3,109.7 L64,111.4 C64.1,111.5 64.3,111.6 64.5,111.6 C64.7,111.6 64.9,111.5 65,111.4 C65.3,111.1 65.3,110.6 65,110.3 L63.4,108.6 Z" id="Shape"></path>
                <path d="M58.5,108.6 L56.8,110.3 C56.5,110.6 56.5,111.1 56.8,111.4 C56.9,111.5 57.1,111.6 57.3,111.6 C57.5,111.6 57.7,111.5 57.8,111.4 L59.5,109.7 C59.8,109.4 59.8,108.9 59.5,108.6 C59.3,108.3 58.8,108.3 58.5,108.6 Z" id="Shape"></path>
                <path d="M65.2,103 C64.9,102.7 64.4,102.7 64.1,103 L62.4,104.7 C62.1,105 62.1,105.5 62.4,105.8 C62.5,105.9 62.7,106 62.9,106 C63.1,106 63.3,105.9 63.4,105.8 L65.1,104.1 C65.5,103.7 65.5,103.2 65.2,103 Z" id="Shape"></path>
                <path d="M79.2,29.2 L77.5,27.5 C77.2,27.2 76.7,27.2 76.4,27.5 C76.1,27.8 76.1,28.3 76.4,28.6 L78.1,30.3 C78.2,30.4 78.4,30.5 78.6,30.5 C78.8,30.5 79,30.4 79.1,30.3 C79.5,30 79.5,29.5 79.2,29.2 Z" id="Shape"></path>
                <path d="M83.1,33.1 C82.8,32.8 82.3,32.8 82,33.1 C81.7,33.4 81.7,33.9 82,34.2 L83.7,35.9 C83.8,36 84,36.1 84.2,36.1 C84.4,36.1 84.6,36 84.7,35.9 C85,35.6 85,35.1 84.7,34.8 L83.1,33.1 Z" id="Shape"></path>
                <path d="M78.1,33.1 L76.4,34.8 C76.1,35.1 76.1,35.6 76.4,35.9 C76.5,36 76.7,36.1 76.9,36.1 C77.1,36.1 77.3,36 77.4,35.9 L79.1,34.2 C79.4,33.9 79.4,33.4 79.1,33.1 C78.9,32.8 78.4,32.8 78.1,33.1 Z" id="Shape"></path>
                <path d="M84.8,27.5 C84.5,27.2 84,27.2 83.7,27.5 L82,29.2 C81.7,29.5 81.7,30 82,30.3 C82.1,30.4 82.3,30.5 82.5,30.5 C82.7,30.5 82.9,30.4 83,30.3 L84.7,28.6 C85.1,28.2 85.1,27.8 84.8,27.5 Z" id="Shape"></path>
                <path d="M55.8,6 C55.9,6.1 56.1,6.2 56.3,6.2 C56.5,6.2 56.7,6.1 56.8,6 C57.1,5.7 57.1,5.2 56.8,4.9 L55.1,3.2 C54.8,2.9 54.3,2.9 54,3.2 C53.7,3.5 53.7,4 54,4.3 L55.8,6 Z" id="Shape"></path>
                <path d="M61.4,11.6 C61.5,11.7 61.7,11.8 61.9,11.8 C62.1,11.8 62.3,11.7 62.4,11.6 C62.7,11.3 62.7,10.8 62.4,10.5 L60.7,8.8 C60.4,8.5 59.9,8.5 59.6,8.8 C59.3,9.1 59.3,9.6 59.6,9.9 L61.4,11.6 Z" id="Shape"></path>
                <path d="M54.6,11.9 C54.8,11.9 55,11.8 55.1,11.7 L56.8,10 C57.1,9.7 57.1,9.2 56.8,8.9 C56.5,8.6 56,8.6 55.7,8.9 L54,10.6 C53.7,10.9 53.7,11.4 54,11.7 C54.2,11.8 54.4,11.9 54.6,11.9 Z" id="Shape"></path>
                <path d="M60.2,6.3 C60.4,6.3 60.6,6.2 60.7,6.1 L62.4,4.4 C62.7,4.1 62.7,3.6 62.4,3.3 C62.1,3 61.6,3 61.3,3.3 L59.7,5 C59.4,5.3 59.4,5.8 59.7,6.1 C59.8,6.2 60,6.3 60.2,6.3 Z" id="Shape"></path>
                <path d="M6,54.6 C4,54.6 2.3,56.3 2.3,58.3 C2.3,60.3 4,62 6,62 C8,62 9.7,60.3 9.7,58.3 C9.7,56.2 8.1,54.6 6,54.6 Z M6,60.4 C4.8,60.4 3.8,59.4 3.8,58.2 C3.8,57 4.8,56 6,56 C7.2,56 8.2,57 8.2,58.2 C8.2,59.5 7.2,60.4 6,60.4 Z" id="Shape"></path>
                <path d="M118.4,13.1 C120.4,13.1 122.1,11.4 122.1,9.4 C122.1,7.4 120.4,5.7 118.4,5.7 C116.4,5.7 114.7,7.4 114.7,9.4 C114.7,11.4 116.3,13.1 118.4,13.1 Z M118.4,7.2 C119.6,7.2 120.6,8.2 120.6,9.4 C120.6,10.6 119.6,11.6 118.4,11.6 C117.2,11.6 116.2,10.6 116.2,9.4 C116.2,8.2 117.2,7.2 118.4,7.2 Z" id="Shape"></path>
                <path d="M114.6,113.1 C114.6,112.7 114.3,112.3 113.8,112.3 L100.1,112.3 C99.7,112.3 99.3,112.6 99.3,113.1 C99.3,113.6 99.6,113.9 100.1,113.9 L113.8,113.9 C114.3,113.9 114.6,113.6 114.6,113.1 Z" id="Shape"></path>
                <path d="M122.8,112.4 L118.4,112.4 C118,112.4 117.6,112.7 117.6,113.2 C117.6,113.7 117.9,114 118.4,114 L122.8,114 C123.2,114 123.6,113.7 123.6,113.2 C123.6,112.7 123.2,112.4 122.8,112.4 Z" id="Shape"></path>
                <path d="M122.8,117.1 L113.3,117.1 C112.9,117.1 112.5,117.4 112.5,117.9 C112.5,118.3 112.8,118.7 113.3,118.7 L122.8,118.7 C123.2,118.7 123.6,118.4 123.6,117.9 C123.6,117.4 123.2,117.1 122.8,117.1 Z" id="Shape"></path>
                <path d="M109.2,117.1 L106.1,117.1 C105.7,117.1 105.3,117.4 105.3,117.9 C105.3,118.3 105.6,118.7 106.1,118.7 L109.2,118.7 C109.6,118.7 110,118.4 110,117.9 C109.9,117.4 109.6,117.1 109.2,117.1 Z" id="Shape"></path>
                <path d="M111.7,87.2 C111.8,87.4 112.1,87.6 112.4,87.6 C112.5,87.6 112.6,87.6 112.8,87.5 C113.2,87.3 113.3,86.8 113.1,86.5 L109.1,79.2 C108.9,78.8 108.4,78.7 108.1,78.9 L100.8,82.9 C100.4,83.1 100.3,83.6 100.5,83.9 C100.7,84.3 101.2,84.4 101.5,84.2 L107.2,81.1 C106.2,85.2 101.7,97.9 90.5,107.2 C79.2,116.6 64.6,120.1 47.1,117.6 C46.7,117.5 46.3,117.8 46.2,118.2 C46.1,118.6 46.4,119 46.8,119.1 C50.6,119.7 54.2,119.9 57.7,119.9 C70.9,119.9 82.1,116 91.3,108.4 C102.7,98.9 107.3,86.3 108.5,81.6 L111.7,87.2 Z" id="Shape"></path>
                <path d="M60.2,36.7 C60.3,36.9 60.6,37.1 60.9,37.1 C61,37.1 61.1,37.1 61.3,37 L66,34.4 C66.4,34.2 66.5,33.7 66.3,33.4 C66.1,33 65.6,32.9 65.3,33.1 L62,34.8 C62.9,31.7 65.8,24.4 72.5,18.8 C79.7,12.8 89,10.6 100.1,12.2 C100.5,12.3 100.9,12 101,11.6 C101.1,11.2 100.8,10.8 100.4,10.7 C88.8,9 79.1,11.3 71.6,17.6 C64.7,23.4 61.7,30.8 60.7,34.3 L59,31.2 C58.8,30.8 58.3,30.7 58,30.9 C57.6,31.1 57.5,31.6 57.7,31.9 L60.2,36.7 Z" id="Shape"></path>
            </g>
        </g>
    </g>
</svg>