<?xml version="1.0" encoding="UTF-8"?>
<svg width="62px" height="88px" viewBox="0 0 62 88" version="1.1" xmlns="http://www.w3.org/2000/svg" xmlns:xlink="http://www.w3.org/1999/xlink">
    <!-- Generator: Sketch 48.2 (47327) - http://www.bohemiancoding.com/sketch -->
    <title>committed</title>
    <desc>Created with Sketch.</desc>
    <defs></defs>
    <g id="Page-1" stroke="none" stroke-width="1" fill="none" fill-rule="evenodd">
        <g id="committed" fill="#44C7F4" fill-rule="nonzero">
            <path d="M44.649,52.588 C47.965,55.738 47.965,60.845 44.649,63.994 L43.012,65.549 L31,76.955 L18.987,65.549 L17.35,63.994 C14.034,60.845 14.034,55.738 17.35,52.588 C20.664,49.44 26.046,49.44 29.361,52.588 L31,54.143 L32.638,52.588 C35.954,49.439 41.332,49.439 44.649,52.588 Z M61.799,45.469 L61.799,78.397 C61.799,83.41 57.575,87.488 52.383,87.488 L9.617,87.488 C4.425,87.488 0.201,83.41 0.201,78.397 L0.201,45.469 C0.201,40.694 4.035,36.776 8.886,36.413 L8.886,22.153 C8.886,10.22 18.806,0.512 31,0.512 C43.193,0.512 53.114,10.22 53.114,22.153 L53.114,36.412 C57.965,36.775 61.799,40.694 61.799,45.469 Z M14.886,22.153 L14.886,36.377 L47.115,36.377 L47.115,22.153 C47.115,13.528 39.886,6.512 31.001,6.512 C22.115,6.513 14.886,13.529 14.886,22.153 Z M55.799,45.469 C55.799,43.764 54.267,42.377 52.383,42.377 L9.617,42.377 C7.733,42.377 6.201,43.764 6.201,45.469 L6.201,78.397 C6.201,80.101 7.733,81.488 9.617,81.488 L52.383,81.488 C54.267,81.488 55.799,80.101 55.799,78.397 L55.799,45.469 Z" id="Shape"></path>
        </g>
    </g>
</svg>