<?xml version="1.0" encoding="UTF-8"?>
<svg width="109px" height="70px" viewBox="0 0 109 70" version="1.1" xmlns="http://www.w3.org/2000/svg" xmlns:xlink="http://www.w3.org/1999/xlink">
    <!-- Generator: Sketch 48.2 (47327) - http://www.bohemiancoding.com/sketch -->
    <title>Commitment</title>
    <desc>Created with Sketch.</desc>
    <defs></defs>
    <g id="Page-1" stroke="none" stroke-width="1" fill="none" fill-rule="evenodd">
        <g id="Commitment" transform="translate(-1.000000, 0.000000)" fill="#44C7F4" fill-rule="nonzero" stroke="#44C7F4" stroke-width="0.2">
            <path d="M95.9288721,40.6407273 L108.993663,30.6498182 L86.0288837,0.386909091 L72.9678953,10.3790909 L73.4292442,10.9861818 L47.742,10.9861818 C46.0486977,10.9861818 41.933314,11.3565455 39.6367093,14.5281818 L35.5618837,12.6483636 L37.2830698,10.3778182 L24.2220814,0.385636364 L1.25983721,30.6498182 L14.3246279,40.6407273 L16.829093,37.3418182 L19.8012442,39.6212727 L19.4121395,40.1583636 C18.3817093,41.5634545 17.9571163,43.2854545 18.2182093,45.0061818 C18.4716977,46.6823636 19.3513023,48.1485455 20.6884535,49.1361818 C21.7632442,49.9329091 23.0458953,50.3529091 24.393186,50.3529091 C24.8215814,50.3529091 25.2423721,50.2841818 25.658093,50.2001818 C25.1409767,52.5992727 25.9863605,55.1676364 28.044686,56.6923636 C29.1194767,57.4852727 30.3970581,57.9065455 31.7443488,57.9065455 C32.3577907,57.9065455 32.9534884,57.7907273 33.5327093,57.6201818 C33.474407,58.1547273 33.4591977,58.6956364 33.5365116,59.2378182 C33.7773256,60.9432727 34.6581977,62.4374545 36.0206977,63.4441818 C37.0967558,64.2370909 38.3730698,64.6558182 39.7203605,64.6558182 C41.2577674,64.6558182 42.7381395,64.0958182 43.8978488,63.1107273 C44.1868256,64.6214545 44.9903837,66.024 46.3034535,66.9950909 C47.383314,67.7930909 48.6646977,68.2143636 50.0119884,68.2143636 C51.3047791,68.2143636 52.5303953,67.7841818 53.5836395,67.074 L54.6964535,67.8770909 C55.8143372,68.6890909 57.1248721,69.1116364 58.4734302,69.1116364 C58.8219767,69.1116364 59.175593,69.0836364 59.5266744,69.0263636 C61.1946279,68.7514545 62.652186,67.8503636 63.6230465,66.4885455 C64.4912442,65.282 64.8334535,63.8641818 64.7523372,62.4692727 L64.9018953,62.58 C66.054,63.406 67.3835465,63.8043636 68.6940814,63.8043636 C70.6725581,63.8043636 72.6104767,62.8943636 73.8335581,61.18 C74.805686,59.8054545 75.1314186,58.1674545 74.9070814,56.6032727 C75.6536047,56.8883636 76.4280116,57.0474545 77.203686,57.0474545 C79.1821628,57.0474545 81.1226163,56.1387273 82.3482326,54.4230909 C83.362186,52.9963636 83.6929884,51.2769091 83.4103488,49.658 C83.9997093,49.826 84.6017442,49.9214545 85.2025116,49.9214545 C87.1809884,49.9214545 89.1163721,49.0101818 90.3407209,47.2983636 C91.3267907,45.9174545 91.7070233,44.2234545 91.4117093,42.5269091 C91.1785,41.2058182 90.5523837,40.0221818 89.6258837,39.0867273 L92.8718023,36.6112727 L95.9288721,40.6407273 Z M85.6004884,3.56872727 L105.822523,30.2196364 L96.356,37.4614545 L76.1377674,10.8092727 L85.6004884,3.56872727 Z M13.8962326,37.4627273 L4.4297093,30.2209091 L24.6517442,3.57 L34.1144651,10.8105455 L13.8962326,37.4627273 Z M22.0268721,47.3098182 C21.1751512,46.6798182 20.6149419,45.7405455 20.4514419,44.6650909 C20.2816047,43.5425455 20.5591744,42.4212727 21.2372558,41.4972727 L23.3057209,38.6285455 C24.1029419,37.5416364 25.3729186,36.8950909 26.7037326,36.8950909 C27.565593,36.8950909 28.3818256,37.1636364 29.0675116,37.6663636 C29.9205,38.2950909 30.4807093,39.2369091 30.6442093,40.3149091 C30.8115116,41.4349091 30.5352093,42.5561818 29.8583953,43.4801818 L29.6809535,43.7258182 L27.6099535,46.5487273 C26.246186,48.1561818 23.7049651,48.5494545 22.0268721,47.3098182 Z M29.3831047,54.8634545 C27.577,53.5270909 27.2195814,50.9192727 28.5820814,49.0534545 L29.4502791,47.8698182 C29.5009767,47.8049091 29.5694186,47.7565455 29.6175814,47.6890909 L31.5631047,44.9870909 L34.4858256,40.9983636 C35.2805116,39.9165455 36.5479535,39.27 37.8775,39.27 C38.738093,39.27 39.5543256,39.536 40.2412791,40.0438182 C42.0448488,41.3763636 42.4073372,43.974 41.0549767,45.8410909 L39.5530581,47.8889091 L35.1423605,53.9012727 C33.8267558,55.6894545 31.1207674,56.1476364 29.3831047,54.8634545 Z M37.3603837,61.6114545 C36.492186,60.9738182 35.9294419,60.0154545 35.7722791,58.9183636 C35.6176512,57.8123636 35.8964884,56.7089091 36.5555581,55.8090909 L41.7077093,48.7747273 L42.8674186,47.1952727 C42.868686,47.1927273 42.868686,47.1901818 42.8737558,47.1863636 L45.6063605,43.4547273 C46.4010465,42.3716364 47.6684884,41.7276364 49.0018372,41.7276364 C49.8636977,41.7276364 50.6824651,41.9936364 51.3643488,42.4989091 C52.2325465,43.1403636 52.7940233,44.0949091 52.9486512,45.1894545 C53.1032791,46.2954545 52.8244419,47.4001818 52.1653721,48.3025455 L48.9955,52.626 C48.9448023,52.6909091 48.8801628,52.7392727 48.832,52.8067273 L45.0258721,58.0210909 C44.9979884,58.058 44.9815116,58.1025455 44.9548953,58.1407273 L43.1133023,60.6556364 C41.8053023,62.4412727 39.0967791,62.9007273 37.3603837,61.6114545 Z M47.6431395,65.1674545 C45.8725233,63.8603636 45.5075,61.3301818 46.7863488,59.4694545 L50.7990698,53.9916364 C51.5988256,53.0116364 52.7902209,52.4185455 54.0487907,52.4185455 C54.9068488,52.4185455 55.721814,52.6845455 56.4036977,53.1872727 C58.2136047,54.5287273 58.576093,57.1327273 57.2072558,58.9985455 L53.4011279,64.2116364 C52.0969302,65.9985455 49.3960116,66.4630909 47.6431395,65.1674545 Z M61.7890581,65.1610909 C61.1667442,66.0329091 60.2313721,66.6094545 59.1616512,66.7850909 C58.0386977,66.9581818 56.9372907,66.7023636 56.0171279,66.0354545 L55.2706047,65.4945455 L59.0298372,60.3425455 C59.361907,59.8907273 59.6039884,59.4032727 59.8042442,58.9043636 L61.5469767,60.158 C62.7206279,61.5910909 62.881593,63.6389091 61.7890581,65.1610909 Z M88.5016628,45.9721818 C87.1987326,47.8010909 84.606814,48.2007273 82.7271977,46.8465455 L75.3481512,41.5621818 L72.7004651,39.6581818 L72.6966628,39.6645455 L69.530593,37.3965455 L68.2200581,39.2458182 L74.2556163,43.568 L79.4762093,47.3276364 C81.3494884,48.6754545 81.8095698,51.2692727 80.5066395,53.0994545 C79.1973721,54.9309091 76.6079884,55.3203636 74.730907,53.9750909 L68.6877442,49.658 L63.5267209,45.9352727 L62.207314,47.7794545 L70.9577326,54.0909091 C72.8284767,55.4349091 73.2898256,58.0236364 71.9906977,59.8589091 C70.6865,61.6890909 68.0958488,62.0798182 66.2149651,60.7307273 L63.1084651,58.4945455 C62.8004767,58.1496364 62.457,57.8301818 62.0691628,57.5450909 L60.2630581,56.2481818 C60.1946163,54.3696364 59.3466977,52.5458182 57.7421163,51.3545455 C56.5241047,50.4598182 55.0120465,50.1314545 53.530407,50.2625455 L53.9828837,49.644 C54.9968372,48.2630909 55.4252326,46.5678182 55.185686,44.8738182 C54.9461395,43.1670909 54.064,41.6741818 52.7015,40.6687273 C50.0550814,38.7150909 46.0182791,39.3374545 43.9485465,41.9274545 C43.6291512,40.4841818 42.8433372,39.1465455 41.5784302,38.2136364 C38.9091977,36.2434545 34.8178953,36.8861818 32.7671744,39.5398182 C32.4363721,38.0469091 31.6252093,36.7372727 30.4033953,35.8349091 C27.686,33.8367273 23.5072442,34.5214545 21.4780698,37.2883636 L21.1257209,37.7809091 L18.1953953,35.5370909 L34.1562907,14.4989091 L38.2767442,16.4003636 L35.9497209,19.6598182 C34.9192907,21.0636364 34.4946977,22.7830909 34.7570581,24.5063636 C35.0130814,26.1825455 35.8901512,27.65 37.2235,28.63 C38.5593837,29.6201818 40.2146628,30.0287273 41.8864186,29.7754545 C43.6025349,29.5158182 45.1133256,28.602 46.1488256,27.1930909 L49.6013372,22.4038182 L55.3618605,22.3834545 C56.1400698,26.9309091 60.4506395,30.968 64.8055698,30.968 L74.5750116,30.968 L87.4763023,40.1978182 C88.3837907,40.8532727 88.9883605,41.8167273 89.1810116,42.9138182 C89.3711279,44.0058182 89.130314,45.0927273 88.5016628,45.9721818 Z M87.7868256,37.6345455 L75.2999884,28.6987273 L64.8068372,28.6987273 C61.2833488,28.6987273 57.6673372,24.9836364 57.5063721,21.1985455 L57.4569419,20.1090909 L48.4466977,20.1396364 L44.3249767,25.8541818 C43.6545,26.768 42.6684302,27.3623636 41.551814,27.5290909 C40.4757558,27.6958182 39.4199767,27.4361818 38.5644535,26.7998182 C37.7152674,26.1749091 37.1588605,25.2369091 36.9928256,24.1652727 C36.8229884,23.0427273 37.0992907,21.9214545 37.7786395,20.9949091 L41.3312791,16.016 C43.0524651,13.4552727 46.674814,13.2567273 47.7432674,13.2567273 L75.1529651,13.2567273 L91.5004302,34.8014545 L87.7868256,37.6345455 Z" id="Shape"></path>
        </g>
    </g>
</svg>