<?xml version="1.0" encoding="UTF-8"?>
<svg width="117px" height="110px" viewBox="0 0 117 110" version="1.1" xmlns="http://www.w3.org/2000/svg" xmlns:xlink="http://www.w3.org/1999/xlink">
    <!-- Generator: Sketch 48.2 (47327) - http://www.bohemiancoding.com/sketch -->
    <title>Curate</title>
    <desc>Created with Sketch.</desc>
    <defs></defs>
    <g id="Page-1" stroke="none" stroke-width="1" fill="none" fill-rule="evenodd">
        <g id="Curate" fill="#44C7F4" fill-rule="nonzero" stroke="#44C7F4" stroke-width="0.3">
            <g id="Group">
                <path d="M5.11875,39.2333333 C5.484375,39.2333333 5.85,38.9583333 5.85,38.5 L5.85,26.95 C5.85,26.5833333 5.57578125,26.2166667 5.11875,26.2166667 C4.753125,26.2166667 4.3875,26.4916667 4.3875,26.95 L4.3875,38.5 C4.47890625,38.8666667 4.753125,39.2333333 5.11875,39.2333333 Z" id="Shape"></path>
                <path d="M5.11875,46.75 C5.484375,46.75 5.85,46.475 5.85,46.0166667 L5.85,42.2583333 C5.85,41.8916667 5.57578125,41.525 5.11875,41.525 C4.753125,41.525 4.3875,41.8 4.3875,42.2583333 L4.3875,46.0166667 C4.47890625,46.3833333 4.753125,46.75 5.11875,46.75 Z" id="Shape"></path>
                <path d="M110.235938,70.0333333 C109.870312,70.0333333 109.504688,70.3083333 109.504688,70.7666667 L109.504688,82.3166667 C109.504688,82.6833333 109.778906,83.05 110.235938,83.05 C110.601563,83.05 110.967188,82.775 110.967188,82.3166667 L110.967188,70.675 C110.875781,70.3083333 110.601563,70.0333333 110.235938,70.0333333 Z" id="Shape"></path>
                <path d="M110.235938,85.3416667 C109.870312,85.3416667 109.504688,85.6166667 109.504688,86.075 L109.504688,89.8333333 C109.504688,90.2 109.778906,90.5666667 110.235938,90.5666667 C110.601563,90.5666667 110.967188,90.2916667 110.967188,89.8333333 L110.967188,86.075 C110.875781,85.6166667 110.601563,85.3416667 110.235938,85.3416667 Z" id="Shape"></path>
                <path d="M48.2625,3.94166667 C48.4453125,3.94166667 48.628125,3.85 48.7195312,3.75833333 L50.2734375,2.10833333 C50.5476562,1.83333333 50.5476562,1.375 50.2734375,1.1 C49.9992187,0.825 49.5421875,0.825 49.2679687,1.1 L47.7140625,2.75 C47.4398438,3.025 47.4398438,3.48333333 47.7140625,3.75833333 C47.896875,3.85 48.0796875,3.94166667 48.2625,3.94166667 Z" id="Shape"></path>
                <path d="M43.14375,9.075 C43.3265625,9.075 43.509375,8.98333333 43.6007812,8.89166667 L45.1546875,7.33333333 C45.4289062,7.05833333 45.4289062,6.6 45.1546875,6.325 C44.8804688,6.05 44.4234375,6.05 44.1492188,6.325 L42.5953125,7.88333333 C42.3210938,8.15833333 42.3210938,8.61666667 42.5953125,8.89166667 C42.778125,8.98333333 42.9609375,9.075 43.14375,9.075 Z" id="Shape"></path>
                <path d="M49.2679687,8.8 C49.359375,8.89166667 49.5421875,8.98333333 49.725,8.98333333 C49.9078125,8.98333333 50.090625,8.89166667 50.1820312,8.8 C50.45625,8.525 50.45625,8.06666667 50.1820312,7.79166667 L48.628125,6.23333333 C48.3539062,5.95833333 47.896875,5.95833333 47.6226562,6.23333333 C47.3484375,6.50833333 47.3484375,6.96666667 47.6226562,7.24166667 L49.2679687,8.8 Z" id="Shape"></path>
                <path d="M44.240625,3.75833333 C44.3320312,3.85 44.5148437,3.94166667 44.6976563,3.94166667 C44.8804688,3.94166667 45.0632813,3.85 45.1546875,3.75833333 C45.4289062,3.48333333 45.4289062,3.025 45.1546875,2.75 L43.6007812,1.19166667 C43.3265625,0.916666667 42.8695313,0.916666667 42.5953125,1.19166667 C42.3210937,1.46666667 42.3210937,1.925 42.5953125,2.2 L44.240625,3.75833333 Z" id="Shape"></path>
                <path d="M113.800781,33 C113.892187,33.0916667 114.075,33.1833333 114.257812,33.1833333 C114.440625,33.1833333 114.623437,33.0916667 114.714844,33 L116.26875,31.4416667 C116.542969,31.1666667 116.542969,30.7083333 116.26875,30.4333333 C115.994531,30.1583333 115.5375,30.1583333 115.263281,30.4333333 L113.709375,31.9916667 C113.526562,32.2666667 113.526562,32.725 113.800781,33 Z" id="Shape"></path>
                <path d="M110.235937,35.5666667 L108.682031,37.125 C108.407813,37.4 108.407813,37.8583333 108.682031,38.1333333 C108.773438,38.225 108.95625,38.3166667 109.139062,38.3166667 C109.321875,38.3166667 109.504688,38.225 109.596094,38.1333333 L111.15,36.575 C111.424219,36.3 111.424219,35.8416667 111.15,35.5666667 C110.967187,35.2916667 110.510156,35.2916667 110.235937,35.5666667 Z" id="Shape"></path>
                <path d="M114.80625,35.5666667 C114.532031,35.2916667 114.075,35.2916667 113.800781,35.5666667 C113.526563,35.8416667 113.526563,36.3 113.800781,36.575 L115.354687,38.1333333 C115.446094,38.225 115.628906,38.3166667 115.811719,38.3166667 C115.994531,38.3166667 116.177344,38.225 116.26875,38.1333333 C116.542969,37.8583333 116.542969,37.4 116.26875,37.125 L114.80625,35.5666667 Z" id="Shape"></path>
                <path d="M109.6875,30.4333333 C109.413281,30.1583333 108.95625,30.1583333 108.682031,30.4333333 C108.407813,30.7083333 108.407813,31.1666667 108.682031,31.4416667 L110.235938,33 C110.327344,33.0916667 110.510156,33.1833333 110.692969,33.1833333 C110.875781,33.1833333 111.058594,33.0916667 111.15,33 C111.424219,32.725 111.424219,32.2666667 111.15,31.9916667 L109.6875,30.4333333 Z" id="Shape"></path>
                <path d="M62.9789063,85.8 L61.425,87.3583333 C61.1507813,87.6333333 61.1507813,88.0916667 61.425,88.3666667 C61.5164062,88.4583333 61.6992188,88.55 61.8820313,88.55 C62.0648438,88.55 62.2476563,88.4583333 62.3390625,88.3666667 L63.8929688,86.8083333 C64.1671875,86.5333333 64.1671875,86.075 63.8929688,85.8 C63.61875,85.525 63.253125,85.525 62.9789063,85.8 Z" id="Shape"></path>
                <path d="M57.8601562,90.9333333 L56.30625,92.4916667 C56.0320313,92.7666667 56.0320313,93.225 56.30625,93.5 C56.3976562,93.5916667 56.5804687,93.6833333 56.7632812,93.6833333 C56.9460938,93.6833333 57.1289062,93.5916667 57.2203125,93.5 L58.7742187,91.9416667 C59.0484375,91.6666667 59.0484375,91.2083333 58.7742187,90.9333333 C58.5914062,90.6583333 58.134375,90.6583333 57.8601562,90.9333333 Z" id="Shape"></path>
                <path d="M62.3390625,90.9333333 C62.0648438,90.6583333 61.6078125,90.6583333 61.3335938,90.9333333 C61.059375,91.2083333 61.059375,91.6666667 61.3335938,91.9416667 L62.8875,93.5 C62.9789062,93.5916667 63.1617187,93.6833333 63.3445313,93.6833333 C63.5273438,93.6833333 63.7101563,93.5916667 63.8015625,93.5 C64.0757812,93.225 64.0757812,92.7666667 63.8015625,92.4916667 L62.3390625,90.9333333 Z" id="Shape"></path>
                <path d="M57.2203125,85.8 C56.9460937,85.525 56.4890625,85.525 56.2148437,85.8 C55.940625,86.075 55.940625,86.5333333 56.2148437,86.8083333 L57.76875,88.3666667 C57.8601562,88.4583333 58.0429687,88.55 58.2257812,88.55 C58.4085938,88.55 58.5914063,88.4583333 58.6828125,88.3666667 C58.9570312,88.0916667 58.9570312,87.6333333 58.6828125,87.3583333 L57.2203125,85.8 Z" id="Shape"></path>
                <path d="M5.11875,74.0666667 C6.946875,74.0666667 8.50078125,72.5083333 8.50078125,70.675 C8.50078125,68.8416667 6.946875,67.2833333 5.11875,67.2833333 C3.290625,67.2833333 1.73671875,68.8416667 1.73671875,70.675 C1.73671875,72.5083333 3.290625,74.0666667 5.11875,74.0666667 Z M5.11875,68.75 C6.215625,68.75 7.1296875,69.6666667 7.1296875,70.7666667 C7.1296875,71.8666667 6.215625,72.7833333 5.11875,72.7833333 C4.021875,72.7833333 3.1078125,71.8666667 3.1078125,70.7666667 C3.1078125,69.575 4.021875,68.75 5.11875,68.75 Z" id="Shape"></path>
                <path d="M78.24375,10.175 C80.071875,10.175 81.6257812,8.61666667 81.6257812,6.78333333 C81.6257812,4.95 80.071875,3.39166667 78.24375,3.39166667 C76.415625,3.39166667 74.8617187,4.95 74.8617187,6.78333333 C74.8617187,8.61666667 76.415625,10.175 78.24375,10.175 Z M78.24375,4.76666667 C79.340625,4.76666667 80.2546875,5.68333333 80.2546875,6.78333333 C80.2546875,7.88333333 79.340625,8.8 78.24375,8.8 C77.146875,8.8 76.2328125,7.88333333 76.2328125,6.78333333 C76.3242188,5.68333333 77.146875,4.76666667 78.24375,4.76666667 Z" id="Shape"></path>
                <path d="M96.7992187,76.725 C96.7992187,74.8916667 95.2453125,73.3333333 93.4171875,73.3333333 C91.5890625,73.3333333 90.0351562,74.8916667 90.0351562,76.725 C90.0351562,78.5583333 91.5890625,80.1166667 93.4171875,80.1166667 C95.2453125,80.1166667 96.7992187,78.5583333 96.7992187,76.725 Z M91.40625,76.725 C91.40625,75.625 92.3203125,74.7083333 93.4171875,74.7083333 C94.5140625,74.7083333 95.428125,75.625 95.428125,76.725 C95.428125,77.825 94.5140625,78.7416667 93.4171875,78.7416667 C92.3203125,78.7416667 91.40625,77.825 91.40625,76.725 Z" id="Shape"></path>
                <path d="M13.2539062,4.76666667 L25.6851562,4.76666667 C26.0507812,4.76666667 26.4164063,4.49166667 26.4164063,4.03333333 C26.4164063,3.575 26.1421875,3.3 25.6851562,3.3 L13.2539062,3.3 C12.8882812,3.3 12.5226562,3.575 12.5226562,4.03333333 C12.5226562,4.49166667 12.8882812,4.76666667 13.2539062,4.76666667 Z" id="Shape"></path>
                <path d="M5.11875,4.76666667 L9.140625,4.76666667 C9.50625,4.76666667 9.871875,4.49166667 9.871875,4.03333333 C9.871875,3.575 9.50625,3.39166667 9.140625,3.39166667 L5.11875,3.39166667 C4.753125,3.39166667 4.47890625,3.66666667 4.47890625,4.03333333 C4.47890625,4.4 4.753125,4.76666667 5.11875,4.76666667 Z" id="Shape"></path>
                <path d="M5.11875,9.075 L13.8023437,9.075 C14.1679687,9.075 14.5335937,8.8 14.5335937,8.34166667 C14.5335937,7.88333333 14.259375,7.60833333 13.8023437,7.60833333 L5.11875,7.60833333 C4.753125,7.60833333 4.3875,7.88333333 4.3875,8.34166667 C4.3875,8.8 4.753125,9.075 5.11875,9.075 Z" id="Shape"></path>
                <path d="M17.55,7.60833333 C17.184375,7.60833333 16.81875,7.88333333 16.81875,8.34166667 C16.81875,8.8 17.0929687,9.075 17.55,9.075 L20.3835937,9.075 C20.7492187,9.075 21.1148437,8.8 21.1148437,8.34166667 C21.1148437,7.88333333 20.840625,7.60833333 20.3835937,7.60833333 L17.55,7.60833333 Z" id="Shape"></path>
                <path d="M106.396875,13.9333333 L93.965625,13.9333333 C93.6,13.9333333 93.234375,14.2083333 93.234375,14.6666667 C93.234375,15.0333333 93.5085938,15.4 93.965625,15.4 L106.396875,15.4 C106.7625,15.4 107.128125,15.125 107.128125,14.6666667 C107.128125,14.3 106.7625,13.9333333 106.396875,13.9333333 Z" id="Shape"></path>
                <path d="M115.171875,14.6666667 C115.171875,14.3 114.897656,13.9333333 114.440625,13.9333333 L110.41875,13.9333333 C110.053125,13.9333333 109.6875,14.2083333 109.6875,14.6666667 C109.6875,15.0333333 109.961719,15.4 110.41875,15.4 L114.440625,15.4 C114.897656,15.3083333 115.171875,15.0333333 115.171875,14.6666667 Z" id="Shape"></path>
                <path d="M105.848438,11.0916667 L114.532031,11.0916667 C114.897656,11.0916667 115.263281,10.8166667 115.263281,10.3583333 C115.263281,9.9 114.989062,9.625 114.532031,9.625 L105.848438,9.625 C105.482812,9.625 105.117188,9.9 105.117188,10.3583333 C105.117188,10.8166667 105.482813,11.0916667 105.848438,11.0916667 Z" id="Shape"></path>
                <path d="M99.3585937,11.0916667 L102.192187,11.0916667 C102.557812,11.0916667 102.923437,10.8166667 102.923437,10.3583333 C102.923437,9.9 102.649219,9.625 102.192187,9.625 L99.3585937,9.625 C98.9929687,9.625 98.6273437,9.9 98.6273437,10.3583333 C98.6273437,10.8166667 98.9929687,11.0916667 99.3585937,11.0916667 Z" id="Shape"></path>
                <path d="M94.9710937,96.1583333 L82.5398438,96.1583333 C82.1742187,96.1583333 81.8085938,96.4333333 81.8085938,96.8916667 C81.8085938,97.2583333 82.0828125,97.625 82.5398438,97.625 L94.9710937,97.625 C95.3367187,97.625 95.7023437,97.35 95.7023437,96.8916667 C95.7023437,96.525 95.3367187,96.1583333 94.9710937,96.1583333 Z" id="Shape"></path>
                <path d="M103.10625,96.1583333 L99.084375,96.1583333 C98.71875,96.1583333 98.353125,96.4333333 98.353125,96.8916667 C98.353125,97.2583333 98.6273437,97.625 99.084375,97.625 L103.10625,97.625 C103.471875,97.625 103.8375,97.35 103.8375,96.8916667 C103.746094,96.525 103.471875,96.1583333 103.10625,96.1583333 Z" id="Shape"></path>
                <path d="M103.10625,91.9416667 L94.4226563,91.9416667 C94.0570312,91.9416667 93.6914062,92.2166667 93.6914062,92.675 C93.6914062,93.0416667 93.965625,93.4083333 94.4226563,93.4083333 L103.10625,93.4083333 C103.471875,93.4083333 103.8375,93.1333333 103.8375,92.675 C103.746094,92.2166667 103.471875,91.9416667 103.10625,91.9416667 Z" id="Shape"></path>
                <path d="M87.9328125,91.9416667 C87.5671875,91.9416667 87.2015625,92.2166667 87.2015625,92.675 C87.2015625,93.0416667 87.4757813,93.4083333 87.9328125,93.4083333 L90.7664062,93.4083333 C91.1320312,93.4083333 91.4976562,93.1333333 91.4976562,92.675 C91.4976562,92.3083333 91.2234375,91.9416667 90.7664062,91.9416667 L87.9328125,91.9416667 Z" id="Shape"></path>
                <path d="M47.896875,103.4 L35.465625,103.4 C35.1,103.4 34.734375,103.675 34.734375,104.133333 C34.734375,104.5 35.0085937,104.866667 35.465625,104.866667 L47.896875,104.866667 C48.2625,104.866667 48.628125,104.591667 48.628125,104.133333 C48.5367187,103.675 48.2625,103.4 47.896875,103.4 Z" id="Shape"></path>
                <path d="M27.3304688,104.775 L31.3523437,104.775 C31.7179688,104.775 32.0835937,104.5 32.0835937,104.041667 C32.0835937,103.675 31.809375,103.308333 31.3523437,103.308333 L27.3304688,103.308333 C26.9648438,103.308333 26.5992187,103.583333 26.5992187,104.041667 C26.5992187,104.5 26.9648438,104.775 27.3304688,104.775 Z" id="Shape"></path>
                <path d="M36.0140625,107.708333 L27.3304687,107.708333 C26.9648438,107.708333 26.5992187,107.983333 26.5992187,108.441667 C26.5992187,108.808333 26.8734375,109.175 27.3304687,109.175 L36.0140625,109.175 C36.3796875,109.175 36.7453125,108.9 36.7453125,108.441667 C36.6539063,107.983333 36.3796875,107.708333 36.0140625,107.708333 Z" id="Shape"></path>
                <path d="M42.5039062,107.708333 L39.6703125,107.708333 C39.3046875,107.708333 38.9390625,107.983333 38.9390625,108.441667 C38.9390625,108.808333 39.2132812,109.175 39.6703125,109.175 L42.5039062,109.175 C42.8695312,109.175 43.2351562,108.9 43.2351562,108.441667 C43.2351562,107.983333 42.8695312,107.708333 42.5039062,107.708333 Z" id="Shape"></path>
                <path d="M65.3554688,41.8 C65.1726562,41.7083333 64.9898437,41.8 64.8070312,41.8916667 C64.6242188,41.9833333 64.5328125,42.1666667 64.5328125,42.35 C64.2585938,44.1833333 62.2476563,45.65 59.8710938,45.65 C57.4945313,45.65 55.4835938,44.1833333 55.209375,42.35 C55.209375,42.1666667 55.0265625,41.9833333 54.9351563,41.8916667 C54.7523438,41.8 54.5695313,41.8 54.3867188,41.8 C50.1820313,43.175 47.4398438,47.3 47.7140625,51.7916667 L48.2625,60.5916667 C48.2625,60.9583333 48.628125,61.2333333 48.99375,61.2333333 L70.93125,61.2333333 C71.296875,61.2333333 71.5710938,60.9583333 71.6625,60.5916667 L72.2109375,51.7916667 C72.39375,47.3 69.5601562,43.175 65.3554688,41.8 Z M70.6570312,51.7 L70.1085937,59.8583333 L49.4507812,59.8583333 L48.9023437,51.7 C48.628125,48.125 50.7304687,44.825 53.9296875,43.3583333 C54.6609375,45.4666667 57.0375,47.025 59.7796875,47.025 C62.521875,47.025 64.8984375,45.4666667 65.6296875,43.3583333 C68.9203125,44.825 70.93125,48.125 70.6570312,51.7 Z" id="Shape"></path>
                <path d="M59.8710938,41.8 C63.8015625,41.8 66.909375,38.4083333 66.909375,34.2833333 C66.909375,30.1583333 63.7101563,26.7666667 59.8710938,26.7666667 C55.940625,26.7666667 52.8328125,30.1583333 52.8328125,34.2833333 C52.7414063,38.4083333 55.940625,41.8 59.8710938,41.8 Z M59.8710938,28.05 C62.9789063,28.05 65.5382813,30.8 65.5382813,34.1916667 C65.5382813,37.5833333 62.9789063,40.3333333 59.8710938,40.3333333 C56.7632813,40.3333333 54.2039063,37.5833333 54.2039063,34.1916667 C54.1125,30.8 56.671875,28.05 59.8710938,28.05 Z" id="Shape"></path>
                <path d="M89.578125,57.3833333 L102.192188,57.3833333 C102.557813,57.3833333 102.832031,57.1083333 102.923438,56.7416667 L103.380469,50.05 C103.563281,46.5666667 101.460938,43.3583333 98.1703125,42.2583333 C97.9875,42.1666667 97.8046875,42.2583333 97.621875,42.35 C97.4390625,42.4416667 97.3476563,42.625 97.3476563,42.8083333 C97.1648438,44.1833333 95.7023438,45.1916667 93.965625,45.1916667 C93.3257813,45.1916667 92.6859375,45.0083333 92.0460938,44.7333333 C92.0460938,43.8166667 91.9546875,42.9916667 91.8632813,42.075 C92.503125,42.35 93.234375,42.5333333 93.8742188,42.5333333 C96.9820313,42.5333333 99.45,39.875 99.45,36.575 C99.45,33.275 96.9820313,30.6166667 93.8742188,30.6166667 C92.1375,30.6166667 90.5835938,31.4416667 89.4867188,32.8166667 C87.9328125,28.9666667 85.55625,25.4833333 82.63125,22.4583333 C76.5984375,16.4083333 68.4632813,13.0166667 59.9625,13.0166667 C51.3703125,13.0166667 43.3265625,16.4083333 37.29375,22.4583333 C34.2773438,25.4833333 31.9921875,28.875 30.346875,32.725 C29.3414063,31.35 27.6960938,30.525 25.959375,30.525 C22.8515625,30.525 20.3835938,33.1833333 20.3835938,36.4833333 C20.3835938,39.7833333 22.8515625,42.4416667 25.959375,42.4416667 C26.690625,42.4416667 27.3304688,42.2583333 27.9703125,41.9833333 C27.8789063,42.8083333 27.7875,43.725 27.7875,44.6416667 C27.2390625,44.9166667 26.5992188,45.1 25.8679688,45.1 C24.13125,45.1 22.66875,44.0916667 22.4859375,42.7166667 C22.4859375,42.5333333 22.303125,42.35 22.2117188,42.2583333 C22.0289063,42.1666667 21.8460938,42.1666667 21.6632813,42.1666667 C18.3726563,43.2666667 16.1789063,46.475 16.453125,49.9583333 L16.9101563,56.65 C16.9101563,57.0166667 17.2757813,57.2916667 17.6414063,57.2916667 L30.1640625,57.2916667 C31.2609375,59.95 32.7234375,62.5166667 34.4601563,64.7166667 L1.91953125,92.4 C1.096875,93.1333333 0.5484375,94.2333333 0.45703125,95.3333333 C0.365625,96.4333333 0.82265625,97.5333333 1.6453125,98.3583333 L6.85546875,103.583333 C7.58671875,104.316667 8.68359375,104.775 9.6890625,104.775 C9.78046875,104.775 9.78046875,104.775 9.871875,104.775 C10.96875,104.683333 12.065625,104.225 12.796875,103.308333 L40.3101563,70.675 C46.06875,75.1666667 53.015625,77.3666667 59.8710938,77.3666667 C68.0976563,77.3666667 76.3242188,74.1583333 82.5398438,67.925 C85.55625,64.9 87.9328125,61.325 89.578125,57.3833333 Z M98.353125,43.725 C100.729687,44.825 102.192187,47.2083333 102.009375,49.8666667 L101.64375,55.9166667 L90.0351562,55.9166667 C90.0351562,55.825 90.0351562,55.825 90.1265625,55.7333333 C90.4007812,55.0916667 90.5835937,54.3583333 90.7664062,53.625 C90.7664062,53.5333333 90.8578125,53.35 90.8578125,53.2583333 C91.040625,52.525 91.2234375,51.8833333 91.3148437,51.15 C91.3148437,51.15 91.3148437,51.15 91.3148437,51.0583333 C91.40625,50.325 91.5890625,49.5916667 91.6804687,48.8583333 C91.6804687,48.675 91.6804687,48.5833333 91.771875,48.4 C91.8632812,47.6666667 91.8632812,46.9333333 91.9546875,46.2 L91.9546875,46.1083333 C92.503125,46.2916667 93.1429687,46.475 93.8742187,46.475 C95.8851562,46.475 97.7132812,45.375 98.353125,43.725 Z M93.7828125,31.9 C96.0679687,31.9 97.9875,33.9166667 97.9875,36.4833333 C97.9875,39.05 96.0679687,41.0666667 93.7828125,41.0666667 C92.9601562,41.0666667 92.2289062,40.7916667 91.5890625,40.3333333 C91.4976562,40.0583333 91.4976562,39.6916667 91.40625,39.4166667 C91.40625,39.2333333 91.3148437,39.05 91.3148437,38.8666667 C91.2234375,38.3166667 91.1320312,37.8583333 90.9492187,37.4 C90.9492187,37.3083333 90.9492187,37.2166667 90.8578125,37.125 C90.7664062,36.6666667 90.5835937,36.2083333 90.4921875,35.75 C90.4007812,35.5666667 90.4007812,35.3833333 90.309375,35.2 C90.2179687,34.925 90.1265625,34.65 90.0351562,34.375 C90.7664062,32.9083333 92.2289062,31.9 93.7828125,31.9 Z M21.6632813,36.4833333 C21.6632813,34.0083333 23.5828125,31.9 25.8679687,31.9 C27.421875,31.9 28.884375,32.8166667 29.615625,34.375 C29.5242187,34.65 29.4328125,35.0166667 29.3414063,35.2916667 C29.25,35.475 29.25,35.6583333 29.1585938,35.75 C28.884375,36.7583333 28.6101562,37.8583333 28.3359375,38.8666667 C28.3359375,39.05 28.2445313,39.2333333 28.2445313,39.325 C28.153125,39.6 28.153125,39.9666667 28.0617188,40.2416667 C27.421875,40.7 26.5992188,40.975 25.8679688,40.975 C23.5828125,41.0666667 21.6632813,39.05 21.6632813,36.4833333 Z M18.0984375,56.0083333 L17.7328125,49.9583333 C17.55,47.3 19.0125,44.9166667 21.3890625,43.8166667 C22.0289063,45.4666667 23.8570313,46.5666667 25.959375,46.5666667 C26.5992188,46.5666667 27.2390625,46.475 27.8789063,46.2 C27.8789063,46.2916667 27.8789063,46.2916667 27.8789063,46.3833333 C27.8789063,47.1166667 27.9703125,47.85 28.0617188,48.5833333 C28.0617188,48.7666667 28.0617188,48.8583333 28.153125,49.0416667 C28.2445313,49.775 28.3359375,50.5083333 28.51875,51.2416667 C28.51875,51.2416667 28.51875,51.2416667 28.51875,51.3333333 C28.6101563,52.0666667 28.7929688,52.8 28.9757813,53.4416667 C28.9757813,53.5333333 29.0671875,53.7166667 29.0671875,53.8083333 C29.25,54.5416667 29.4328125,55.1833333 29.7070313,55.9166667 C29.7070313,56.0083333 29.7070313,56.0083333 29.7984375,56.1 L18.0984375,56.0083333 Z M11.7914063,102.391667 C11.334375,102.941667 10.603125,103.308333 9.871875,103.308333 C9.140625,103.308333 8.409375,103.033333 7.8609375,102.575 L2.65078125,97.35 C2.10234375,96.8 1.828125,96.0666667 1.828125,95.3333333 C1.828125,94.6 2.19375,93.8666667 2.7421875,93.4083333 L35.1914063,65.9083333 C35.3742188,66.0916667 35.465625,66.275 35.6484375,66.4583333 C35.7398438,66.55 35.83125,66.6416667 35.9226563,66.825 C36.196875,67.1916667 36.5625,67.5583333 36.8367188,67.8333333 C36.928125,67.925 36.928125,67.925 37.0195313,68.0166667 C37.1109375,68.1083333 37.2023438,68.2 37.29375,68.2916667 C37.5679687,68.5666667 37.8421875,68.8416667 38.2078125,69.1166667 C38.2992188,69.2083333 38.4820312,69.3 38.5734375,69.4833333 C38.75625,69.6666667 38.9390625,69.85 39.121875,69.9416667 L11.7914063,102.391667 Z M40.584375,69.2083333 C40.21875,68.9333333 39.853125,68.5666667 39.4875,68.2916667 C39.0304687,67.8333333 38.5734375,67.4666667 38.1164062,67.0083333 C37.9335937,66.825 37.8421875,66.6416667 37.659375,66.55 C37.0195312,65.9083333 36.3796875,65.175 35.9226562,64.5333333 C34.003125,62.0583333 32.3578125,59.4 31.2609375,56.4666667 C31.078125,56.0083333 30.8953125,55.55 30.8039062,55.0916667 C29.7070312,51.8833333 29.1585937,48.5833333 29.1585937,45.1 C29.1585937,43.6333333 29.25,42.1666667 29.4328125,40.8833333 C29.5242187,40.3333333 29.615625,39.7833333 29.7070312,39.325 C29.98125,37.7666667 30.4382812,36.2083333 30.9867187,34.65 C32.540625,30.4333333 34.9171875,26.675 38.1164062,23.5583333 C43.875,17.7833333 51.6445312,14.575 59.8710937,14.575 C68.0976562,14.575 75.7757812,17.7833333 81.6257812,23.5583333 C84.825,26.7666667 87.2015625,30.525 88.7554687,34.7416667 C89.4867187,36.6666667 90.0351562,38.775 90.309375,40.975 C90.4921875,42.35 90.5835937,43.725 90.5835937,45.1916667 L90.5835937,45.2833333 C90.5835937,48.675 90.0351562,51.975 89.0296875,55.0916667 C88.846875,55.55 88.7554687,56.0083333 88.5726562,56.4666667 C87.01875,60.4083333 84.7335937,63.9833333 81.6257812,67.1 C70.4742187,78.1 52.8328125,79.1083333 40.584375,69.2083333 Z" id="Shape"></path>
                <path d="M59.8710938,20.4416667 C53.2898437,20.4416667 47.0742188,23.0083333 42.4125,27.6833333 C33.4546875,36.6666667 32.7234375,50.7833333 40.6757812,60.6833333 C41.2242187,61.4166667 41.7726562,62.0583333 42.4125,62.7 C43.0523437,63.3416667 43.6921875,63.8916667 44.4234375,64.5333333 C48.8109375,68.0166667 54.2953125,69.9416667 59.8710938,69.9416667 C66.4523437,69.9416667 72.6679688,67.375 77.3296875,62.7 C86.9273437,53.075 86.9273437,37.3083333 77.3296875,27.6833333 C72.5765625,23.0083333 66.4523437,20.4416667 59.8710938,20.4416667 Z M76.3242187,61.7833333 C71.9367187,66.1833333 66.0867187,68.6583333 59.8710938,68.6583333 C54.5695312,68.6583333 49.359375,66.825 45.3375,63.525 C44.6976562,62.975 44.0578125,62.425 43.4179688,61.7833333 C42.778125,61.1416667 42.2296875,60.5916667 41.7726562,59.95 C34.2773438,50.6 35.0085938,37.2166667 43.4179688,28.7833333 C47.8054687,24.3833333 53.6554687,21.9083333 59.8710938,21.9083333 C66.0867187,21.9083333 71.9367187,24.3833333 76.3242187,28.7833333 C85.3734375,37.7666667 85.3734375,52.6166667 76.3242187,61.7833333 Z" id="Shape"></path>
                <path d="M99.9070312,62.5166667 C100.272656,62.5166667 100.638281,62.2416667 100.638281,61.7833333 C100.638281,61.325 100.364062,61.05 99.9070312,61.05 L97.1648438,61.05 C96.7992187,61.05 96.4335938,61.325 96.4335938,61.7833333 C96.4335938,62.2416667 96.7078125,62.5166667 97.1648438,62.5166667 L99.9070312,62.5166667 Z" id="Shape"></path>
                <path d="M93.965625,62.5166667 C94.33125,62.5166667 94.696875,62.2416667 94.696875,61.7833333 C94.696875,61.325 94.4226563,61.05 93.965625,61.05 L91.2234375,61.05 C90.8578125,61.05 90.4921875,61.325 90.4921875,61.7833333 C90.4921875,62.2416667 90.7664063,62.5166667 91.2234375,62.5166667 L93.965625,62.5166667 Z" id="Shape"></path>
                <path d="M26.5992188,62.5166667 C26.9648438,62.5166667 27.3304688,62.2416667 27.3304688,61.7833333 C27.3304688,61.325 27.05625,61.05 26.5992188,61.05 L23.8570312,61.05 C23.4914063,61.05 23.1257812,61.325 23.1257812,61.7833333 C23.1257812,62.2416667 23.4,62.5166667 23.8570312,62.5166667 L26.5992188,62.5166667 Z" id="Shape"></path>
                <path d="M20.5664063,62.5166667 C20.9320313,62.5166667 21.2976563,62.2416667 21.2976563,61.7833333 C21.2976563,61.325 21.0234375,61.05 20.5664063,61.05 L17.8242188,61.05 C17.4585938,61.05 17.0929688,61.325 17.0929688,61.7833333 C17.0929688,62.2416667 17.3671875,62.5166667 17.8242188,62.5166667 L20.5664063,62.5166667 Z" id="Shape"></path>
            </g>
        </g>
    </g>
</svg>