<?xml version="1.0" encoding="UTF-8"?>
<svg width="70px" height="76px" viewBox="0 0 70 76" version="1.1" xmlns="http://www.w3.org/2000/svg" xmlns:xlink="http://www.w3.org/1999/xlink">
    <!-- Generator: Sketch 48.2 (47327) - http://www.bohemiancoding.com/sketch -->
    <title>Expertise</title>
    <desc>Created with Sketch.</desc>
    <defs></defs>
    <g id="Page-1" stroke="none" stroke-width="1" fill="none" fill-rule="evenodd" stroke-linecap="round">
        <g id="Expertise" transform="translate(2.000000, 2.000000)" stroke="#44C7F4" stroke-width="3.5">
            <g id="Group">
                <g id="Shape">
                    <g>
                        <path d="M43.0167073,71.8355368 L43.0167073,60.6019094 L56.3679439,59.8081652 C57.5688622,59.7378814 58.5010317,58.747595 58.4900451,57.5561369 L58.3569384,43.0254829 L63.6600787,43.0254829 C64.3742067,43.0254829 65.0439659,42.6925817 65.4703299,42.127365 C65.8966939,41.563832 66.0281104,40.832796 65.8278165,40.1556303 C65.796547,40.0516776 62.7042457,29.716589 60.2576177,21.3869039 C58.7672451,16.3033215 55.2654823,11.1540846 50.6587226,7.26069754 C46.7415823,3.94851984 40.1475183,0 31.0138628,0 C23.3486067,0 15.5181293,3.17413523 9.52536951,8.70677668 C3.4726061,14.2983387 0,21.6621472 0,28.9102189 C0,35.6932389 2.16689268,42.4177593 6.25981829,48.3569527 C8.41741463,51.4839514 10.5796591,53.6353939 11.7366311,54.68418 L11.7366311,67.2367864"></path>
                        <polyline stroke-linejoin="round" points="7.60609756 23.357797 15.8460366 23.357797 18.3814024 28.4081314 21.5506098 17.0448789 24.7198171 23.357797 29.1567073 23.357797 32.3259146 32.8271741 38.0304878 12.6258362 43.1012195 23.357797 50.7073171 23.357797"></polyline>
                    </g>
                </g>
            </g>
        </g>
    </g>
</svg>