<?xml version="1.0" encoding="UTF-8"?>
<svg width="67px" height="67px" viewBox="0 0 67 67" version="1.1" xmlns="http://www.w3.org/2000/svg" xmlns:xlink="http://www.w3.org/1999/xlink">
    <!-- Generator: Sketch 48.2 (47327) - http://www.bohemiancoding.com/sketch -->
    <title>Funding</title>
    <desc>Created with Sketch.</desc>
    <defs></defs>
    <g id="Page-1" stroke="none" stroke-width="1" fill="none" fill-rule="evenodd">
        <g id="Funding" transform="translate(1.000000, 1.000000)" fill="#44C7F4" fill-rule="nonzero" stroke="#44C7F4" stroke-width="0.3">
            <path d="M60.0870833,37.9166667 L59.8021667,37.9166667 C59.722,37.9166667 59.644,37.9329167 59.5649167,37.9361667 C59.5725,37.7086667 59.5833333,37.4779167 59.5833333,37.258 C59.5833333,32.6549167 58.1381667,28.2728333 55.3908333,24.5104167 L58.9820833,20.4695833 C59.9505833,19.3808333 60.0881667,17.8739167 59.3330833,16.627 C58.578,15.3800833 57.1761667,14.7994167 55.7656667,15.1590833 L51.1831667,16.3041667 C50.7086667,16.4255 50.2103333,16.2066667 49.9730833,15.7798333 L46.592,9.69366667 C46.1305,8.86275 45.3320833,8.27775 44.4025833,8.08816667 C43.4730833,7.89641667 42.5078333,8.12175 41.756,8.70675 L36.1811667,13.04225 C37.2536667,11.8700833 37.9166667,10.3306667 37.9166667,8.66666667 C37.9166667,5.08191667 35.0014167,2.16666667 31.4166667,2.16666667 C27.9619167,2.16666667 25.1365833,4.87716667 24.9361667,8.28208333 C23.98175,8.53558333 23.2039167,9.19208333 22.802,10.0966667 L19.97125,16.46775 L16.8241667,15.6086667 C15.3800833,15.21325 13.9089167,15.8188333 13.1570833,17.1123333 C12.4074167,18.4058333 12.61325,19.9853333 13.6705833,21.0426667 L17.16975,24.5418333 C14.4375833,28.2966667 13,32.6668333 13,37.258 C13,38.4388333 13.10075,39.6218333 13.2946667,40.7896667 L13,40.8633333 L13,39 C13,38.4009167 12.51575,37.9166667 11.9166667,37.9166667 L1.08333333,37.9166667 C0.48425,37.9166667 0,38.4009167 0,39 L0,63.9166667 C0,64.51575 0.48425,65 1.08333333,65 L11.9166667,65 L38.7779167,65 C40.5751667,65 42.3204167,64.3586667 43.6886667,63.1951667 L63.5613333,46.3038333 C64.4886667,45.3765 65,44.1425833 65,42.8295833 C65,40.1201667 62.7965,37.9166667 60.0870833,37.9166667 Z M31.4166667,4.33333333 C33.8065,4.33333333 35.75,6.27683333 35.75,8.66666667 C35.75,10.5278333 34.5355833,12.181 32.80225,12.7670833 L27.768,8.853 C27.7669167,8.853 27.7669167,8.85191667 27.7669167,8.85191667 C27.7604167,8.8465 27.75175,8.84433333 27.7441667,8.83891667 C27.5394167,8.68291667 27.3205833,8.554 27.0909167,8.45216667 C27.0898333,8.45216667 27.08875,8.45108333 27.0876667,8.45 C27.2014167,6.16091667 29.0994167,4.33333333 31.4166667,4.33333333 Z M15.40175,40.2620833 C15.24575,39.2675833 15.1666667,38.2600833 15.1666667,37.258 C15.1666667,32.7708333 16.6985,28.51225 19.5953333,24.9405 C19.8585833,24.6165833 19.9116667,24.1691667 19.7318333,23.7921667 C19.5704167,23.4509167 19.2421667,23.22125 18.8716667,23.1811667 L15.2013333,19.5108333 C14.65425,18.96375 14.9326667,18.369 15.03125,18.2010833 C15.12875,18.0320833 15.50575,17.4958333 16.25325,17.6995 L20.2984167,18.8034167 C20.8119167,18.941 21.3568333,18.6875 21.5735,18.1978333 L24.7823333,10.9774167 C24.91775,10.6708333 25.1820833,10.44875 25.5081667,10.3675 C25.6500833,10.33175 25.7941667,10.3371667 25.935,10.3588333 C25.9848333,10.3664167 26.0281667,10.3815833 26.07475,10.3945833 C26.2015,10.4314167 26.3260833,10.478 26.4333333,10.5614167 C26.4344167,10.5625 26.4365833,10.5635833 26.43875,10.5646667 L28.8686667,12.454 L32.67225,15.4115 C33.8465833,16.3258333 35.4889167,16.3258333 36.66325,15.4115 L43.0863333,10.41625 C43.3409167,10.2169167 43.6518333,10.1465 43.96925,10.2093333 C44.2834167,10.2743333 44.5423333,10.4639167 44.6994167,10.7445 L48.0805,16.8306667 C48.7911667,18.1133333 50.2883333,18.7633333 51.7096667,18.4058333 L56.29325,17.2596667 C57.0071667,17.0798333 57.3841667,17.5900833 57.4816667,17.7493333 C57.5791667,17.9096667 57.8575833,18.47625 57.36575,19.0309167 L53.6715833,23.1865833 C53.3184167,23.2396667 53.0096667,23.4639167 52.8536667,23.79325 C52.6738333,24.17025 52.7269167,24.6176667 52.9901667,24.9415833 C55.8848333,28.5111667 57.4166667,32.7708333 57.4166667,37.258 C57.4166667,37.6750833 57.4004167,38.1084167 57.3668333,38.5699167 C57.1664167,38.6815 56.9800833,38.8039167 56.80675,38.9360833 L46.293,47.0231667 C44.7730833,48.1931667 42.9704167,48.9829167 41.0789167,49.30575 L27.2880833,51.6674167 C26.9565833,51.714 26.6391667,51.6165 26.3889167,51.3976667 C26.1375833,51.1788333 26,50.8755 26,50.5429167 C26,50.011 26.377,49.5440833 26.897,49.4335833 L37.4681667,47.16725 C39.611,46.709 41.1666667,44.7860833 41.1666667,42.5934167 C41.1666667,40.0150833 39.06825,37.9166667 36.4899167,37.9166667 L28.3356667,37.9166667 C25.97725,37.9166667 23.6220833,38.207 21.3395,38.779 L15.40175,40.2620833 Z M2.16666667,40.0833333 L10.8333333,40.0833333 L10.8333333,42.25 L10.8333333,62.8333333 L2.16666667,62.8333333 L2.16666667,40.0833333 Z M62.0934167,44.7124167 L42.28575,61.54525 C41.3075,62.3750833 40.0616667,62.8333333 38.7779167,62.8333333 L13,62.8333333 L13,43.0960833 L21.8649167,40.8795833 C23.9763333,40.3509167 26.1538333,40.0833333 28.3345833,40.0833333 L36.4888333,40.0833333 C37.8733333,40.0833333 39,41.21 39,42.5934167 C39,43.7699167 38.16475,44.8023333 37.01425,45.0493333 L26.4430833,47.3156667 C24.93075,47.6395833 23.8333333,48.997 23.8333333,50.5429167 C23.8333333,51.49625 24.245,52.4019167 24.96325,53.0291667 C25.1300833,53.1743333 25.311,53.29675 25.4995,53.404 C25.5634167,53.4408333 25.63275,53.4668333 25.6988333,53.4993333 C25.8266667,53.5610833 25.9566667,53.6185 26.0920833,53.6629167 C26.1765833,53.6910833 26.2621667,53.7116667 26.3488333,53.7333333 C26.4755833,53.7636667 26.6034167,53.7875 26.7334167,53.80375 C26.8244167,53.8145833 26.9143333,53.8243333 27.0075,53.8275833 C27.053,53.82975 27.0963333,53.8395 27.1418333,53.8395 C27.2989167,53.8395 27.4570833,53.8286667 27.6163333,53.807 L41.4450833,51.4388333 C43.6821667,51.0553333 45.8163333,50.1225833 47.6135833,48.7391667 L58.1273333,40.6520833 C58.2259167,40.57625 58.3320833,40.51125 58.4404167,40.4505833 C58.54875,40.3920833 58.6646667,40.3368333 58.7925,40.287 C58.8000833,40.28375 58.8055,40.2783333 58.8130833,40.2750833 C59.1283333,40.15375 59.4630833,40.0833333 59.8021667,40.0833333 L60.0870833,40.0833333 C61.6005,40.0833333 62.8333333,41.3161667 62.8333333,42.8295833 C62.8333333,43.5640833 62.5473333,44.2541667 62.0934167,44.7124167 Z" id="Shape"></path>
            <path d="M53.0833333,13 C56.6680833,13 59.5833333,10.08475 59.5833333,6.5 C59.5833333,2.91525 56.6680833,0 53.0833333,0 C49.4985833,0 46.5833333,2.91525 46.5833333,6.5 C46.5833333,10.08475 49.4985833,13 53.0833333,13 Z M53.0833333,2.16666667 C55.4731667,2.16666667 57.4166667,4.11016667 57.4166667,6.5 C57.4166667,8.88983333 55.4731667,10.8333333 53.0833333,10.8333333 C50.6935,10.8333333 48.75,8.88983333 48.75,6.5 C48.75,4.11016667 50.6935,2.16666667 53.0833333,2.16666667 Z" id="Shape"></path>
            <path d="M36.8333333,31.4166667 C36.2353333,31.4166667 35.75,30.9313333 35.75,30.3333333 L33.5833333,30.3333333 C33.5833333,31.7438333 34.49225,32.9355 35.75,33.384 L35.75,35.75 L37.9166667,35.75 L37.9166667,33.384 C39.1744167,32.9355 40.0833333,31.7438333 40.0833333,30.3333333 C40.0833333,28.5415 38.6251667,27.0833333 36.8333333,27.0833333 C36.2353333,27.0833333 35.75,26.598 35.75,26 C35.75,25.402 36.2353333,24.9166667 36.8333333,24.9166667 C37.4313333,24.9166667 37.9166667,25.402 37.9166667,26 L40.0833333,26 C40.0833333,24.5895 39.1744167,23.3978333 37.9166667,22.9493333 L37.9166667,20.5833333 L35.75,20.5833333 L35.75,22.9493333 C34.49225,23.3978333 33.5833333,24.5895 33.5833333,26 C33.5833333,27.7918333 35.0415,29.25 36.8333333,29.25 C37.4313333,29.25 37.9166667,29.7353333 37.9166667,30.3333333 C37.9166667,30.9313333 37.4313333,31.4166667 36.8333333,31.4166667 Z" id="Shape"></path>
            <rect id="Rectangle-path" x="21.6666667" y="23.8333333" width="2.16666667" height="2.16666667"></rect>
            <rect id="Rectangle-path" x="26" y="23.8333333" width="2.16666667" height="2.16666667"></rect>
            <rect id="Rectangle-path" x="30.3333333" y="23.8333333" width="2.16666667" height="2.16666667"></rect>
            <rect id="Rectangle-path" x="41.1666667" y="23.8333333" width="2.16666667" height="2.16666667"></rect>
            <rect id="Rectangle-path" x="45.5" y="23.8333333" width="2.16666667" height="2.16666667"></rect>
            <rect id="Rectangle-path" x="49.8333333" y="23.8333333" width="2.16666667" height="2.16666667"></rect>
        </g>
    </g>
</svg>