<?xml version="1.0" encoding="UTF-8"?>
<svg width="39px" height="31px" viewBox="0 0 39 31" version="1.1" xmlns="http://www.w3.org/2000/svg" xmlns:xlink="http://www.w3.org/1999/xlink">
    <!-- Generator: Sketch 47 (45396) - http://www.bohemiancoding.com/sketch -->
    <title>growth-white</title>
    <desc>Created with Sketch.</desc>
    <defs></defs>
    <g id="Home" stroke="none" stroke-width="1" fill="none" fill-rule="evenodd">
        <g id="Home---With-Lines" transform="translate(-1088.000000, -1095.000000)" fill-rule="nonzero" fill="#FFFFFF">
            <g id="Group-19" transform="translate(203.000000, 1077.000000)">
                <g id="Icons-Copy-2" transform="translate(768.000000, 0.000000)">
                    <g id="Prototype">
                        <g id="icon">
                            <g id="Group-20" transform="translate(102.000000, 0.000000)">
                                <g id="growth-white" transform="translate(15.000000, 18.000000)">
                                    <g id="Group">
                                        <path d="M8.51637672,25.4102564 C7.03456058,26.8205128 5.87604978,28.4615385 5.04084432,30.2820513 C4.93307588,30.5384615 5.04084432,30.8461538 5.33720755,30.9487179 C5.41803389,30.974359 5.47191811,31 5.55274444,31 C5.76828134,31 5.95687612,30.8717949 6.03770245,30.6923077 C6.79208158,29 7.89670815,27.4615385 9.27075584,26.1282051 C9.70182963,25.7179487 10.1598455,25.3333333 10.6448035,24.974359 L10.6448035,26.4615385 C10.6448035,26.7435897 10.8872825,26.974359 11.1836458,26.974359 L14.1203359,26.974359 L14.3358728,27.5384615 L12.2882723,28.6410256 C12.207446,28.6923077 12.1266197,28.7692308 12.0727354,28.8461538 L11.2914142,30.2307692 C11.1567037,30.4871795 11.2644721,30.7948718 11.5069511,30.9230769 C11.5877774,30.974359 11.6686038,30.974359 11.7494301,30.974359 C11.9380249,30.974359 12.1266197,30.8717949 12.2343881,30.6923077 L12.934883,29.4358974 L15.2249625,28.2051282 C15.4674415,28.0769231 15.5482678,27.8205128 15.4674415,27.5641026 L14.9555414,26.2564103 C14.8747151,26.0512821 14.6861203,25.9230769 14.4436413,25.9230769 L11.722488,25.9230769 L11.722488,24.2051282 C12.4768671,23.7435897 13.2581884,23.3589744 14.0664517,23.025641 C15.332731,22.5128205 16.6528944,22.1794872 18,22.025641 L18,21 C16.4912418,21.1794872 15.0363677,21.5384615 13.6353779,22.1025641 C11.722488,22.8717949 9.99819286,24 8.51637672,25.4102564 Z" id="Shape"></path>
                                        <path d="M6.47595232,17 C6.58146068,17 6.68696903,16.9729488 6.7661003,16.9188463 C7.00349411,16.7565388 7.08262538,16.4048727 6.89798575,16.1614116 L4.97245821,13.2398777 C4.81419567,12.9964166 4.4712935,12.9152629 4.2338997,13.1046215 C3.99650589,13.266929 3.91737462,13.6185951 4.10201425,13.8620562 L6.02754179,16.7835901 C6.13305015,16.9188463 6.31768978,17 6.47595232,17 Z" id="Shape"></path>
                                        <path d="M7.74461593,19.7347774 C7.88082077,19.9115925 8.08512802,20 8.32348649,20 C8.45969133,20 8.59589617,19.9705308 8.6980498,19.9115925 C9.00451068,19.7347774 9.10666431,19.3516782 8.86830584,19.0864557 L8.25538407,18.2613188 C8.05107681,17.9960963 7.60841109,17.9076888 7.3019502,18.113973 C6.99548932,18.290788 6.89333569,18.6738872 7.13169416,18.9391098 L7.74461593,19.7347774 Z" id="Shape"></path>
                                        <path d="M10.1542501,14.7025669 C10.2203573,14.9008556 10.3966431,15 10.5508932,15 C10.6170004,15 10.6610719,14.9752139 10.7271791,14.9504278 C10.9475364,14.8512835 11.057715,14.5538504 10.9695721,14.3059895 L9.84574989,11.3068727 C9.75760698,11.0590118 9.49317823,10.9350814 9.27282093,11.0342257 C9.05246364,11.1333701 8.94228499,11.4308032 9.03042791,11.678664 L10.1542501,14.7025669 Z" id="Shape"></path>
                                        <path d="M11.0286596,16.8064934 L11.274421,17.6589981 C11.3311351,17.8863327 11.4823729,18 11.6147059,18 C11.67142,18 11.7092295,17.9715832 11.7659436,17.9431664 C11.9549908,17.8294991 12.0495144,17.4884972 11.9738955,17.204329 L11.7281342,16.3518243 C11.6525153,16.067656 11.4256587,15.9255719 11.2366115,16.0392392 C11.0286596,16.1813233 10.9530407,16.5223252 11.0286596,16.8064934 Z" id="Shape"></path>
                                        <path d="M28.2724153,14.9501607 C28.3384242,14.9750804 28.3824301,15 28.448439,15 C28.6244627,15 28.7784834,14.8754018 28.8444923,14.7009644 L29.9666434,11.6856887 C30.0546553,11.4364924 29.9666434,11.1374568 29.7246108,11.0377782 C29.5045812,10.9380997 29.2405456,11.0377782 29.1525338,11.3118942 L28.0303827,14.3271699 C27.9423708,14.5514466 28.0523856,14.8504822 28.2724153,14.9501607 Z" id="Shape"></path>
                                        <path d="M27.2340564,17.9424593 C27.2907705,17.9712296 27.32858,18 27.3852941,18 C27.5365319,18 27.6688649,17.8561482 27.725579,17.6547558 L27.9713404,16.7916451 C28.0469593,16.5039416 27.9713404,16.1586974 27.7633885,16.0436159 C27.5743413,15.9285345 27.3474847,16.0436159 27.2718658,16.3600898 L27.0261045,17.2232004 C26.9504856,17.4821336 27.0450092,17.8273779 27.2340564,17.9424593 Z" id="Shape"></path>
                                        <path d="M34.7651964,13.0924257 C34.5268851,12.930733 34.1826578,12.9846306 34.0237836,13.2271697 L32.0908146,16.1645876 C31.9319404,16.4071267 31.9848985,16.7574609 32.2232097,16.9191536 C32.3026468,16.9730512 32.4085629,17 32.514479,17 C32.6733532,17 32.8587064,16.9191536 32.9646225,16.7574609 L34.8975915,13.8469918 C35.0829447,13.6044527 35.0035076,13.2541185 34.7651964,13.0924257 Z" id="Shape"></path>
                                        <path d="M31.2913852,19.9110184 C31.3950849,19.9703395 31.5333512,20 31.6716175,20 C31.879017,20 32.120983,19.9110184 32.2592493,19.7330552 L32.8814477,18.9322209 C33.0888472,18.6652762 33.019714,18.2796893 32.7086148,18.1017261 C32.3975156,17.923763 31.9481501,17.983084 31.7407507,18.2500288 L31.1185523,19.0508631 C30.9111528,19.3474684 30.980286,19.7330552 31.2913852,19.9110184 Z" id="Shape"></path>
                                        <path d="M0.766917293,17.1353383 C0.586466165,16.9548872 0.315789474,16.9548872 0.135338346,17.1353383 C-0.045112782,17.3157895 -0.045112782,17.5864662 0.135338346,17.7669173 L2.23308271,19.8646617 C2.32330827,19.9548872 2.43609023,20 2.54887218,20 C2.66165414,20 2.77443609,19.9548872 2.86466165,19.8646617 C3.04511278,19.6842105 3.04511278,19.4135338 2.86466165,19.2330827 L0.766917293,17.1353383 Z" id="Shape"></path>
                                        <path d="M5.80952381,22.8095238 C6.06349206,22.5555556 6.06349206,22.1746032 5.80952381,21.9206349 L5.07936508,21.1904762 C4.82539683,20.9365079 4.44444444,20.9365079 4.19047619,21.1904762 C3.93650794,21.4444444 3.93650794,21.8253968 4.19047619,22.0793651 L4.92063492,22.8095238 C5.04761905,22.9365079 5.20634921,23 5.36507937,23 C5.52380952,23 5.68253968,22.9365079 5.80952381,22.8095238 Z" id="Shape"></path>
                                        <path d="M38.8548387,17.1451613 C38.6612903,16.9516129 38.3709677,16.9516129 38.1774194,17.1451613 L36.1451613,19.1774194 C35.9516129,19.3709677 35.9516129,19.6612903 36.1451613,19.8548387 C36.2419355,19.9516129 36.3629032,20 36.483871,20 C36.6048387,20 36.7258065,19.9516129 36.8225806,19.8548387 L38.8548387,17.8225806 C39.0483871,17.6532258 39.0483871,17.3387097 38.8548387,17.1451613 Z" id="Shape"></path>
                                        <path d="M34.8852459,21.1967213 L34.1967213,21.8852459 C33.9344262,22.147541 33.9344262,22.5409836 34.1967213,22.8032787 C34.3278689,22.9344262 34.4918033,23 34.6557377,23 C34.8196721,23 34.9836066,22.9344262 35.1147541,22.8032787 L35.8032787,22.1147541 C36.0655738,21.852459 36.0655738,21.4590164 35.8032787,21.1967213 C35.5737705,20.9344262 35.147541,20.9344262 34.8852459,21.1967213 Z" id="Shape"></path>
                                        <path d="M18.4666667,26 C18.21,26 18,26.2045455 18,26.4545455 L18,27.5454545 C18,27.7954545 18.21,28 18.4666667,28 C18.7233333,28 18.9333333,27.7954545 18.9333333,27.5454545 L18.9333333,26.4545455 C18.9333333,26.2045455 18.7233333,26 18.4666667,26 Z" id="Shape"></path>
                                        <path d="M20.4666667,26 C20.21,26 20,26.2045455 20,26.4545455 L20,27.5454545 C20,27.7954545 20.21,28 20.4666667,28 C20.7233333,28 20.9333333,27.7954545 20.9333333,27.5454545 L20.9333333,26.4545455 C20.9333333,26.2045455 20.7233333,26 20.4666667,26 Z" id="Shape"></path>
                                        <path d="M31.5132302,25.3958869 C30.893388,24.8303342 30.2465961,24.2904884 29.5728546,23.8277635 C29.5728546,23.8277635 29.5728546,23.8277635 29.5459049,23.8277635 C28.5487675,23.159383 27.4977307,22.5681234 26.365845,22.1053985 C24.9644627,21.5398458 23.509181,21.1799486 22,21 L22,22.0282776 C23.347483,22.1825193 24.6680164,22.5167095 25.9346504,23.0308483 C26.9048382,23.4164524 27.8480763,23.9048843 28.7104655,24.496144 L28.7104655,25.4987147 L26.7431403,25.8329049 C26.6892409,25.8329049 26.6622913,25.8586118 26.6353416,25.8586118 L24.5871674,26.7069409 C24.3985198,26.7840617 24.2637715,26.9640103 24.2637715,27.1696658 L24.2637715,30.4344473 C24.2637715,30.7172237 24.5063184,30.9485861 24.8027647,30.9485861 C25.099211,30.9485861 25.3417579,30.7172237 25.3417579,30.4344473 L25.3417579,27.503856 L27.0126369,26.8097686 L29.3572573,26.3984576 C29.6267539,26.3470437 29.7884519,26.1413882 29.7884519,25.8843188 L29.7884519,25.2930591 C30.1118478,25.5501285 30.4352437,25.8329049 30.73169,26.1156812 C32.1061227,27.4267352 33.2110588,28.9691517 33.9656493,30.6915167 C34.0464983,30.8971722 34.2620955,31 34.4507432,31 C34.5315921,31 34.5854915,30.9742931 34.6663405,30.9485861 C34.9358371,30.8457584 35.0705854,30.5372751 34.9627867,30.2802057 C34.1542969,28.4550129 32.9954615,26.8097686 31.5132302,25.3958869 Z" id="Shape"></path>
                                        <path d="M19.5,6 C18.6716418,6 18,6.67164179 18,7.5 C18,8.32835821 18.6716418,9 19.5,9 C20.3283582,9 21,8.32835821 21,7.5 C21,6.67164179 20.3283582,6 19.5,6 Z M19.5,8.12686567 C19.1641791,8.12686567 18.8955224,7.85820896 18.8955224,7.52238806 C18.8955224,7.18656716 19.1641791,6.91791045 19.5,6.91791045 C19.8358209,6.91791045 20.1044776,7.18656716 20.1044776,7.52238806 C20.1044776,7.8358209 19.8358209,8.12686567 19.5,8.12686567 Z" id="Shape"></path>
                                        <path d="M22.4008908,17.864638 L22.4008908,19.8583421 C22.4008908,20.0944386 22.5623738,20.3043022 22.8045984,20.3567681 C22.8584261,20.3567681 22.88534,20.383001 22.9391677,20.383001 C23.1275646,20.383001 23.3159615,20.2780693 23.396703,20.1206716 L25.8189489,16.0807975 C26.0880873,15.6086044 26.0611735,15.0052466 25.7112935,14.5855194 L23.8273245,12.2770199 C24.5001706,8.68310598 23.7465829,4.93179433 21.5396478,1.7838405 L20.4630941,0.236096537 C20.3554387,0.104931794 20.1939557,0 20.0055587,0 C19.8171618,0 19.6556788,0.0786988458 19.5480234,0.236096537 L18.4714697,1.7838405 C16.2914484,4.93179433 15.5109469,8.68310598 16.183793,12.2770199 L14.299824,14.5855194 C13.949944,15.0052466 13.8961163,15.6086044 14.1921686,16.0807975 L16.6144145,20.1206716 C16.7220699,20.2780693 16.8835529,20.383001 17.0719498,20.383001 C17.1257775,20.383001 17.1526914,20.383001 17.2065191,20.3567681 C17.4487436,20.3043022 17.6102267,20.0944386 17.6102267,19.8583421 L17.6102267,17.864638 C17.6102267,17.4449108 17.6909682,17.0514166 17.8255375,16.6841553 C17.9601067,16.9202518 18.0946759,17.1563484 18.2561589,17.366212 C18.3369005,17.4973767 18.4714697,17.5760756 18.6060389,17.6023085 L18.6060389,24.475341 C18.6060389,24.7639035 18.8482635,25 19.1443158,25 C19.440368,25 19.6825926,24.7639035 19.6825926,24.475341 L19.6825926,17.6285414 L20.3285249,17.6285414 L20.3285249,24.475341 C20.3285249,24.7639035 20.5707495,25 20.8668017,25 C21.162854,25 21.4050786,24.7639035 21.4050786,24.475341 L21.4050786,17.6023085 C21.5396478,17.5760756 21.674217,17.4973767 21.7549586,17.366212 C21.9164416,17.1301154 22.0510108,16.9202518 22.18558,16.6841553 C22.3470631,17.0776495 22.4008908,17.4711438 22.4008908,17.864638 Z M16.5605868,17.864638 L16.5605868,17.9171039 L15.161067,15.5561385 C15.1072393,15.4512067 15.1072393,15.320042 15.1879808,15.2413431 L16.8297253,13.2214061 L17.906279,14.6642183 C17.045036,15.5299056 16.5605868,16.6579224 16.5605868,17.864638 Z M21.0013709,14.4281217 C20.8398879,14.6642183 20.8668017,14.9527807 21.0821125,15.1364113 C21.2705094,15.2675761 21.4050786,15.4512067 21.5665617,15.6086044 C21.4050786,15.9233998 21.2166817,16.2644281 21.0282848,16.5792235 L19.0366604,16.5792235 C18.8482635,16.2644281 18.6598666,15.9496327 18.4983835,15.6086044 C18.6329527,15.4512067 18.7944358,15.2675761 18.9828327,15.1364113 C19.1981435,14.9527807 19.2519711,14.6379853 19.0635742,14.4281217 L17.2872606,12.0409234 C17.2872606,12.0409234 17.2603467,12.0146905 17.2603467,12.0146905 C16.6682422,8.70933893 17.3680021,5.27282267 19.3865404,2.38719832 L20.0324726,1.46904512 L20.6784048,2.38719832 C22.6969431,5.27282267 23.396703,8.70933893 22.8045984,12.0146905 C22.8045984,12.0146905 22.7776846,12.0409234 22.7776846,12.0409234 L21.0013709,14.4281217 Z M23.2352199,13.2214061 L24.8769644,15.2413431 C24.9577059,15.3462749 24.9577059,15.4774397 24.9038782,15.5561385 L23.5043584,17.9171039 L23.5043584,17.864638 C23.5043584,16.6579224 23.0199092,15.5036726 22.18558,14.6642183 L23.2352199,13.2214061 Z" id="Shape"></path>
                                    </g>
                                </g>
                            </g>
                        </g>
                    </g>
                </g>
            </g>
        </g>
    </g>
</svg>