<?xml version="1.0" encoding="UTF-8"?>
<svg width="176px" height="384px" viewBox="0 0 176 384" version="1.1" xmlns="http://www.w3.org/2000/svg" xmlns:xlink="http://www.w3.org/1999/xlink">
    <!-- Generator: Sketch 48.2 (47327) - http://www.bohemiancoding.com/sketch -->
    <title>growth</title>
    <desc>Created with Sketch.</desc>
    <defs></defs>
    <g id="Page-1" stroke="none" stroke-width="1" fill="none" fill-rule="evenodd">
        <g id="growth" fill="#44C7F4" fill-rule="nonzero">
            <g id="Group">
                <path d="M87.802,72.305 C69.635,72.305 54.855,87.085 54.855,105.252 C54.855,123.419 69.635,138.2 87.802,138.2 C105.969,138.2 120.749,123.42 120.749,105.252 C120.749,87.085 105.969,72.305 87.802,72.305 Z M87.802,130.431 C73.919,130.431 62.623,119.136 62.623,105.252 C62.623,91.369 73.918,80.073 87.802,80.073 C101.686,80.073 112.981,91.368 112.981,105.252 C112.98,119.136 101.686,130.431 87.802,130.431 Z" id="Shape"></path>
                <path d="M103.135,115.42 C102.641,115.42 102.156,115.322 101.694,115.128 C99.801,114.332 98.907,112.144 99.703,110.249 C101.185,106.72 101.025,102.738 99.263,99.324 C98.321,97.498 99.039,95.246 100.865,94.303 C101.4,94.028 101.974,93.887 102.571,93.887 C103.973,93.887 105.243,94.66 105.885,95.904 C108.662,101.286 108.913,107.566 106.573,113.135 C105.989,114.524 104.64,115.42 103.135,115.42 Z" id="Shape"></path>
                <path d="M94.886,93.948 C94.335,93.948 93.8,93.827 93.297,93.59 C91.55,92.764 89.701,92.345 87.802,92.345 C85.747,92.345 84.076,90.674 84.076,88.619 C84.076,86.564 85.747,84.893 87.802,84.893 C90.81,84.893 93.73,85.552 96.481,86.852 C98.338,87.73 99.136,89.955 98.258,91.812 C97.645,93.11 96.322,93.948 94.886,93.948 Z" id="Shape"></path>
                <path d="M173.719,225.998 C169.69,200.123 156.544,182.628 135.701,175.376 C139.119,143.628 141.73,112.382 140.5,99.537 C139.062,84.534 134.631,54.391 121.426,30.747 C121.387,30.661 121.356,30.573 121.31,30.489 C121.146,30.189 117.214,23.057 111.383,15.826 C103.069,5.516 95.168,0.288 87.902,0.288 C79.981,0.288 71.844,5.528 63.717,15.863 C57.999,23.134 54.378,30.314 54.227,30.616 C54.201,30.668 54.186,30.722 54.163,30.774 C40.97,54.413 36.542,84.538 35.105,99.536 C33.873,112.399 36.492,143.713 39.917,175.506 C19.285,182.835 6.266,200.273 2.26,225.997 C-0.721,245.136 2.3,261.96 2.43,262.666 C2.677,264.006 3.592,265.131 4.868,265.611 C5.317,265.78 5.784,265.863 6.246,265.863 C7.098,265.863 7.938,265.581 8.63,265.033 C8.699,264.981 15.673,259.817 30.631,259.817 C39.493,259.817 46.779,262.076 50.887,263.706 C51.688,267.855 54.339,279.215 59.982,283.384 C63.221,285.777 67.189,286.973 71.159,286.973 C75.128,286.973 79.098,285.776 82.336,283.384 C84.695,281.641 86.474,278.916 87.801,276.071 C89.129,278.916 90.906,281.641 93.266,283.384 C96.505,285.777 100.473,286.973 104.444,286.973 C108.413,286.973 112.382,285.777 115.621,283.384 C121.198,279.264 123.851,268.123 124.686,263.858 C128.689,262.22 136.129,259.817 145.348,259.817 C160.307,259.817 167.281,264.981 167.32,265.009 C168.387,265.854 169.819,266.078 171.097,265.599 C172.372,265.119 173.303,264.006 173.549,262.666 C173.68,261.961 176.7,245.137 173.719,225.998 Z M87.901,8.057 C94.494,8.057 102.858,16.857 109.012,25.532 C103.553,24.229 96.277,23.031 87.967,23.031 C79.029,23.031 71.674,24.207 66.282,25.501 C71.733,17.438 79.992,8.057 87.901,8.057 Z M30.63,252.05 C20.758,252.05 13.736,254.052 9.362,255.897 C8.718,249.642 8.122,238.668 9.965,227.002 C13.47,204.806 23.839,190.18 40.789,183.475 C44.085,213.055 47.86,241.746 49.648,255.016 C44.825,253.488 38.262,252.05 30.63,252.05 Z M77.72,277.137 C73.98,279.902 68.338,279.9 64.598,277.137 C62.752,275.773 60.98,271.47 59.74,267.221 C65.033,268.368 73.104,269.827 81.773,270.331 C80.605,273.605 79.162,276.071 77.72,277.137 Z M111.005,277.137 C107.263,279.899 101.622,279.901 97.882,277.137 C96.44,276.072 94.997,273.605 93.829,270.332 C102.501,269.827 110.573,268.369 115.867,267.221 C114.63,271.467 112.857,275.768 111.005,277.137 Z M117.627,258.597 C117.438,258.705 117.268,258.832 117.105,258.965 C111.723,260.247 99.709,262.746 87.801,262.746 C76.303,262.746 64.646,260.401 59.023,259.088 C58.813,258.899 58.585,258.725 58.329,258.581 C58.287,258.557 58.155,258.484 57.946,258.374 C55.237,238.431 40.316,126.59 42.837,100.278 C44.041,87.715 46.857,68.979 53.439,51.061 C55.552,45.308 57.9,40.1 60.461,35.41 C63.644,34.162 73.563,30.799 87.969,30.799 C101.204,30.799 111.727,34.202 115.173,35.464 C117.723,40.139 120.061,45.33 122.165,51.061 C128.747,68.979 131.563,87.716 132.767,100.278 C135.297,126.688 120.255,239.265 117.627,258.597 Z M166.615,255.896 C162.242,254.052 155.219,252.049 145.347,252.049 C137.507,252.049 130.793,253.567 125.937,255.14 C127.721,241.904 131.519,213.052 134.83,183.329 C151.995,189.969 162.483,204.647 166.014,227.001 C167.855,238.669 167.259,249.643 166.615,255.896 Z" id="Shape"></path>
                <path d="M112.436,293.079 C110.305,292.995 108.48,294.649 108.388,296.793 C107.48,317.87 96.392,338.349 88.743,338.349 C88.725,338.349 88.706,338.349 88.688,338.348 C84.991,338.302 80.049,333.373 75.791,325.487 C71.169,316.927 67.997,306.134 67.304,296.614 C67.149,294.474 65.291,292.874 63.148,293.022 C61.008,293.177 59.4,295.038 59.556,297.178 C60.324,307.738 63.838,319.701 68.955,329.178 C74.807,340.015 81.78,346.031 88.589,346.116 C88.64,346.116 88.688,346.117 88.739,346.117 C102.998,346.117 115.17,319.852 116.149,297.127 C116.241,294.984 114.578,293.172 112.436,293.079 Z" id="Shape"></path>
                <path d="M88.164,310.51 C88.217,310.511 88.269,310.511 88.322,310.511 C97.351,310.511 100.908,300.479 102.021,296.146 C102.555,294.068 101.303,291.951 99.226,291.417 C97.15,290.883 95.031,292.134 94.497,294.213 C93.117,299.586 90.768,302.76 88.264,302.742 C85.558,302.708 83.104,299.645 81.53,294.337 C80.92,292.28 78.759,291.108 76.701,291.717 C74.644,292.327 73.472,294.489 74.082,296.546 C75.315,300.708 79.158,310.397 88.164,310.51 Z" id="Shape"></path>
                <path d="M5.874,284.462 C3.729,284.462 1.99,286.201 1.99,288.346 L1.99,329.57 C1.99,331.716 3.729,333.455 5.874,333.455 C8.019,333.455 9.758,331.716 9.758,329.57 L9.758,288.346 C9.758,286.202 8.019,284.462 5.874,284.462 Z" id="Shape"></path>
                <path d="M169.568,294.468 C167.422,294.468 165.683,296.207 165.683,298.352 L165.683,379.923 C165.683,382.069 167.422,383.807 169.568,383.807 C171.714,383.807 173.453,382.069 173.453,379.923 L173.453,298.352 C173.453,296.208 171.714,294.468 169.568,294.468 Z" id="Shape"></path>
                <path d="M144.052,268.241 C141.906,268.241 140.167,269.98 140.167,272.126 L140.167,296.897 C140.167,299.042 141.906,300.781 144.052,300.781 C146.198,300.781 147.936,299.042 147.936,296.897 L147.936,272.126 C147.936,269.98 146.197,268.241 144.052,268.241 Z" id="Shape"></path>
                <path d="M37.066,340.662 C34.921,340.662 33.182,342.401 33.182,344.546 L33.182,356.932 C33.182,359.077 34.921,360.816 37.066,360.816 C39.212,360.816 40.951,359.077 40.951,356.932 L40.951,344.546 C40.951,342.401 39.212,340.662 37.066,340.662 Z" id="Shape"></path>
            </g>
        </g>
    </g>
</svg>