<?xml version="1.0" encoding="UTF-8"?>
<svg width="42px" height="73px" viewBox="0 0 42 73" version="1.1" xmlns="http://www.w3.org/2000/svg" xmlns:xlink="http://www.w3.org/1999/xlink">
    <!-- Generator: Sketch 48.2 (47327) - http://www.bohemiancoding.com/sketch -->
    <title>honest</title>
    <desc>Created with Sketch.</desc>
    <defs></defs>
    <g id="Page-1" stroke="none" stroke-width="1" fill="none" fill-rule="evenodd">
        <g id="honest" transform="translate(1.000000, 1.000000)" fill="#44C7F4" fill-rule="nonzero" stroke="#44C7F4" stroke-width="0.7">
            <path d="M39.4230769,37.0285714 C38.4769231,32.3604396 37.2153846,12.2637363 37.0576923,9.57362637 C36.9,7.35824176 35.1653846,5.14285714 32.4057692,5.14285714 C31.1442308,5.14285714 30.0403846,5.61758242 29.1730769,6.40879121 C29.1730769,5.53846154 29.1730769,4.98461538 29.1730769,4.82637363 C29.0942308,2.84835165 27.675,0.0791208791 24.4423077,0.0791208791 C21.525,0.0791208791 19.8692308,2.45274725 19.7903846,4.74725275 C19.7903846,4.90549451 19.7903846,5.3010989 19.7115385,5.6967033 C18.9230769,4.58901099 17.5826923,3.95604396 16.1634615,3.95604396 C13.7980769,3.95604396 11.7480769,5.85494505 11.5115385,8.22857143 C11.4326923,8.78241758 11.3538462,9.89010989 11.275,11.4725275 C10.8807692,17.010989 10.0134615,28.3252747 9.225,35.1296703 C9.14615385,35.1296703 8.98846154,35.2087912 8.90961538,35.2087912 C7.72692308,33.9428571 5.91346154,33.4681319 3.94230769,34.021978 C2.60192308,34.4175824 1.41923077,35.2087912 0.788461538,36.3956044 C0.157692308,37.5032967 -1.55431223e-15,38.8483516 0.394230769,40.1934066 C0.473076923,40.5098901 0.630769231,40.9054945 0.709615385,41.221978 C0.630769231,41.4593407 0.551923077,41.6175824 0.551923077,41.9340659 L0.551923077,51.4285714 C0.551923077,56.7296703 2.68076923,61.7142857 6.54423077,65.5120879 C10.4076923,69.3098901 15.5326923,71.367033 20.9730769,71.367033 C34.6134615,71.367033 40.6057692,61.1604396 40.6057692,51.032967 C40.6846154,45.9692308 40.6057692,42.9626374 39.4230769,37.0285714 Z M13.0096154,11.6307692 C13.1673077,10.0483516 13.2461538,8.94065934 13.2461538,8.38681319 C13.325,7.12087912 14.4288462,5.77582418 16.0846154,5.77582418 C17.5038462,5.77582418 19.0019231,6.96263736 19.0019231,8.7032967 C19.0019231,11.8681319 18.2923077,35.1296703 18.2923077,35.367033 C18.2923077,35.8417582 18.6865385,36.2373626 19.1596154,36.3164835 C19.6326923,36.3164835 20.0269231,35.9208791 20.1057692,35.4461538 C20.1057692,35.4461538 21.4461538,7.35824176 21.6038462,4.90549451 C21.6826923,2.53186813 23.4961538,1.97802198 24.5211538,1.97802198 C26.7288462,1.97802198 27.4384615,3.95604396 27.4384615,4.90549451 C27.4384615,6.56703297 27.5173077,35.7626374 27.5173077,36.0791209 C27.5173077,36.5538462 27.9115385,36.9494505 28.3846154,36.9494505 C28.8576923,36.9494505 29.2519231,36.5538462 29.2519231,36.0791209 C29.2519231,35.8417582 29.4884615,12.0263736 29.4884615,9.96923077 C29.4884615,8.38681319 30.75,7.04175824 32.4057692,7.04175824 C34.3769231,7.04175824 35.2442308,8.78241758 35.3230769,9.81098901 C35.4807692,12.6593407 36.7423077,32.6769231 37.7673077,37.5032967 C38.3980769,40.7472527 38.7134615,43.1208791 38.8711538,45.4153846 C37.925,44.3868132 36.2692308,43.2791209 33.7461538,43.2791209 C23.2596154,43.2791209 17.6615385,39.4021978 14.4288462,37.1076923 C13.0884615,36.1582418 12.0634615,35.4461538 11.1173077,35.2879121 C11.7480769,28.167033 12.6153846,17.0901099 13.0096154,11.6307692 Z M2.52307692,37.2659341 C2.91730769,36.5538462 3.70576923,36 4.57307692,35.7626374 C5.28269231,35.6043956 6.38653846,35.4461538 7.25384615,36 C5.99230769,36.8703297 5.28269231,38.3736264 5.28269231,39.7978022 C5.28269231,40.9054945 6.15,44.9406593 9.77692308,48.8967033 C9.46153846,49.2923077 8.90961538,49.5296703 8.2,49.767033 C7.175,50.0043956 6.30769231,49.9252747 4.41538462,46.2857143 C3.54807692,44.4659341 3.23269231,43.4373626 2.68076923,41.4593407 C2.52307692,40.9846154 2.36538462,40.3516484 2.20769231,39.7186813 C1.97115385,38.8483516 2.05,37.978022 2.52307692,37.2659341 Z M34.7711538,63.4549451 C31.6173077,67.3318681 26.8865385,69.3098901 21.0519231,69.3098901 C16.0846154,69.3098901 11.4326923,67.410989 7.88461538,64.0087912 C4.33653846,60.6065934 2.36538462,56.0175824 2.36538462,51.1912088 L2.36538462,45.8901099 C2.52307692,46.2065934 2.68076923,46.5230769 2.83846154,46.8395604 C4.02115385,49.2131868 5.36153846,51.4285714 7.64807692,51.4285714 C7.96346154,51.4285714 8.27884615,51.3494505 8.67307692,51.2703297 C9.69807692,50.9538462 10.5653846,50.5582418 11.1173077,49.9252747 C13.2461538,51.8241758 15.8480769,53.4065934 18.8442308,54.5142857 C22.9442308,56.0967033 27.8326923,56.8879121 33.3519231,56.8879121 C33.825,56.8879121 34.2192308,56.4923077 34.2192308,56.0175824 C34.2192308,55.5428571 33.825,55.1472527 33.3519231,55.1472527 C23.8115385,55.1472527 16.2423077,52.6945055 11.6692308,47.9472527 C8.04230769,44.2285714 7.25384615,40.4307692 7.25384615,39.6395604 C7.25384615,38.1362637 8.35769231,36.7120879 10.7230769,36.7120879 C11.275,36.7120879 12.3788462,37.4241758 13.5615385,38.2945055 C17.0307692,40.7472527 22.9442308,44.7824176 33.9038462,44.7824176 C37.6884615,44.7824176 39.1076923,47.9472527 39.1076923,49.9252747 L39.1076923,50.0043956 C39.1076923,50.2417582 39.1076923,50.4 39.1076923,50.6373626 C38.8711538,55.621978 37.4519231,60.210989 34.7711538,63.4549451 Z" id="Shape"></path>
        </g>
    </g>
</svg>