<?xml version="1.0" encoding="UTF-8"?>
<svg width="62px" height="72px" viewBox="0 0 62 72" version="1.1" xmlns="http://www.w3.org/2000/svg" xmlns:xlink="http://www.w3.org/1999/xlink">
    <!-- Generator: Sketch 48.2 (47327) - http://www.bohemiancoding.com/sketch -->
    <title>Integrity</title>
    <desc>Created with Sketch.</desc>
    <defs></defs>
    <g id="Page-1" stroke="none" stroke-width="1" fill="none" fill-rule="evenodd">
        <g id="Integrity" fill="#44C7F4" fill-rule="nonzero">
            <path d="M31,71.5 C38.579,71.5 61.4,57.678 61.4,37.271 L61.4,6.241 C61.4,5.497 60.854,4.865 60.118,4.757 L38.17,1.535 C33.471,0.162 28.537,0.161 23.83,1.535 L1.882,4.757 C1.146,4.865 0.6,5.497 0.6,6.241 L0.6,37.271 C0.6,57.678 23.421,71.5 31,71.5 Z M3.6,7.537 L24.371,4.488 C24.441,4.478 24.512,4.463 24.58,4.442 C28.799,3.192 33.211,3.192 37.422,4.442 C37.49,4.463 37.561,4.478 37.631,4.488 L58.4,7.537 L58.4,37.271 C58.4,55.542 37.623,68.5 31,68.5 C24.377,68.5 3.6,55.542 3.6,37.271 L3.6,7.537 Z" id="Shape"></path>
            <path d="M27.243,47.539 C27.529,47.857 27.935,48.037 28.359,48.037 C28.399,48.037 28.438,48.036 28.478,48.032 C28.944,47.995 29.367,47.742 29.62,47.349 L43.204,26.276 C43.653,25.58 43.452,24.651 42.756,24.203 C42.063,23.755 41.133,23.953 40.683,24.651 L28.163,44.073 L23.173,38.518 C22.619,37.903 21.672,37.85 21.054,38.405 C20.438,38.959 20.387,39.907 20.941,40.523 L27.243,47.539 Z" id="Shape"></path>
        </g>
    </g>
</svg>