<?xml version="1.0" encoding="UTF-8"?>
<svg width="64px" height="65px" viewBox="0 0 64 65" version="1.1" xmlns="http://www.w3.org/2000/svg" xmlns:xlink="http://www.w3.org/1999/xlink">
    <!-- Generator: Sketch 48.2 (47327) - http://www.bohemiancoding.com/sketch -->
    <title>network</title>
    <desc>Created with Sketch.</desc>
    <defs></defs>
    <g id="Page-1" stroke="none" stroke-width="1" fill="none" fill-rule="evenodd">
        <g id="network" fill="#44C7F4" fill-rule="nonzero" stroke="#44C7F4" stroke-width="0.5">
            <g id="Group">
                <g transform="translate(20.000000, 0.000000)" id="Shape">
                    <path d="M12,19.5670103 C6.73333333,19.5670103 2.4,15.2113402 2.4,9.91752577 C2.4,4.62371134 6.73333333,0.268041237 12,0.268041237 C17.2666667,0.268041237 21.6,4.62371134 21.6,9.91752577 C21.6,15.2113402 17.2666667,19.5670103 12,19.5670103 Z M12,2.27835052 C7.8,2.27835052 4.4,5.69587629 4.4,9.91752577 C4.4,14.1391753 7.8,17.556701 12,17.556701 C16.2,17.556701 19.6,14.1391753 19.6,9.91752577 C19.6,5.69587629 16.2,2.27835052 12,2.27835052 Z"></path>
                    <path d="M19.6,64.3969072 L17.6,64.3969072 L17.6,49.185567 L18.6,49.185567 C20.4,49.185567 21.8666667,47.7113402 21.8666667,45.9020619 L21.8666667,26.4690722 C21.8666667,24.6597938 20.4,23.185567 18.6,23.185567 L5.4,23.185567 C3.6,23.185567 2.13333333,24.6597938 2.13333333,26.4690722 L2.13333333,45.9020619 C2.13333333,47.7113402 3.6,49.185567 5.4,49.185567 L6.4,49.185567 L6.4,64.3298969 L4.4,64.3298969 L4.4,51.128866 C2,50.6597938 0.133333333,48.5154639 0.133333333,45.9690722 L0.133333333,26.5360825 C0.133333333,23.5876289 2.46666667,21.242268 5.4,21.242268 L18.5333333,21.242268 C21.4666667,21.242268 23.8,23.5876289 23.8,26.5360825 L23.8,45.9690722 C23.8,48.5154639 21.9333333,50.6597938 19.5333333,51.128866 L19.5333333,64.3969072 L19.6,64.3969072 Z"></path>
                </g>
                <g transform="translate(0.000000, 12.061856)" id="Shape">
                    <path d="M9.6,15.2783505 C5.46666667,15.2783505 2.13333333,11.9278351 2.13333333,7.77319588 C2.13333333,3.6185567 5.46666667,0.268041237 9.6,0.268041237 C13.7333333,0.268041237 17.0666667,3.6185567 17.0666667,7.77319588 C17.0666667,11.9278351 13.7333333,15.2783505 9.6,15.2783505 Z M9.6,2.27835052 C6.6,2.27835052 4.13333333,4.75773196 4.13333333,7.77319588 C4.13333333,10.7886598 6.6,13.2680412 9.6,13.2680412 C12.6,13.2680412 15.0666667,10.7886598 15.0666667,7.77319588 C15.0666667,4.75773196 12.6666667,2.27835052 9.6,2.27835052 Z"></path>
                    <path d="M15.6,48.7835052 L13.6,48.7835052 L13.6,37.1237113 L14.6,37.1237113 C15.8,37.1237113 16.8,36.1185567 16.8,34.9123711 L16.8,20.2371134 C16.8,19.0309278 15.8,18.0257732 14.6,18.0257732 L4.66666667,18.0257732 C3.46666667,18.0257732 2.46666667,19.0309278 2.46666667,20.2371134 L2.46666667,34.9123711 C2.46666667,36.1185567 3.46666667,37.1237113 4.66666667,37.1237113 L5.66666667,37.1237113 L5.66666667,48.7835052 L3.66666667,48.7835052 L3.66666667,39 C1.8,38.5309278 0.466666667,36.8556701 0.466666667,34.9123711 L0.466666667,20.2371134 C0.466666667,17.8917526 2.33333333,16.0154639 4.66666667,16.0154639 L14.5333333,16.0154639 C16.8666667,16.0154639 18.7333333,17.8917526 18.7333333,20.2371134 L18.7333333,34.9123711 C18.7333333,36.9226804 17.3333333,38.5979381 15.5333333,39 L15.5333333,48.7835052 L15.6,48.7835052 Z"></path>
                </g>
                <g transform="translate(44.666667, 12.061856)" id="Shape">
                    <path d="M9.73333333,15.6134021 C5.6,15.6134021 2.26666667,12.2628866 2.26666667,8.10824742 C2.26666667,3.95360825 5.6,0.603092784 9.73333333,0.603092784 C13.8666667,0.603092784 17.2,3.95360825 17.2,8.10824742 C17.2,12.1958763 13.8666667,15.6134021 9.73333333,15.6134021 Z M9.73333333,2.54639175 C6.73333333,2.54639175 4.26666667,5.0257732 4.26666667,8.04123711 C4.26666667,11.056701 6.73333333,13.5360825 9.73333333,13.5360825 C12.7333333,13.5360825 15.2,11.056701 15.2,8.04123711 C15.2,5.0257732 12.7333333,2.54639175 9.73333333,2.54639175 Z"></path>
                    <path d="M15.6666667,49.1185567 L13.6666667,49.1185567 L13.6666667,37.4587629 L14.6666667,37.4587629 C15.8666667,37.4587629 16.8666667,36.4536082 16.8666667,35.2474227 L16.8666667,20.5721649 C16.8666667,19.3659794 15.8666667,18.3608247 14.6666667,18.3608247 L4.73333333,18.3608247 C3.53333333,18.3608247 2.53333333,19.3659794 2.53333333,20.5721649 L2.53333333,35.2474227 C2.53333333,36.4536082 3.53333333,37.4587629 4.73333333,37.4587629 L5.73333333,37.4587629 L5.73333333,49.1185567 L3.73333333,49.1185567 L3.73333333,39.3350515 C1.86666667,38.8659794 0.533333333,37.1907216 0.533333333,35.2474227 L0.533333333,20.5721649 C0.533333333,18.2268041 2.4,16.3505155 4.73333333,16.3505155 L14.6666667,16.3505155 C17,16.3505155 18.8666667,18.2268041 18.8666667,20.5721649 L18.8666667,35.2474227 C18.8666667,37.257732 17.4666667,38.9329897 15.6666667,39.3350515 L15.6666667,49.1185567 Z"></path>
                </g>
            </g>
        </g>
    </g>
</svg>