<?xml version="1.0" encoding="UTF-8"?>
<svg width="54px" height="42px" viewBox="0 0 54 42" version="1.1" xmlns="http://www.w3.org/2000/svg" xmlns:xlink="http://www.w3.org/1999/xlink">
    <!-- Generator: Sketch 48.2 (47327) - http://www.bohemiancoding.com/sketch -->
    <title>prototype</title>
    <desc>Created with Sketch.</desc>
    <defs></defs>
    <g id="Page-1" stroke="none" stroke-width="1" fill="none" fill-rule="evenodd">
        <g id="prototype" fill="#44C7F4" fill-rule="nonzero">
            <g id="Group">
                <path d="M53,0 L1,0 C0.448,0 0,0.448 0,1 L0,41 C0,41.553 0.448,42 1,42 L53,42 C53.553,42 54,41.553 54,41 L54,1 C54,0.448 53.553,0 53,0 Z M52,2 L52,8 L2,8 L2,2 L52,2 Z M2,40 L2,10 L52,10 L52,40 L2,40 Z" id="Shape"></path>
                <path d="M21.707,16.293 C21.316,15.902 20.684,15.902 20.293,16.293 L14.293,22.293 C13.902,22.684 13.902,23.316 14.293,23.707 L20.293,29.707 C20.488,29.902 20.744,30 21,30 C21.256,30 21.512,29.902 21.707,29.707 C22.098,29.316 22.098,28.684 21.707,28.293 L16.414,23 L21.707,17.707 C22.098,17.316 22.098,16.684 21.707,16.293 Z" id="Shape"></path>
                <path d="M29.242,14.03 C28.707,13.893 28.163,14.222 28.03,14.758 L24.03,30.758 C23.896,31.293 24.222,31.836 24.758,31.97 C24.839,31.99 24.92,32 25.001,32 C25.449,32 25.856,31.697 25.97,31.242 L29.97,15.242 C30.104,14.707 29.778,14.164 29.242,14.03 Z" id="Shape"></path>
                <path d="M33.707,16.293 C33.316,15.902 32.684,15.902 32.293,16.293 C31.902,16.684 31.902,17.316 32.293,17.707 L37.586,23 L32.293,28.293 C31.902,28.684 31.902,29.316 32.293,29.707 C32.488,29.902 32.744,30 33,30 C33.256,30 33.512,29.902 33.707,29.707 L39.707,23.707 C40.098,23.316 40.098,22.684 39.707,22.293 L33.707,16.293 Z" id="Shape"></path>
            </g>
        </g>
    </g>
</svg>