<?xml version="1.0" encoding="UTF-8"?>
<svg width="32px" height="32px" viewBox="0 0 32 32" version="1.1" xmlns="http://www.w3.org/2000/svg" xmlns:xlink="http://www.w3.org/1999/xlink">
    <!-- Generator: Sketch 47 (45396) - http://www.bohemiancoding.com/sketch -->
    <title>prototype</title>
    <desc>Created with Sketch.</desc>
    <defs></defs>
    <g id="Home" stroke="none" stroke-width="1" fill="none" fill-rule="evenodd">
        <g id="Home---With-Lines" transform="translate(-325.000000, -1097.000000)" fill-rule="nonzero" fill="#FFFFFF">
            <g id="Group-19" transform="translate(203.000000, 1077.000000)">
                <g id="Icons">
                    <g id="Prototype">
                        <g id="icon">
                            <g id="Group-22" transform="translate(102.000000, 0.000000)">
                                <g id="prototype" transform="translate(20.000000, 20.000000)">
                                    <path d="M30.5,20.0187207 L30.5,3.94383775 C31.35,3.74414977 32,2.94539782 32,1.99687988 C32,0.898595944 31.1,0 30,0 C29.05,0 28.3,0.648985959 28.05,1.49765991 L11.95,1.49765991 C11.75,0.648985959 10.95,0 10,0 C8.9,0 8,0.898595944 8,1.99687988 C8,2.34633385 8.1,2.69578783 8.3,2.99531981 L3,8.28705148 C2.7,8.08736349 2.35,7.9875195 2,7.9875195 C0.9,7.9875195 0,8.88611544 0,9.98439938 C0,10.9329173 0.65,11.6817473 1.5,11.9313573 L1.5,28.0561622 C0.65,28.2558502 0,29.0546022 0,30.0031201 C0,31.1014041 0.9,32 2,32 C2.95,32 3.7,31.351014 3.95,30.5023401 L20.1,30.5023401 C20.3,31.351014 21.1,32 22.05,32 C23.15,32 24.05,31.1014041 24.05,30.0031201 C24.05,29.6536661 23.95,29.3042122 23.75,29.0046802 L29,23.6630265 C29.3,23.8627145 29.65,23.9625585 30,23.9625585 C31.1,23.9625585 32,23.0639626 32,21.9656786 C32,21.0171607 31.35,20.2683307 30.5,20.0187207 Z M22.5,28.0062402 L22.5,22.4648986 L28.05,22.4648986 C28.1,22.6645866 28.15,22.8143526 28.25,22.9641186 L23,28.2558502 C22.85,28.1560062 22.7,28.0561622 22.5,28.0062402 Z M28.05,21.4664587 L22.5,21.4664587 L22.5,11.9313573 C23.35,11.7316693 24,10.9329173 24,9.98439938 C24,9.6349454 23.9,9.28549142 23.7,8.98595944 L29,3.69422777 C29.15,3.79407176 29.35,3.84399376 29.5,3.89391576 L29.5,20.0187207 C28.8,20.2184087 28.25,20.7675507 28.05,21.4664587 Z M11.95,21.4664587 C11.75,20.7675507 11.2,20.2184087 10.5,20.0187207 L10.5,10.4836193 L20.05,10.4836193 C20.25,11.1825273 20.8,11.7316693 21.5,11.9313573 L21.5,21.4664587 L11.95,21.4664587 Z M3,28.2558502 C2.85,28.1560062 2.65,28.1060842 2.5,28.0561622 L2.5,11.9313573 C3.2,11.7316693 3.75,11.1825273 3.95,10.4836193 L9.5,10.4836193 L9.5,20.0187207 C8.65,20.2184087 8,21.0171607 8,21.9656786 C8,22.3151326 8.1,22.6645866 8.3,22.9641186 L3,28.2558502 Z M9.5,3.94383775 L9.5,9.48517941 L3.95,9.48517941 C3.9,9.28549142 3.85,9.13572543 3.75,8.98595944 L9,3.69422777 C9.15,3.79407176 9.3,3.89391576 9.5,3.94383775 Z M9,21.9656786 C9,21.4165367 9.45,20.9672387 10,20.9672387 C10.55,20.9672387 11,21.4165367 11,21.9656786 C11,22.5148206 10.55,22.9641186 10,22.9641186 C9.45,22.9641186 9,22.5148206 9,21.9656786 Z M23,9.98439938 C23,10.5335413 22.55,10.9828393 22,10.9828393 C21.45,10.9828393 21,10.5335413 21,9.98439938 C21,9.43525741 21.45,8.98595944 22,8.98595944 C22.55,8.98595944 23,9.43525741 23,9.98439938 Z M30,0.998439938 C30.55,0.998439938 31,1.44773791 31,1.99687988 C31,2.54602184 30.55,2.99531981 30,2.99531981 C29.45,2.99531981 29,2.54602184 29,1.99687988 C29,1.44773791 29.45,0.998439938 30,0.998439938 Z M11.95,2.49609984 L28.1,2.49609984 C28.15,2.69578783 28.2,2.84555382 28.3,2.99531981 L23,8.28705148 C22.7,8.08736349 22.35,7.9875195 22,7.9875195 C21.05,7.9875195 20.3,8.63650546 20.05,9.48517941 L10.5,9.48517941 L10.5,3.94383775 C11.2,3.74414977 11.75,3.1950078 11.95,2.49609984 Z M10,0.998439938 C10.55,0.998439938 11,1.44773791 11,1.99687988 C11,2.54602184 10.55,2.99531981 10,2.99531981 C9.45,2.99531981 9,2.54602184 9,1.99687988 C9,1.44773791 9.45,0.998439938 10,0.998439938 Z M1,9.98439938 C1,9.43525741 1.45,8.98595944 2,8.98595944 C2.55,8.98595944 3,9.43525741 3,9.98439938 C3,10.5335413 2.55,10.9828393 2,10.9828393 C1.45,10.9828393 1,10.5335413 1,9.98439938 Z M2,30.9516381 C1.45,30.9516381 1,30.5023401 1,29.9531981 C1,29.4040562 1.45,28.9547582 2,28.9547582 C2.55,28.9547582 3,29.4040562 3,29.9531981 C3,30.5023401 2.55,30.9516381 2,30.9516381 Z M20.05,29.4539782 L3.95,29.4539782 C3.9,29.2542902 3.85,29.1045242 3.75,28.9547582 L9,23.6630265 C9.3,23.8627145 9.65,23.9625585 10,23.9625585 C10.95,23.9625585 11.7,23.3135725 11.95,22.4648986 L21.5,22.4648986 L21.5,28.0062402 C20.8,28.2059282 20.25,28.7550702 20.05,29.4539782 Z M22,30.9516381 C21.45,30.9516381 21,30.5023401 21,29.9531981 C21,29.4040562 21.45,28.9547582 22,28.9547582 C22.55,28.9547582 23,29.4040562 23,29.9531981 C23,30.5023401 22.55,30.9516381 22,30.9516381 Z M30,22.9641186 C29.45,22.9641186 29,22.5148206 29,21.9656786 C29,21.4165367 29.45,20.9672387 30,20.9672387 C30.55,20.9672387 31,21.4165367 31,21.9656786 C31,22.5148206 30.55,22.9641186 30,22.9641186 Z" id="Shape"></path>
                                    <rect id="Rectangle-path" x="16" y="13" width="1" height="1"></rect>
                                    <rect id="Rectangle-path" x="16" y="12" width="1" height="1"></rect>
                                    <rect id="Rectangle-path" x="16" y="19" width="1" height="1"></rect>
                                    <rect id="Rectangle-path" x="16" y="18" width="1" height="1"></rect>
                                    <rect id="Rectangle-path" x="16" y="26" width="1" height="1"></rect>
                                    <rect id="Rectangle-path" x="16" y="23" width="1" height="1"></rect>
                                    <rect id="Rectangle-path" x="16" y="28" width="1" height="1"></rect>
                                    <rect id="Rectangle-path" x="16" y="5" width="1" height="1"></rect>
                                    <rect id="Rectangle-path" x="16" y="4" width="1" height="1"></rect>
                                    <rect id="Rectangle-path" x="16" y="7" width="1" height="1"></rect>
                                    <rect id="Rectangle-path" x="17" y="16" width="1" height="1"></rect>
                                    <rect id="Rectangle-path" x="19" y="16" width="1" height="1"></rect>
                                    <rect id="Rectangle-path" x="12" y="16" width="1" height="1"></rect>
                                    <rect id="Rectangle-path" x="13" y="16" width="1" height="1"></rect>
                                    <rect id="Rectangle-path" x="7" y="16" width="1" height="1"></rect>
                                    <rect id="Rectangle-path" x="5" y="16" width="1" height="1"></rect>
                                    <rect id="Rectangle-path" x="3" y="16" width="1" height="1"></rect>
                                    <rect id="Rectangle-path" x="28" y="16" width="1" height="1"></rect>
                                    <rect id="Rectangle-path" x="26" y="16" width="1" height="1"></rect>
                                    <rect id="Rectangle-path" x="23" y="16" width="1" height="1"></rect>
                                </g>
                            </g>
                        </g>
                    </g>
                </g>
            </g>
        </g>
    </g>
</svg>