<?xml version="1.0" encoding="UTF-8"?>
<svg width="128px" height="114px" viewBox="0 0 128 114" version="1.1" xmlns="http://www.w3.org/2000/svg" xmlns:xlink="http://www.w3.org/1999/xlink">
    <!-- Generator: Sketch 48.2 (47327) - http://www.bohemiancoding.com/sketch -->
    <title>refine</title>
    <desc>Created with Sketch.</desc>
    <defs></defs>
    <g id="Page-1" stroke="none" stroke-width="1" fill="none" fill-rule="evenodd">
        <g id="refine" fill="#44C7F4" fill-rule="nonzero">
            <g id="Group">
                <path d="M13.8,79.4 C12.1,79.2 10.5,79.7 9.2,80.8 C7.9,81.9 7.1,83.4 6.9,85.1 C6.7,86.8 7.2,88.4 8.3,89.7 C9.4,91 10.9,91.8 12.6,92 C12.8,92 13,92 13.2,92 C14.7,92 16.1,91.5 17.2,90.6 C18.5,89.5 19.3,88 19.5,86.3 C19.8,82.8 17.3,79.7 13.8,79.4 Z M16.3,89.4 C15.3,90.2 14.1,90.6 12.8,90.5 C11.5,90.4 10.4,89.8 9.5,88.8 C8.7,87.8 8.3,86.6 8.4,85.3 C8.5,84 9.1,82.9 10.1,82 C11,81.3 12,80.9 13.2,80.9 C13.4,80.9 13.5,80.9 13.7,80.9 C16.3,81.2 18.3,83.5 18,86.1 C17.9,87.4 17.3,88.6 16.3,89.4 Z" id="Shape"></path>
                <path d="M24.9,81 L22.8,81.7 C22,79.6 20.5,77.9 18.5,76.7 L19.5,74.7 C19.7,74.3 19.5,73.9 19.2,73.7 C18.8,73.5 18.4,73.7 18.2,74 L17.2,76 C16.3,75.6 15.3,75.3 14.2,75.2 C13,75.1 11.8,75.2 10.7,75.5 L10,73.5 C9.9,73.1 9.4,72.9 9,73 C8.6,73.1 8.4,73.6 8.5,74 L9.2,76.1 C7.1,76.9 5.4,78.4 4.3,80.4 L2.3,79.4 C1.9,79.2 1.5,79.4 1.3,79.7 C1.1,80.1 1.3,80.5 1.6,80.7 L3.6,81.7 C3.2,82.6 2.9,83.7 2.8,84.7 C2.7,85.9 2.8,87.1 3.1,88.2 L1,88.9 C0.6,89 0.4,89.5 0.5,89.9 C0.6,90.2 0.9,90.4 1.2,90.4 C1.3,90.4 1.4,90.4 1.4,90.4 L3.5,89.7 C4.3,91.8 5.8,93.5 7.8,94.6 L6.8,96.6 C6.6,97 6.8,97.4 7.1,97.6 C7.2,97.7 7.3,97.7 7.4,97.7 C7.7,97.7 7.9,97.5 8.1,97.3 L9.1,95.3 C10,95.7 11.1,96 12.1,96.1 C12.4,96.1 12.8,96.1 13.1,96.1 C13.9,96.1 14.8,96 15.6,95.8 L16.3,97.9 C16.4,98.2 16.7,98.4 17,98.4 C17.1,98.4 17.2,98.4 17.2,98.4 C17.6,98.3 17.8,97.8 17.7,97.5 L17,95.4 C18,95 18.9,94.5 19.7,93.8 C20.6,93 21.4,92.1 22,91.1 L24,92.1 C24.1,92.2 24.2,92.2 24.3,92.2 C24.6,92.2 24.8,92 25,91.8 C25.2,91.4 25,91 24.7,90.8 L22.7,89.8 C23.1,88.8 23.4,87.8 23.5,86.8 C23.6,85.6 23.5,84.4 23.2,83.3 L25.3,82.6 C25.7,82.5 25.9,82 25.8,81.7 C25.7,81.1 25.3,80.9 24.9,81 Z M22,86.5 C21.8,88.9 20.6,91 18.8,92.5 C17,94 14.7,94.7 12.3,94.5 C7.4,94 3.8,89.7 4.3,84.8 C4.7,80.2 8.6,76.8 13.1,76.8 C13.4,76.8 13.7,76.8 13.9,76.8 C18.9,77.3 22.5,81.6 22,86.5 Z" id="Shape"></path>
                <path d="M72.5,92.9 C72.6,93 72.8,93.1 73,93.1 C73.2,93.1 73.4,93 73.5,92.9 C73.8,92.6 73.8,92.1 73.5,91.8 L72.3,90.6 C72,90.3 71.5,90.3 71.2,90.6 C70.9,90.9 70.9,91.4 71.2,91.7 L72.5,92.9 Z" id="Shape"></path>
                <path d="M75.3,95.6 L76.5,96.8 C76.6,96.9 76.8,97 77,97 C77.2,97 77.4,96.9 77.5,96.8 C77.8,96.5 77.8,96 77.5,95.7 L76.3,94.5 C76,94.2 75.5,94.2 75.2,94.5 C75,94.9 75,95.4 75.3,95.6 Z" id="Shape"></path>
                <path d="M71.3,96.9 C71.4,97 71.6,97.1 71.8,97.1 C72,97.1 72.2,97 72.3,96.9 L73.5,95.7 C73.8,95.4 73.8,94.9 73.5,94.6 C73.2,94.3 72.7,94.3 72.4,94.6 L71.2,95.8 C71,96.1 71,96.6 71.3,96.9 Z" id="Shape"></path>
                <path d="M75.8,93.1 C76,93.1 76.2,93 76.3,92.9 L77.5,91.7 C77.8,91.4 77.8,90.9 77.5,90.6 C77.2,90.3 76.7,90.3 76.4,90.6 L75.2,91.8 C74.9,92.1 74.9,92.6 75.2,92.9 C75.5,93 75.7,93.1 75.8,93.1 Z" id="Shape"></path>
                <path d="M34.7,13 C34.8,13.1 35,13.2 35.2,13.2 C35.4,13.2 35.6,13.1 35.7,13 C36,12.7 36,12.2 35.7,11.9 L34.5,10.7 C34.2,10.4 33.7,10.4 33.4,10.7 C33.1,11 33.1,11.5 33.4,11.8 L34.7,13 Z" id="Shape"></path>
                <path d="M38.7,17 C38.8,17.1 39,17.2 39.2,17.2 C39.4,17.2 39.6,17.1 39.7,17 C40,16.7 40,16.2 39.7,15.9 L38.5,14.7 C38.2,14.4 37.7,14.4 37.4,14.7 C37.1,15 37.1,15.5 37.4,15.8 L38.7,17 Z" id="Shape"></path>
                <path d="M34,17.3 C34.2,17.3 34.4,17.2 34.5,17.1 L35.7,15.9 C36,15.6 36,15.1 35.7,14.8 C35.4,14.5 34.9,14.5 34.6,14.8 L33.5,16 C33.2,16.3 33.2,16.8 33.5,17.1 C33.6,17.2 33.8,17.3 34,17.3 Z" id="Shape"></path>
                <path d="M38,13.2 C38.2,13.2 38.4,13.1 38.5,13 L39.7,11.8 C40,11.5 40,11 39.7,10.7 C39.4,10.4 38.9,10.4 38.6,10.7 L37.4,11.9 C37.1,12.2 37.1,12.7 37.4,13 C37.6,13.2 37.8,13.2 38,13.2 Z" id="Shape"></path>
                <path d="M109.6,51.8 C107.9,51.8 106.5,53.2 106.5,54.9 C106.5,56.6 107.9,58 109.6,58 C111.3,58 112.7,56.6 112.7,54.9 C112.7,53.2 111.3,51.8 109.6,51.8 Z M109.6,56.5 C108.7,56.5 108,55.8 108,54.9 C108,54 108.7,53.3 109.6,53.3 C110.5,53.3 111.2,54 111.2,54.9 C111.2,55.8 110.5,56.5 109.6,56.5 Z" id="Shape"></path>
                <path d="M72,22.1 C73.3,22.1 74.4,21 74.4,19.7 C74.4,18.4 73.3,17.3 72,17.3 C70.7,17.3 69.6,18.4 69.6,19.7 C69.5,21 70.6,22.1 72,22.1 Z M72,18.7 C72.5,18.7 72.9,19.1 72.9,19.6 C72.9,20.1 72.5,20.5 72,20.5 C71.5,20.5 71.1,20.1 71.1,19.6 C71.1,19.1 71.5,18.7 72,18.7 Z" id="Shape"></path>
                <path d="M10,63.9 C10.4,63.9 10.8,63.6 10.8,63.1 L10.8,57.3 C10.8,56.9 10.5,56.5 10,56.5 C9.6,56.5 9.2,56.8 9.2,57.3 L9.2,63.1 C9.2,63.6 9.6,63.9 10,63.9 Z" id="Shape"></path>
                <path d="M10,69.1 C10.4,69.1 10.8,68.8 10.8,68.3 L10.8,66.4 C10.8,66 10.5,65.6 10,65.6 C9.6,65.6 9.2,65.9 9.2,66.4 L9.2,68.3 C9.2,68.7 9.6,69.1 10,69.1 Z" id="Shape"></path>
                <path d="M15.2,21.8 L23.7,21.8 C24.1,21.8 24.5,21.5 24.5,21 C24.5,20.6 24.2,20.2 23.7,20.2 L15.2,20.2 C14.8,20.2 14.4,20.5 14.4,21 C14.4,21.4 14.8,21.8 15.2,21.8 Z" id="Shape"></path>
                <path d="M27.4,21.8 L30.2,21.8 C30.6,21.8 31,21.5 31,21 C31,20.6 30.7,20.2 30.2,20.2 L27.4,20.2 C27,20.2 26.6,20.5 26.6,21 C26.6,21.4 27,21.8 27.4,21.8 Z" id="Shape"></path>
                <path d="M30.1,23.2 L23.2,23.2 C22.8,23.2 22.4,23.5 22.4,24 C22.4,24.4 22.7,24.8 23.2,24.8 L30.1,24.8 C30.5,24.8 30.9,24.5 30.9,24 C30.9,23.5 30.5,23.2 30.1,23.2 Z" id="Shape"></path>
                <path d="M18,23.2 C17.6,23.2 17.2,23.5 17.2,24 C17.2,24.4 17.5,24.8 18,24.8 L20,24.8 C20.4,24.8 20.8,24.5 20.8,24 C20.8,23.6 20.5,23.2 20,23.2 L18,23.2 Z" id="Shape"></path>
                <path d="M110.3,74.1 C110.5,74.1 110.7,74 110.8,73.9 C110.9,73.8 111,73.7 111.1,73.6 C111.3,73.4 111.4,73.2 111.6,73.1 C111.9,72.8 111.8,72.3 111.5,72 C111.2,71.7 110.7,71.8 110.4,72.1 C110.3,72.2 110.1,72.4 110,72.5 C109.9,72.6 109.9,72.6 109.8,72.7 C109.5,73 109.5,73.5 109.7,73.8 C109.9,74 110.1,74.1 110.3,74.1 Z" id="Shape"></path>
                <path d="M93,61.4 L92,61.4 C91.6,61.4 91.2,61.7 91.2,62.2 C91.2,62.6 91.5,63 92,63 L93,63 C93.4,63 93.8,62.7 93.8,62.2 C93.7,61.8 93.4,61.4 93,61.4 Z" id="Shape"></path>
                <path d="M93.7,74.9 C93.7,75.3 94,75.7 94.5,75.7 L95.5,75.7 C95.9,75.7 96.3,75.4 96.3,74.9 C96.3,74.5 96,74.1 95.5,74.1 L94.5,74.1 C94.1,74.2 93.7,74.5 93.7,74.9 Z" id="Shape"></path>
                <path d="M97.8,74.9 C97.8,75.3 98.1,75.7 98.6,75.7 L99.6,75.7 C100,75.7 100.4,75.4 100.4,74.9 C100.4,74.5 100.1,74.1 99.6,74.1 L98.6,74.1 C98.1,74.2 97.8,74.5 97.8,74.9 Z" id="Shape"></path>
                <path d="M97,61.4 L96,61.4 C95.6,61.4 95.2,61.7 95.2,62.2 C95.2,62.6 95.5,63 96,63 L97,63 C97.4,63 97.8,62.7 97.8,62.2 C97.8,61.8 97.5,61.4 97,61.4 Z" id="Shape"></path>
                <path d="M89.7,74.9 C89.7,75.3 90,75.7 90.5,75.7 L91.5,75.7 C91.9,75.7 92.3,75.4 92.3,74.9 C92.3,74.5 92,74.1 91.5,74.1 L90.5,74.1 C90,74.2 89.7,74.5 89.7,74.9 Z" id="Shape"></path>
                <path d="M88.9,61.4 L87.9,61.4 C87.5,61.4 87.1,61.7 87.1,62.2 C87.1,62.6 87.4,63 87.9,63 L88.9,63 C89.3,63 89.7,62.7 89.7,62.2 C89.7,61.8 89.3,61.4 88.9,61.4 Z" id="Shape"></path>
                <path d="M112.1,70.6 C112.2,70.6 112.2,70.6 112.3,70.6 C112.6,70.6 113,70.4 113,70 C113.1,69.6 113.1,69.3 113.1,68.9 C113.1,68.5 112.8,68.1 112.4,68.1 C112,68.1 111.6,68.4 111.6,68.8 C111.6,69.1 111.5,69.4 111.5,69.7 C111.5,70.1 111.7,70.5 112.1,70.6 Z" id="Shape"></path>
                <path d="M101.1,61.4 L100.1,61.4 C99.7,61.4 99.3,61.7 99.3,62.2 C99.3,62.6 99.6,63 100.1,63 L101.1,63 C101.5,63 101.9,62.7 101.9,62.2 C101.9,61.8 101.5,61.4 101.1,61.4 Z" id="Shape"></path>
                <path d="M109.4,62.4 C109.1,62.2 108.7,62.1 108.4,61.9 C108,61.8 107.6,62 107.4,62.3 C107.3,62.7 107.5,63.1 107.8,63.3 C108.1,63.4 108.4,63.5 108.6,63.7 C108.7,63.8 108.8,63.8 109,63.8 C109.3,63.8 109.5,63.7 109.7,63.4 C109.9,63 109.8,62.6 109.4,62.4 Z" id="Shape"></path>
                <path d="M111.8,66.7 C111.9,66.7 112,66.7 112.1,66.6 C112.5,66.4 112.6,66 112.5,65.6 C112.3,65.3 112.1,64.9 111.9,64.6 C111.7,64.3 111.2,64.2 110.9,64.4 C110.6,64.6 110.5,65.1 110.7,65.4 C110.9,65.6 111,65.9 111.1,66.2 C111.3,66.5 111.6,66.7 111.8,66.7 Z" id="Shape"></path>
                <path d="M105.9,75 C105.9,75.4 106.3,75.7 106.6,75.7 C106.6,75.7 106.6,75.7 106.7,75.7 C107.1,75.7 107.5,75.6 107.8,75.5 C108.2,75.4 108.4,75 108.3,74.6 C108.2,74.2 107.8,74 107.4,74.1 C107.1,74.2 106.8,74.2 106.5,74.3 C106.2,74.2 105.9,74.6 105.9,75 Z" id="Shape"></path>
                <path d="M101.8,74.9 C101.8,75.3 102.1,75.7 102.6,75.7 L103.6,75.7 C104,75.7 104.4,75.4 104.4,74.9 C104.4,74.5 104.1,74.1 103.6,74.1 L102.6,74.1 C102.2,74.2 101.8,74.5 101.8,74.9 Z" id="Shape"></path>
                <path d="M105.2,61.4 L104.2,61.4 C103.8,61.4 103.4,61.7 103.4,62.2 C103.4,62.6 103.7,63 104.2,63 L105.2,63 C105.6,63 106,62.7 106,62.2 C105.9,61.8 105.6,61.4 105.2,61.4 Z" id="Shape"></path>
                <path d="M86.1,74.9 C86.1,75.2 86.3,75.5 86.6,75.6 C86.7,75.7 86.8,75.7 87,75.7 C87,75.7 87,75.7 87.1,75.7 C87.2,75.7 87.4,75.7 87.5,75.7 C87.9,75.7 88.2,75.4 88.3,75 C88.3,74.6 88,74.3 87.7,74.2 C87.6,74.2 87.5,74.1 87.4,74.1 L86.9,74.1 C86.4,74.2 86.1,74.5 86.1,74.9 Z" id="Shape"></path>
                <path d="M91.7,88.9 C91.3,88.9 90.9,89.2 90.9,89.7 C90.9,90.1 91.2,90.5 91.7,90.5 L92.7,90.5 C93.1,90.5 93.5,90.2 93.5,89.7 C93.5,89.3 93.2,88.9 92.7,88.9 L91.7,88.9 Z" id="Shape"></path>
                <path d="M88.7,88.9 L87.7,88.9 C87.3,88.9 86.9,89.2 86.9,89.7 C86.9,90.1 87.2,90.5 87.7,90.5 L88.7,90.5 C89.1,90.5 89.5,90.2 89.5,89.7 C89.5,89.3 89.2,88.9 88.7,88.9 Z" id="Shape"></path>
                <path d="M83.3,88.8 C83.1,89.2 83.3,89.6 83.6,89.8 C83.9,90 84.3,90.1 84.6,90.2 C84.7,90.2 84.7,90.2 84.8,90.2 C85.1,90.2 85.4,90 85.5,89.6 C85.6,89.2 85.4,88.8 85,88.7 C84.7,88.6 84.5,88.5 84.2,88.4 C83.9,88.3 83.5,88.5 83.3,88.8 Z" id="Shape"></path>
                <path d="M80.4,82.5 L80.4,83.5 C80.4,83.9 80.7,84.3 81.2,84.3 C81.6,84.3 82,84 82,83.5 L82,82.5 C82,82.1 81.7,81.7 81.2,81.7 C80.7,81.8 80.4,82.1 80.4,82.5 Z" id="Shape"></path>
                <path d="M83.8,75.2 C83.5,75.4 83.2,75.6 82.9,75.8 C82.6,76.1 82.5,76.5 82.8,76.9 C82.9,77.1 83.2,77.2 83.4,77.2 C83.6,77.2 83.7,77.1 83.9,77 C84.1,76.8 84.4,76.7 84.6,76.5 C85,76.3 85.1,75.8 84.9,75.5 C84.7,75.1 84.2,75 83.8,75.2 Z" id="Shape"></path>
                <path d="M82,78 C81.6,77.8 81.2,78 81,78.4 C80.9,78.7 80.7,79.1 80.6,79.4 C80.5,79.8 80.7,80.2 81.1,80.3 C81.2,80.3 81.2,80.3 81.3,80.3 C81.6,80.3 81.9,80.1 82,79.7 C82.1,79.4 82.2,79.2 82.3,78.9 C82.5,78.6 82.4,78.2 82,78 Z" id="Shape"></path>
                <path d="M81.2,85.7 C80.8,85.8 80.6,86.3 80.8,86.7 C80.9,87 81.1,87.4 81.3,87.7 C81.4,87.9 81.7,88.1 81.9,88.1 C82,88.1 82.2,88.1 82.3,88 C82.7,87.8 82.8,87.3 82.6,87 C82.5,86.8 82.3,86.5 82.2,86.3 C82,85.7 81.6,85.5 81.2,85.7 Z" id="Shape"></path>
                <path d="M96.4,89 C96.3,88.9 96.2,88.9 96.1,88.9 L95.6,88.9 C95.2,88.9 94.8,89.2 94.8,89.7 C94.8,90.1 95.1,90.5 95.6,90.5 L95.8,90.5 C96,90.6 96.3,90.6 96.6,90.6 C96.6,90.6 96.7,90.6 96.7,90.6 C97.1,90.6 97.4,90.3 97.4,89.9 C97.4,89.5 97.1,89.1 96.7,89.1 C96.6,89 96.5,89 96.4,89 Z" id="Shape"></path>
                <path d="M100.2,90.8 C100,90.6 99.7,90.3 99.4,90.1 C99.1,89.9 98.6,89.9 98.3,90.3 C98.1,90.6 98.1,91.1 98.5,91.4 C98.7,91.5 98.9,91.7 99.1,91.9 C99.2,92.1 99.4,92.1 99.6,92.1 C99.8,92.1 100,92 100.1,91.9 C100.5,91.5 100.5,91.1 100.2,90.8 Z" id="Shape"></path>
                <path d="M100.3,94.5 C100.3,94.9 100.7,95.2 101.1,95.2 C101.1,95.2 101.1,95.2 101.1,95.2 C101.5,95.2 101.8,94.8 101.8,94.4 C101.8,94.1 101.7,93.7 101.6,93.4 C101.5,93 101.1,92.7 100.7,92.8 C100.3,92.9 100,93.3 100.1,93.7 C100.2,94 100.3,94.2 100.3,94.5 Z" id="Shape"></path>
                <path d="M101,98.3 C101.4,98.3 101.8,98 101.8,97.5 L101.8,97 C101.8,96.6 101.5,96.2 101,96.2 C100.6,96.2 100.2,96.5 100.2,97 L100.2,97.5 C100.3,97.9 100.6,98.3 101,98.3 Z" id="Shape"></path>
                <path d="M116.1,35.8 L118.9,35.8 L118.5,34.8 C118.3,34.1 117.9,33.5 117.4,33.1 C116.3,31.9 114.8,31.5 113.3,31.6 L105,23.3 L113.7,14.6 L113.8,14.7 L115.8,14.5 L118.1,11 L116.3,9.1 L112.8,11.3 L112.6,13.3 L112.7,13.4 L104,22.1 L93.1,11.3 C91.8,10 89.7,10 88.5,11.3 C87.2,12.6 87.2,14.7 88.5,15.9 L99.4,26.8 L98.9,27.3 L97.8,26.2 C96.9,25.3 95.4,25.3 94.5,26.2 C93.9,26.8 93.7,27.7 93.9,28.4 L86.5,35.7 C85.9,36.3 85.6,37.1 85.6,37.9 C85.6,38.7 85.9,39.5 86.5,40.1 L87,40.6 C87.6,41.2 88.4,41.5 89.2,41.5 C89.6,41.5 89.9,41.4 90.3,41.3 C90.7,41.2 91.1,40.9 91.4,40.6 L98.8,33.3 C99,33.3 99.1,33.4 99.3,33.4 C99.9,33.4 100.5,33.1 101,32.7 C101.9,31.8 101.9,30.3 101,29.4 L100,28.4 L100.5,27.9 L109,36.4 C109,37.6 109.4,38.8 110.4,39.8 C111.3,40.8 112.5,41.3 113.8,41.3 C113.8,41.3 113.9,41.3 113.9,41.3 C115.2,41.3 116.4,40.8 117.3,39.9 C117.9,39.3 118.3,38.7 118.6,37.9 L118.9,36.9 L116.2,36.9 C115.9,36.9 115.6,36.6 115.6,36.3 C115.5,36.1 115.7,35.8 116.1,35.8 Z M114.2,12.2 L116.1,11 L116.2,11.1 L115,13 L114.4,13.1 L114.1,12.8 L114.2,12.2 Z M90.2,39.6 C90,39.8 89.8,39.9 89.6,40 C89,40.2 88.3,40.1 87.9,39.6 L87.4,39.1 C87.2,38.8 87,38.4 87,38 C87,37.6 87.2,37.2 87.5,36.8 L94.6,29.8 L97.4,32.6 L90.2,39.6 Z M99.8,31.7 C99.5,32 98.9,32 98.6,31.7 L96,29 L95.4,28.4 C95.1,28.1 95.2,27.6 95.5,27.3 C95.7,27.1 95.9,27.1 96.1,27.1 C96.3,27.1 96.5,27.1 96.7,27.3 L99.9,30.5 C100.1,30.8 100.1,31.3 99.8,31.7 Z M110.2,33.1 C110.1,33.3 110,33.4 109.8,33.6 L109,34.4 L89.6,14.9 C88.9,14.2 88.9,13.1 89.6,12.4 C89.9,12.1 90.4,11.9 90.9,11.9 C91.4,11.9 91.8,12.1 92.2,12.4 L111.7,31.9 L111.2,32.4 C111.1,32.5 110.9,32.6 110.8,32.7 L110.2,33.1 Z M116.1,38.5 C116.1,38.5 116.1,38.5 116.1,38.5 L116.5,38.5 C116.4,38.6 116.3,38.7 116.2,38.9 C115.5,39.5 114.7,39.9 113.8,39.8 C112.9,39.8 112,39.4 111.4,38.7 C110.3,37.5 110.2,35.8 111,34.6 L112.1,33.5 C113.4,32.6 115.2,32.8 116.4,34 C116.5,34.1 116.5,34.1 116.6,34.2 L116.2,34.2 C115,34.2 114.1,35.2 114.1,36.3 C114,37.6 114.9,38.5 116.1,38.5 Z" id="Shape"></path>
                <path d="M90.9,12.5 C90.3,12.5 89.8,13 89.8,13.6 C89.8,14.2 90.3,14.7 90.9,14.7 C91.5,14.7 92,14.2 92,13.6 C91.9,13 91.5,12.5 90.9,12.5 Z M90.9,14 C90.7,14 90.5,13.8 90.5,13.6 C90.5,13.4 90.7,13.2 90.9,13.2 C91.1,13.2 91.3,13.4 91.3,13.6 C91.3,13.8 91.1,14 90.9,14 Z" id="Shape"></path>
                <path d="M102.3,0.8 C88.4,0.8 77.1,12.1 77.1,26 C77.1,27.1 77.2,28.1 77.3,29.1 C60.7,26.4 52.5,17.9 52.5,17.8 L51.9,17.2 L51.3,17.8 C51.2,17.9 39.2,30.5 14.3,30 L13.6,30 L13.6,30.7 C13.6,31.2 12,76.8 51.6,97.2 L51.9,97.4 L52.2,97.2 C69.1,88.5 78.6,75.4 83.8,62.8 C83.9,62.9 84.1,63 84.3,63 L84.8,63 C85.2,63 85.6,62.7 85.6,62.2 C85.6,61.8 85.3,61.4 84.8,61.4 L84.4,61.4 C86.4,56.4 87.7,51.6 88.6,47.1 C92.5,49.7 97.2,51.1 102.3,51.1 C116.2,51.1 127.5,39.8 127.5,25.9 C127.5,12.1 116.2,0.8 102.3,0.8 Z M51.9,95.7 C16.2,77.1 15,37.4 15.1,31.5 C37.5,31.7 49.3,21.9 52,19.4 C54.1,21.4 62.4,28.4 77.6,30.7 C78.4,37 82,42.8 87.4,46.2 C84.2,62.1 75.6,83.3 51.9,95.7 Z M102.3,49.7 C97.3,49.7 92.8,48.2 88.9,45.6 L88.9,45.5 L88.5,45.2 C88.4,45.1 88.3,45.1 88.2,45 C83.3,41.4 79.9,36 78.9,29.8 L78.9,29.4 C78.7,28.3 78.7,27.2 78.7,26 C78.7,12.9 89.3,2.3 102.4,2.3 C115.5,2.3 126,12.9 126,26 C126,39.1 115.4,49.7 102.3,49.7 Z" id="Shape"></path>
                <path d="M113.8,101.4 L94.7,101.4 L94.7,100.2 C94.7,99.8 94.4,99.4 93.9,99.4 C93.4,99.4 93.1,99.7 93.1,100.2 L93.1,105.6 L74.8,105.6 L73,103.7 C72.8,103.5 72.6,103.4 72.4,103.5 L66.2,104.3 C65.8,104.3 65.5,104.7 65.5,105 L65.5,107.8 C65.5,108.2 65.8,108.5 66.2,108.5 L72.4,109.3 C72.4,109.3 72.5,109.3 72.5,109.3 C72.7,109.3 72.9,109.2 73,109.1 L74.8,107.2 L93.1,107.2 L93.1,112.6 C93.1,113 93.4,113.4 93.9,113.4 C94.4,113.4 94.7,113.1 94.7,112.6 L94.7,111.4 L113.8,111.4 C115.6,111.4 117.1,109.9 117.1,108.1 L117.1,104.9 C117.1,104 116.8,103.2 116.1,102.6 C115.5,101.7 114.7,101.4 113.8,101.4 Z M72.2,107.6 L67.1,107 L67.1,105.6 L72.2,105 L73.5,106.4 L72.2,107.6 Z M115.6,107.9 C115.6,108.9 114.8,109.7 113.8,109.7 L94.7,109.7 L94.7,102.9 L113.8,102.9 C114.3,102.9 114.7,103.1 115.1,103.4 C115.4,103.7 115.6,104.2 115.6,104.7 L115.6,107.9 Z" id="Shape"></path>
                <path d="M112.9,105.5 L97.3,105.5 C96.9,105.5 96.5,105.8 96.5,106.3 C96.5,106.7 96.8,107.1 97.3,107.1 L113,107.1 C113.4,107.1 113.8,106.8 113.8,106.3 C113.7,105.9 113.4,105.5 112.9,105.5 Z" id="Shape"></path>
            </g>
            <g id="noun_749542_cc" transform="translate(33.000000, 33.000000)" stroke="#44C7F4" stroke-width="0.5">
                <g id="Group">
                    <path d="M1.24591837,27.3375 C1.09489796,27.3375 0.943877551,27.45 0.943877551,27.6375 L0.943877551,31.65 C0.943877551,31.8 1.05714286,31.95 1.24591837,31.95 C1.39693878,31.95 1.54795918,31.8375 1.54795918,31.65 L1.54795918,27.6375 C1.54795918,27.45 1.39693878,27.3375 1.24591837,27.3375 Z" id="Shape"></path>
                    <path d="M1.24591837,32.6625 C1.09489796,32.6625 0.943877551,32.775 0.943877551,32.9625 L0.943877551,34.2375 C0.943877551,34.3875 1.05714286,34.5375 1.24591837,34.5375 C1.39693878,34.5375 1.54795918,34.425 1.54795918,34.2375 L1.54795918,32.9625 C1.54795918,32.775 1.39693878,32.6625 1.24591837,32.6625 Z" id="Shape"></path>
                    <path d="M35.6785714,5.6625 C35.527551,5.6625 35.3765306,5.775 35.3765306,5.9625 L35.3765306,9.975 C35.3765306,10.125 35.4897959,10.275 35.6785714,10.275 C35.8295918,10.275 35.9806122,10.1625 35.9806122,9.975 L35.9806122,5.925 C35.9428571,5.775 35.8295918,5.6625 35.6785714,5.6625 Z" id="Shape"></path>
                    <path d="M35.6785714,10.95 C35.527551,10.95 35.3765306,11.0625 35.3765306,11.25 L35.3765306,12.525 C35.3765306,12.675 35.4897959,12.825 35.6785714,12.825 C35.8295918,12.825 35.9806122,12.7125 35.9806122,12.525 L35.9806122,11.25 C35.9428571,11.1 35.8295918,10.95 35.6785714,10.95 Z" id="Shape"></path>
                    <path d="M26.6928571,32.7375 C26.5795918,32.625 26.3908163,32.625 26.277551,32.7375 C26.1642857,32.85 26.1642857,33.0375 26.277551,33.15 L26.8438776,33.7125 C26.8816327,33.75 26.9571429,33.7875 27.0326531,33.7875 C27.1081633,33.7875 27.1836735,33.75 27.2214286,33.7125 C27.3346939,33.6 27.3346939,33.4125 27.2214286,33.3 L26.6928571,32.7375 Z" id="Shape"></path>
                    <path d="M28.4673469,34.5 C28.3540816,34.3875 28.1653061,34.3875 28.0520408,34.5 C27.9387755,34.6125 27.9387755,34.8 28.0520408,34.9125 L28.6183673,35.475 C28.6561224,35.5125 28.7316327,35.55 28.8071429,35.55 C28.8826531,35.55 28.9581633,35.5125 28.9959184,35.475 C29.1091837,35.3625 29.1091837,35.175 28.9959184,35.0625 L28.4673469,34.5 Z" id="Shape"></path>
                    <path d="M26.8438776,34.5 L26.277551,35.0625 C26.1642857,35.175 26.1642857,35.3625 26.277551,35.475 C26.3153061,35.5125 26.3908163,35.55 26.4663265,35.55 C26.5418367,35.55 26.6173469,35.5125 26.655102,35.475 L27.2214286,34.9125 C27.3346939,34.8 27.3346939,34.6125 27.2214286,34.5 C27.1459184,34.3875 26.9571429,34.3875 26.8438776,34.5 Z" id="Shape"></path>
                    <path d="M29.0336735,32.7375 C28.9204082,32.625 28.7316327,32.625 28.6183673,32.7375 L28.0520408,33.3 C27.9387755,33.4125 27.9387755,33.6 28.0520408,33.7125 C28.0897959,33.75 28.1653061,33.7875 28.2408163,33.7875 C28.3163265,33.7875 28.3918367,33.75 28.4295918,33.7125 L28.9959184,33.15 C29.1469388,33 29.1469388,32.85 29.0336735,32.7375 Z" id="Shape"></path>
                    <path d="M3.13367347,39.1125 C3.02040816,39 2.83163265,39 2.71836735,39.1125 C2.60510204,39.225 2.60510204,39.4125 2.71836735,39.525 L3.28469388,40.0875 C3.32244898,40.125 3.39795918,40.1625 3.47346939,40.1625 C3.54897959,40.1625 3.6244898,40.125 3.6622449,40.0875 C3.7755102,39.975 3.7755102,39.7875 3.6622449,39.675 L3.13367347,39.1125 Z" id="Shape"></path>
                    <path d="M4.94591837,40.875 C4.83265306,40.7625 4.64387755,40.7625 4.53061224,40.875 C4.41734694,40.9875 4.41734694,41.175 4.53061224,41.2875 L5.09693878,41.85 C5.13469388,41.8875 5.21020408,41.925 5.28571429,41.925 C5.36122449,41.925 5.43673469,41.8875 5.4744898,41.85 C5.5877551,41.7375 5.5877551,41.55 5.4744898,41.4375 L4.94591837,40.875 Z" id="Shape"></path>
                    <path d="M3.28469388,40.875 L2.71836735,41.4375 C2.60510204,41.55 2.60510204,41.7375 2.71836735,41.85 C2.75612245,41.8875 2.83163265,41.925 2.90714286,41.925 C2.98265306,41.925 3.05816327,41.8875 3.09591837,41.85 L3.6622449,41.2875 C3.7755102,41.175 3.7755102,40.9875 3.6622449,40.875 C3.58673469,40.7625 3.39795918,40.7625 3.28469388,40.875 Z" id="Shape"></path>
                    <path d="M5.09693878,39.1125 L4.53061224,39.675 C4.41734694,39.7875 4.41734694,39.975 4.53061224,40.0875 C4.56836735,40.125 4.64387755,40.1625 4.71938776,40.1625 C4.79489796,40.1625 4.87040816,40.125 4.90816327,40.0875 L5.4744898,39.525 C5.5877551,39.4125 5.5877551,39.225 5.4744898,39.1125 C5.36122449,39 5.21020408,39 5.09693878,39.1125 Z" id="Shape"></path>
                    <path d="M3.17142857,4.0875 C3.85102041,4.0875 4.37959184,3.525 4.37959184,2.8875 C4.37959184,2.25 3.81326531,1.6875 3.17142857,1.6875 C2.49183673,1.6875 1.96326531,2.25 1.96326531,2.8875 C1.96326531,3.525 2.49183673,4.0875 3.17142857,4.0875 Z M3.17142857,2.25 C3.54897959,2.25 3.81326531,2.55 3.81326531,2.8875 C3.81326531,3.225 3.51122449,3.525 3.17142857,3.525 C2.79387755,3.525 2.52959184,3.225 2.52959184,2.8875 C2.52959184,2.55 2.83163265,2.25 3.17142857,2.25 Z" id="Shape"></path>
                    <path d="M34.2816327,28.575 C33.6020408,28.575 33.0734694,29.1375 33.0734694,29.775 C33.0734694,30.45 33.6397959,30.975 34.2816327,30.975 C34.9612245,30.975 35.4897959,30.4125 35.4897959,29.775 C35.4897959,29.1375 34.9612245,28.575 34.2816327,28.575 Z M34.2816327,30.45 C33.9040816,30.45 33.6397959,30.15 33.6397959,29.8125 C33.6397959,29.4375 33.9418367,29.175 34.2816327,29.175 C34.6591837,29.175 34.9234694,29.475 34.9234694,29.8125 C34.9234694,30.15 34.6591837,30.45 34.2816327,30.45 Z" id="Shape"></path>
                    <path d="M6.94693878,32.2875 C6.04081633,32.2875 5.32346939,33.0375 5.32346939,33.9 C5.32346939,34.8 6.07857143,35.5125 6.94693878,35.5125 C7.85306122,35.5125 8.57040816,34.7625 8.57040816,33.9 C8.57040816,33 7.85306122,32.2875 6.94693878,32.2875 Z M6.94693878,34.9875 C6.34285714,34.9875 5.88979592,34.5 5.88979592,33.9375 C5.88979592,33.3375 6.38061224,32.8875 6.94693878,32.8875 C7.55102041,32.8875 8.00408163,33.375 8.00408163,33.9375 C8.00408163,34.5 7.55102041,34.9875 6.94693878,34.9875 Z" id="Shape"></path>
                    <path d="M29.1846939,1.6125 L33.5265306,1.6125 C33.677551,1.6125 33.8285714,1.5 33.8285714,1.3125 C33.8285714,1.1625 33.7153061,1.0125 33.5265306,1.0125 L29.1846939,1.0125 C29.0336735,1.0125 28.8826531,1.125 28.8826531,1.3125 C28.8826531,1.4625 29.0336735,1.6125 29.1846939,1.6125 Z" id="Shape"></path>
                    <path d="M34.9612245,1.6125 L36.3581633,1.6125 C36.5091837,1.6125 36.6602041,1.5 36.6602041,1.3125 C36.6602041,1.1625 36.5469388,1.0125 36.3581633,1.0125 L34.9612245,1.0125 C34.8102041,1.0125 34.6591837,1.125 34.6591837,1.3125 C34.6969388,1.4625 34.8102041,1.6125 34.9612245,1.6125 Z" id="Shape"></path>
                    <path d="M36.3959184,2.5125 L33.3755102,2.5125 C33.2244898,2.5125 33.0734694,2.625 33.0734694,2.8125 C33.0734694,2.9625 33.1867347,3.1125 33.3755102,3.1125 L36.3959184,3.1125 C36.5469388,3.1125 36.6979592,3 36.6979592,2.8125 C36.6602041,2.625 36.5469388,2.5125 36.3959184,2.5125 Z" id="Shape"></path>
                    <path d="M32.0540816,3.075 C32.205102,3.075 32.3561224,2.9625 32.3561224,2.775 C32.3561224,2.625 32.2428571,2.475 32.0540816,2.475 L31.072449,2.475 C30.9214286,2.475 30.7704082,2.5875 30.7704082,2.775 C30.7704082,2.925 30.8836735,3.075 31.072449,3.075 L32.0540816,3.075 Z" id="Shape"></path>
                    <path d="M34.9234694,41.6625 L30.5816327,41.6625 C30.4306122,41.6625 30.2795918,41.775 30.2795918,41.9625 C30.2795918,42.15 30.3928571,42.2625 30.5816327,42.2625 L34.9234694,42.2625 C35.0744898,42.2625 35.2255102,42.15 35.2255102,41.9625 C35.2255102,41.775 35.0744898,41.6625 34.9234694,41.6625 Z" id="Shape"></path>
                    <path d="M29.1469388,41.6625 L27.75,41.6625 C27.5989796,41.6625 27.4479592,41.775 27.4479592,41.9625 C27.4479592,42.15 27.5612245,42.2625 27.75,42.2625 L29.1469388,42.2625 C29.2979592,42.2625 29.4489796,42.15 29.4489796,41.9625 C29.4489796,41.775 29.2979592,41.6625 29.1469388,41.6625 Z" id="Shape"></path>
                    <path d="M27.7122449,40.7625 L30.7326531,40.7625 C30.8836735,40.7625 31.0346939,40.65 31.0346939,40.4625 C31.0346939,40.3125 30.9214286,40.1625 30.7326531,40.1625 L27.7122449,40.1625 C27.5612245,40.1625 27.4102041,40.275 27.4102041,40.4625 C27.4479592,40.6125 27.5612245,40.7625 27.7122449,40.7625 Z" id="Shape"></path>
                    <path d="M31.7897959,40.4625 C31.7897959,40.6125 31.9030612,40.7625 32.0918367,40.7625 L33.0734694,40.7625 C33.2244898,40.7625 33.3755102,40.65 33.3755102,40.4625 C33.3755102,40.3125 33.2622449,40.1625 33.0734694,40.1625 L32.0918367,40.1625 C31.9030612,40.2 31.7897959,40.3125 31.7897959,40.4625 Z" id="Shape"></path>
                    <path d="M35.3387755,17.55 L30.2418367,17.5125 C30.0908163,17.5125 29.9397959,17.625 29.9397959,17.775 C29.9397959,17.925 30.0530612,18.075 30.2040816,18.075 L35.3010204,18.1125 C35.3010204,18.1125 35.3010204,18.1125 35.3010204,18.1125 C35.4520408,18.1125 35.6030612,18 35.6030612,17.85 C35.6030612,17.7 35.4897959,17.55 35.3387755,17.55 Z" id="Shape"></path>
                    <path d="M32.8846939,21.4125 L29.9020408,20.775 C29.7510204,20.7375 29.6,20.85 29.5622449,21 C29.5244898,21.15 29.6377551,21.3 29.7887755,21.3375 L32.7714286,21.975 C32.8091837,21.975 32.8091837,21.975 32.8469388,21.975 C32.9602041,21.975 33.1112245,21.9 33.1112245,21.75 C33.1489796,21.6 33.0357143,21.45 32.8846939,21.4125 Z" id="Shape"></path>
                    <path d="M32.922449,14.025 C33.0734694,13.9875 33.1489796,13.8 33.1112245,13.6875 C33.0734694,13.5375 32.8846939,13.4625 32.7714286,13.5 L29.8265306,14.4375 C29.6755102,14.475 29.6,14.6625 29.6377551,14.775 C29.6755102,14.8875 29.7887755,14.9625 29.9020408,14.9625 C29.9397959,14.9625 29.977551,14.9625 29.977551,14.9625 L32.922449,14.025 Z" id="Shape"></path>
                    <path d="M17.9714286,5.8125 C18.122449,5.8125 18.2734694,5.7 18.2734694,5.5125 L18.2734694,0.4875 C18.2734694,0.3375 18.1602041,0.1875 17.9714286,0.1875 C17.7826531,0.1875 17.6693878,0.3 17.6693878,0.4875 L17.6693878,5.55 C17.7071429,5.7 17.8204082,5.8125 17.9714286,5.8125 Z" id="Shape"></path>
                    <path d="M11.5153061,7.3875 C11.5530612,7.4625 11.6663265,7.5375 11.7418367,7.5375 C11.7795918,7.5375 11.855102,7.5375 11.8928571,7.5 C12.0438776,7.425 12.0816327,7.2375 12.0061224,7.125 L9.40102041,2.7375 C9.3255102,2.5875 9.13673469,2.55 9.02346939,2.625 C8.87244898,2.7 8.83469388,2.8875 8.91020408,3 L11.5153061,7.3875 Z" id="Shape"></path>
                    <path d="M7.3244898,12 C7.4377551,12 7.51326531,11.9625 7.58877551,11.85 C7.66428571,11.7 7.62653061,11.55 7.4755102,11.475 L3.02040816,8.9625 C2.86938776,8.8875 2.71836735,8.925 2.64285714,9.075 C2.56734694,9.225 2.60510204,9.375 2.75612245,9.45 L7.17346939,11.9625 C7.21122449,11.9625 7.28673469,12 7.3244898,12 Z" id="Shape"></path>
                    <path d="M6.00306122,17.775 C6.00306122,17.625 5.85204082,17.5125 5.70102041,17.5125 L0.604081633,17.55 C0.453061224,17.55 0.302040816,17.6625 0.339795918,17.85 C0.339795918,18 0.453061224,18.1125 0.641836735,18.1125 C0.641836735,18.1125 0.641836735,18.1125 0.641836735,18.1125 L5.73877551,18.075 C5.88979592,18.075 6.00306122,17.925 6.00306122,17.775 Z" id="Shape"></path>
                    <path d="M2.71836735,26.5125 C2.75612245,26.5875 2.86938776,26.6625 2.98265306,26.6625 C3.02040816,26.6625 3.09591837,26.6625 3.13367347,26.625 L7.55102041,24.075 C7.70204082,24 7.73979592,23.8125 7.66428571,23.7 C7.58877551,23.55 7.4,23.5125 7.28673469,23.5875 L2.86938776,26.1375 C2.71836735,26.2125 2.64285714,26.4 2.71836735,26.5125 Z" id="Shape"></path>
                    <path d="M33.1112245,26.175 L28.6938776,23.5875 C28.5428571,23.5125 28.3918367,23.55 28.3163265,23.7 C28.2408163,23.85 28.2785714,24 28.4295918,24.075 L32.8469388,26.625 C32.8846939,26.6625 32.9602041,26.6625 32.9979592,26.6625 C33.1112245,26.6625 33.1867347,26.625 33.2622449,26.5125 C33.3,26.4 33.2244898,26.25 33.1112245,26.175 Z" id="Shape"></path>
                    <path d="M33.3377551,9.1125 C33.2622449,8.9625 33.0734694,8.925 32.9602041,9 L28.505102,11.475 C28.3540816,11.55 28.3163265,11.7375 28.3918367,11.85 C28.4295918,11.925 28.5428571,12 28.6561224,12 C28.6938776,12 28.7693878,12 28.8071429,11.9625 L33.2622449,9.4875 C33.3755102,9.4125 33.4132653,9.225 33.3377551,9.1125 Z" id="Shape"></path>
                    <path d="M24.0877551,7.5 C24.1255102,7.5375 24.2010204,7.5375 24.2387755,7.5375 C24.3520408,7.5375 24.427551,7.5 24.4653061,7.3875 L27.0704082,3.0375 C27.1459184,2.8875 27.1081633,2.7375 26.9571429,2.6625 C26.8061224,2.5875 26.655102,2.625 26.5795918,2.775 L23.9744898,7.125 C23.8989796,7.2375 23.9367347,7.3875 24.0877551,7.5 Z" id="Shape"></path>
                    <path d="M14.8,5.925 C14.8377551,6.0375 14.9510204,6.1125 15.0642857,6.1125 C15.1020408,6.1125 15.1397959,6.1125 15.1397959,6.1125 C15.2908163,6.075 15.3663265,5.925 15.3285714,5.775 L14.422449,2.8875 C14.3846939,2.7375 14.2336735,2.6625 14.0826531,2.7 C13.9316327,2.7375 13.8561224,2.8875 13.8938776,3.0375 L14.8,5.925 Z" id="Shape"></path>
                    <path d="M9.2877551,9.075 C9.3255102,9.1125 9.40102041,9.15 9.47653061,9.15 C9.55204082,9.15 9.62755102,9.1125 9.70306122,9.075 C9.81632653,8.9625 9.81632653,8.775 9.70306122,8.6625 L7.4377551,6.6 C7.3244898,6.4875 7.13571429,6.4875 7.02244898,6.6 C6.90918367,6.7125 6.90918367,6.9 7.02244898,7.0125 L9.2877551,9.075 Z" id="Shape"></path>
                    <path d="M3.09591837,13.9125 L6.07857143,14.55 C6.11632653,14.55 6.11632653,14.55 6.15408163,14.55 C6.26734694,14.55 6.41836735,14.475 6.41836735,14.325 C6.45612245,14.175 6.34285714,14.025 6.19183673,13.9875 L3.20918367,13.35 C3.05816327,13.3125 2.90714286,13.425 2.86938776,13.575 C2.86938776,13.725 2.94489796,13.875 3.09591837,13.9125 Z" id="Shape"></path>
                    <path d="M3.02040816,21.3 C2.86938776,21.3375 2.79387755,21.4875 2.83163265,21.6375 C2.86938776,21.75 2.98265306,21.825 3.09591837,21.825 C3.13367347,21.825 3.17142857,21.825 3.17142857,21.825 L6.07857143,20.8875 C6.22959184,20.85 6.30510204,20.7 6.26734694,20.55 C6.22959184,20.4 6.04081633,20.325 5.92755102,20.3625 L3.02040816,21.3 Z" id="Shape"></path>
                    <path d="M8.91020408,25.9875 L6.83367347,28.2375 C6.72040816,28.35 6.72040816,28.5375 6.87142857,28.65 C6.90918367,28.6875 6.98469388,28.725 7.06020408,28.725 C7.13571429,28.725 7.21122449,28.6875 7.28673469,28.65 L9.36326531,26.4 C9.47653061,26.2875 9.47653061,26.1 9.3255102,25.9875 C9.1744898,25.875 8.98571429,25.875 8.91020408,25.9875 Z" id="Shape"></path>
                    <path d="M26.7306122,26.2875 C26.6173469,26.175 26.4285714,26.175 26.3153061,26.325 C26.2020408,26.4375 26.2020408,26.625 26.3530612,26.7375 L28.6183673,28.7625 C28.6561224,28.8 28.7316327,28.8375 28.8071429,28.8375 C28.8826531,28.8375 28.9581633,28.8 29.0336735,28.7625 C29.1469388,28.65 29.1469388,28.4625 28.9959184,28.35 L26.7306122,26.2875 Z" id="Shape"></path>
                    <path d="M26.6173469,9.375 C26.655102,9.4125 26.7306122,9.45 26.8061224,9.45 C26.8816327,9.45 26.9571429,9.4125 27.0326531,9.3375 L29.0714286,7.05 C29.1846939,6.9375 29.1846939,6.75 29.0336735,6.6375 C28.9204082,6.525 28.7316327,6.525 28.6183673,6.675 L26.5795918,8.9625 C26.4663265,9.1125 26.4663265,9.2625 26.6173469,9.375 Z" id="Shape"></path>
                    <path d="M21.2561224,6.225 C21.2938776,6.225 21.2938776,6.225 21.3316327,6.225 C21.444898,6.225 21.5959184,6.15 21.5959184,6 L22.2377551,3 C22.2755102,2.85 22.1622449,2.7 22.0112245,2.6625 C21.8602041,2.625 21.7091837,2.7375 21.6714286,2.8875 L21.0295918,5.8875 C20.9918367,6.0375 21.0673469,6.1875 21.2561224,6.225 Z" id="Shape"></path>
                    <path d="M27.4857143,14.7 C26.3530612,11.1 23.2193878,8.4 19.4816327,7.8375 C15.3285714,7.2 11.2132653,9.2625 9.2122449,12.9 C7.4755102,16.0875 7.66428571,19.5 9.85408163,23.325 C11.2887755,25.8375 12.95,29.1375 12.95,32.325 L12.95,32.55 C12.95,32.55 12.95,32.55 12.95,32.5875 C12.95,32.5875 12.95,32.5875 12.95,32.625 L12.95,36.15 C12.95,36.15 12.95,36.15 12.95,36.1875 C12.95,36.1875 12.95,36.1875 12.95,36.225 L12.95,39.825 C12.95,39.8625 12.95,39.8625 12.95,39.8625 C12.95,39.9 12.95,39.975 12.9877551,40.0125 L17.744898,47.6625 C17.7826531,47.7375 17.8959184,47.8125 17.9714286,47.8125 C18.0846939,47.8125 18.1602041,47.775 18.1979592,47.6625 L22.955102,39.9375 C22.9928571,39.9 22.9928571,39.825 22.9928571,39.7875 C22.9928571,39.7875 22.9928571,39.75 22.9928571,39.75 L22.9928571,38.6625 C22.9928571,33.6 22.955102,29.625 25.2204082,24.9 C25.4091837,24.4875 25.6357143,24.075 25.8244898,23.6625 C27.2969388,20.8875 28.6183673,18.2625 27.4857143,14.7 Z M22.6153061,32.85 C22.5397959,33.825 22.5020408,34.8375 22.4642857,35.85 L13.5163265,35.85 L13.5163265,32.85 L22.6153061,32.85 Z M16.7255102,44.925 L13.5163265,39.7125 L13.5163265,39.675 C13.5163265,39.675 13.5540816,39.675 13.5540816,39.675 C14.1581633,39.675 14.7244898,39.3375 15.0265306,38.8875 C15.3285714,39.375 15.894898,39.675 16.4989796,39.675 C17.1030612,39.675 17.6693878,39.3375 17.9714286,38.8875 C18.2734694,39.375 18.8397959,39.675 19.4438776,39.675 C20.0479592,39.675 20.6142857,39.3375 20.9163265,38.8875 C21.2183673,39.375 21.7846939,39.675 22.3887755,39.675 C22.3887755,39.675 22.4265306,39.675 22.4265306,39.675 L22.4265306,39.7125 L19.255102,44.925 L19.255102,44.85 L16.7255102,44.85 L16.7255102,44.925 Z M22.4642857,38.6625 L22.4642857,39.1125 C22.4642857,39.1125 22.4265306,39.1125 22.4265306,39.1125 C21.7846939,39.1125 21.2183673,38.5875 21.2183673,37.9125 C21.2183673,37.9125 21.2183673,37.9125 21.2183673,37.875 C21.2183673,37.875 21.2183673,37.875 21.2183673,37.8375 L21.2183673,36.375 L22.4642857,36.375 C22.4642857,37.1625 22.4642857,37.9125 22.4642857,38.6625 Z M20.6520408,37.9125 C20.6520408,37.9125 20.6520408,37.9125 20.6520408,37.9125 C20.6520408,38.5875 20.1234694,39.1125 19.4438776,39.1125 C18.8020408,39.1125 18.2357143,38.5875 18.2357143,37.9125 C18.2357143,37.9125 18.2357143,37.9125 18.2357143,37.875 C18.2357143,37.875 18.2357143,37.8375 18.2357143,37.8375 L18.2357143,36.4875 C18.2357143,36.45 18.2357143,36.4125 18.1979592,36.375 L20.6142857,36.375 L20.6520408,37.9125 C20.6520408,37.875 20.6520408,37.875 20.6520408,37.9125 Z M17.7071429,37.9125 C17.7071429,37.9125 17.7071429,37.9125 17.7071429,37.9125 C17.7071429,38.5875 17.1785714,39.1125 16.4989796,39.1125 C15.8571429,39.1125 15.2908163,38.5875 15.2908163,37.9125 C15.2908163,37.9125 15.2908163,37.9125 15.2908163,37.875 C15.2908163,37.875 15.2908163,37.8375 15.2908163,37.8375 L15.2908163,36.375 L17.7071429,36.375 C17.7071429,36.4125 17.6693878,36.45 17.6693878,36.4875 L17.7071429,37.9125 C17.7071429,37.875 17.7071429,37.875 17.7071429,37.9125 Z M14.7622449,37.9125 C14.7622449,37.9125 14.7244898,37.9125 14.7622449,37.9125 C14.7622449,38.5875 14.2336735,39.1125 13.5540816,39.1125 C13.5540816,39.1125 13.5163265,39.1125 13.5163265,39.1125 L13.5163265,36.4125 L14.7244898,36.4125 L14.7622449,37.9125 C14.7244898,37.875 14.7622449,37.875 14.7622449,37.9125 Z M17.9714286,46.9875 L17.027551,45.4125 L18.9530612,45.4125 L17.9714286,46.9875 Z M25.3714286,23.4375 C25.1826531,23.85 24.9561224,24.2625 24.7673469,24.7125 C23.4836735,27.3375 22.9173469,29.8125 22.6908163,32.325 L13.5163265,32.325 C13.5163265,29.025 11.8173469,25.65 10.344898,23.1 C8.26836735,19.425 8.07959184,16.2 9.70306122,13.2 C11.5908163,9.75 15.4795918,7.8375 19.4061224,8.4375 C22.9173469,8.9625 25.9,11.5125 26.9571429,14.925 C27.9765306,18.1875 26.7683673,20.625 25.3714286,23.4375 Z" id="Shape"></path>
                    <path d="M15.0642857,34.5 L20.9163265,34.5 C21.0673469,34.5 21.2183673,34.3875 21.2183673,34.2 C21.2183673,34.05 21.105102,33.9 20.9163265,33.9 L15.0642857,33.9 C14.9132653,33.9 14.7622449,34.0125 14.7622449,34.2 C14.8,34.3875 14.9132653,34.5 15.0642857,34.5 Z" id="Shape"></path>
                    <path d="M16.7255102,13.35 C16.6877551,13.2 16.4989796,13.125 16.3479592,13.2 C16.1969388,13.2375 16.1214286,13.425 16.1969388,13.575 C16.1969388,13.6125 16.6122449,14.7375 15.177551,15.3 C15.0265306,15.375 14.9510204,15.525 15.0265306,15.675 C15.0642857,15.7875 15.177551,15.8625 15.2908163,15.8625 C15.3285714,15.8625 15.3663265,15.8625 15.4040816,15.825 C17.3673469,15.0375 16.7632653,13.35 16.7255102,13.35 Z" id="Shape"></path>
                    <path d="M17.1785714,21.7875 C16.6122449,21.9 16.1591837,22.125 15.894898,22.5375 C15.4418367,23.2125 15.5928571,24.0375 15.5928571,24.075 C15.6306122,24.225 15.7438776,24.3 15.8571429,24.3 C15.8571429,24.3 15.894898,24.3 15.894898,24.3 C16.0459184,24.2625 16.1591837,24.1125 16.1214286,23.9625 C16.1214286,23.9625 16.0081633,23.325 16.3479592,22.8375 C16.5367347,22.575 16.8387755,22.3875 17.2540816,22.3125 C17.405102,22.275 17.5183673,22.125 17.4806122,21.975 C17.4806122,21.8625 17.3673469,21.75 17.1785714,21.7875 Z" id="Shape"></path>
                    <path d="M20.1612245,11.4375 C20.0479592,11.3625 19.972449,11.2875 19.8591837,11.175 C19.6326531,11.025 19.3683673,10.95 19.1040816,10.95 C18.6510204,10.95 18.2357143,11.175 17.9714286,11.5125 C17.7071429,11.175 17.2918367,10.95 16.8387755,10.95 C16.5744898,10.95 16.3102041,11.025 16.0836735,11.175 C16.0836735,11.175 16.0836735,11.175 16.0836735,11.175 C16.0836735,11.175 16.0836735,11.175 16.0836735,11.175 C16.0836735,11.175 16.0836735,11.175 16.0836735,11.175 C15.9704082,11.25 15.894898,11.325 15.8193878,11.4 C15.8193878,11.4 15.8193878,11.4 15.8193878,11.4 C13.3653061,13.6125 12.1193878,16.3125 12.1193878,19.3875 C12.1193878,22.8 14.3091837,24.9 16.1969388,25.6875 C16.1969388,25.6875 16.1969388,25.6875 16.1969388,25.6875 C16.3102041,25.7625 16.4612245,25.8 16.6122449,25.8375 C16.6122449,25.8375 16.6122449,25.8375 16.6122449,25.8375 C16.6877551,25.8375 16.7632653,25.875 16.8765306,25.875 C17.3295918,25.875 17.744898,25.65 18.0091837,25.3125 C18.2734694,25.65 18.6887755,25.875 19.1418367,25.875 C19.2173469,25.875 19.2928571,25.875 19.4061224,25.8375 C19.4061224,25.8375 19.4061224,25.8375 19.4438776,25.8375 C19.4438776,25.8375 19.4438776,25.8375 19.4438776,25.8375 C19.4438776,25.8375 19.4438776,25.8375 19.4438776,25.8375 C19.5571429,25.8 19.7081633,25.7625 19.8214286,25.725 C19.8214286,25.725 19.8214286,25.725 19.8214286,25.725 C21.7091837,24.9375 23.8989796,22.8375 23.8989796,19.425 C23.8612245,16.3125 22.6153061,13.65 20.1612245,11.4375 Z M16.8765306,25.3125 C16.8387755,25.3125 16.7632653,25.3125 16.7632653,25.3125 C16.65,25.275 16.5367347,25.2375 16.4234694,25.2 C15.9326531,25.0125 15.4040816,24.675 14.9132653,24.3 C14.8377551,23.925 14.5734694,22.425 15.3663265,21.9375 C15.5173469,21.8625 15.555102,21.675 15.4418367,21.5625 C15.3663265,21.4125 15.177551,21.375 15.0642857,21.4875 C14.3091837,21.975 14.1959184,22.95 14.2714286,23.6625 C13.3653061,22.65 12.6857143,21.2625 12.6857143,19.4625 C12.6857143,19.1625 12.6857143,18.8625 12.7234694,18.6 C12.8744898,18.45 13.3653061,18 14.0826531,17.9625 C14.6489796,17.925 15.2530612,18.1875 15.8193878,18.675 C15.8571429,18.7125 15.9326531,18.75 16.0081633,18.75 C16.0836735,18.75 16.1591837,18.7125 16.2346939,18.675 C16.3479592,18.5625 16.3479592,18.375 16.1969388,18.2625 C15.4795918,17.625 14.7622449,17.325 14.044898,17.4 C13.5540816,17.4375 13.1387755,17.625 12.8367347,17.8125 C12.95,17.1375 13.1387755,16.5 13.3653061,15.9 C13.5918367,16.2375 13.9693878,16.65 14.6112245,16.7625 C14.6112245,16.7625 14.6489796,16.7625 14.6489796,16.7625 C14.8,16.7625 14.9132653,16.6875 14.9132653,16.5375 C14.9510204,16.3875 14.8377551,16.2375 14.6867347,16.2 C13.9316327,16.05 13.705102,15.4125 13.6295918,15.1875 C13.9316327,14.55 14.3091837,13.95 14.7622449,13.3875 C14.8377551,13.725 14.9887755,14.1375 15.2908163,14.6625 C15.3285714,14.7375 15.4418367,14.8125 15.5173469,14.8125 C15.555102,14.8125 15.6306122,14.8125 15.6683673,14.775 C15.8193878,14.7 15.8571429,14.5125 15.7816327,14.4 C15.0642857,13.1625 15.3663265,12.7125 15.4040816,12.675 C15.4040816,12.675 15.4040816,12.675 15.4040816,12.675 C15.6306122,12.4125 15.894898,12.15 16.1969388,11.925 C16.272449,11.85 16.3479592,11.775 16.4234694,11.7375 C16.5367347,11.6625 16.6877551,11.625 16.8765306,11.625 C17.2918367,11.625 17.6316327,11.925 17.7071429,12.3 C17.7071429,12.375 17.6693878,12.45 17.6693878,12.4875 L17.6693878,15.75 C17.4806122,15.675 17.2918367,15.6 17.0653061,15.6375 C16.8387755,15.6375 16.4989796,15.75 16.2346939,16.1625 C16.1591837,16.275 16.1591837,16.4625 16.3102041,16.5375 C16.3479592,16.575 16.4234694,16.575 16.4612245,16.575 C16.5367347,16.575 16.65,16.5375 16.6877551,16.4625 C16.8010204,16.275 16.9520408,16.2 17.1030612,16.2 C17.2918367,16.2 17.5183673,16.3125 17.6693878,16.425 L17.6693878,19.8 C17.405102,19.9875 16.7632653,20.325 16.0836735,20.25 C15.6306122,20.2125 15.2153061,19.95 14.8755102,19.5 C14.8,19.425 14.6867347,19.3875 14.5734694,19.3875 C14.4602041,19.425 14.3846939,19.5375 14.3846939,19.65 C14.3846939,19.65 14.3091837,20.7375 13.705102,20.85 C13.5540816,20.8875 13.4408163,21.0375 13.4785714,21.1875 C13.5163265,21.3375 13.6295918,21.4125 13.7428571,21.4125 C13.7428571,21.4125 13.7806122,21.4125 13.7806122,21.4125 C14.3846939,21.3 14.6867347,20.7375 14.8,20.2875 C15.1397959,20.5875 15.555102,20.775 16.0081633,20.8125 C16.65,20.8875 17.2540816,20.6625 17.6693878,20.4375 L17.6693878,24.5625 C17.6693878,24.6375 17.6693878,24.7125 17.7071429,24.75 C17.5938776,25.0125 17.2540816,25.3125 16.8765306,25.3125 Z M21.7469388,23.625 C21.7846939,22.9125 21.7091837,21.9 20.9540816,21.45 C20.8030612,21.375 20.6520408,21.4125 20.5765306,21.525 C20.5010204,21.675 20.5387755,21.825 20.6520408,21.9 C21.3693878,22.35 21.2183673,23.6625 21.105102,24.225 C20.6142857,24.6375 20.0857143,24.9375 19.594898,25.125 C19.4816327,25.1625 19.4061224,25.2 19.2928571,25.2375 C19.255102,25.2375 19.2173469,25.2375 19.1418367,25.2375 C18.7265306,25.2375 18.3867347,24.9375 18.3112245,24.5625 C18.3112245,24.4875 18.3489796,24.4125 18.3489796,24.375 L18.3489796,20.25 C18.7642857,20.475 19.3683673,20.7 20.0102041,20.625 C20.4632653,20.5875 20.8408163,20.4 21.2183673,20.1 C21.3316327,20.55 21.6336735,21.1125 22.2377551,21.225 C22.2377551,21.225 22.2755102,21.225 22.2755102,21.225 C22.4265306,21.225 22.5397959,21.15 22.5397959,21 C22.577551,20.85 22.4642857,20.7 22.3132653,20.6625 C21.7091837,20.55 21.6336735,19.5 21.6336735,19.4625 C21.6336735,19.35 21.5581633,19.2375 21.444898,19.2 C21.3316327,19.1625 21.2183673,19.2 21.1428571,19.3125 C20.8030612,19.7625 20.3877551,19.9875 19.9346939,20.0625 C19.255102,20.1375 18.6132653,19.8 18.3489796,19.6125 L18.3489796,16.2375 C18.5,16.125 18.7265306,16.0125 18.9153061,16.0125 C19.0663265,16.0125 19.2173469,16.125 19.3306122,16.275 C19.3683673,16.35 19.4816327,16.3875 19.5571429,16.3875 C19.6326531,16.3875 19.6704082,16.3875 19.7081633,16.35 C19.8214286,16.275 19.8591837,16.0875 19.7836735,15.975 C19.5193878,15.6 19.1795918,15.4875 18.9530612,15.45 C18.7265306,15.45 18.5377551,15.4875 18.3489796,15.5625 L18.3489796,12.375 C18.3489796,12.3 18.3489796,12.225 18.3112245,12.1875 C18.3867347,11.8125 18.7265306,11.5125 19.1418367,11.5125 C19.2928571,11.5125 19.4438776,11.55 19.5571429,11.625 C19.6326531,11.7 19.7081633,11.7375 19.7836735,11.8125 C20.0479592,12.075 20.3122449,12.3 20.5765306,12.5625 C20.5765306,12.5625 20.5765306,12.5625 20.5765306,12.5625 C20.5765306,12.5625 20.9540816,13.0125 20.1989796,14.2875 C20.1234694,14.4375 20.1612245,14.5875 20.3122449,14.6625 C20.35,14.7 20.4255102,14.7 20.4632653,14.7 C20.5765306,14.7 20.6520408,14.6625 20.6897959,14.55 C20.9918367,14.025 21.1428571,13.6125 21.2183673,13.275 C21.6714286,13.8375 22.0489796,14.4375 22.3510204,15.075 C22.2755102,15.3 22.0489796,15.9375 21.2938776,16.0875 C21.1428571,16.125 21.0295918,16.275 21.0673469,16.425 C21.105102,16.575 21.2183673,16.65 21.3316327,16.65 C21.3316327,16.65 21.3693878,16.65 21.3693878,16.65 C22.0489796,16.5 22.4265306,16.125 22.6153061,15.7875 C22.8418367,16.3875 23.0306122,17.025 23.1438776,17.7 C22.8418367,17.5125 22.4265306,17.325 21.9357143,17.2875 C21.1806122,17.25 20.4632653,17.55 19.7836735,18.15 C19.6704082,18.2625 19.6704082,18.45 19.7459184,18.5625 C19.8591837,18.675 20.0479592,18.675 20.1612245,18.6 C20.727551,18.075 21.3316327,17.85 21.8979592,17.8875 C22.577551,17.925 23.0683673,18.375 23.2571429,18.525 C23.294898,18.825 23.294898,19.0875 23.294898,19.3875 C23.294898,21.225 22.6153061,22.6125 21.7469388,23.625 Z" id="Shape"></path>
                    <path d="M20.6897959,15.825 C20.8030612,15.825 20.9163265,15.75 20.9540816,15.6375 C21.0295918,15.4875 20.9540816,15.3375 20.8030612,15.2625 C19.4061224,14.7 19.7459184,13.65 19.7836735,13.5375 C19.8214286,13.3875 19.7459184,13.2375 19.6326531,13.1625 C19.4816327,13.125 19.3306122,13.2 19.255102,13.3125 C19.255102,13.3125 18.6510204,15 20.6142857,15.75 C20.6142857,15.7875 20.6520408,15.825 20.6897959,15.825 Z" id="Shape"></path>
                    <path d="M18.7642857,21.7875 C18.6132653,21.75 18.4622449,21.8625 18.4244898,22.0125 C18.3867347,22.1625 18.5,22.3125 18.6510204,22.35 C19.0663265,22.425 19.3683673,22.575 19.5571429,22.875 C19.8969388,23.3625 19.7836735,23.9625 19.7836735,24 C19.7459184,24.15 19.8591837,24.3 20.0102041,24.3375 C20.0102041,24.3375 20.0479592,24.3375 20.0479592,24.3375 C20.1989796,24.3375 20.3122449,24.2625 20.3122449,24.1125 C20.3122449,24.075 20.4632653,23.25 20.0102041,22.575 C19.7836735,22.125 19.3683673,21.9 18.7642857,21.7875 Z" id="Shape"></path>
                </g>
            </g>
        </g>
    </g>
</svg>