<?xml version="1.0" encoding="UTF-8"?>
<svg width="74px" height="68px" viewBox="0 0 74 68" version="1.1" xmlns="http://www.w3.org/2000/svg" xmlns:xlink="http://www.w3.org/1999/xlink">
    <!-- Generator: Sketch 48.2 (47327) - http://www.bohemiancoding.com/sketch -->
    <title>Resilience</title>
    <desc>Created with Sketch.</desc>
    <defs></defs>
    <g id="Page-1" stroke="none" stroke-width="1" fill="none" fill-rule="evenodd">
        <g id="Resilience" fill="#44C7F4" fill-rule="nonzero" stroke="#44C7F4">
            <path d="M73.25704,19.2306957 C73.25704,19.2262609 73.26,19.2218261 73.26,19.2173913 C73.26,19.079913 73.21264,18.9586957 73.14752,18.8493043 C73.14012,18.836 73.14456,18.8197391 73.13568,18.807913 L61.29568,1.06878261 C61.15804,0.861826087 60.92716,0.739130435 60.68,0.739130435 L13.32,0.739130435 C13.07284,0.739130435 12.84196,0.861826087 12.70432,1.06878261 L0.86432,18.807913 C0.85544,18.8212174 0.85988,18.8374783 0.85248,18.8493043 C0.78736,18.9586957 0.74,19.079913 0.74,19.2173913 C0.74,19.2218261 0.74148,19.2247826 0.74296,19.2292174 C0.74296,19.2410435 0.74888,19.2513913 0.74888,19.2632174 C0.75776,19.3933043 0.80364,19.510087 0.87172,19.6135652 C0.88208,19.6283478 0.87764,19.6475652 0.888,19.6608696 L36.408,66.9652174 C36.42132,66.9844348 36.44352,66.9918261 36.4598,67.0066087 C36.49088,67.0406087 36.51752,67.076087 36.55452,67.1026957 C36.57228,67.1174783 36.59152,67.121913 36.61076,67.1337391 C36.61224,67.1337391 36.61224,67.1337391 36.61372,67.1352174 C36.64924,67.1573913 36.6818,67.1766087 36.72028,67.1928696 C36.74248,67.2017391 36.75728,67.2194783 36.78096,67.2253913 C36.852,67.2505217 36.92748,67.2608696 37,67.2608696 C37.07252,67.2608696 37.148,67.2505217 37.22052,67.2283478 C37.24272,67.2209565 37.259,67.2032174 37.2812,67.1958261 C37.31968,67.1795652 37.35224,67.1603478 37.38776,67.1381739 C37.38776,67.1366957 37.38924,67.1366957 37.39072,67.1366957 C37.40996,67.1233913 37.4292,67.1189565 37.44696,67.1056522 C37.48396,67.0775652 37.5106,67.0435652 37.54168,67.0095652 C37.55648,66.9933043 37.57868,66.985913 37.59348,66.9681739 L73.11348,19.6638261 C73.12384,19.6490435 73.12088,19.6313043 73.12976,19.6165217 C73.19784,19.5130435 73.24372,19.3977391 73.2526,19.2676522 C73.25112,19.2513913 73.25704,19.2425217 73.25704,19.2306957 Z M21.65684,19.9565217 L35.01088,62.6413043 L2.96,19.9565217 L21.65684,19.9565217 Z M45.3472,2.2173913 L50.77436,18.4782609 L23.22712,18.4782609 L28.65428,2.2173913 L45.3472,2.2173913 Z M50.7936,19.9565217 L37,64.0441739 L23.2064,19.9565217 L50.7936,19.9565217 Z M52.34464,19.9565217 L71.04,19.9565217 L38.98912,62.6413043 L52.34464,19.9565217 Z M71.1362,18.4782609 L52.3328,18.4782609 L46.90712,2.2173913 L60.28336,2.2173913 L71.1362,18.4782609 Z M13.71664,2.2173913 L27.09436,2.2173913 L21.6672,18.4782609 L2.86232,18.4782609 L13.71664,2.2173913 Z" id="Shape"></path>
        </g>
    </g>
</svg>