<?xml version="1.0" encoding="UTF-8"?>
<svg width="126px" height="128px" viewBox="0 0 126 128" version="1.1" xmlns="http://www.w3.org/2000/svg" xmlns:xlink="http://www.w3.org/1999/xlink">
    <!-- Generator: Sketch 48.2 (47327) - http://www.bohemiancoding.com/sketch -->
    <title>Structure</title>
    <desc>Created with Sketch.</desc>
    <defs></defs>
    <g id="Page-1" stroke="none" stroke-width="1" fill="none" fill-rule="evenodd">
        <g id="Structure" fill="#44C7F4" fill-rule="nonzero" stroke="#44C7F4" stroke-width="0.2">
            <g id="Group">
                <path d="M13.5,71.8 C13.5,71.4 13.2,71 12.7,71 C12.3,71 11.9,71.3 11.9,71.8 L11.9,83.1 C11.9,83.5 12.2,83.9 12.7,83.9 C13.1,83.9 13.5,83.6 13.5,83.1 L13.5,71.8 Z" id="Shape"></path>
                <path d="M12.8,86.1 C12.4,86.1 12,86.4 12,86.9 L12,90.5 C12,90.9 12.3,91.3 12.8,91.3 C13.2,91.3 13.6,91 13.6,90.5 L13.6,86.9 C13.5,86.4 13.2,86.1 12.8,86.1 Z" id="Shape"></path>
                <path d="M116.9,27.2 C116.9,26.8 116.6,26.4 116.1,26.4 C115.7,26.4 115.3,26.7 115.3,27.2 L115.3,38.5 C115.3,38.9 115.6,39.3 116.1,39.3 C116.5,39.3 116.9,39 116.9,38.5 L116.9,27.2 Z" id="Shape"></path>
                <path d="M116.2,41.4 C115.8,41.4 115.4,41.7 115.4,42.2 L115.4,45.8 C115.4,46.2 115.7,46.6 116.2,46.6 C116.6,46.6 117,46.3 117,45.8 L117,42.2 C116.9,41.8 116.6,41.4 116.2,41.4 Z" id="Shape"></path>
                <path d="M62.2,62.2 C62.3,62.3 62.5,62.4 62.7,62.4 C62.9,62.4 63.1,62.3 63.2,62.2 C63.5,61.9 63.5,61.4 63.2,61.1 L61.7,59.6 C61.4,59.3 60.9,59.3 60.6,59.6 C60.3,59.9 60.3,60.4 60.6,60.7 L62.2,62.2 Z" id="Shape"></path>
                <path d="M67.5,67.2 C67.7,67.2 67.9,67.1 68,67 C68.3,66.7 68.3,66.2 68,65.9 L66.5,64.4 C66.2,64.1 65.7,64.1 65.4,64.4 C65.1,64.7 65.1,65.2 65.4,65.5 L66.9,67 C67.1,67.1 67.3,67.2 67.5,67.2 Z" id="Shape"></path>
                <path d="M60.7,67 C60.8,67.1 61,67.2 61.2,67.2 C61.4,67.2 61.6,67.1 61.7,67 L63.2,65.5 C63.5,65.2 63.5,64.7 63.2,64.4 C62.9,64.1 62.4,64.1 62.1,64.4 L60.6,65.9 C60.4,66.2 60.4,66.7 60.7,67 Z" id="Shape"></path>
                <path d="M65.5,62.2 C65.6,62.3 65.8,62.4 66,62.4 C66.2,62.4 66.4,62.3 66.5,62.2 L68,60.7 C68.3,60.4 68.3,59.9 68,59.6 C67.7,59.3 67.2,59.3 66.9,59.6 L65.4,61.1 C65.2,61.5 65.2,61.9 65.5,62.2 Z" id="Shape"></path>
                <path d="M118.8,109.6 C118.5,109.3 118,109.3 117.7,109.6 C117.4,109.9 117.4,110.4 117.7,110.7 L119.2,112.2 C119.3,112.3 119.5,112.4 119.7,112.4 C119.9,112.4 120.1,112.3 120.2,112.2 C120.5,111.9 120.5,111.4 120.2,111.1 L118.8,109.6 Z" id="Shape"></path>
                <path d="M123.6,114.3 C123.3,114 122.8,114 122.5,114.3 C122.2,114.6 122.2,115.1 122.5,115.4 L124,116.9 C124.1,117 124.3,117.1 124.5,117.1 C124.7,117.1 124.9,117 125,116.9 C125.3,116.6 125.3,116.1 125,115.8 L123.6,114.3 Z" id="Shape"></path>
                <path d="M119.2,114.3 L117.7,115.8 C117.4,116.1 117.4,116.6 117.7,116.9 C117.8,117 118,117.1 118.2,117.1 C118.4,117.1 118.6,117 118.7,116.9 L120.2,115.4 C120.5,115.1 120.5,114.6 120.2,114.3 C120,114.1 119.5,114.1 119.2,114.3 Z" id="Shape"></path>
                <path d="M122.5,112.1 C122.6,112.2 122.8,112.3 123,112.3 C123.2,112.3 123.4,112.2 123.5,112.1 L125,110.6 C125.3,110.3 125.3,109.8 125,109.5 C124.7,109.2 124.2,109.2 123.9,109.5 L122.4,111 C122.2,111.4 122.2,111.8 122.5,112.1 Z" id="Shape"></path>
                <path d="M2,107.2 C1.7,106.9 1.2,106.9 0.9,107.2 C0.6,107.5 0.6,108 0.9,108.3 L2.4,109.8 C2.5,109.9 2.7,110 2.9,110 C3.1,110 3.3,109.9 3.4,109.8 C3.7,109.5 3.7,109 3.4,108.7 L2,107.2 Z" id="Shape"></path>
                <path d="M6.8,112 C6.5,111.7 6,111.7 5.7,112 C5.4,112.3 5.4,112.8 5.7,113.1 L7.2,114.6 C7.3,114.7 7.5,114.8 7.7,114.8 C7.9,114.8 8.1,114.7 8.2,114.6 C8.5,114.3 8.5,113.8 8.2,113.5 L6.8,112 Z" id="Shape"></path>
                <path d="M2.4,112 L0.9,113.5 C0.6,113.8 0.6,114.3 0.9,114.6 C1,114.7 1.2,114.8 1.4,114.8 C1.6,114.8 1.8,114.7 1.9,114.6 L3.4,113.1 C3.7,112.8 3.7,112.3 3.4,112 C3.2,111.7 2.7,111.7 2.4,112 Z" id="Shape"></path>
                <path d="M7.2,107.2 L5.7,108.7 C5.4,109 5.4,109.5 5.7,109.8 C5.8,109.9 6,110 6.2,110 C6.4,110 6.6,109.9 6.7,109.8 L8.2,108.3 C8.5,108 8.5,107.5 8.2,107.2 C7.9,106.9 7.5,106.9 7.2,107.2 Z" id="Shape"></path>
                <path d="M10.6,3.3 C10.7,3.4 10.9,3.5 11.1,3.5 C11.3,3.5 11.5,3.4 11.6,3.3 C11.9,3 11.9,2.5 11.6,2.2 L10.1,0.7 C9.8,0.4 9.3,0.4 9,0.7 C8.7,1 8.7,1.5 9,1.8 L10.6,3.3 Z" id="Shape"></path>
                <path d="M15.3,8 C15.4,8.1 15.6,8.2 15.8,8.2 C16,8.2 16.2,8.1 16.3,8 C16.6,7.7 16.6,7.2 16.3,6.9 L14.8,5.4 C14.5,5.1 14,5.1 13.7,5.4 C13.4,5.7 13.4,6.2 13.7,6.5 L15.3,8 Z" id="Shape"></path>
                <path d="M9.6,8.2 C9.8,8.2 10,8.1 10.1,8 L11.6,6.5 C11.9,6.2 11.9,5.7 11.6,5.4 C11.3,5.1 10.8,5.1 10.5,5.4 L9,6.9 C8.7,7.2 8.7,7.7 9,8 C9.3,8.2 9.5,8.2 9.6,8.2 Z" id="Shape"></path>
                <path d="M14.4,3.5 C14.6,3.5 14.8,3.4 14.9,3.3 L16.4,1.8 C16.7,1.5 16.7,1 16.4,0.7 C16.1,0.4 15.6,0.4 15.3,0.7 L13.8,2.2 C13.5,2.5 13.5,3 13.8,3.3 C14,3.4 14.2,3.5 14.4,3.5 Z" id="Shape"></path>
                <path d="M62.7,20.4 C64.4,20.4 65.7,19.1 65.7,17.4 C65.7,15.7 64.4,14.4 62.7,14.4 C61,14.4 59.7,15.7 59.7,17.4 C59.7,19 61,20.4 62.7,20.4 Z M62.7,15.9 C63.5,15.9 64.2,16.6 64.2,17.4 C64.2,18.2 63.5,18.9 62.7,18.9 C61.9,18.9 61.2,18.2 61.2,17.4 C61.2,16.5 61.9,15.9 62.7,15.9 Z" id="Shape"></path>
                <path d="M21.6,79.7 C21.6,81.4 22.9,82.7 24.6,82.7 C26.3,82.7 27.6,81.4 27.6,79.7 C27.6,78 26.3,76.7 24.6,76.7 C23,76.7 21.6,78 21.6,79.7 Z M24.7,78.2 C25.5,78.2 26.2,78.9 26.2,79.7 C26.2,80.5 25.5,81.2 24.7,81.2 C23.9,81.2 23.2,80.5 23.2,79.7 C23.2,78.8 23.8,78.2 24.7,78.2 Z" id="Shape"></path>
                <path d="M119.4,72 C117.3,72 115.5,73.7 115.5,75.9 C115.5,78 117.2,79.8 119.4,79.8 C121.5,79.8 123.3,78.1 123.3,75.9 C123.2,73.7 121.5,72 119.4,72 Z M119.4,78.3 C118.1,78.3 117,77.2 117,75.9 C117,74.6 118.1,73.5 119.4,73.5 C120.7,73.5 121.8,74.6 121.8,75.9 C121.7,77.2 120.7,78.3 119.4,78.3 Z" id="Shape"></path>
                <path d="M78.9,9.5 C78.9,9.9 79.2,10.3 79.7,10.3 L91.7,10.3 C92.1,10.3 92.5,10 92.5,9.5 C92.5,9.1 92.2,8.7 91.7,8.7 L79.7,8.7 C79.2,8.8 78.9,9.1 78.9,9.5 Z" id="Shape"></path>
                <path d="M75.7,10.3 C76.1,10.3 76.5,10 76.5,9.5 C76.5,9.1 76.2,8.7 75.7,8.7 L71.8,8.7 C71.4,8.7 71,9 71,9.5 C71,9.9 71.3,10.3 71.8,10.3 L75.7,10.3 Z" id="Shape"></path>
                <path d="M71.8,6.2 L80.2,6.2 C80.6,6.2 81,5.9 81,5.4 C81,5 80.7,4.6 80.2,4.6 L71.8,4.6 C71.4,4.6 71,4.9 71,5.4 C71.1,5.8 71.4,6.2 71.8,6.2 Z" id="Shape"></path>
                <path d="M83.8,6.2 L86.5,6.2 C86.9,6.2 87.3,5.9 87.3,5.4 C87.3,5 87,4.6 86.5,4.6 L83.8,4.6 C83.4,4.7 83,5 83,5.4 C83,5.8 83.4,6.2 83.8,6.2 Z" id="Shape"></path>
                <path d="M22.8,15.4 C22.9,15.4 23,15.4 23.1,15.3 C25,14.6 26.9,14.1 28.9,13.9 C29.3,13.8 29.6,13.5 29.6,13.1 C29.5,12.7 29.2,12.4 28.8,12.4 C26.7,12.7 24.6,13.2 22.7,13.9 C22.3,14 22.1,14.5 22.3,14.9 C22.2,15.2 22.5,15.4 22.8,15.4 Z" id="Shape"></path>
                <path d="M34.8,13.9 C36.8,14.1 38.7,14.6 40.6,15.3 C40.7,15.3 40.8,15.3 40.9,15.3 C41.2,15.3 41.5,15.1 41.6,14.8 C41.7,14.4 41.5,14 41.2,13.8 C39.2,13.1 37.2,12.6 35.1,12.3 C34.7,12.3 34.3,12.5 34.3,13 C34.1,13.5 34.4,13.9 34.8,13.9 Z" id="Shape"></path>
                <path d="M23.1,61.6 C21.2,60.9 19.5,60 17.8,58.8 C17.5,58.6 17,58.6 16.8,59 C16.6,59.3 16.7,59.8 17,60 C18.7,61.2 20.6,62.2 22.6,62.9 C22.7,62.9 22.8,62.9 22.9,62.9 C23.2,62.9 23.5,62.7 23.6,62.4 C23.7,62.2 23.5,61.8 23.1,61.6 Z" id="Shape"></path>
                <path d="M31.9,64.7 C33,64.7 34,64.6 35.1,64.5 C35.5,64.5 35.8,64.1 35.8,63.7 C35.7,63.3 35.4,63 35,63 C33,63.2 31,63.2 29,63 C28.6,62.9 28.2,63.2 28.2,63.7 C28.2,64.1 28.4,64.5 28.9,64.5 C29.8,64.7 30.8,64.7 31.9,64.7 Z" id="Shape"></path>
                <path d="M51.5,55.9 C52.9,54.3 54.1,52.6 55.1,50.7 C55.3,50.3 55.2,49.9 54.8,49.7 C54.4,49.5 54,49.6 53.8,50 C52.9,51.8 51.7,53.4 50.4,54.9 C50.1,55.2 50.2,55.7 50.5,56 C50.6,56.1 50.8,56.2 51,56.2 C51.2,56.1 51.4,56 51.5,55.9 Z" id="Shape"></path>
                <path d="M40.9,63.1 C41,63.1 41.1,63.1 41.2,63.1 C43.2,62.3 45.1,61.4 46.8,60.2 C47.1,60 47.2,59.5 47,59.2 C46.8,58.9 46.3,58.8 46,59 C44.4,60.1 42.6,61.1 40.7,61.8 C40.3,61.9 40.1,62.4 40.3,62.8 C40.3,62.9 40.6,63.1 40.9,63.1 Z" id="Shape"></path>
                <path d="M55.9,32.5 C56,32.8 56.3,33.1 56.6,33.1 C56.7,33.1 56.7,33.1 56.8,33.1 C57.2,33 57.4,32.6 57.3,32.2 C56.8,30.2 56,28.2 55,26.3 C54.8,25.9 54.3,25.8 54,26 C53.6,26.2 53.5,26.7 53.7,27 C54.7,28.7 55.4,30.5 55.9,32.5 Z" id="Shape"></path>
                <path d="M12.8,22.4 C13,22.4 13.2,22.3 13.4,22.1 C14.7,20.6 16.2,19.3 17.9,18.1 C18.2,17.9 18.3,17.4 18.1,17.1 C17.9,16.8 17.4,16.7 17.1,16.9 C15.4,18.1 13.8,19.5 12.4,21.1 C12.1,21.4 12.2,21.9 12.5,22.2 C12.4,22.3 12.6,22.4 12.8,22.4 Z" id="Shape"></path>
                <path d="M56.6,38.4 L56.6,38.5 C56.6,40.5 56.4,42.5 55.9,44.4 C55.8,44.8 56,45.2 56.5,45.3 C56.6,45.3 56.6,45.3 56.7,45.3 C57,45.3 57.3,45.1 57.4,44.7 C57.9,42.7 58.2,40.5 58.2,38.4 L58.2,38.3 C58.2,37.9 57.9,37.5 57.4,37.5 C56.9,37.6 56.6,38 56.6,38.4 Z" id="Shape"></path>
                <path d="M50.3,22 C50.4,22.2 50.7,22.3 50.9,22.3 C51.1,22.3 51.3,22.2 51.4,22.1 C51.7,21.8 51.7,21.3 51.5,21 C50.1,19.4 48.5,18 46.8,16.8 C46.5,16.6 46,16.7 45.8,17 C45.6,17.3 45.7,17.8 46,18 C47.5,19.2 49,20.5 50.3,22 Z" id="Shape"></path>
                <path d="M6.9,33.2 C7,33.2 7,33.2 7.1,33.2 C7.4,33.2 7.7,33 7.8,32.6 C8.3,30.7 9,28.8 9.9,27 C10.1,26.6 10,26.2 9.6,26 C9.2,25.8 8.8,26 8.6,26.3 C7.6,28.2 6.9,30.2 6.4,32.2 C6.3,32.7 6.5,33.1 6.9,33.2 Z" id="Shape"></path>
                <path d="M7.1,45.4 C7.2,45.4 7.2,45.4 7.3,45.4 C7.7,45.3 8,44.9 7.9,44.5 C7.4,42.6 7.2,40.6 7.2,38.6 C7.2,38.2 6.9,37.8 6.4,37.8 C6.4,37.8 6.4,37.8 6.4,37.8 C6,37.8 5.6,38.1 5.6,38.6 C5.6,40.7 5.9,42.8 6.4,44.9 C6.5,45.2 6.8,45.4 7.1,45.4 Z" id="Shape"></path>
                <path d="M12.8,56.2 C13,56.2 13.2,56.1 13.3,56 C13.6,55.7 13.6,55.2 13.4,54.9 C12.1,53.4 10.9,51.8 10,50 C9.8,49.6 9.4,49.5 9,49.7 C8.6,49.9 8.5,50.3 8.7,50.7 C9.7,52.6 10.9,54.3 12.3,55.9 C12.4,56.1 12.6,56.2 12.8,56.2 Z" id="Shape"></path>
                <path d="M31.1,40.7 L31.1,46 C31.1,46.4 31.4,46.7 31.9,46.7 C31.9,46.7 31.9,46.7 31.9,46.7 C32.3,46.7 32.7,46.4 32.6,45.9 L32.6,40.6 C33.5,40.3 34.2,39.4 34.2,38.4 C34.2,37.8 34,37.2 33.6,36.8 L38.5,27.5 C38.7,27.1 38.6,26.7 38.2,26.5 C37.8,26.3 37.4,26.4 37.2,26.8 L32.3,36.1 C32.2,36.1 32,36.1 31.9,36.1 C30.6,36.1 29.5,37.2 29.5,38.5 C29.5,39.5 30.2,40.4 31.1,40.7 Z M32.7,38.5 C32.7,38.6 32.7,38.8 32.6,38.9 L32.6,38.7 L32.7,38.5 Z M31.4,37.8 L31.3,38 C31.2,38.1 31.2,38.3 31.2,38.4 L31.2,38.7 C31.2,38.6 31.1,38.5 31.1,38.4 C31,38.2 31.2,38 31.4,37.8 Z" id="Shape"></path>
                <path d="M31.9,58.4 C42.9,58.4 51.8,49.5 51.8,38.5 C51.8,27.5 42.9,18.6 31.9,18.6 C20.9,18.6 12,27.5 12,38.5 C12,49.4 20.9,58.4 31.9,58.4 Z M31.9,20.1 C42,20.1 50.3,28.3 50.3,38.5 C50.3,48.6 42.1,56.9 31.9,56.9 C21.7,56.9 13.5,48.7 13.5,38.5 C13.5,28.4 21.8,20.1 31.9,20.1 Z" id="Shape"></path>
                <path d="M31.9,25.5 C32.3,25.5 32.7,25.2 32.7,24.7 L32.7,22.6 C32.7,22.2 32.4,21.8 31.9,21.8 C31.5,21.8 31.1,22.1 31.1,22.6 L31.1,24.7 C31.1,25.1 31.5,25.5 31.9,25.5 Z" id="Shape"></path>
                <path d="M18.1,37.7 L16,37.7 C15.6,37.7 15.2,38 15.2,38.5 C15.2,38.9 15.5,39.3 16,39.3 L18.1,39.3 C18.5,39.3 18.9,39 18.9,38.5 C18.8,38.1 18.5,37.7 18.1,37.7 Z" id="Shape"></path>
                <path d="M31.9,51.5 C31.5,51.5 31.1,51.8 31.1,52.3 L31.1,54.4 C31.1,54.8 31.4,55.2 31.9,55.2 C32.3,55.2 32.7,54.9 32.7,54.4 L32.7,52.3 C32.6,51.8 32.3,51.5 31.9,51.5 Z" id="Shape"></path>
                <path d="M45.7,39.2 L47.8,39.2 C48.2,39.2 48.6,38.9 48.6,38.4 C48.6,38 48.3,37.6 47.8,37.6 L45.7,37.6 C45.3,37.6 44.9,37.9 44.9,38.4 C44.9,38.9 45.2,39.2 45.7,39.2 Z" id="Shape"></path>
                <path d="M87.4,17.4 C87.4,17.4 87.4,17.4 87.4,17.4 C87.4,17.4 87.4,17.4 87.4,17.4 C87.4,17.4 87.4,17.4 87.4,17.4 C87.4,17.4 87.4,17.4 87.4,17.4 C86.9,17.6 86.4,17.9 86,18.1 C85,18.7 84.1,19.4 83.3,20.2 C82.9,20.6 82.6,20.9 82.3,21.3 C81.4,22.3 80.7,23.5 80.2,24.8 C79.5,26.5 79.1,28.4 79.1,30.3 C79.1,32.1 79.5,33.9 80.1,35.6 C80.8,37.3 81.8,38.8 83,40.1 C84.3,41.4 85.9,42.5 87.6,43.2 C89.3,43.9 91.2,44.3 93,44.3 C93,44.3 93,44.3 93,44.3 C94.8,44.3 96.6,43.9 98.3,43.3 C99.6,42.8 100.8,42 101.9,41.2 C102.2,41 102.5,40.7 102.8,40.4 C102.9,40.3 103,40.2 103,40.2 C103.8,39.4 104.5,38.5 105,37.5 C105.3,37.1 105.5,36.6 105.7,36.1 C105.7,36.1 105.7,36.1 105.7,36.1 C105.7,36 105.8,36 105.8,35.8 C106.5,34.1 106.9,32.2 106.9,30.3 C106.9,28.5 106.5,26.7 105.9,25 C105.7,24.6 105.3,24.4 104.9,24.6 C104.5,24.8 104.3,25.2 104.5,25.6 C105.1,27.1 105.4,28.7 105.4,30.3 C105.4,32 105.1,33.6 104.4,35.2 L104.3,35.3 C104.3,35.3 104.3,35.3 104.3,35.3 C104.3,35.3 104.3,35.3 104.3,35.3 C104.1,35.8 103.9,36.2 103.6,36.6 C103.1,37.5 102.5,38.3 101.8,39 L101.6,39.2 C101.3,39.4 101.1,39.7 100.8,39.9 C99.8,40.7 98.7,41.4 97.6,41.8 C96.1,42.4 94.5,42.7 92.9,42.7 C92.9,42.7 92.9,42.7 92.9,42.7 C91.2,42.7 89.6,42.4 88.1,41.7 C86.5,41 85.2,40.1 84,38.9 C82.9,37.7 82,36.4 81.4,34.9 C80.8,33.4 80.5,31.8 80.5,30.2 C80.5,28.5 80.8,26.9 81.5,25.3 C82,24.2 82.6,23.1 83.4,22.2 C83.7,21.9 84,21.5 84.3,21.2 C85,20.5 85.8,19.9 86.7,19.4 C87.1,19.2 87.5,18.9 88,18.7 C88,18.7 88,18.7 88,18.7 C88,18.7 88,18.7 88,18.7 C88.1,18.7 88.2,18.6 88.3,18.6 C89.8,18 91.4,17.7 93,17.7 C94.7,17.7 96.3,18 97.9,18.7 C99.3,19.3 100.5,20.1 101.5,21.1 L97.6,25 C97,24.5 96.4,24.1 95.7,23.8 C95,23.5 94.3,23.3 93.6,23.3 C93.6,23.3 93.6,23.3 93.6,23.3 C93.6,23.3 93.6,23.3 93.6,23.3 C93.6,23.3 93.6,23.3 93.6,23.3 C93.6,23.3 93.6,23.3 93.6,23.3 C93.4,23.3 93.2,23.3 93,23.3 C93,23.3 93,23.3 93,23.3 C92.5,23.3 91.9,23.4 91.5,23.5 C91.1,23.6 90.7,23.7 90.4,23.8 C89.6,24.1 88.8,24.6 88.2,25.2 C88.2,25.2 88.1,25.3 88.1,25.3 C87.7,25.7 87.4,26.1 87.1,26.5 C86.9,26.9 86.7,27.2 86.5,27.6 C86.1,28.5 85.9,29.4 85.9,30.3 C85.9,31.2 86.1,32.1 86.4,33 C86.7,33.8 87.2,34.6 87.9,35.3 C88.6,36 89.3,36.5 90.2,36.9 C91.1,37.3 92,37.4 92.9,37.4 C93.8,37.4 94.7,37.2 95.6,36.9 C96,36.7 96.4,36.5 96.8,36.3 C96.8,36.3 96.8,36.3 96.9,36.3 C97.3,36 97.6,35.8 98,35.4 C98.1,35.3 98.1,35.3 98.2,35.2 C98.8,34.6 99.2,33.9 99.6,33.1 C99.8,32.7 99.9,32.3 100,31.9 C100.1,31.4 100.2,30.9 100.2,30.3 C100.2,30.1 100.2,29.9 100.2,29.7 C100.2,29.3 99.8,29 99.4,29 C99,29 98.7,29.4 98.7,29.8 C98.7,29.9 98.7,30.1 98.7,30.2 C98.7,30.6 98.7,31 98.6,31.4 C98.5,31.7 98.4,32 98.3,32.3 C98,32.9 97.7,33.5 97.2,34 C97.2,34 97.1,34.1 97.1,34.1 C96.9,34.3 96.6,34.5 96.3,34.7 C96.3,34.7 96.3,34.7 96.3,34.7 C96,34.9 95.7,35.1 95.4,35.2 C94.7,35.5 94,35.6 93.3,35.6 C92.5,35.6 91.8,35.5 91.1,35.2 C90.4,34.9 89.8,34.5 89.3,34 C88.8,33.5 88.4,32.9 88.1,32.2 C87.8,31.5 87.7,30.8 87.7,30.1 C87.7,29.4 87.8,28.6 88.1,27.9 C88.2,27.6 88.4,27.3 88.6,27 C88.8,26.7 89.1,26.4 89.4,26 C89.9,25.5 90.5,25.2 91.1,24.9 C91.4,24.8 91.7,24.7 92,24.6 C92.4,24.5 92.8,24.5 93.2,24.5 C93.4,24.5 93.5,24.5 93.7,24.5 C93.7,24.5 93.7,24.5 93.7,24.5 C93.7,24.5 93.7,24.5 93.7,24.5 C94.3,24.5 94.8,24.7 95.4,24.9 C95.9,25.1 96.4,25.4 96.8,25.8 L92.7,29.9 C92.4,30.2 92.4,30.7 92.7,31 C92.8,31.1 93,31.2 93.2,31.2 C93.4,31.2 93.6,31.1 93.7,31 L107.3,17.4 L110.5,18 C110.5,18 110.6,18 110.6,18 C110.8,18 111,17.9 111.1,17.8 L116.7,12.2 C116.9,12 117,11.7 116.9,11.4 C116.8,11.1 116.6,10.9 116.3,10.9 L113.2,10.3 L112.6,7.2 C112.5,6.9 112.3,6.7 112.1,6.6 C111.8,6.5 111.5,6.6 111.3,6.8 L105.7,12.4 C105.5,12.6 105.4,12.8 105.5,13.1 L106.1,16.3 L102.5,19.9 C101.3,18.8 99.9,17.9 98.4,17.2 C96.6,16.5 94.8,16.1 92.9,16.1 C91.1,16.1 89.3,16.5 87.6,17.1 C87.7,17.3 87.5,17.3 87.4,17.4 Z M111.5,9 L111.9,11.2 C112,11.5 112.2,11.7 112.5,11.8 L114.7,12.2 L110.4,16.5 L107.7,16 L107.2,13.3 L111.5,9 Z" id="Shape"></path>
                <path d="M19.1,106.6 C19.3,106.6 19.5,106.5 19.6,106.4 L36.6,89.4 L42.7,95.5 C43,95.8 43.5,95.8 43.8,95.5 C43.8,95.5 43.8,95.5 43.8,95.4 L56.8,82.4 L62.9,88.5 C63.2,88.8 63.7,88.8 64,88.5 C64,88.5 64,88.4 64.1,88.4 C64.1,88.4 64.2,88.4 64.2,88.3 L83.6,68.9 L90.7,76 C90.7,76 90.7,76 90.7,76 C90.8,76.1 91,76.2 91.2,76.2 C91.4,76.2 91.6,76.1 91.7,76 L103.5,64.2 L109,69.7 C109.1,69.8 109.3,69.9 109.5,69.9 C109.6,69.9 109.7,69.9 109.8,69.8 C110.1,69.7 110.3,69.4 110.3,69.1 L110.3,57.3 C110.3,56.9 110,56.5 109.5,56.5 L97.4,56.5 C97.1,56.5 96.8,56.7 96.7,57 C96.6,57.3 96.6,57.6 96.9,57.8 L102.4,63.3 L91.1,74.6 L84,67.5 C83.7,67.2 83.2,67.2 82.9,67.5 L63.5,87 L57.4,80.9 C57.1,80.6 56.6,80.6 56.3,80.9 L43.3,93.9 L37.2,87.8 C36.9,87.5 36.4,87.5 36.1,87.8 L18.6,105.3 C18.3,105.6 18.3,106.1 18.6,106.4 C18.7,106.6 18.9,106.6 19.1,106.6 Z M99.3,58.1 L108.8,58.1 L108.8,67.6 L99.3,58.1 Z" id="Shape"></path>
                <path d="M19.7,118.3 L111.8,118.3 C112.2,118.3 112.6,118 112.6,117.5 L112.6,82.5 C112.6,82.4 112.6,82.3 112.5,82.2 C112.5,82.1 112.4,82 112.3,82 L104.7,74.4 C104.4,74.1 103.9,74.1 103.6,74.4 L91.9,86.3 L84.8,79.2 C84.5,78.9 84,78.9 83.7,79.2 L64.2,98.7 L58.1,92.6 C57.8,92.3 57.3,92.3 57,92.6 L44,105.6 L37.9,99.5 C37.6,99.2 37.1,99.2 36.8,99.5 L19.3,117 C19.3,117 19.3,117 19.3,117 C19.1,117.1 19,117.3 19,117.6 C19,118 19.3,118.3 19.7,118.3 Z M37.3,101 L43.4,107.1 C43.7,107.4 44.2,107.4 44.5,107.1 C44.5,107.1 44.5,107.1 44.5,107 L57.5,94 L63.6,100.1 C63.9,100.4 64.4,100.4 64.7,100.1 C64.7,100.1 64.7,100 64.8,100 C64.8,100 64.9,100 64.9,99.9 L84.3,80.5 L91.4,87.6 C91.4,87.6 91.4,87.6 91.4,87.6 C91.5,87.7 91.7,87.8 91.9,87.8 C92.1,87.8 92.3,87.7 92.4,87.6 L104.2,76 L111.1,82.9 L111.1,116.8 L21.5,116.8 L37.3,101 Z" id="Shape"></path>
                <path d="M119.8,126 L11.1,126 C10.7,126 10.3,126.3 10.3,126.8 C10.3,127.2 10.6,127.6 11.1,127.6 L119.7,127.6 C120.1,127.6 120.5,127.3 120.5,126.8 C120.5,126.3 120.2,126 119.8,126 Z" id="Shape"></path>
                <path d="M105.3,110.1 L58.1,110.1 C57.7,110.1 57.3,110.4 57.3,110.9 C57.3,111.3 57.6,111.7 58.1,111.7 L105.3,111.7 C105.7,111.7 106.1,111.4 106.1,110.9 C106.1,110.4 105.7,110.1 105.3,110.1 Z" id="Shape"></path>
                <path d="M105.3,104.3 L77.4,104.3 C77,104.3 76.6,104.6 76.6,105.1 C76.6,105.5 76.9,105.9 77.4,105.9 L105.3,105.9 C105.7,105.9 106.1,105.6 106.1,105.1 C106.1,104.6 105.7,104.3 105.3,104.3 Z" id="Shape"></path>
            </g>
        </g>
    </g>
</svg>