<?xml version="1.0" encoding="UTF-8"?>
<svg width="115px" height="112px" viewBox="0 0 115 112" version="1.1" xmlns="http://www.w3.org/2000/svg" xmlns:xlink="http://www.w3.org/1999/xlink">
    <!-- Generator: Sketch 48.2 (47327) - http://www.bohemiancoding.com/sketch -->
    <title>Structure</title>
    <desc>Created with Sketch.</desc>
    <defs></defs>
    <g id="Page-1" stroke="none" stroke-width="1" fill="none" fill-rule="evenodd">
        <g id="Structure" transform="translate(0.000000, 1.000000)" fill="#44C7F4" fill-rule="nonzero" stroke="#44C7F4" stroke-width="0.3">
            <g id="Group">
                <path d="M20.2148438,64.3770492 C19.8554688,64.3770492 19.4960938,64.647541 19.4960938,65.0983607 L19.4960938,77.2704918 C19.4960938,77.6311475 19.765625,77.9918033 20.2148438,77.9918033 C20.5742188,77.9918033 20.9335938,77.7213115 20.9335938,77.2704918 L20.9335938,65.0983607 C20.9335938,64.7377049 20.5742188,64.3770492 20.2148438,64.3770492 Z" id="Shape"></path>
                <path d="M20.2148438,82.2295082 C19.8554688,82.2295082 19.4960938,82.5 19.4960938,82.9508197 L19.4960938,87.2786885 C19.4960938,87.6393443 19.765625,88 20.2148438,88 C20.5742188,88 20.9335938,87.7295082 20.9335938,87.2786885 L20.9335938,82.9508197 C20.9335938,82.5 20.5742188,82.2295082 20.2148438,82.2295082 Z" id="Shape"></path>
                <path d="M109.25,29.3934426 C108.890625,29.3934426 108.53125,29.6639344 108.53125,30.1147541 L108.53125,42.2868852 C108.53125,42.647541 108.800781,43.0081967 109.25,43.0081967 C109.609375,43.0081967 109.96875,42.7377049 109.96875,42.2868852 L109.96875,30.0245902 C109.878906,29.6639344 109.609375,29.3934426 109.25,29.3934426 Z" id="Shape"></path>
                <path d="M109.25,47.2459016 C108.890625,47.2459016 108.53125,47.5163934 108.53125,47.9672131 L108.53125,52.295082 C108.53125,52.6557377 108.800781,53.0163934 109.25,53.0163934 C109.609375,53.0163934 109.96875,52.7459016 109.96875,52.295082 L109.96875,47.9672131 C109.878906,47.5163934 109.609375,47.2459016 109.25,47.2459016 Z" id="Shape"></path>
                <path d="M3.86328125,41.295082 C1.9765625,41.295082 0.44921875,42.8278689 0.44921875,44.7213115 C0.44921875,46.6147541 1.9765625,48.147541 3.86328125,48.147541 C5.75,48.147541 7.27734375,46.6147541 7.27734375,44.7213115 C7.27734375,42.8278689 5.75,41.295082 3.86328125,41.295082 Z M3.86328125,46.795082 C2.6953125,46.795082 1.796875,45.8934426 1.796875,44.7213115 C1.796875,43.5491803 2.6953125,42.647541 3.86328125,42.647541 C5.03125,42.647541 5.9296875,43.5491803 5.9296875,44.7213115 C5.9296875,45.8934426 4.94140625,46.795082 3.86328125,46.795082 Z" id="Shape"></path>
                <path d="M108.351562,8.83606557 C108.351562,6.94262295 106.824219,5.40983607 104.9375,5.40983607 C103.050781,5.40983607 101.523438,6.94262295 101.523438,8.83606557 C101.523438,10.7295082 103.050781,12.2622951 104.9375,12.2622951 C106.824219,12.2622951 108.351562,10.7295082 108.351562,8.83606557 Z M104.9375,10.9098361 C103.769531,10.9098361 102.871094,10.0081967 102.871094,8.83606557 C102.871094,7.66393443 103.769531,6.76229508 104.9375,6.76229508 C106.105469,6.76229508 107.003906,7.66393443 107.003906,8.83606557 C107.003906,10.0081967 106.105469,10.9098361 104.9375,10.9098361 Z" id="Shape"></path>
                <path d="M49.953125,6.76229508 L64.1484375,6.76229508 C64.5078125,6.76229508 64.8671875,6.49180328 64.8671875,6.04098361 C64.8671875,5.68032787 64.5976562,5.31967213 64.1484375,5.31967213 L49.953125,5.31967213 C49.59375,5.31967213 49.234375,5.59016393 49.234375,6.04098361 C49.234375,6.49180328 49.5039063,6.76229508 49.953125,6.76229508 Z" id="Shape"></path>
                <path d="M68.7304688,6.76229508 L73.3125,6.76229508 C73.671875,6.76229508 74.03125,6.49180328 74.03125,6.04098361 C74.03125,5.68032787 73.671875,5.40983607 73.3125,5.40983607 L68.7304688,5.40983607 C68.3710938,5.40983607 68.0117188,5.68032787 68.0117188,6.13114754 C68.0117188,6.49180328 68.3710938,6.76229508 68.7304688,6.76229508 Z" id="Shape"></path>
                <path d="M73.3125,10.2786885 L63.4296875,10.2786885 C63.0703125,10.2786885 62.7109375,10.5491803 62.7109375,11 C62.7109375,11.4508197 62.9804688,11.7213115 63.4296875,11.7213115 L73.3125,11.7213115 C73.671875,11.7213115 74.03125,11.4508197 74.03125,11 C74.03125,10.5491803 73.671875,10.2786885 73.3125,10.2786885 Z" id="Shape"></path>
                <path d="M55.9726562,10.2786885 C55.6132812,10.2786885 55.2539062,10.5491803 55.2539062,11 C55.2539062,11.4508197 55.5234375,11.7213115 55.9726562,11.7213115 L59.2070312,11.7213115 C59.5664062,11.7213115 59.9257812,11.4508197 59.9257812,11 C59.9257812,10.5491803 59.65625,10.2786885 59.2070312,10.2786885 L55.9726562,10.2786885 Z" id="Shape"></path>
                <path d="M2.96484375,92.9590164 C2.6953125,92.6885246 2.24609375,92.6885246 1.9765625,92.9590164 C1.70703125,93.2295082 1.70703125,93.6803279 1.9765625,93.9508197 L3.4140625,95.3934426 C3.50390625,95.4836066 3.68359375,95.5737705 3.86328125,95.5737705 C4.04296875,95.5737705 4.22265625,95.4836066 4.3125,95.3934426 C4.58203125,95.1229508 4.58203125,94.6721311 4.3125,94.4016393 L2.96484375,92.9590164 Z" id="Shape"></path>
                <path d="M7.7265625,97.647541 C7.45703125,97.3770492 7.0078125,97.3770492 6.73828125,97.647541 C6.46875,97.9180328 6.46875,98.3688525 6.73828125,98.6393443 L8.17578125,100.081967 C8.265625,100.172131 8.4453125,100.262295 8.625,100.262295 C8.8046875,100.262295 8.984375,100.172131 9.07421875,100.081967 C9.34375,99.8114754 9.34375,99.3606557 9.07421875,99.0901639 L7.7265625,97.647541 Z" id="Shape"></path>
                <path d="M3.50390625,97.647541 L2.06640625,99.1803279 C1.796875,99.4508197 1.796875,99.9016393 2.06640625,100.172131 C2.15625,100.262295 2.3359375,100.352459 2.515625,100.352459 C2.6953125,100.352459 2.875,100.262295 2.96484375,100.172131 L4.40234375,98.7295082 C4.671875,98.4590164 4.671875,98.0081967 4.40234375,97.7377049 C4.22265625,97.3770492 3.7734375,97.3770492 3.50390625,97.647541 Z" id="Shape"></path>
                <path d="M8.265625,92.9590164 L6.828125,94.4016393 C6.55859375,94.6721311 6.55859375,95.1229508 6.828125,95.3934426 C6.91796875,95.4836066 7.09765625,95.5737705 7.27734375,95.5737705 C7.45703125,95.5737705 7.63671875,95.4836066 7.7265625,95.3934426 L9.1640625,93.9508197 C9.43359375,93.6803279 9.43359375,93.2295082 9.1640625,92.9590164 C8.89453125,92.6885246 8.53515625,92.6885246 8.265625,92.9590164 Z" id="Shape"></path>
                <path d="M72.6835938,50.0409836 C72.4140625,50.3114754 72.4140625,50.7622951 72.6835938,51.0327869 L74.1210938,52.4754098 C74.2109375,52.5655738 74.390625,52.6557377 74.5703125,52.6557377 C74.75,52.6557377 74.9296875,52.5655738 75.0195312,52.4754098 C75.2890625,52.204918 75.2890625,51.7540984 75.0195312,51.4836066 L73.671875,50.0409836 C73.4023438,49.7704918 72.953125,49.7704918 72.6835938,50.0409836 Z" id="Shape"></path>
                <path d="M77.4453125,55.8114754 L78.8828125,57.2540984 C78.9726562,57.3442623 79.1523438,57.4344262 79.3320312,57.4344262 C79.5117188,57.4344262 79.6914062,57.3442623 79.78125,57.2540984 C80.0507812,56.9836066 80.0507812,56.5327869 79.78125,56.2622951 L78.34375,54.8196721 C78.0742188,54.5491803 77.625,54.5491803 77.3554688,54.8196721 C77.1757812,55.0901639 77.1757812,55.5409836 77.4453125,55.8114754 Z" id="Shape"></path>
                <path d="M74.1210938,54.8196721 L72.6835938,56.2622951 C72.4140625,56.5327869 72.4140625,56.9836066 72.6835938,57.2540984 C72.7734375,57.3442623 72.953125,57.4344262 73.1328125,57.4344262 C73.3125,57.4344262 73.4921875,57.3442623 73.5820313,57.2540984 L75.0195312,55.8114754 C75.2890625,55.5409836 75.2890625,55.0901639 75.0195312,54.8196721 C74.8398438,54.5491803 74.390625,54.5491803 74.1210938,54.8196721 Z" id="Shape"></path>
                <path d="M77.8945312,52.6557377 C78.0742188,52.6557377 78.2539063,52.5655738 78.34375,52.4754098 L79.78125,51.0327869 C80.0507812,50.7622951 80.0507812,50.3114754 79.78125,50.0409836 C79.5117188,49.7704918 79.0625,49.7704918 78.7929688,50.0409836 L77.3554688,51.4836066 C77.0859375,51.7540984 77.0859375,52.204918 77.3554688,52.4754098 C77.5351562,52.6557377 77.7148438,52.6557377 77.8945312,52.6557377 Z" id="Shape"></path>
                <path d="M108.171875,96.295082 C107.902344,96.0245902 107.453125,96.0245902 107.183594,96.295082 C106.914063,96.5655738 106.914063,97.0163934 107.183594,97.2868852 L108.621094,98.7295082 C108.710938,98.8196721 108.890625,98.9098361 109.070312,98.9098361 C109.25,98.9098361 109.429688,98.8196721 109.519531,98.7295082 C109.789062,98.4590164 109.789062,98.0081967 109.519531,97.7377049 L108.171875,96.295082 Z" id="Shape"></path>
                <path d="M112.933594,100.983607 C112.664063,100.713115 112.214844,100.713115 111.945313,100.983607 C111.675781,101.254098 111.675781,101.704918 111.945313,101.97541 L113.382812,103.418033 C113.472656,103.508197 113.652344,103.598361 113.832031,103.598361 C114.011719,103.598361 114.191406,103.508197 114.28125,103.418033 C114.550781,103.147541 114.550781,102.696721 114.28125,102.42623 L112.933594,100.983607 Z" id="Shape"></path>
                <path d="M108.621094,100.983607 L107.183594,102.42623 C106.914063,102.696721 106.914063,103.147541 107.183594,103.418033 C107.273438,103.508197 107.453125,103.598361 107.632813,103.598361 C107.8125,103.598361 107.992188,103.508197 108.082031,103.418033 L109.519531,101.97541 C109.789062,101.704918 109.789062,101.254098 109.519531,100.983607 C109.339844,100.713115 108.890625,100.713115 108.621094,100.983607 Z" id="Shape"></path>
                <path d="M112.394531,98.9098361 C112.574219,98.9098361 112.753906,98.8196721 112.84375,98.7295082 L114.28125,97.2868852 C114.550781,97.0163934 114.550781,96.5655738 114.28125,96.295082 C114.011719,96.0245902 113.5625,96.0245902 113.292969,96.295082 L111.855469,97.7377049 C111.585938,98.0081967 111.585938,98.4590164 111.855469,98.7295082 C112.035156,98.8196721 112.214844,98.9098361 112.394531,98.9098361 Z" id="Shape"></path>
                <path d="M27.671875,18.9344262 L43.84375,25.8770492 C43.9335938,25.8770492 44.0234375,25.9672131 44.1132812,25.9672131 C44.203125,25.9672131 44.2929688,25.9672131 44.3828125,25.8770492 C44.5625,25.7868852 44.6523437,25.6967213 44.7421875,25.5163934 C48.6953125,16.2295082 44.2929688,5.40983607 35.0390625,1.44262295 C32.703125,0.450819672 30.4570312,-4.4408921e-16 27.8515625,-4.4408921e-16 C27.4921875,-4.4408921e-16 27.1328125,0.270491803 27.1328125,0.721311475 L27.1328125,18.3934426 C27.2226562,18.6639344 27.4023438,18.8442623 27.671875,18.9344262 Z M28.5703125,1.35245902 C30.6367188,1.44262295 32.5234375,1.89344262 34.5,2.70491803 C42.8554688,6.31147541 46.8984375,15.8688525 43.7539062,24.3442623 L28.5703125,17.852459 L28.5703125,1.35245902 Z" id="Shape"></path>
                <path d="M5.9296875,21.4590164 C5.9296875,21.5491803 5.9296875,21.6393443 5.9296875,21.8196721 C6.01953125,24.3442623 6.6484375,26.7786885 7.7265625,28.942623 C7.81640625,29.1229508 7.90625,29.2131148 7.90625,29.3934426 C7.99609375,29.5737705 8.0859375,29.7540984 8.17578125,29.9344262 C8.265625,30.1147541 8.35546875,30.204918 8.4453125,30.3852459 C8.4453125,30.3852459 8.4453125,30.4754098 8.53515625,30.4754098 C8.71484375,30.7459016 8.8046875,30.9262295 8.984375,31.1967213 C10.2421875,33.1803279 11.859375,34.8032787 13.8359375,36.0655738 C13.9257812,36.1557377 14.015625,36.2459016 14.1953125,36.2459016 C14.375,36.3360656 14.5546875,36.5163934 14.734375,36.6065574 C14.8242188,36.6967213 14.9140625,36.6967213 15.0039062,36.7868852 L15.09375,36.8770492 C15.1835938,36.9672131 15.2734375,36.9672131 15.3632813,36.9672131 C15.5429688,37.057377 15.7226563,37.147541 15.9023438,37.2377049 C16.0820313,37.3278689 16.2617188,37.4180328 16.53125,37.5081967 C18.1484375,38.3196721 19.9453125,38.8606557 21.8320312,39.0409836 C21.921875,39.0409836 21.921875,39.0409836 22.0117188,39.0409836 C22.4609375,39.1311475 22.8203125,39.1311475 23.2695312,39.1311475 C23.359375,39.1311475 23.4492187,39.1311475 23.5390625,39.1311475 C23.5390625,39.1311475 23.5390625,39.1311475 23.5390625,39.1311475 C23.5390625,39.1311475 23.5390625,39.1311475 23.5390625,39.1311475 C23.8085938,39.1311475 23.9882812,39.1311475 24.2578125,39.1311475 C27.8515625,39.1311475 31.265625,38.0491803 34.3203125,36.1557377 C34.4101562,36.1557377 34.4101562,36.0655738 34.4101562,36.0655738 C37.4648438,33.9918033 39.8007812,31.1065574 41.2382812,27.6803279 C41.328125,27.5 41.328125,27.3196721 41.2382812,27.1393443 C41.1484375,26.9590164 41.0585937,26.8688525 40.8789062,26.7786885 L24.9765625,20.3770492 L24.9765625,3.1557377 C24.9765625,2.79508197 24.7070312,2.43442623 24.2578125,2.43442623 C21.7421875,2.43442623 19.4960938,2.8852459 17.0703125,3.87704918 C14.5546875,4.95901639 12.3085938,6.58196721 10.5117188,8.6557377 C8.89453125,10.4590164 7.7265625,12.5327869 6.91796875,14.8770492 C6.2890625,16.7704918 6.01953125,18.6639344 5.9296875,20.647541 C5.9296875,20.7377049 5.9296875,20.7377049 5.9296875,20.8278689 C5.9296875,21.0983607 5.9296875,21.2786885 5.9296875,21.4590164 Z M33.0625,35.3442623 C33.0625,35.3442623 33.0625,35.3442623 33.0625,35.3442623 C30.3671875,36.9672131 27.3125,37.8688525 24.2578125,37.8688525 C23.8984375,37.8688525 23.6289062,37.8688525 23.359375,37.7786885 C22.9101562,37.7786885 22.5507812,37.6885246 22.1015625,37.6885246 C22.1015625,37.6885246 22.0117187,37.6885246 22.0117187,37.6885246 C20.5742187,37.5081967 19.2265625,37.147541 17.8789062,36.6065574 C17.609375,36.5163934 17.25,36.3360656 16.9804687,36.2459016 C16.8007812,36.1557377 16.6210937,36.0655738 16.53125,35.9754098 C16.3515625,35.8852459 16.171875,35.795082 15.9921875,35.704918 C15.6328125,35.5245902 15.2734375,35.2540984 14.9140625,35.0737705 C14.8242187,34.9836066 14.734375,34.9836066 14.6445312,34.8934426 C12.4882812,33.4508197 10.78125,31.4672131 9.5234375,29.2131148 C9.43359375,29.0327869 9.34375,28.852459 9.25390625,28.6721311 C9.1640625,28.5819672 9.1640625,28.4918033 9.07421875,28.3114754 C9.07421875,28.2213115 8.984375,28.1311475 8.984375,28.0409836 L24.2578125,21.5491803 L39.7109375,27.7704918 C38.1835937,31.0163934 35.9375,33.5409836 33.0625,35.3442623 Z M8.17578125,15.4180328 C8.89453125,13.2540984 9.97265625,11.3606557 11.5,9.64754098 C13.2070312,7.75409836 15.2734375,6.22131148 17.609375,5.2295082 C19.5859375,4.41803279 21.4726563,3.96721311 23.5390625,3.87704918 L23.5390625,20.3770492 L8.35546875,26.8688525 C7.0078125,23.1721311 6.91796875,19.1147541 8.17578125,15.4180328 Z" id="Shape"></path>
                <path d="M92.8984375,25.3360656 C93.5273438,25.8770492 93.8867188,26.6885246 93.8867188,27.4098361 C93.8867188,27.7704918 94.15625,28.1311475 94.6054688,28.1311475 C94.9648438,28.1311475 95.3242188,27.8606557 95.3242188,27.4098361 C95.3242188,26.2377049 94.7851562,25.1557377 93.796875,24.2540984 C92.9882812,23.6229508 92.0898438,23.1721311 91.0117188,23.0819672 L91.0117188,21.0983607 C91.0117188,20.7377049 90.7421875,20.3770492 90.2929688,20.3770492 C89.9335938,20.3770492 89.5742188,20.647541 89.5742188,21.0983607 L89.5742188,23.0819672 C88.4960938,23.1721311 87.5976563,23.6229508 86.7890625,24.2540984 C85.8007813,25.0655738 85.2617188,26.2377049 85.2617188,27.4098361 C85.2617188,28.5819672 85.8007813,29.6639344 86.7890625,30.5655738 C87.5976563,31.1967213 88.4960938,31.647541 89.5742188,31.7377049 L89.5742188,37.7786885 C88.8554688,37.6885246 88.2265625,37.4180328 87.6875,36.9672131 C87.0585938,36.4262295 86.6992188,35.6147541 86.6992188,34.8934426 C86.6992188,34.5327869 86.4296875,34.1721311 85.9804688,34.1721311 C85.6210938,34.1721311 85.2617188,34.442623 85.2617188,34.8934426 C85.2617188,36.0655738 85.8007813,37.147541 86.7890625,38.0491803 C87.5976563,38.6803279 88.4960938,39.1311475 89.5742188,39.2213115 L89.5742188,41.204918 C89.5742188,41.5655738 89.84375,41.9262295 90.2929688,41.9262295 C90.6523438,41.9262295 91.0117188,41.6557377 91.0117188,41.204918 L91.0117188,39.2213115 C92.0898438,39.1311475 92.9882813,38.6803279 93.796875,38.0491803 C94.7851562,37.2377049 95.234375,36.0655738 95.234375,34.8934426 C95.234375,33.7213115 94.6953125,32.6393443 93.7070312,31.7377049 C92.8984375,31.1065574 92,30.6557377 90.921875,30.5655738 L90.921875,24.5245902 C91.640625,24.6147541 92.359375,24.8852459 92.8984375,25.3360656 Z M87.6875,29.4836066 C87.0585938,28.942623 86.6992188,28.1311475 86.6992188,27.4098361 C86.6992188,26.5983607 87.0585938,25.8770492 87.6875,25.3360656 C88.2265625,24.8852459 88.8554688,24.6147541 89.5742188,24.5245902 L89.5742188,30.3852459 C88.9453125,30.295082 88.2265625,29.9344262 87.6875,29.4836066 Z M92.8984375,32.7295082 C93.5273438,33.2704918 93.8867188,34.0819672 93.8867188,34.8032787 C93.8867188,35.6147541 93.5273438,36.3360656 92.8984375,36.8770492 C92.359375,37.3278689 91.7304688,37.5983607 91.0117188,37.6885246 L91.0117188,31.8278689 C91.7304688,31.9180328 92.359375,32.2786885 92.8984375,32.7295082 Z" id="Shape"></path>
                <path d="M90.2929688,16.7704918 C82.4765625,16.7704918 76.0078125,23.1721311 76.0078125,31.1065574 C76.0078125,38.9508197 82.3867188,45.442623 90.2929688,45.442623 C98.1992188,45.442623 104.578125,39.0409836 104.578125,31.1065574 C104.578125,23.2622951 98.109375,16.7704918 90.2929688,16.7704918 Z M90.2929688,44 C83.1953125,44 77.3554688,38.2295082 77.3554688,31.1065574 C77.3554688,23.9836066 83.1054688,18.1229508 90.2929688,18.1229508 C97.4804688,18.1229508 103.140625,23.8934426 103.140625,31.1065574 C103.230469,38.2295082 97.390625,44 90.2929688,44 Z" id="Shape"></path>
                <path d="M22.7304688,99.7213115 L37.375,85.0245902 L42.6757813,90.3442623 C42.9453125,90.6147541 43.3945312,90.6147541 43.6640625,90.3442623 C43.6640625,90.3442623 43.6640625,90.3442623 43.6640625,90.2540984 L54.8046875,79.0737705 L60.1054688,84.3934426 C60.375,84.6639344 60.8242188,84.6639344 61.09375,84.3934426 C61.09375,84.3934426 61.09375,84.3032787 61.1835938,84.3032787 C61.1835938,84.3032787 61.2734375,84.3032787 61.2734375,84.2131148 L77.8945312,67.5327869 L84.0039062,73.6639344 C84.0039062,73.6639344 84.0039062,73.6639344 84.0039062,73.6639344 C84.09375,73.7540984 84.2734375,73.8442623 84.453125,73.8442623 C84.6328125,73.8442623 84.8125,73.7540984 84.9023438,73.6639344 L95.0546875,63.4754098 L99.8164062,68.2540984 C99.90625,68.3442623 100.085937,68.4344262 100.265625,68.4344262 C100.355469,68.4344262 100.445312,68.4344262 100.535156,68.3442623 C100.804688,68.2540984 100.984375,67.9836066 100.984375,67.7131148 L100.984375,57.2540984 C100.984375,56.8934426 100.714844,56.5327869 100.265625,56.5327869 L89.84375,56.5327869 C89.5742188,56.5327869 89.3046875,56.7131148 89.2148438,56.9836066 C89.125,57.2540984 89.125,57.5245902 89.3945313,57.704918 L94.15625,62.4836066 L84.3632813,72.1311475 L78.2539063,66 C77.984375,65.7295082 77.5351563,65.7295082 77.265625,66 L65.8554688,77.5409836 L65.8554688,47.2459016 C67.8320312,46.8852459 69.359375,45.1721311 69.359375,43.0983607 C69.359375,40.7540984 67.4726563,38.8606557 65.1367188,38.8606557 C63.0703125,38.8606557 61.2734375,40.3934426 61.0039063,42.3770492 L41.2382813,42.3770492 C40.8789063,42.3770492 40.5195313,42.647541 40.5195313,43.0983607 C40.5195313,43.5491803 40.7890625,43.8196721 41.2382813,43.8196721 L61.0039063,43.8196721 C61.2734375,45.6229508 62.7109375,46.9754098 64.5078125,47.3360656 L64.5078125,79.0737705 L60.5546875,83.0409836 L55.2539063,77.7213115 C54.984375,77.4508197 54.5351563,77.4508197 54.265625,77.7213115 L47.7070313,84.3032787 L47.7070313,61.4016393 C49.6835938,61.0409836 51.2109375,59.3278689 51.2109375,57.2540984 C51.2109375,54.9098361 49.3242188,53.0163934 46.9882813,53.0163934 C44.921875,53.0163934 43.125,54.5491803 42.8554688,56.5327869 L11.4101562,56.5327869 C11.0507812,56.5327869 10.6914062,56.8032787 10.6914062,57.2540984 C10.6914062,57.6147541 10.9609375,57.9754098 11.4101562,57.9754098 L42.9453125,57.9754098 C43.2148438,59.7786885 44.6523438,61.1311475 46.4492188,61.4918033 L46.4492188,85.295082 C46.4492188,85.3852459 46.4492188,85.4754098 46.5390625,85.5655738 L43.125,88.9918033 L37.9140625,83.7622951 C37.6445313,83.4918033 37.1953125,83.4918033 36.9257813,83.7622951 L21.8320312,98.9098361 C21.5625,99.1803279 21.5625,99.6311475 21.8320312,99.9016393 C21.921875,99.9918033 22.1015625,100.081967 22.28125,100.081967 C22.4609375,99.9016393 22.640625,99.8114754 22.7304688,99.7213115 Z M99.546875,57.8852459 L99.546875,66 L95.5039063,61.942623 L91.4609375,57.8852459 L99.546875,57.8852459 Z M62.2617188,43.0081967 C62.2617188,41.3852459 63.5195313,40.1229508 65.1367188,40.1229508 C66.7539062,40.1229508 68.0117188,41.3852459 68.0117188,43.0081967 C68.0117188,44.6311475 66.7539062,45.8934426 65.1367188,45.8934426 C65.1367188,45.8934426 65.1367188,45.8934426 65.1367188,45.8934426 C65.1367188,45.8934426 65.1367188,45.8934426 65.1367188,45.8934426 C63.609375,45.8934426 62.2617188,44.6311475 62.2617188,43.0081967 Z M44.203125,57.2540984 C44.203125,55.6311475 45.4609375,54.3688525 47.078125,54.3688525 C48.6953125,54.3688525 49.953125,55.6311475 49.953125,57.2540984 C49.953125,58.8770492 48.6953125,60.1393443 47.078125,60.1393443 C47.078125,60.1393443 47.078125,60.1393443 47.078125,60.1393443 C47.078125,60.1393443 47.078125,60.1393443 47.078125,60.1393443 C45.5507813,60.0491803 44.203125,58.7868852 44.203125,57.2540984 Z" id="Shape"></path>
                <path d="M102.691406,78.6229508 C102.691406,78.6229508 102.691406,78.6229508 102.691406,78.6229508 L96.1328125,72.0409836 C95.8632812,71.7704918 95.4140625,71.7704918 95.1445312,72.0409836 L84.9921875,82.2295082 L78.8828125,76.0983607 C78.6132812,75.8278689 78.1640625,75.8278689 77.8945312,76.0983607 L61.09375,92.9590164 L55.7929688,87.6393443 C55.5234375,87.3688525 55.0742188,87.3688525 54.8046875,87.6393443 L43.5742188,98.9098361 L38.3632812,93.6803279 C38.09375,93.4098361 37.6445313,93.4098361 37.375,93.6803279 L22.4609375,108.737705 C22.4609375,108.737705 22.4609375,108.737705 22.4609375,108.737705 C22.28125,108.827869 22.1914062,109.008197 22.1914062,109.278689 C22.1914062,109.639344 22.4609375,110 22.9101562,110 L102.242187,110 C102.601562,110 102.960937,109.729508 102.960937,109.278689 L102.960937,79.0737705 C102.960937,78.9836066 102.960937,78.8934426 102.871094,78.8032787 C102.78125,78.7131148 102.78125,78.7131148 102.691406,78.6229508 Z M24.5273438,108.647541 L38.0039062,95.1229508 L43.3046875,100.442623 C43.5742187,100.713115 44.0234375,100.713115 44.2929688,100.442623 C44.2929688,100.442623 44.2929688,100.442623 44.2929688,100.352459 L55.4335938,89.1721311 L60.734375,94.4918033 C61.0039062,94.7622951 61.453125,94.7622951 61.7226562,94.4918033 C61.7226562,94.4918033 61.7226562,94.4016393 61.8125,94.4016393 C61.8125,94.4016393 61.9023437,94.4016393 61.9023437,94.3114754 L78.4335938,77.5409836 L84.5429687,83.6721311 C84.5429687,83.6721311 84.5429687,83.6721311 84.5429687,83.6721311 C84.6328125,83.7622951 84.8125,83.852459 84.9921875,83.852459 C85.171875,83.852459 85.3515625,83.7622951 85.4414062,83.6721311 L95.59375,73.4836066 L101.523437,79.3442623 L101.523437,108.647541 L24.5273438,108.647541 Z" id="Shape"></path>
                <path d="M96.5820312,100.893443 L55.9726562,100.893443 C55.6132812,100.893443 55.2539062,101.163934 55.2539062,101.614754 C55.2539062,102.065574 55.5234375,102.336066 55.9726562,102.336066 L96.671875,102.336066 C97.03125,102.336066 97.390625,102.065574 97.390625,101.614754 C97.390625,101.163934 96.9414062,100.893443 96.5820312,100.893443 Z" id="Shape"></path>
                <path d="M96.5820312,95.8442623 L72.5039062,95.8442623 C72.1445312,95.8442623 71.7851562,96.1147541 71.7851562,96.5655738 C71.7851562,96.9262295 72.0546875,97.2868852 72.5039062,97.2868852 L96.5820312,97.2868852 C96.9414062,97.2868852 97.3007812,97.0163934 97.3007812,96.5655738 C97.3007812,96.1147541 96.9414062,95.8442623 96.5820312,95.8442623 Z" id="Shape"></path>
            </g>
        </g>
    </g>
</svg>