<?xml version="1.0" encoding="UTF-8"?>
<svg width="212px" height="232px" viewBox="0 0 212 232" version="1.1" xmlns="http://www.w3.org/2000/svg" xmlns:xlink="http://www.w3.org/1999/xlink">
    <!-- Generator: Sketch 47 (45396) - http://www.bohemiancoding.com/sketch -->
    <title>success-icon</title>
    <desc>Created with Sketch.</desc>
    <defs></defs>
    <g id="Page-1" stroke="none" stroke-width="1" fill="none" fill-rule="evenodd">
        <g id="Step---Success-Page" transform="translate(-694.000000, -395.000000)">
            <g id="Group" transform="translate(351.000000, 395.000000)">
                <g id="success-icon" transform="translate(343.680851, 0.000000)">
                    <path d="M175.057908,13.9148936 C175.925406,13.0542317 176.961728,12.6264775 178.174666,12.6264775 C179.301893,12.6264775 180.252505,13.0542317 181.034291,13.9148936 C181.813481,14.43026 182.200478,15.4171868 182.200478,16.8756738 C182.200478,17.9064066 181.899192,18.852104 181.291424,19.712766 L181.031694,19.8416076 C180.338215,20.5296217 179.385007,20.8723404 178.172069,20.8723404 C176.95913,20.8723404 176.008519,20.5270449 175.31504,19.8416076 L175.052713,19.712766 C174.359235,18.9397163 174.016391,17.9940189 174.016391,16.8756738 C174.018989,15.5898345 174.364429,14.6029078 175.057908,13.9148936 Z" id="Path" fill="#338FFF"></path>
                    <path d="M176.616287,16.8782506 L176.876017,17.9089835 L177.005882,17.9089835 C177.268209,18.0790544 177.655206,18.1666667 178.174666,18.1666667 C178.694126,18.1666667 179.086318,18.0816312 179.34345,17.9089835 L179.473315,17.9089835 L179.60318,16.8782506 C179.60318,16.2778487 179.517469,15.93513 179.34345,15.8500946 C178.995412,15.5047991 178.608415,15.3347281 178.174666,15.3347281 C177.655206,15.3347281 177.224055,15.5047991 176.876017,15.8500946 C176.701998,16.0201655 176.616287,16.365461 176.616287,16.8782506 Z" id="Path" fill="#338FFF"></path>
                    <path d="M195.576565,50.7635934 C195.576565,50.3332624 195.70643,50.0343499 195.96616,49.8617021 C196.225889,49.6014421 196.527176,49.4751773 196.875214,49.4751773 L200.251702,49.4751773 L200.251702,45.8676123 C200.251702,45.5248936 200.423124,45.2234043 200.771161,44.965721 L201.550351,44.5791962 C201.812678,44.5791962 202.155522,44.7106147 202.58927,44.965721 C202.760692,45.135792 202.849,45.4398582 202.849,45.8676123 L202.849,49.4751773 L206.615083,49.4751773 C206.963121,49.4751773 207.264407,49.6040189 207.524137,49.8617021 C207.786464,50.3744917 207.913732,50.6759811 207.913732,50.7635934 L207.524137,51.536643 C207.178696,51.966974 206.874813,52.1808511 206.615083,52.1808511 L202.849,52.1808511 L202.849,55.5307329 C202.849,55.9610638 202.763289,56.2599764 202.58927,56.4352009 C202.326943,56.6928842 201.9841,56.8191489 201.550351,56.8191489 C201.119199,56.8191489 200.856872,56.6903073 200.771161,56.4352009 C200.423124,56.1749409 200.251702,55.8760284 200.251702,55.5307329 L200.251702,52.1808511 L196.875214,52.1808511 C196.615484,52.1808511 196.3116,51.966974 195.96616,51.536643 C195.70643,51.4516076 195.576565,51.1939243 195.576565,50.7635934 Z" id="Path" fill="#03C773"></path>
                    <path d="M146.357761,106.938534 L140.643705,112.092199 C138.391847,113.895981 135.968568,115.48331 133.37127,116.861915 L130.644106,118.408014 L122.073022,121.886738 C110.818928,125.063972 99.3908155,125.151584 87.7886838,122.146998 L87.6588189,122.146998 L86.6198996,121.631631 L84.2823311,120.987423 L79.0877344,118.668274 L78.6981396,118.534279 L74.1528675,116.217707 L69.7374604,112.996667 L69.4777305,112.865248 L69.2180007,112.607565 L65.8415129,110.030733 L62.5948899,106.809693 C54.3692461,98.6488652 49.0473818,89.2460047 46.6215052,78.5933806 C78.8280045,82.2009456 104.889296,71.1231442 124.800185,45.3548227 C129.820763,62.4443735 140.643705,72.1513002 157.266414,74.4704492 L163.240201,74.9858156 C161.333784,87.0969267 155.708035,97.7495508 146.357761,106.938534 Z" id="Path" fill="#FFCA00"></path>
                    <path d="M129.085727,91.0935934 C129.171438,90.578227 129.000017,90.1040898 128.566268,89.6737589 C128.306538,89.3310402 127.828635,89.1609693 127.137754,89.1609693 L81.8148976,89.1609693 C81.121419,89.1609693 80.6461134,89.3310402 80.3863835,89.6737589 C79.9526347,90.1040898 79.781213,90.578227 79.8669239,91.0935934 C80.1266537,97.1903783 82.5083763,102.429078 87.0094943,106.81227 C91.7703422,111.535603 97.5701093,113.898558 104.411393,113.898558 C111.338388,113.898558 117.182309,111.535603 121.943157,106.81227 C126.444275,102.514113 128.825998,97.2754137 129.085727,91.0935934 Z" id="mouth" fill="#F6F9FC"></path>
                    <path d="M143.111138,115.184397 L144.669517,113.767139 L147.91614,118.018913 C149.734249,120.510709 150.643304,122.399527 150.643304,123.687943 L149.993979,124.074468 C148.607022,124.762482 146.269453,125.40669 142.981273,126.007092 C135.534819,127.122861 131.812891,129.184326 131.812891,132.188913 C131.812891,133.562364 133.327116,135.626407 136.358163,138.37331 L138.825596,140.8213 L138.306136,141.210402 C135.449108,142.844113 130.384377,144.905579 123.111941,147.394799 L111.164369,151.51773 L132.85181,121.755319 L135.449108,120.466903 C137.526947,119.263522 140.080091,117.506123 143.111138,115.184397 Z" id="Path" fill="#FFCA00"></path>
                    <path d="M130.514241,33.8853428 C129.387014,33.1122931 128.436403,33.2849409 127.657213,34.4007092 L123.891131,39.6832151 C104.411393,67.1677069 77.9631042,78.7196454 44.5436665,74.3416076 L42.3359629,73.9550827 C41.6424842,70.17487 41.2970436,66.4384634 41.2970436,62.7458629 C41.2970436,45.396052 47.5305596,30.535461 59.9975916,18.1640898 C72.2048938,6.05813239 87.0536484,0 104.541258,0 C113.891532,0 122.462617,1.71874704 130.254512,5.1536643 C137.223063,7.9907565 143.544887,12.3249882 149.344654,18.1666667 C161.637667,30.5380378 167.785473,45.396052 167.785473,62.7484397 C167.785473,65.753026 167.569897,68.4999291 167.136148,70.9917258 L165.447904,70.9917258 C162.588279,70.9917258 160.035134,70.8628842 157.785874,70.6077778 C141.856643,68.3736643 131.857045,58.6255083 127.787078,41.358156 L131.033701,36.7198582 C131.812891,35.601513 131.638872,34.6583924 130.514241,33.8853428 Z" id="Path" fill="#FFCA00"></path>
                    <path d="M189.732644,77.5652246 C188.519705,82.4586288 186.270445,87.0556974 182.979668,91.3512766 L178.823991,96.1158392 C179.429161,96.9765012 180.556389,98.0922695 182.200478,99.4682979 C184.452336,101.184468 185.925004,102.130165 186.615886,102.302813 C190.426122,102.302813 193.888321,99.3806856 197.005079,93.5415839 C199.602377,88.6481797 200.901026,84.5664775 200.901026,81.3016312 C200.815316,80.3585106 198.693323,79.4128132 194.537645,78.4671158 L189.732644,77.5652246 Z" id="Path" fill="#FFCA00"></path>
                    <path d="M195.057105,75.8877069 C200.685451,77.1761229 203.498325,78.9799054 203.498325,81.2990544 C203.498325,85.0792671 202.069811,89.5887234 199.21538,94.8274232 C195.750584,101.614799 191.55335,105.00591 186.615886,105.00591 C185.488658,105.00591 183.454973,103.80253 180.512234,101.400922 C177.566898,99.081773 176.096827,97.2341844 176.096827,95.8607329 C176.096827,95.4304019 177.743514,93.3689362 181.031694,89.6763357 C184.145855,85.6410165 186.270445,81.0027187 187.392478,75.7640189 C187.566497,74.9909693 188.085956,74.6894799 188.953454,74.8595508 L195.057105,75.8877069 Z" id="Path" fill="#445975"></path>
                    <path d="M162.590876,137.602837 L162.590876,138.247045 L162.331146,139.664303 C162.331146,143.184255 162.850606,145.632246 163.889525,147.008274 C164.757023,148.126619 166.356959,148.812057 168.697124,149.072317 C168.782835,149.500071 169.042565,150.703452 169.476314,152.677305 L169.736044,153.450355 C170.255503,154.999031 170.904828,156.328676 171.684017,157.447021 L170.515233,157.704704 C159.432561,158.993121 150.084884,154.138369 142.464411,143.145603 C143.069582,142.545201 143.373466,141.900993 143.373466,141.212979 C143.373466,139.839527 141.903395,137.906903 138.958058,135.415106 C137.48539,134.041655 136.490625,132.969693 135.971165,132.194066 C136.836066,131.335981 139.391807,130.521702 143.633195,129.748652 C146.575934,129.318322 148.697927,128.887991 149.996576,128.460236 C152.591277,132.835697 156.791109,135.88409 162.590876,137.602837 Z" id="Path" fill="#FFCA00"></path>
                    <path d="M166.356959,138.375887 L166.616688,136.572104 C166.964726,134.853357 167.743916,133.39487 168.954257,132.191489 L168.564662,145.07565 C167.785473,144.905579 167.221859,144.691702 166.879015,144.431442 C166.445267,143.918652 166.229691,142.328747 166.229691,139.664303 L166.359556,138.891253 L166.359556,138.375887 L166.356959,138.375887 Z" id="Path" fill="#FFCA00"></path>
                    <path d="M191.680617,131.547281 C192.459807,132.835697 192.849402,137.216312 192.849402,144.691702 L192.719537,151.777991 C192.374096,154.094563 192.070212,155.382979 191.810482,155.640662 L191.423485,156.156028 L191.161158,156.413712 C190.124836,157.356832 187.743113,158.00104 184.018587,158.346336 C180.72781,158.516407 178.392839,158.176265 177.005882,157.315603 L176.616287,156.929078 L176.486422,156.929078 C175.187773,155.810733 174.234564,154.26721 173.626797,152.29078 L173.367067,151.386312 C172.761896,149.927825 172.413858,148.510567 172.328147,147.137116 C172.676185,144.472671 172.847607,140.823877 172.847607,136.185579 L172.847607,135.026005 C172.847607,132.276525 173.367067,130.387707 174.405986,129.356974 L174.925446,128.841608 L175.055311,128.841608 L175.187773,128.712766 L175.837097,128.583924 L183.109533,128.1974 C185.101661,128.282435 186.743153,128.542695 188.041802,128.970449 C189.948219,129.485816 191.161158,130.343901 191.680617,131.547281 Z" id="Path" fill="#FFCA00"></path>
                    <path d="M180.512234,176.513002 C180.683656,176.170284 180.943386,175.9126 181.291424,175.739953 L184.408182,174.838061 C188.475551,173.719716 190.815717,173.163121 191.420887,173.163121 C191.852039,173.163121 192.631228,173.722293 193.755859,174.838061 C194.535048,174.40773 195.098662,173.9774 195.444103,173.549645 C196.657041,172.4313 197.262211,171.18669 197.262211,169.813239 L196.872617,166.331939 C196.872617,164.530733 198.690726,162.897021 202.326943,161.438534 L206.612485,160.150118 C207.305964,159.97747 207.78127,160.193924 208.041,160.794326 L209.601976,163.886525 C210.295454,165.002293 210.638298,166.331939 210.638298,167.880615 C210.638298,169.426714 209.988973,171.18669 208.690324,173.163121 L207.131945,174.838061 C205.919007,176.724303 204.230763,178.486856 202.067213,180.120567 C198.776436,182.524752 195.402546,183.725556 191.93775,183.725556 C187.00548,183.725556 183.2368,181.707896 180.639502,177.67 C180.38237,177.327281 180.340813,176.943333 180.512234,176.513002 Z" id="Path" fill="#3083E5"></path>
                    <path d="M191.031293,175.868794 C190.683255,175.868794 188.693724,176.342931 185.057507,177.286052 L184.018587,177.672577 C185.922407,179.904113 188.563859,181.022459 191.940347,181.022459 C194.451935,181.022459 196.659638,180.422057 198.566055,179.218676 C196.225889,179.476359 194.277916,178.832151 192.719537,177.286052 L192.589672,177.286052 C191.981904,176.513002 191.465042,176.038865 191.031293,175.868794 Z" id="Path" fill="#3083E5"></path>
                    <path d="M196.225889,176.384161 C198.651766,177.072175 201.334775,176.21409 204.277514,173.807329 L205.316434,173.034279 L206.615083,171.48818 C207.479983,170.199764 207.913732,168.996383 207.913732,167.883191 C207.913732,166.852459 207.698156,165.906761 207.264407,165.046099 L206.355353,163.113475 L203.238595,164.017943 C200.727007,164.876028 199.472512,165.649078 199.472512,166.334515 C199.472512,167.622931 199.602377,168.69747 199.862107,169.555556 C199.947818,171.874704 199.08032,173.851135 197.264809,175.484846 L196.225889,176.384161 Z" id="Path" fill="#3083E5"></path>
                    <path d="M140.903435,200.091017 L141.0333,227.920804 L186.615886,227.920804 C187.135345,227.920804 187.613248,228.134681 188.0444,228.565012 C188.392438,228.90773 188.563859,229.338061 188.563859,229.853428 C188.563859,230.368794 188.392438,230.884161 188.0444,231.399527 C187.613248,231.744823 187.135345,231.914894 186.615886,231.914894 L37.2712311,231.914894 C36.7517715,231.914894 36.3180227,231.744823 35.972582,231.399527 C35.5388332,230.886738 35.3232574,230.371371 35.3232574,229.853428 C35.3232574,229.335485 35.5388332,228.90773 35.972582,228.565012 C36.3180227,228.134681 36.7517715,227.920804 37.2712311,227.920804 L68.4388112,227.920804 C68.3531003,221.99409 68.3946571,212.717494 68.5686761,200.091017 L140.903435,200.091017 Z" id="Path" fill="#FFCA00"></path>
                    <path d="M120.125048,211.042553 C120.125048,209.669102 119.431569,208.981087 118.047209,208.981087 L91.5547664,208.981087 C90.2561172,208.981087 89.6067926,209.669102 89.6067926,211.042553 C89.6067926,212.330969 90.2561172,212.975177 91.5547664,212.975177 L94.5416595,212.975177 L94.5416595,227.920804 L114.800587,227.920804 L114.800587,212.975177 L118.047209,212.975177 C118.65238,212.975177 119.174437,212.80253 119.605588,212.459811 C119.951029,212.02948 120.125048,211.560496 120.125048,211.042553 Z" id="Path" fill="#FFCA00"></path>
                    <path d="M107.138556,185.660757 C107.138556,186.436383 106.878827,186.992979 106.359367,187.335697 C105.234737,188.539078 104.107509,188.539078 102.982879,187.335697 C102.463419,186.990402 102.20369,186.433806 102.20369,185.660757 C102.20369,184.972742 102.507573,184.416147 103.112744,183.988392 C103.458185,183.473026 104.021798,183.215343 104.800988,183.215343 C105.494467,183.215343 106.055483,183.514255 106.489232,184.117234 C106.922981,184.457376 107.138556,184.972742 107.138556,185.660757 Z" id="Path" fill="#FFCA00"></path>
                    <path d="M108.307341,189.397163 C109.34626,188.454043 109.86572,187.206856 109.86572,185.660757 C109.86572,184.114657 109.390414,182.955083 108.437206,182.182033 C107.483997,181.1513 106.273656,180.635934 104.800988,180.635934 C103.330917,180.635934 102.117979,181.107494 101.16477,182.053191 C100.125851,183.081348 99.6063912,184.284728 99.6063912,185.65818 C99.6063912,187.119243 100.084294,188.36643 101.034905,189.394586 C102.247844,190.340284 103.502339,190.811844 104.800988,190.811844 C106.099637,190.811844 107.268421,190.342861 108.307341,189.397163 Z" id="Path" fill="#FFCA00"></path>
                    <path d="M107.138556,156.929078 L124.67032,151.131206 C131.423296,148.724444 135.924414,146.920662 138.176272,145.717281 C139.215191,161.778676 140.080091,178.571891 140.77357,196.096927 L68.698541,196.096927 C69.1322898,179.860307 69.9530361,163.069669 71.1659744,145.717281 C73.329524,146.920662 77.830642,148.724444 84.6719258,151.131206 L102.073825,156.929078 L103.112744,158.346336 C103.546493,158.946738 104.107509,159.248227 104.800988,159.248227 C105.494467,159.078156 106.013926,158.776667 106.359367,158.346336 L107.138556,156.929078 Z" id="Path" fill="#FFCA00"></path>
                    <path d="M106.489232,167.236407 C106.922981,167.664161 107.138556,168.264563 107.138556,169.040189 C107.138556,169.813239 106.878827,170.372411 106.359367,170.712553 C105.234737,171.830898 104.107509,171.830898 102.982879,170.712553 C102.463419,170.369835 102.20369,169.810662 102.20369,169.040189 C102.20369,168.264563 102.507573,167.664161 103.112744,167.236407 C103.546493,166.72104 104.107509,166.463357 104.800988,166.463357 C105.494467,166.463357 106.013926,166.72104 106.359367,167.236407 L106.489232,167.236407 Z" id="Path" fill="#FFCA00"></path>
                    <path d="M108.307341,172.647754 C109.34626,171.789669 109.86572,170.586288 109.86572,169.042766 C109.86572,167.49409 109.34626,166.24948 108.307341,165.306359 C107.354132,164.445697 106.143791,164.017943 104.671123,164.017943 C103.286763,164.017943 102.117979,164.445697 101.16477,165.306359 C100.125851,166.24948 99.6063912,167.496667 99.6063912,169.042766 C99.6063912,170.501253 100.084294,171.704634 101.034905,172.647754 C102.073825,173.593452 103.32832,174.065012 104.800988,174.065012 C106.185348,174.065012 107.354132,173.593452 108.307341,172.647754 Z" id="Path" fill="#FFCA00"></path>
                    <path d="M109.08653,136.700946 L114.410992,140.437352 L104.671123,153.708038 L94.4117946,139.535461 L99.995986,136.698369 L103.632204,139.661726 C104.237374,140.092057 104.800988,140.092057 105.320448,139.661726 L109.08653,136.700946 Z" id="Path" fill="#FFCA00"></path>
                    <path d="M123.371671,125.620567 L125.70924,124.718676 L115.969371,138.247045 L111.164369,134.897163 L122.073022,126.135934 C122.418463,125.965863 122.808057,125.834444 123.241806,125.749409 L123.371671,125.620567 Z" id="Path" fill="#FFCA00"></path>
                    <path d="M194.92724,206.661939 C196.140179,205.458558 197.610249,204.858156 199.342647,204.858156 C201.072448,204.858156 202.503559,205.458558 203.625592,206.661939 C204.924242,207.780284 205.573566,209.238771 205.573566,211.042553 C205.573566,212.673688 204.924242,214.134752 203.625592,215.423168 C202.417849,216.623972 200.986737,217.22695 199.342647,217.22695 C197.781671,217.22695 196.3116,216.626548 194.92724,215.425745 C193.628591,213.964681 192.979266,212.503617 192.979266,211.04513 C192.979266,209.323806 193.628591,207.865319 194.92724,206.661939 Z" id="Path" fill="#FFCA00"></path>
                    <path d="M195.70643,211.042553 C195.70643,211.985674 196.096024,212.758723 196.875214,213.359125 C197.568693,214.134752 198.389439,214.5187 199.342647,214.5187 C200.293259,214.5187 201.160756,214.134752 201.939946,213.359125 C202.545116,212.758723 202.849,211.985674 202.849,211.042553 C202.849,209.924208 202.547714,209.024894 201.939946,208.336879 C201.246467,207.736478 200.378969,207.432411 199.342647,207.432411 C198.303728,207.432411 197.480384,207.733901 196.875214,208.336879 C196.096024,209.109929 195.70643,210.01182 195.70643,211.042553 Z" id="Path" fill="#FFCA00"></path>
                    <path d="M164.408985,189.268322 C165.188174,189.783688 165.577769,190.726809 165.577769,192.102837 C165.577769,193.221182 165.273885,194.166879 164.666117,194.939929 L164.406387,195.197612 C163.541487,195.885626 162.544125,196.228345 161.419494,196.228345 C160.468883,196.228345 159.559829,195.88305 158.692331,195.197612 L158.432601,194.939929 C157.739123,194.166879 157.393682,193.221182 157.393682,192.102837 C157.393682,190.814421 157.739123,189.8713 158.432601,189.268322 C159.297502,188.322624 160.294864,187.851064 161.416897,187.851064 C162.632433,187.851064 163.629795,188.322624 164.408985,189.268322 Z" id="Path" fill="#F81552"></path>
                    <path d="M161.422092,190.556738 C161.076651,190.556738 160.687056,190.685579 160.255905,190.943262 L159.993578,192.102837 L160.255905,193.13357 L160.38577,193.13357 C160.816921,193.391253 161.164959,193.520095 161.422092,193.520095 C161.941551,193.520095 162.3753,193.388676 162.720741,193.13357 L162.853203,193.13357 L162.983068,192.102837 C162.983068,191.502435 162.897357,191.11591 162.720741,190.945839 C162.3753,190.685579 161.941551,190.556738 161.422092,190.556738 Z" id="Path" fill="#F81552"></path>
                    <path d="M54.2835353,46.2541371 C55.0627248,46.2541371 55.6678953,45.8676123 56.1016441,45.0945626 L56.4912388,44.1926714 C56.8366795,42.9892908 56.4029307,42.1750118 55.1925897,41.7446809 C53.8939405,41.4869976 53.0290402,41.9147518 52.5952913,43.0330969 L52.4654264,43.4196217 C51.8602559,44.5353901 52.1615425,45.396052 53.3744808,45.9964539 L54.2835353,46.2541371 Z" id="Path" fill="#FFCA00"></path>
                    <path d="M97.0090929,12.7553191 C98.3960502,12.5852482 99.0012207,11.897234 98.8272017,10.6938534 C98.6531828,9.32040189 97.9181473,8.71742317 96.6194982,8.89007092 C84.3264851,10.4361702 73.8074269,15.5898345 65.0623234,24.3510638 C61.7715464,27.6159102 58.9145182,31.2672813 56.4912388,35.3026005 C56.1457982,35.8179669 56.05749,36.3333333 56.231509,36.8486998 C56.4029307,37.3640662 56.7068146,37.7531678 57.1405634,38.0082742 C57.4002933,38.2685343 57.7015799,38.3947991 58.0496178,38.3947991 C59.0028263,38.3947991 59.6079968,38.0495035 59.8677267,37.3640662 C61.7715464,34.0141844 64.4129988,30.6230733 67.7894866,27.1855792 C75.8411115,19.1123641 85.5809802,14.3014184 97.0090929,12.7553191 Z" id="Path" fill="#FFCA00"></path>
                    <path d="M194.537645,229.853428 C194.537645,229.338061 194.755819,228.90773 195.18697,228.565012 C195.535008,228.134681 195.968757,227.920804 196.485619,227.920804 L200.641297,227.920804 C201.160756,227.920804 201.636062,228.134681 202.069811,228.565012 C202.417849,228.90773 202.58927,229.338061 202.58927,229.853428 C202.58927,230.368794 202.417849,230.884161 202.069811,231.399527 C201.636062,231.744823 201.160756,231.914894 200.641297,231.914894 L196.485619,231.914894 C195.968757,231.914894 195.535008,231.744823 195.18697,231.399527 C194.755819,230.886738 194.537645,230.368794 194.537645,229.853428 Z" id="Path" fill="#FFCA00"></path>
                    <path d="M30.5182555,18.5531915 C31.471464,18.5531915 32.3363643,18.207896 33.1155538,17.5224586 C33.7207243,16.9220567 34.0246082,16.1490071 34.0246082,15.2058865 C34.0246082,14.0875414 33.7207243,13.2294563 33.1155538,12.6290544 C32.3363643,11.9410402 31.471464,11.5983215 30.5182555,11.5983215 C29.4793361,11.5983215 28.6144358,11.943617 27.9209571,12.6290544 C27.3157866,13.2294563 27.0119027,14.0875414 27.0119027,15.2058865 C27.0119027,16.1490071 27.3157866,16.9220567 27.9209571,17.5224586 C28.6144358,18.207896 29.4793361,18.5531915 30.5182555,18.5531915 Z" id="Path" fill="#FFCA00"></path>
                    <path d="M34.9336626,19.4550827 C33.7207243,20.6584634 32.2506535,21.2588652 30.5182555,21.2588652 C28.7858575,21.2588652 27.2716325,20.6584634 25.9729834,19.4550827 C24.8457559,18.2517021 24.2847395,16.8344444 24.2847395,15.2058865 C24.2847395,13.402104 24.8483532,11.8998109 25.9729834,10.6964303 C27.2716325,9.49304965 28.7858575,8.89264775 30.5182555,8.89264775 C32.2506535,8.89264775 33.7207243,9.49304965 34.9336626,10.6964303 C36.0608901,11.8998109 36.6219066,13.402104 36.6219066,15.2058865 C36.6219066,16.8344444 36.0582928,18.2517021 34.9336626,19.4550827 Z" id="Path" fill="#131F2F"></path>
                    <path d="M11.0385179,58.751773 C11.3839586,58.751773 11.6878425,58.8831915 11.9475724,59.1382979 C12.2073022,59.6536643 12.3371671,59.9525768 12.3371671,60.0401891 L11.9475724,60.8158156 C11.6021317,61.1559574 11.2982478,61.3286052 11.0385179,61.3286052 L7.27243534,61.3286052 L7.27243534,64.8099054 C7.27243534,65.2376596 7.1867245,65.5391489 7.01270551,65.7117967 C6.75297568,65.9720567 6.407535,66.0983215 5.97378618,66.0983215 C5.45432651,66.0983215 5.1530399,65.9694799 5.06473176,65.7117967 C4.71929108,65.4541135 4.54527209,65.1526241 4.54527209,64.8099054 L4.54527209,61.3286052 L1.29864917,61.3286052 C1.03891933,61.3286052 0.73503543,61.1585343 0.389594751,60.8158156 C0.129864917,60.7282033 0,60.4705201 0,60.0401891 C0,59.612435 0.129864917,59.3109456 0.389594751,59.1382979 C0.649324584,58.8806147 0.950611192,58.751773 1.29864917,58.751773 L4.54527209,58.751773 L4.54527209,55.144208 C4.54527209,54.7989125 4.71669378,54.5 5.06473176,54.23974 L5.97378618,53.855792 C6.23351601,53.855792 6.57895669,53.9846336 7.01270551,54.23974 C7.1867245,54.4123877 7.27243534,54.7138771 7.27243534,55.144208 L7.27243534,58.751773 L11.0385179,58.751773 Z" id="Path" fill="#F81552"></path>
                    <path d="M21.6874411,107.582742 C21.6874411,108.52844 21.2978464,109.47156 20.5186569,110.419835 L20.3887919,110.677518 C19.4381808,111.365532 18.3966641,111.708251 17.2720339,111.708251 C16.3188255,111.708251 15.409771,111.362955 14.5448707,110.677518 L14.4150058,110.419835 C13.6358163,109.559173 13.2462215,108.616052 13.2462215,107.582742 C13.2462215,106.379362 13.6358163,105.436241 14.4150058,104.748227 C15.1941953,103.80253 16.1474038,103.330969 17.2720339,103.330969 C18.482375,103.330969 19.5238916,103.80253 20.3887919,104.748227 C21.2536923,105.436241 21.6874411,106.379362 21.6874411,107.582742 Z" id="Path" fill="#338FFF"></path>
                    <path d="M16.3629795,106.423168 C16.0175388,106.595816 15.8435199,106.98234 15.8435199,107.582742 C15.8435199,108.013073 16.0175388,108.355792 16.3629795,108.613475 L16.4928444,108.613475 C16.6668634,108.871158 16.9265933,108.997423 17.2720339,108.997423 C17.7914936,108.997423 18.2252424,108.868582 18.5706831,108.613475 L18.9602779,107.582742 C18.9602779,107.325059 18.8304129,106.938534 18.5706831,106.423168 C18.2252424,106.165485 17.7914936,106.03922 17.2720339,106.03922 L16.3629795,106.423168 Z" id="Path" fill="#338FFF"></path>
                    <path d="M40.3879891,132.191489 C41.5126193,133.39487 42.2502521,134.853357 42.5956927,136.572104 L42.8554226,138.375887 L42.8554226,138.891253 L42.9852875,139.664303 C42.9852875,142.32617 42.7697117,143.916076 42.3359629,144.431442 C42.0762331,144.691702 41.5567734,144.905579 40.7775839,145.07565 L40.3879891,132.191489 Z" id="Path" fill="#FFCA00"></path>
                    <path d="M34.1544731,128.712766 L34.6739328,129.099291 L34.9336626,129.356974 C35.972582,130.475319 36.4920416,132.364137 36.4920416,135.026005 L36.4920416,136.185579 C36.4920416,140.823877 36.6219066,144.472671 36.8816364,147.137116 C36.7959255,148.510567 36.4920416,149.927825 35.972582,151.386312 C35.3674115,153.963144 34.3284921,155.810733 32.855824,156.926501 L32.2064994,157.310449 C30.9078502,158.171111 28.6144358,158.51383 25.3236588,158.341182 C21.6874411,157.995887 19.3498726,157.395485 18.3109533,156.5374 L17.5317638,155.76435 C17.1837258,155.163948 16.8824392,153.831726 16.6227094,151.77026 L16.4928444,144.683972 C16.4928444,137.211158 16.8824392,132.827967 17.6616287,131.539551 C18.1810884,130.33617 19.3498726,129.478085 21.1679815,128.962719 C22.5523415,128.534965 24.2405854,128.274704 26.2327132,128.189669 L33.5051486,128.576194 L34.0246082,128.705035 L34.1544731,128.705035 L34.1544731,128.712766 Z" id="Path" fill="#FFCA00"></path>
                    <path d="M59.2184021,128.45766 C60.6027621,128.885414 62.7689089,129.315745 65.7116479,129.746076 C69.9530361,130.519125 72.5087777,131.333404 73.373678,132.191489 C72.8542184,132.967116 71.9010099,133.995272 70.5166499,135.283688 C67.4856027,137.86052 65.9713778,139.83695 65.9713778,141.210402 C65.9713778,141.898416 66.2752617,142.542624 66.8804322,143.143026 C59.174248,154.5687 49.4785333,159.333262 37.7906908,157.447021 C38.7438993,155.81331 39.4347807,154.225981 39.8685295,152.677305 C40.3879891,150.700875 40.647719,149.500071 40.647719,149.072317 C42.9852875,148.812057 44.5878206,148.126619 45.4527209,147.008274 C46.4916402,145.634823 47.0110999,143.186832 47.0110999,139.664303 L46.7513701,138.247045 L46.7513701,137.602837 C52.5511373,135.88409 56.7068146,132.835697 59.2184021,128.45766 Z" id="Path" fill="#FFCA00"></path>
                    <path d="M72.2048938,119.438747 L77.0098957,122.144421 L98.3077421,151.51773 L86.1004399,147.394799 C78.8280045,144.903002 73.8074269,142.841537 71.0361095,141.210402 L70.5166499,140.826454 L73.1139482,138.249622 C76.0566872,135.587754 77.5293554,133.567518 77.5293554,132.191489 C77.5293554,129.186903 73.8074269,127.122861 66.3609725,126.009669 C63.0701955,125.409267 60.6910703,124.765059 59.2184021,124.077045 C58.6989424,123.904397 58.5249234,123.816785 58.6989424,123.816785 C58.6989424,122.270686 59.6079968,120.338061 61.4261057,118.018913 L64.4129988,113.895981 L67.3998919,116.21513 C69.8231712,117.933877 71.4257043,119.008416 72.2048938,119.438747 Z" id="Path" fill="#FFCA00"></path>
                    <path d="M104.541258,136.958629 L92.9832805,127.295508 C100.860886,128.583924 108.696935,128.583924 116.48883,127.295508 L104.541258,136.958629 Z" id="Path" fill="#FFCA00"></path>
                    <path d="M83.8927363,124.976359 L85.0615206,125.236619 L86.4900346,125.880827 L87.0094943,126.009669 C87.180916,126.094704 87.3990891,126.138511 87.6588189,126.138511 L97.9181473,134.770898 L92.9832805,137.479149 L83.8927363,124.976359 Z" id="Path" fill="#FFCA00"></path>
                    <path d="M47.1409648,190.041371 C45.8423157,194.594634 42.8112685,197.514184 38.0504206,198.8026 C36.9231932,199.230355 35.5829872,199.446809 34.0246082,199.446809 C31.8610587,199.446809 29.6533551,199.016478 27.4014975,198.158392 C24.7184883,197.040047 22.5964955,195.839243 21.0381165,194.550827 L19.0901428,193.262411 C17.3577448,191.88896 16.2331146,190.301631 15.7136549,188.495272 C15.2799061,187.034208 15.1941953,185.789598 15.4539251,184.758865 L16.3629795,181.280142 C16.5344012,180.67974 16.9265933,180.378251 17.5317638,180.378251 C20.1290621,180.293215 21.643287,180.293215 22.0770359,180.378251 C25.9729834,180.548322 28.1365329,181.537825 28.5702817,183.341608 L29.0897414,186.946596 C29.5234902,188.320047 30.4325446,189.394586 31.8169046,190.167636 L33.7648784,190.683002 C34.458357,189.654846 35.0193735,188.964255 35.4531223,188.621537 C36.2323118,188.363853 38.6997452,188.235012 42.8554226,188.235012 L46.1020455,188.36643 C46.3617753,188.36643 46.6630619,188.580307 47.0110999,189.010638 C47.2708297,189.440969 47.3149838,189.783688 47.1409648,190.041371 Z" id="Path" fill="#F81552"></path>
                    <path d="M31.9467696,192.878463 L30.6481204,192.363097 C28.6559926,191.4174 27.2716325,189.786265 26.492443,187.467116 L25.9729834,183.988392 C25.4535237,183.387991 24.0691637,182.998889 21.817306,182.828818 L18.5706831,182.828818 L18.0512234,185.147967 C17.9655126,185.835981 18.0512234,186.735296 18.3109533,187.853641 C18.5706831,189.057021 19.3498726,190.170213 20.6485218,191.203522 L23.50555,192.749622 C26.3625781,193.953002 28.7001466,194.254492 30.5182555,193.65409 C31.3831558,193.218605 31.8610587,192.963499 31.9467696,192.878463 Z" id="Path" fill="#F81552"></path>
                    <path d="M35.5829872,192.878463 C34.7180869,194.424563 33.2895728,195.540331 31.297445,196.228345 L30.6481204,196.357187 C32.9856889,196.872553 35.1933925,196.872553 37.2712311,196.357187 C40.4737,195.411489 42.7255577,193.610284 44.0242068,190.945839 L36.7517715,191.074681 C36.6660606,191.159716 36.3180227,191.633853 35.7128521,192.491939 L35.5829872,192.878463 Z" id="Path" fill="#F81552"></path>
                    <path d="M11.1683829,203.440898 C11.9475724,204.471631 12.3371671,205.458558 12.3371671,206.404255 C12.3371671,207.432411 11.9891291,208.421915 11.2982478,209.365035 L11.1683829,209.365035 C10.2151744,210.223121 9.13469825,210.653452 7.92175993,210.653452 C6.96855144,210.653452 6.05949702,210.223121 5.19459667,209.365035 L5.06473176,209.365035 C4.28554226,208.50695 3.89594751,207.517447 3.89594751,206.404255 C3.89594751,205.458558 4.28554226,204.471631 5.06473176,203.440898 C6.01794025,202.582813 6.96855144,202.152482 7.92175993,202.152482 C8.96067926,202.152482 10.0411554,202.582813 11.1683829,203.440898 Z" id="Path" fill="#03C773"></path>
                    <path d="M7.01270551,205.502364 C6.75297568,205.672435 6.62311076,205.976501 6.62311076,206.406832 C6.62311076,206.919622 6.75297568,207.264917 7.01270551,207.434988 L7.14257043,207.695248 L7.92175993,207.952931 L9.2204091,207.695248 L9.2204091,207.434988 C9.48013893,207.177305 9.61000385,206.834586 9.61000385,206.406832 C9.61000385,206.31922 9.48013893,206.020307 9.2204091,205.502364 C8.78666028,205.072033 8.35550875,204.858156 7.92175993,204.858156 C7.57631925,204.858156 7.27243534,205.072033 7.01270551,205.502364 Z" id="Path" fill="#03C773"></path>
                    <path d="M8.70094943,228.565012 C9.04898741,228.134681 9.48013893,227.920804 9.9995986,227.920804 L24.5444693,227.920804 C25.063929,227.920804 25.5392346,228.134681 25.9729834,228.565012 C26.3184241,228.90773 26.492443,229.338061 26.492443,229.853428 C26.492443,230.368794 26.3210214,230.884161 25.9729834,231.399527 C25.5392346,231.744823 25.063929,231.914894 24.5444693,231.914894 L9.9995986,231.914894 C9.48013893,231.914894 9.04898741,231.744823 8.70094943,231.399527 C8.26720061,230.886738 8.05162485,230.371371 8.05162485,229.853428 C8.05162485,229.335485 8.26720061,228.90773 8.70094943,228.565012 Z" id="Path" fill="#FFCA00"></path>
                </g>
            </g>
        </g>
    </g>
</svg>