<?xml version="1.0" encoding="UTF-8"?>
<svg width="71px" height="65px" viewBox="0 0 71 65" version="1.1" xmlns="http://www.w3.org/2000/svg" xmlns:xlink="http://www.w3.org/1999/xlink">
    <!-- Generator: Sketch 48.2 (47327) - http://www.bohemiancoding.com/sketch -->
    <title>time</title>
    <desc>Created with Sketch.</desc>
    <defs></defs>
    <g id="Page-1" stroke="none" stroke-width="1" fill="none" fill-rule="evenodd">
        <g id="time" fill="#44C7F4" fill-rule="nonzero">
            <g id="Group">
                <path d="M26.7247191,59.462963 C19.5449438,56.2530864 14.0404494,50.4753086 11.2483146,43.1728395 C8.69550562,36.5925926 8.61573034,29.5308642 10.8494382,22.9506173 L12.8438202,31.617284 L15.7955056,30.8950617 L12.0460674,14.845679 L0.0797752809,27.0432099 L2.23370787,29.2098765 L7.41910112,23.9938272 C5.58426966,30.654321 5.90337079,37.7160494 8.45617978,44.2160494 C11.5674157,52.3209877 17.6303371,58.7407407 25.5280899,62.2716049 C29.6764045,64.117284 34.1438202,65 38.5314607,65 C47.147191,65 55.6831461,61.5493827 61.905618,54.9691358 L59.6719101,52.882716 C51.2157303,61.7901235 37.9730337,64.4382716 26.7247191,59.462963 Z" id="Shape"></path>
                <path d="M37.2550562,0.240740741 C35.3404494,0.320987654 33.3460674,0.561728395 31.4314607,1.04320988 L31.9898876,3.5308642 C33.7449438,3.12962963 35.5797753,2.88888889 37.3348315,2.80864198 L37.2550562,0.240740741 Z" id="Shape"></path>
                <path d="M61.6662921,10.1111111 C60.3101124,8.66666667 58.794382,7.38271605 57.1988764,6.25925926 L55.7629213,8.34567901 C57.1988764,9.38888889 58.6348315,10.5925926 59.8314607,11.8765432 L61.6662921,10.1111111 Z" id="Shape"></path>
                <path d="M54.5662921,4.49382716 C53.6089888,3.93209877 52.5719101,3.45061728 51.5348315,2.9691358 C50.7370787,2.64814815 50.0191011,2.32716049 49.2213483,2.08641975 L48.3438202,4.49382716 C49.0617978,4.7345679 49.7797753,5.05555556 50.4977528,5.37654321 C51.4550562,5.77777778 52.4123596,6.25925926 53.2898876,6.82098765 L54.5662921,4.49382716 Z" id="Shape"></path>
                <path d="M66.9314607,17.4135802 C66.0539326,15.6481481 64.9370787,14.0432099 63.7404494,12.5185185 L61.7460674,14.1234568 C62.8629213,15.5679012 63.8202247,17.0925926 64.6977528,18.6975309 L66.9314607,17.4135802 Z" id="Shape"></path>
                <path d="M27.841573,2.08641975 C26.1662921,2.64814815 24.5707865,3.37037037 23.0550562,4.25308642 L24.2516854,6.5 C25.6876404,5.69753086 27.1235955,5.05555556 28.6393258,4.49382716 C28.7988764,4.41358025 29.0382022,4.33333333 29.1977528,4.33333333 L28.4,1.92592593 C28.2404494,2.00617284 28.0011236,2.00617284 27.841573,2.08641975 Z" id="Shape"></path>
                <path d="M66.2134831,42.8518519 L68.6067416,43.7345679 C69.3247191,41.8888889 69.8033708,39.962963 70.1224719,38.037037 L67.6494382,37.5555556 C67.3303371,39.4012346 66.8516854,41.1666667 66.2134831,42.8518519 Z" id="Shape"></path>
                <path d="M46.1898876,1.12345679 C44.2752809,0.641975309 42.3606742,0.320987654 40.3662921,0.240740741 L40.2067416,2.80864198 C41.9617978,2.88888889 43.7966292,3.20987654 45.5516854,3.61111111 L46.1898876,1.12345679 Z" id="Shape"></path>
                <path d="M62.3044944,50.2345679 L64.2988764,51.7592593 C65.4955056,50.154321 66.452809,48.4691358 67.3303371,46.7037037 L65.0168539,45.5802469 C64.2988764,47.1851852 63.341573,48.7901235 62.3044944,50.2345679 Z" id="Shape"></path>
                <path d="M67.9685393,29.3703704 C68.0483146,30.4135802 68.1280899,31.537037 68.1280899,32.5802469 C68.1280899,33.3024691 68.1280899,34.1049383 68.0483146,34.8271605 L70.6011236,34.9876543 C70.6808989,34.1851852 70.6808989,33.382716 70.6808989,32.5802469 C70.6808989,31.4567901 70.6011236,30.2530864 70.5213483,29.1296296 L67.9685393,29.3703704 Z" id="Shape"></path>
                <path d="M69.9629213,25.9197531 C69.5640449,23.9938272 69.005618,22.0679012 68.2876404,20.3024691 L65.9741573,21.2654321 C66.6921348,22.9506173 67.1707865,24.7160494 67.5696629,26.4814815 L69.9629213,25.9197531 Z" id="Shape"></path>
                <path d="M50.8966292,12.1975309 C50.1786517,11.7962963 49.2213483,11.9567901 48.8224719,12.6790123 L48.0247191,14.0432099 C47.6258427,14.7654321 47.7853933,15.7283951 48.5033708,16.1296296 C48.7426966,16.2901235 48.9820225,16.3703704 49.3011236,16.3703704 C49.7797753,16.3703704 50.3382022,16.1296296 50.5775281,15.6481481 L51.3752809,14.2839506 C51.8539326,13.5617284 51.6146067,12.5987654 50.8966292,12.1975309 Z" id="Shape"></path>
                <path d="M39.0898876,8.74691358 C38.2921348,8.74691358 37.5741573,9.38888889 37.5741573,10.2716049 L37.5741573,11.8765432 C37.5741573,12.7592593 38.2123596,13.4012346 39.0898876,13.4012346 C39.0898876,13.4012346 39.0898876,13.4012346 39.0898876,13.4012346 C39.8876404,13.4012346 40.605618,12.7592593 40.605618,11.8765432 L40.605618,10.2716049 C40.605618,9.4691358 39.8876404,8.74691358 39.0898876,8.74691358 Z" id="Shape"></path>
                <path d="M27.1235955,11.7160494 C26.405618,12.117284 26.0865169,13.0802469 26.5651685,13.8024691 L27.3629213,15.2469136 C27.6022472,15.7283951 28.1606742,16.0493827 28.7191011,16.0493827 C28.958427,16.0493827 29.1977528,15.9691358 29.4370787,15.8888889 C30.1550562,15.4876543 30.4741573,14.5246914 29.9955056,13.8024691 L29.1977528,12.3580247 C28.7988764,11.5555556 27.841573,11.3148148 27.1235955,11.7160494 Z" id="Shape"></path>
                <path d="M19.7842697,41.3271605 L18.3483146,42.1296296 C17.6303371,42.5308642 17.311236,43.4938272 17.7898876,44.2160494 C18.0292135,44.6975309 18.5876404,45.0185185 19.1460674,45.0185185 C19.3853933,45.0185185 19.6247191,44.9382716 19.8640449,44.8580247 L21.3,44.0555556 C22.0179775,43.654321 22.3370787,42.691358 21.858427,41.9691358 C21.4595506,41.1666667 20.5820225,40.9259259 19.7842697,41.3271605 Z" id="Shape"></path>
                <path d="M26.3258427,53.1234568 C26.5651685,53.2839506 26.8044944,53.3641975 27.1235955,53.3641975 C27.6022472,53.3641975 28.1606742,53.1234568 28.4,52.6419753 L29.1977528,51.2777778 C29.5966292,50.5555556 29.4370787,49.5925926 28.7191011,49.191358 C28.0011236,48.7901235 27.0438202,48.9506173 26.6449438,49.6728395 L25.847191,51.037037 C25.3685393,51.7592593 25.6078652,52.6419753 26.3258427,53.1234568 Z" id="Shape"></path>
                <path d="M38.2123596,51.8395062 C37.4146067,51.8395062 36.6966292,52.4814815 36.6966292,53.3641975 L36.6966292,54.9691358 C36.6966292,55.8518519 37.3348315,56.4938272 38.2123596,56.4938272 C38.2123596,56.4938272 38.2123596,56.4938272 38.2123596,56.4938272 C39.0101124,56.4938272 39.7280899,55.8518519 39.7280899,54.9691358 L39.7280899,53.3641975 C39.7280899,52.5617284 39.0898876,51.9197531 38.2123596,51.8395062 C38.2123596,51.8395062 38.2123596,51.8395062 38.2123596,51.8395062 Z" id="Shape"></path>
                <path d="M48.0247191,52.962963 C48.2640449,53.4444444 48.8224719,53.7654321 49.3808989,53.7654321 C49.6202247,53.7654321 49.8595506,53.6851852 50.0988764,53.6049383 C50.8168539,53.2037037 51.1359551,52.2407407 50.6573034,51.5185185 L49.8595506,50.0740741 C49.4606742,49.3518519 48.5033708,49.0308642 47.7853933,49.5123457 C47.0674157,49.9135802 46.7483146,50.8765432 47.2269663,51.5987654 L48.0247191,52.962963 Z" id="Shape"></path>
                <path d="M54.9651685,42.6111111 C54.5662921,43.3333333 54.7258427,44.2962963 55.4438202,44.6975309 L56.8,45.5 C57.0393258,45.6604938 57.2786517,45.7407407 57.5977528,45.7407407 C58.0764045,45.7407407 58.6348315,45.5 58.8741573,45.0185185 C59.2730337,44.2962963 59.1134831,43.3333333 58.3955056,42.9320988 L57.0393258,42.1296296 C56.3213483,41.6481481 55.3640449,41.8888889 54.9651685,42.6111111 Z" id="Shape"></path>
                <path d="M60.788764,34.5864198 C60.788764,34.5864198 60.788764,34.5864198 60.788764,34.5864198 C61.6662921,34.5864198 62.3044944,33.9444444 62.3044944,33.0617284 C62.3044944,32.1790123 61.6662921,31.537037 60.788764,31.537037 L59.1932584,31.537037 C59.1932584,31.537037 59.1932584,31.537037 59.1932584,31.537037 C58.3955056,31.537037 57.6775281,32.1790123 57.6775281,33.0617284 C57.6775281,33.9444444 58.3157303,34.5864198 59.1932584,34.5864198 L60.788764,34.5864198 Z" id="Shape"></path>
                <path d="M55.3640449,23.3518519 C55.6033708,23.8333333 56.1617978,24.154321 56.7202247,24.154321 C56.9595506,24.154321 57.1988764,24.0740741 57.4382022,23.9938272 L58.8741573,23.191358 C59.5921348,22.7901235 59.911236,21.8271605 59.4325843,21.1049383 C59.0337079,20.382716 58.0764045,20.0617284 57.358427,20.5432099 L55.9224719,21.345679 C55.2044944,21.6666667 54.9651685,22.6296296 55.3640449,23.3518519 Z" id="Shape"></path>
                <path d="M48.4235955,19.8209877 L38.9303371,30.4938272 C38.6910112,30.4135802 38.4516854,30.4135802 38.2123596,30.4135802 C37.9730337,30.4135802 37.7337079,30.4938272 37.494382,30.5740741 L28.7191011,22.7098765 L26.7247191,24.9567901 L35.5,32.8209877 C35.3404494,33.8641975 35.5797753,34.9074074 36.4573034,35.6296296 C37.0157303,36.1111111 37.7337079,36.4320988 38.4516854,36.4320988 C38.5314607,36.4320988 38.5314607,36.4320988 38.611236,36.4320988 C39.4089888,36.3518519 40.1269663,36.0308642 40.6853933,35.4691358 C41.2438202,34.9074074 41.4831461,34.1049383 41.4033708,33.3024691 C41.4033708,33.0617284 41.3235955,32.8209877 41.2438202,32.5802469 L50.7370787,21.9074074 L48.4235955,19.8209877 Z M38.3719101,33.382716 C38.4516854,33.382716 38.4516854,33.382716 38.3719101,33.382716 C38.4516854,33.382716 38.4516854,33.462963 38.3719101,33.382716 Z" id="Shape"></path>
            </g>
        </g>
    </g>
</svg>