<?xml version="1.0" encoding="UTF-8"?>
<svg width="40px" height="38px" viewBox="0 0 40 38" version="1.1" xmlns="http://www.w3.org/2000/svg" xmlns:xlink="http://www.w3.org/1999/xlink">
    <!-- Generator: Sketch 47 (45396) - http://www.bohemiancoding.com/sketch -->
    <title>traction-white</title>
    <desc>Created with Sketch.</desc>
    <defs></defs>
    <g id="Home" stroke="none" stroke-width="1" fill="none" fill-rule="evenodd">
        <g id="Home---With-Lines" transform="translate(-701.000000, -1092.000000)" fill-rule="nonzero" fill="#FFFFFF">
            <g id="Group-19" transform="translate(203.000000, 1077.000000)">
                <g id="Icons-Copy" transform="translate(380.000000, 0.000000)">
                    <g id="Prototype">
                        <g id="icon">
                            <g id="Group-21" transform="translate(102.000000, 0.000000)">
                                <g id="traction-white" transform="translate(16.000000, 15.000000)">
                                    <g id="Group">
                                        <path d="M0,23.1079365 C0.0547375482,23.3777778 0.109475096,23.647619 0.164212645,23.9174603 L0.985275868,23.7555556 C0.93053832,23.4857143 0.875800771,23.215873 0.821063223,23 L0,23.1079365 Z" id="Shape"></path>
                                        <path d="M1.0862069,16.1145833 L1.0862069,16.1145833 C2.11206897,9.97569444 6.51724138,4.84027778 12.4913793,2.71527778 L11.4051724,4.89930556 L12.1896552,5.3125 L14,1.77083333 L10.3793103,0 L9.95689655,0.767361111 L12.1896552,1.82986111 C5.97413793,4.13194444 1.26724138,9.50347222 0.181034483,15.9965278 L0.603448276,16.0555556 L0.120689655,15.9965278 C0.0603448276,16.2326389 0.0603448276,16.5277778 0,16.8819444 L0.905172414,17 C0.965517241,16.5868056 1.02586207,16.3506944 1.0862069,16.1145833 Z" id="Shape"></path>
                                        <path d="M0.821063223,21 L0,21.0539683 C0,21.3238095 0.0547375482,21.5936508 0.0547375482,21.8634921 L0.875800771,21.7555556 C0.875800771,21.5396825 0.821063223,21.2698413 0.821063223,21 Z" id="Shape"></path>
                                        <path d="M0.821063223,19.647619 C0.821063223,19.431746 0.821063223,19.2698413 0.821063223,19.0539683 L0,19 C0,19.215873 0,19.3777778 0,19.647619 L0,19.8634921 L0.821063223,19.8634921 L0.821063223,19.647619 Z" id="Shape"></path>
                                        <path d="M25,2.26315789 C24.7368421,2.15789474 24.5263158,2.05263158 24.2631579,2 L24,2.73684211 C24.2631579,2.84210526 24.4736842,2.89473684 24.7368421,3 L25,2.26315789 Z" id="Shape"></path>
                                        <path d="M29,3.38095238 C28.8095238,3.23809524 28.6190476,3.14285714 28.3809524,3 L28,3.61904762 C28.2380952,3.76190476 28.4285714,3.85714286 28.6190476,4 L29,3.38095238 Z" id="Shape"></path>
                                        <path d="M27,2.35 C26.7894737,2.2 26.5263158,2.1 26.3157895,2 L26,2.7 C26.2631579,2.8 26.4736842,2.9 26.6842105,3 L27,2.35 Z" id="Shape"></path>
                                        <path d="M39.5209581,22.0731707 L37.4251497,23.4146341 C38.6826347,16.8292683 36.2874251,9.93902439 31.1976048,5.6097561 L30.9580838,5.91463415 L31.257485,5.6097561 C31.0778443,5.48780488 30.8383234,5.24390244 30.5389222,5 L30,5.73170732 C30.2994012,5.97560976 30.5389222,6.15853659 30.6586826,6.2804878 L30.6586826,6.2804878 C35.4491018,10.4268293 37.7245509,17.0121951 36.5868263,23.2317073 L35.2694611,21.097561 L34.491018,21.5853659 L36.6467066,25 L40,22.804878 L39.5209581,22.0731707 Z" id="Shape"></path>
                                        <path d="M28,34.35 L28.3809524,35 C28.5714286,34.85 28.7619048,34.75 29,34.6 L28.5714286,34 C28.3809524,34.1 28.1904762,34.25 28,34.35 Z" id="Shape"></path>
                                        <path d="M27,35.35 L27.3333333,36 C27.5238095,35.9 27.7619048,35.75 28,35.65 L27.6666667,35 C27.3809524,35.15 27.1904762,35.25 27,35.35 Z" id="Shape"></path>
                                        <path d="M30,33.4285714 L30.4285714,34 C30.6190476,33.8571429 30.8095238,33.7142857 31,33.5238095 L30.5238095,33 C30.3333333,33.1428571 30.1428571,33.2857143 30,33.4285714 Z" id="Shape"></path>
                                        <path d="M23.9253731,36.2692308 L23.9253731,36.2692308 C18.0149254,38.2307692 11.3283582,36.9615385 6.6119403,32.9807692 L9.05970149,32.8653846 L9,32 L5,32.1153846 L5.17910448,35.9807692 L6.07462687,35.9230769 L5.95522388,33.5576923 C9.35820896,36.4423077 13.7164179,38 18.1940299,38 C20.2238806,38 22.1940299,37.7115385 24.1641791,37.0192308 L23.9850746,36.6153846 L24.1641791,37.0192308 C24.4029851,36.9615385 24.641791,36.8461538 25,36.6730769 L24.641791,35.8653846 C24.4029851,36.0961538 24.1044776,36.2115385 23.9253731,36.2692308 Z" id="Shape"></path>
                                        <path d="M30.1013216,16.8237885 C29.7929515,15.753304 29.3612335,14.6828194 28.7444934,13.7312775 L30.4096916,11.4118943 L27.3259912,8.43832599 L24.9207048,10.0440529 C23.9339207,9.44933921 22.8237885,9.03303965 21.6519824,8.79515419 L21.0969163,6 L16.7180617,6 L16.2246696,8.79515419 C15.1145374,9.09251101 14.0044053,9.50881057 13.0176211,10.1035242 L10.6123348,8.49779736 L7.52863436,11.4713656 L9.1938326,13.7907489 C8.57709251,14.7422907 8.14537445,15.8127753 7.89867841,16.9427313 L5,17.4779736 L5,21.7004405 L7.89867841,22.1762115 C8.20704846,23.3061674 8.63876652,24.3171806 9.25550661,25.2687225 L7.59030837,27.5881057 L10.6740088,30.561674 L13.0792952,28.9559471 C14.0660793,29.5506608 15.1762115,29.9669604 16.3480176,30.2048458 L16.9030837,33 L21.2819383,32.9405286 L21.7753304,30.1453744 C22.9471366,29.8480176 23.9955947,29.4317181 24.9823789,28.8370044 L27.3876652,30.4427313 L30.4713656,27.469163 L28.8061674,25.1497797 C29.4229075,24.1387665 29.8546256,23.1277533 30.1013216,21.9977974 L33,21.4625551 L33,17.2400881 L30.1013216,16.8237885 Z M29.3612335,21.3436123 L29.2995595,21.5814978 C29.0528634,22.7709251 28.5594714,23.9008811 27.8810573,24.9713656 L27.6960352,25.2092511 L29.2995595,27.4096916 L27.3259912,29.3722467 L25.0440529,27.8854626 L24.7973568,28.0638767 C23.7488987,28.7180617 22.5770925,29.1938326 21.2819383,29.4911894 L20.9735683,29.4911894 L20.4801762,32.1079295 L17.6431718,32.1079295 L17.1497797,29.4911894 L16.8414097,29.4911894 C15.6079295,29.253304 14.4361233,28.777533 13.3259912,28.123348 L13.0792952,27.9449339 L10.7973568,29.4911894 L8.76211454,27.5881057 L10.3039648,25.3876652 L10.1806167,25.0903084 C9.50220264,24.0792952 9.00881057,22.9493392 8.70044053,21.7004405 L8.63876652,21.4030837 L5.92511013,20.9273128 L5.92511013,18.19163 L8.63876652,17.6563877 L8.70044053,17.3590308 C8.94713656,16.1696035 9.44052863,14.9801762 10.1189427,13.969163 L10.3039648,13.7312775 L8.70044053,11.6497797 L10.6740088,9.68722467 L12.9559471,11.1740088 L13.2026432,10.9955947 C14.2511013,10.3414097 15.4845815,9.86563877 16.7180617,9.56828194 L17.0264317,9.50881057 L17.5198238,6.89207048 L20.3568282,6.89207048 L20.9118943,9.50881057 L21.2202643,9.56828194 C22.4537445,9.8061674 23.6872247,10.2819383 24.7356828,10.9361233 L24.9823789,11.1145374 L27.2643172,9.56828194 L29.2995595,11.4713656 L27.7577093,13.6718062 L27.9427313,13.9096916 C28.6211454,14.9801762 29.1145374,16.1101322 29.4229075,17.2995595 L29.2995595,17.5969163 L32.0132159,18.0726872 L32.0132159,20.80837 L29.3612335,21.3436123 Z" id="Shape"></path>
                                        <path d="M18.5,12 C14.3661417,12 11,15.3661417 11,19.5 C11,23.6338583 14.3661417,27 18.5,27 C22.6338583,27 26,23.6338583 26,19.5 C26,15.3661417 22.6338583,12 18.5,12 Z M18.5,26.1141732 C14.8385827,26.1141732 11.8858268,23.1614173 11.8858268,19.5 C11.8858268,15.8385827 14.8385827,12.8858268 18.5,12.8858268 C22.1614173,12.8858268 25.1141732,15.8385827 25.1141732,19.5 C25.1141732,23.1614173 22.1614173,26.1141732 18.5,26.1141732 Z" id="Shape"></path>
                                    </g>
                                </g>
                            </g>
                        </g>
                    </g>
                </g>
            </g>
        </g>
    </g>
</svg>